<svg width="371" height="143" viewBox="0 0 371 143" fill="none" xmlns="http://www.w3.org/2000/svg">
<g filter="url(#filter0_d)">
<rect x="8" y="4" width="355" height="127" rx="12" fill="white"/>
</g>
<path d="M19.1689 15.3174V28H23.6426C27.4219 28 29.6455 25.6445 29.6455 21.6367C29.6455 17.6377 27.4131 15.3174 23.6426 15.3174H19.1689ZM21.1377 17.0137H23.458C26.1387 17.0137 27.6328 18.666 27.6328 21.6543C27.6328 24.6514 26.1475 26.2949 23.458 26.2949H21.1377V17.0137ZM37.4238 25.2842C37.1689 26.0928 36.3691 26.6377 35.2881 26.6377C33.7676 26.6377 32.8008 25.5742 32.8008 23.9658V23.8516H39.3311V23.2012C39.3311 20.3975 37.7314 18.5869 35.165 18.5869C32.5547 18.5869 30.8848 20.5205 30.8848 23.4209C30.8848 26.3389 32.5283 28.1758 35.2441 28.1758C37.3623 28.1758 38.9619 26.9717 39.2256 25.2842H37.4238ZM35.165 20.1162C36.4922 20.1162 37.3887 21.1094 37.4326 22.5244H32.8096C32.9062 21.127 33.8379 20.1162 35.165 20.1162ZM41.8184 17.2598C42.4248 17.2598 42.9082 16.7676 42.9082 16.1699C42.9082 15.5635 42.4248 15.0801 41.8184 15.0801C41.2119 15.0801 40.7197 15.5635 40.7197 16.1699C40.7197 16.7676 41.2119 17.2598 41.8184 17.2598ZM40.8691 28H42.7676V18.7539H40.8691V28ZM44.71 28H46.6084V22.6123C46.6084 21.1797 47.4697 20.2305 48.8057 20.2305C50.124 20.2305 50.7744 20.9951 50.7744 22.3838V28H52.6816V22.0146C52.6816 19.8965 51.5127 18.5957 49.4736 18.5957C48.0498 18.5957 47.0654 19.2461 46.5645 20.3008H46.5205V18.7539H44.71V28ZM60.3721 23.1221H63.0791L65.6631 28H67.9307L65.0918 22.8145C66.6387 22.2959 67.5527 20.9072 67.5527 19.1934C67.5527 16.8291 65.9268 15.3174 63.3164 15.3174H58.4033V28H60.3721V23.1221ZM60.3721 16.9697H63.0791C64.5996 16.9697 65.5225 17.8311 65.5225 19.2461C65.5225 20.6963 64.6523 21.5312 63.1318 21.5312H60.3721V16.9697ZM77.1592 18.7539H75.2607V24.1416C75.2607 25.583 74.4346 26.5322 73.0635 26.5322C71.7539 26.5322 71.0859 25.7764 71.0859 24.3701V18.7539H69.1875V24.7393C69.1875 26.8574 70.418 28.167 72.4307 28.167C73.8457 28.167 74.7861 27.543 75.2959 26.4355H75.3398V28H77.1592V18.7539ZM79.1104 28H81.0088V22.6562C81.0088 21.1973 81.8701 20.2305 83.2764 20.2305C84.6123 20.2305 85.2979 21.0479 85.2979 22.4102V28H87.2051V22.041C87.2051 19.9492 85.9922 18.5957 83.9619 18.5957C82.5557 18.5957 81.5449 19.2197 81.0352 20.3008H80.9912V15.3174H79.1104V28ZM95.168 25.2842C94.9131 26.0928 94.1133 26.6377 93.0322 26.6377C91.5117 26.6377 90.5449 25.5742 90.5449 23.9658V23.8516H97.0752V23.2012C97.0752 20.3975 95.4756 18.5869 92.9092 18.5869C90.2988 18.5869 88.6289 20.5205 88.6289 23.4209C88.6289 26.3389 90.2725 28.1758 92.9883 28.1758C95.1064 28.1758 96.7061 26.9717 96.9697 25.2842H95.168ZM92.9092 20.1162C94.2363 20.1162 95.1328 21.1094 95.1768 22.5244H90.5537C90.6504 21.127 91.582 20.1162 92.9092 20.1162ZM103.368 18.6045C102.032 18.6045 100.969 19.2812 100.424 20.3447H100.389V18.7539H98.5518V31.0586H100.45V26.4795H100.494C101.021 27.5078 102.076 28.1582 103.403 28.1582C105.724 28.1582 107.262 26.3037 107.262 23.377C107.262 20.4502 105.715 18.6045 103.368 18.6045ZM102.867 26.5498C101.408 26.5498 100.441 25.3018 100.441 23.377C100.441 21.4697 101.417 20.2041 102.867 20.2041C104.37 20.2041 105.311 21.4434 105.311 23.377C105.311 25.3193 104.37 26.5498 102.867 26.5498ZM116.657 18.7539H114.759V24.1416C114.759 25.583 113.933 26.5322 112.562 26.5322C111.252 26.5322 110.584 25.7764 110.584 24.3701V18.7539H108.686V24.7393C108.686 26.8574 109.916 28.167 111.929 28.167C113.344 28.167 114.284 27.543 114.794 26.4355H114.838V28H116.657V18.7539ZM118.608 28H120.507V15.3174H118.608V28ZM122.291 21.373C122.291 22.7178 123.161 23.5615 124.919 23.9658L126.422 24.3174C127.433 24.5459 127.775 24.8975 127.775 25.4951C127.775 26.251 127.072 26.7256 125.93 26.7256C124.77 26.7256 124.11 26.251 123.935 25.2842H122.054C122.229 27.042 123.618 28.1758 125.93 28.1758C128.109 28.1758 129.683 27.0156 129.683 25.3281C129.683 23.9922 128.962 23.2539 127.072 22.8145L125.569 22.4717C124.567 22.2432 124.146 21.8477 124.146 21.2676C124.146 20.5293 124.831 20.0283 125.859 20.0283C126.923 20.0283 127.582 20.5908 127.688 21.4873H129.472C129.41 19.7822 128.013 18.5869 125.859 18.5869C123.732 18.5869 122.291 19.7207 122.291 21.373ZM134.886 28H136.784V22.6562C136.784 21.1973 137.646 20.2305 139.052 20.2305C140.388 20.2305 141.073 21.0479 141.073 22.4102V28H142.98V22.041C142.98 19.9492 141.768 18.5957 139.737 18.5957C138.331 18.5957 137.32 19.2197 136.811 20.3008H136.767V15.3174H134.886V28ZM147.524 28.1582C148.737 28.1582 149.906 27.5078 150.442 26.4795H150.486V28H152.306V21.6279C152.306 19.7734 150.873 18.5869 148.632 18.5869C146.347 18.5869 144.923 19.8174 144.817 21.4873H146.61C146.777 20.6611 147.463 20.1338 148.562 20.1338C149.722 20.1338 150.416 20.749 150.416 21.7773V22.4893L147.885 22.6387C145.688 22.7617 144.448 23.7549 144.448 25.3721C144.448 27.0332 145.714 28.1582 147.524 28.1582ZM148.052 26.6553C147.032 26.6553 146.364 26.1279 146.364 25.3193C146.364 24.5283 147.006 24.0273 148.14 23.9482L150.416 23.8076V24.5371C150.416 25.7412 149.379 26.6553 148.052 26.6553ZM154.705 16.5654V18.7539H153.36V20.2568H154.705V25.5654C154.705 27.3496 155.435 28.0615 157.307 28.0615C157.729 28.0615 158.15 28.0264 158.361 27.9736V26.4707C158.238 26.4971 157.931 26.5146 157.737 26.5146C156.964 26.5146 156.612 26.1543 156.612 25.3545V20.2568H158.37V18.7539H156.612V16.5654H154.705ZM163.424 21.373C163.424 22.7178 164.294 23.5615 166.052 23.9658L167.555 24.3174C168.565 24.5459 168.908 24.8975 168.908 25.4951C168.908 26.251 168.205 26.7256 167.062 26.7256C165.902 26.7256 165.243 26.251 165.067 25.2842H163.187C163.362 27.042 164.751 28.1758 167.062 28.1758C169.242 28.1758 170.815 27.0156 170.815 25.3281C170.815 23.9922 170.095 23.2539 168.205 22.8145L166.702 22.4717C165.7 22.2432 165.278 21.8477 165.278 21.2676C165.278 20.5293 165.964 20.0283 166.992 20.0283C168.056 20.0283 168.715 20.5908 168.82 21.4873H170.604C170.543 19.7822 169.146 18.5869 166.992 18.5869C164.865 18.5869 163.424 19.7207 163.424 21.373ZM173.303 17.2598C173.909 17.2598 174.393 16.7676 174.393 16.1699C174.393 15.5635 173.909 15.0801 173.303 15.0801C172.696 15.0801 172.204 15.5635 172.204 16.1699C172.204 16.7676 172.696 17.2598 173.303 17.2598ZM172.354 28H174.252V18.7539H172.354V28ZM184.131 21.9355C183.964 20.1162 182.514 18.5869 180.132 18.5869C177.504 18.5869 175.781 20.4414 175.781 23.377C175.781 26.3652 177.504 28.1758 180.149 28.1758C182.373 28.1758 183.946 26.8398 184.148 24.8711H182.32C182.101 25.9434 181.336 26.585 180.167 26.585C178.69 26.585 177.715 25.4072 177.715 23.377C177.715 21.3906 178.682 20.1689 180.149 20.1689C181.389 20.1689 182.127 20.9512 182.32 21.9355H184.131ZM185.563 28H187.462V22.6562C187.462 21.1973 188.323 20.2305 189.729 20.2305C191.065 20.2305 191.751 21.0479 191.751 22.4102V28H193.658V22.041C193.658 19.9492 192.445 18.5957 190.415 18.5957C189.009 18.5957 187.998 19.2197 187.488 20.3008H187.444V15.3174H185.563V28ZM201.858 28.1582C203.071 28.1582 204.24 27.5078 204.776 26.4795H204.82V28H206.64V21.6279C206.64 19.7734 205.207 18.5869 202.966 18.5869C200.681 18.5869 199.257 19.8174 199.151 21.4873H200.944C201.111 20.6611 201.797 20.1338 202.896 20.1338C204.056 20.1338 204.75 20.749 204.75 21.7773V22.4893L202.219 22.6387C200.021 22.7617 198.782 23.7549 198.782 25.3721C198.782 27.0332 200.048 28.1582 201.858 28.1582ZM202.386 26.6553C201.366 26.6553 200.698 26.1279 200.698 25.3193C200.698 24.5283 201.34 24.0273 202.474 23.9482L204.75 23.8076V24.5371C204.75 25.7412 203.713 26.6553 202.386 26.6553ZM216.413 18.7539H214.515V24.1416C214.515 25.583 213.688 26.5322 212.317 26.5322C211.008 26.5322 210.34 25.7764 210.34 24.3701V18.7539H208.441V24.7393C208.441 26.8574 209.672 28.167 211.685 28.167C213.1 28.167 214.04 27.543 214.55 26.4355H214.594V28H216.413V18.7539ZM218.848 28H220.755V20.2568H222.601V18.7715H220.729V17.9014C220.729 17.084 221.115 16.6709 221.941 16.6709C222.196 16.6709 222.451 16.6885 222.636 16.7236V15.3174C222.39 15.2734 221.959 15.2295 221.572 15.2295C219.691 15.2295 218.848 16.0732 218.848 17.8662V18.7715H217.573V20.2568H218.848V28ZM232.567 28.2461C235.248 28.2461 237.199 26.4004 237.199 23.8516C237.199 21.4521 235.45 19.6768 233.024 19.6768C231.302 19.6768 230.019 20.5732 229.509 21.7246H229.474C229.5 18.5693 230.607 16.7236 232.62 16.7236C233.833 16.7236 234.712 17.3389 235.055 18.3936H237.032C236.654 16.3984 234.905 15.0713 232.638 15.0713C229.465 15.0713 227.584 17.585 227.584 21.8301C227.584 26.4268 229.983 28.2461 232.567 28.2461ZM232.541 26.585C231.038 26.585 229.86 25.3896 229.86 23.8779C229.86 22.375 231.012 21.2764 232.567 21.2764C234.123 21.2764 235.239 22.3838 235.239 23.9219C235.239 25.4072 234.044 26.585 232.541 26.585ZM243.51 28.2373C246.56 28.2373 248.353 25.6797 248.353 21.6367C248.353 17.6201 246.542 15.0801 243.51 15.0801C240.478 15.0801 238.649 17.6289 238.649 21.6455C238.649 25.6885 240.451 28.2373 243.51 28.2373ZM243.51 26.585C241.673 26.585 240.645 24.7129 240.645 21.6455C240.645 18.6221 241.699 16.7324 243.51 16.7324C245.32 16.7324 246.366 18.6133 246.366 21.6455C246.366 24.7217 245.338 26.585 243.51 26.585ZM259.031 28C261.729 28 263.355 26.6465 263.355 24.4141C263.355 22.7266 262.195 21.5049 260.473 21.3115V21.2412C261.738 21.0303 262.731 19.8262 262.731 18.4814C262.731 16.5654 261.255 15.3174 259.005 15.3174H253.942V28H259.031ZM255.911 16.9258H258.53C259.954 16.9258 260.763 17.5762 260.763 18.7539C260.763 20.0107 259.822 20.7139 258.117 20.7139H255.911V16.9258ZM255.911 26.3916V22.2168H258.513C260.376 22.2168 261.343 22.9199 261.343 24.291C261.343 25.6621 260.402 26.3916 258.627 26.3916H255.911ZM265.052 15.3174V28H267.021V23.667H269.745C272.232 23.667 273.981 21.9619 273.981 19.4834C273.981 17.0137 272.268 15.3174 269.807 15.3174H265.052ZM267.021 16.9785H269.288C270.993 16.9785 271.969 17.8926 271.969 19.4922C271.969 21.0918 270.993 22.0146 269.279 22.0146H267.021V16.9785ZM288.536 28V15.3174H286.251L282.155 25.4248H282.085L277.98 15.3174H275.704V28H277.497V18.666H277.559L281.391 28H282.85L286.673 18.666H286.734V28H288.536ZM22.8955 52.4805C25.5322 52.4805 27.2373 51.0391 27.2373 48.833V39.7539H25.3916V41.3359H25.3564C24.7939 40.2637 23.7217 39.6045 22.4121 39.6045C20.0391 39.6045 18.5273 41.4326 18.5273 44.3418C18.5273 47.2246 20.0479 49.0352 22.3682 49.0352C23.6865 49.0352 24.7764 48.376 25.2949 47.374H25.3301V48.8945C25.3301 50.1602 24.4512 51.0039 22.9658 51.0039C21.8848 51.0039 21.041 50.4941 20.7686 49.7207H18.8613C19.0986 51.3203 20.7158 52.4805 22.8955 52.4805ZM22.8779 47.4619C21.4189 47.4619 20.4697 46.2842 20.4697 44.3506C20.4697 42.4258 21.4189 41.2041 22.8779 41.2041C24.3633 41.2041 25.3389 42.4521 25.3389 44.3506C25.3389 46.2578 24.3633 47.4619 22.8779 47.4619ZM35.2441 46.2842C34.9893 47.0928 34.1895 47.6377 33.1084 47.6377C31.5879 47.6377 30.6211 46.5742 30.6211 44.9658V44.8516H37.1514V44.2012C37.1514 41.3975 35.5518 39.5869 32.9854 39.5869C30.375 39.5869 28.7051 41.5205 28.7051 44.4209C28.7051 47.3389 30.3486 49.1758 33.0645 49.1758C35.1826 49.1758 36.7822 47.9717 37.0459 46.2842H35.2441ZM32.9854 41.1162C34.3125 41.1162 35.209 42.1094 35.2529 43.5244H30.6299C30.7266 42.127 31.6582 41.1162 32.9854 41.1162ZM38.4609 42.373C38.4609 43.7178 39.3311 44.5615 41.0889 44.9658L42.5918 45.3174C43.6025 45.5459 43.9453 45.8975 43.9453 46.4951C43.9453 47.251 43.2422 47.7256 42.0996 47.7256C40.9395 47.7256 40.2803 47.251 40.1045 46.2842H38.2236C38.3994 48.042 39.7881 49.1758 42.0996 49.1758C44.2793 49.1758 45.8525 48.0156 45.8525 46.3281C45.8525 44.9922 45.1318 44.2539 43.2422 43.8145L41.7393 43.4717C40.7373 43.2432 40.3154 42.8477 40.3154 42.2676C40.3154 41.5293 41.001 41.0283 42.0293 41.0283C43.0928 41.0283 43.752 41.5908 43.8574 42.4873H45.6416C45.5801 40.7822 44.1826 39.5869 42.0293 39.5869C39.9023 39.5869 38.4609 40.7207 38.4609 42.373ZM53.4551 46.2842C53.2002 47.0928 52.4004 47.6377 51.3193 47.6377C49.7988 47.6377 48.832 46.5742 48.832 44.9658V44.8516H55.3623V44.2012C55.3623 41.3975 53.7627 39.5869 51.1963 39.5869C48.5859 39.5869 46.916 41.5205 46.916 44.4209C46.916 47.3389 48.5596 49.1758 51.2754 49.1758C53.3936 49.1758 54.9932 47.9717 55.2568 46.2842H53.4551ZM51.1963 41.1162C52.5234 41.1162 53.4199 42.1094 53.4639 43.5244H48.8408C48.9375 42.127 49.8691 41.1162 51.1963 41.1162ZM56.8389 49H58.7373V43.6123C58.7373 42.1797 59.5986 41.2305 60.9346 41.2305C62.2529 41.2305 62.9033 41.9951 62.9033 43.3838V49H64.8105V43.0146C64.8105 40.8965 63.6416 39.5957 61.6025 39.5957C60.1787 39.5957 59.1943 40.2461 58.6934 41.3008H58.6494V39.7539H56.8389V49ZM68.6338 43.7178H68.6162V36.3174H66.7178V49H68.6162V45.6777L69.4072 44.8955L72.5449 49H74.751L70.7695 43.7354L74.6016 39.7539H72.3691L68.6338 43.7178ZM76.2891 37.5654V39.7539H74.9443V41.2568H76.2891V46.5654C76.2891 48.3496 77.0186 49.0615 78.8906 49.0615C79.3125 49.0615 79.7344 49.0264 79.9453 48.9736V47.4707C79.8223 47.4971 79.5146 47.5146 79.3213 47.5146C78.5479 47.5146 78.1963 47.1543 78.1963 46.3545V41.2568H79.9541V39.7539H78.1963V37.5654H76.2891Z" fill="black"/>
<path d="M18 81C18 74.3726 23.3726 69 30 69H45.2372C51.8646 69 57.2372 74.3726 57.2372 81V119C57.2372 125.627 51.8646 131 45.2372 131H30C23.3726 131 18 125.627 18 119V81Z" fill="#FF5A5F"/>
<path d="M67.2938 85.7692C67.2938 79.1418 72.6664 73.7692 79.2938 73.7692H94.531C101.158 73.7692 106.531 79.1418 106.531 85.7692V119C106.531 125.627 101.158 131 94.531 131H79.2938C72.6664 131 67.2938 125.627 67.2938 119V85.7692Z" fill="#FF5A5F"/>
<path d="M116.588 90.972C116.588 84.3446 121.96 78.972 128.588 78.972H143.825C150.452 78.972 155.825 84.3446 155.825 90.972V119C155.825 125.627 150.452 131 143.825 131H128.588C121.96 131 116.588 125.627 116.588 119V90.972Z" fill="#FF5A5F"/>
<path d="M165.881 88.3706C165.881 81.7432 171.254 76.3706 177.881 76.3706H193.119C199.746 76.3706 205.119 81.7432 205.119 88.3706V119C205.119 125.627 199.746 131 193.119 131H177.881C171.254 131 165.881 125.627 165.881 119V88.3706Z" fill="#FF5A5F"/>
<path d="M215.175 96.6084C215.175 89.981 220.548 84.6084 227.175 84.6084H242.412C249.04 84.6084 254.412 89.981 254.412 96.6084V119C254.412 125.627 249.04 131 242.412 131H227.175C220.548 131 215.175 125.627 215.175 119V96.6084Z" fill="#FF5A5F"/>
<path d="M264.469 100.944C264.469 94.3166 269.842 88.9441 276.469 88.9441H291.706C298.334 88.9441 303.706 94.3166 303.706 100.944V119C303.706 125.627 298.334 131 291.706 131H276.469C269.842 131 264.469 125.627 264.469 119V100.944Z" fill="#FF5A5F"/>
<path d="M313.763 105.28C313.763 98.6523 319.135 93.2797 325.763 93.2797H341C347.627 93.2797 353 98.6523 353 105.28V119C353 125.627 347.627 131 341 131H325.763C319.135 131 313.763 125.627 313.763 119V105.28Z" fill="#FF5A5F"/>
<path d="M341 34C346.523 34 351 29.5228 351 24C351 18.4772 346.523 14 341 14C335.477 14 331 18.4772 331 24C331 29.5228 335.477 34 341 34Z" stroke="#5C6166" stroke-width="2" stroke-linecap="round" stroke-linejoin="round"/>
<path d="M341 28V24" stroke="#5C6166" stroke-width="2" stroke-linecap="round" stroke-linejoin="round"/>
<path d="M341 20H341.01" stroke="#5C6166" stroke-width="2" stroke-linecap="round" stroke-linejoin="round"/>
<defs>
<filter id="filter0_d" x="0" y="0" width="371" height="143" filterUnits="userSpaceOnUse" color-interpolation-filters="sRGB">
<feFlood flood-opacity="0" result="BackgroundImageFix"/>
<feColorMatrix in="SourceAlpha" type="matrix" values="0 0 0 0 0 0 0 0 0 0 0 0 0 0 0 0 0 0 127 0"/>
<feOffset dy="4"/>
<feGaussianBlur stdDeviation="4"/>
<feColorMatrix type="matrix" values="0 0 0 0 0 0 0 0 0 0 0 0 0 0 0 0 0 0 0.08 0"/>
<feBlend mode="normal" in2="BackgroundImageFix" result="effect1_dropShadow"/>
<feBlend mode="normal" in="SourceGraphic" in2="effect1_dropShadow" result="shape"/>
</filter>
</defs>
</svg>
