<svg width="371" height="305" viewBox="0 0 371 305" fill="none" xmlns="http://www.w3.org/2000/svg">
<g filter="url(#filter0_d)">
<rect x="8" y="4" width="355" height="289" rx="12" fill="white"/>
</g>
<g filter="url(#filter1_d)">
<rect x="289" y="50" width="64" height="64" rx="12" fill="#00A699"/>
</g>
<path d="M300.234 93H304.906V70.4531H300.219L294.391 74.5V78.6875L300.141 74.7812H300.234V93ZM309.703 77.3125H314.078C314.078 75.1406 315.781 73.625 318.031 73.625C320.062 73.625 321.453 75 321.453 76.8125C321.453 78.375 320.812 79.4531 317.953 82.2031L309.969 89.7656V93H326.359V89.25H316.141V89.1562L320.875 84.625C324.688 80.9844 326.047 79.2812 326.047 76.5156C326.047 72.7656 322.859 69.9531 318.031 69.9531C313.141 69.9531 309.703 72.9688 309.703 77.3125ZM338.125 93.5C343.5 93.5 347.266 90.8125 347.266 86.9062C347.266 83.9375 345.094 81.75 342.016 81.1406V81.0469C344.656 80.3906 346.438 78.4531 346.438 76.0312C346.438 72.5 343.016 69.9531 338.125 69.9531C333.234 69.9531 329.797 72.5156 329.797 76.0156C329.797 78.4688 331.594 80.4062 334.25 81.0469V81.1406C331.172 81.7344 328.984 83.9219 328.984 86.8906C328.984 90.7969 332.734 93.5 338.125 93.5ZM338.125 79.625C335.984 79.625 334.469 78.3438 334.469 76.5C334.469 74.6406 335.984 73.3594 338.125 73.3594C340.25 73.3594 341.781 74.6406 341.781 76.5C341.781 78.3438 340.25 79.625 338.125 79.625ZM338.125 90.0625C335.641 90.0625 333.906 88.5938 333.906 86.5469C333.906 84.5312 335.641 83.0625 338.125 83.0625C340.609 83.0625 342.328 84.5156 342.328 86.5469C342.328 88.5938 340.609 90.0625 338.125 90.0625Z" fill="white"/>
<path d="M21.1689 18.3174V31H25.6426C29.4219 31 31.6455 28.6445 31.6455 24.6367C31.6455 20.6377 29.4131 18.3174 25.6426 18.3174H21.1689ZM23.1377 20.0137H25.458C28.1387 20.0137 29.6328 21.666 29.6328 24.6543C29.6328 27.6514 28.1475 29.2949 25.458 29.2949H23.1377V20.0137ZM39.4238 28.2842C39.1689 29.0928 38.3691 29.6377 37.2881 29.6377C35.7676 29.6377 34.8008 28.5742 34.8008 26.9658V26.8516H41.3311V26.2012C41.3311 23.3975 39.7314 21.5869 37.165 21.5869C34.5547 21.5869 32.8848 23.5205 32.8848 26.4209C32.8848 29.3389 34.5283 31.1758 37.2441 31.1758C39.3623 31.1758 40.9619 29.9717 41.2256 28.2842H39.4238ZM37.165 23.1162C38.4922 23.1162 39.3887 24.1094 39.4326 25.5244H34.8096C34.9062 24.127 35.8379 23.1162 37.165 23.1162ZM43.8184 20.2598C44.4248 20.2598 44.9082 19.7676 44.9082 19.1699C44.9082 18.5635 44.4248 18.0801 43.8184 18.0801C43.2119 18.0801 42.7197 18.5635 42.7197 19.1699C42.7197 19.7676 43.2119 20.2598 43.8184 20.2598ZM42.8691 31H44.7676V21.7539H42.8691V31ZM46.71 31H48.6084V25.6123C48.6084 24.1797 49.4697 23.2305 50.8057 23.2305C52.124 23.2305 52.7744 23.9951 52.7744 25.3838V31H54.6816V25.0146C54.6816 22.8965 53.5127 21.5957 51.4736 21.5957C50.0498 21.5957 49.0654 22.2461 48.5645 23.3008H48.5205V21.7539H46.71V31ZM59.832 27.5195C59.9551 29.7783 61.8623 31.2109 64.7275 31.2109C67.6807 31.2109 69.5615 29.708 69.5615 27.3174C69.5615 25.4717 68.4717 24.4082 65.8174 23.8457L64.4287 23.5557C62.7852 23.2041 62.1348 22.5889 62.1348 21.666C62.1348 20.5059 63.2246 19.7852 64.71 19.7852C66.248 19.7852 67.2939 20.5674 67.417 21.8418H69.3242C69.2627 19.627 67.4258 18.1064 64.7363 18.1064C62.0381 18.1064 60.1309 19.6006 60.1309 21.7715C60.1309 23.5996 61.2822 24.7773 63.8223 25.3135L65.2021 25.6035C66.8984 25.9727 67.5664 26.5879 67.5664 27.5723C67.5664 28.7061 66.415 29.5322 64.8066 29.5322C63.1191 29.5322 61.9238 28.7764 61.748 27.5195H59.832ZM79.0449 24.9355C78.8779 23.1162 77.4277 21.5869 75.0459 21.5869C72.418 21.5869 70.6953 23.4414 70.6953 26.377C70.6953 29.3652 72.418 31.1758 75.0635 31.1758C77.2871 31.1758 78.8604 29.8398 79.0625 27.8711H77.2344C77.0146 28.9434 76.25 29.585 75.0811 29.585C73.6045 29.585 72.6289 28.4072 72.6289 26.377C72.6289 24.3906 73.5957 23.1689 75.0635 23.1689C76.3027 23.1689 77.041 23.9512 77.2344 24.9355H79.0449ZM84.3799 31.1758C87.0254 31.1758 88.7656 29.3564 88.7656 26.377C88.7656 23.4062 87.0166 21.5869 84.3799 21.5869C81.7432 21.5869 79.9941 23.4062 79.9941 26.377C79.9941 29.3564 81.7344 31.1758 84.3799 31.1758ZM84.3799 29.6113C82.8945 29.6113 81.9277 28.4336 81.9277 26.377C81.9277 24.3291 82.8945 23.1514 84.3799 23.1514C85.8652 23.1514 86.832 24.3291 86.832 26.377C86.832 28.4336 85.874 29.6113 84.3799 29.6113ZM90.2334 31H92.1318V25.4629C92.1318 24.1533 92.8877 23.3359 94.1094 23.3359C94.4785 23.3359 94.8125 23.3799 94.9619 23.4414V21.6748C94.8213 21.6484 94.584 21.6045 94.3115 21.6045C93.2217 21.6045 92.3955 22.2461 92.0879 23.3271H92.0439V21.7539H90.2334V31ZM101.861 28.2842C101.606 29.0928 100.807 29.6377 99.7256 29.6377C98.2051 29.6377 97.2383 28.5742 97.2383 26.9658V26.8516H103.769V26.2012C103.769 23.3975 102.169 21.5869 99.6025 21.5869C96.9922 21.5869 95.3223 23.5205 95.3223 26.4209C95.3223 29.3389 96.9658 31.1758 99.6816 31.1758C101.8 31.1758 103.399 29.9717 103.663 28.2842H101.861ZM99.6025 23.1162C100.93 23.1162 101.826 24.1094 101.87 25.5244H97.2471C97.3438 24.127 98.2754 23.1162 99.6025 23.1162ZM108.972 31H110.87V25.6562C110.87 24.1973 111.731 23.2305 113.138 23.2305C114.474 23.2305 115.159 24.0479 115.159 25.4102V31H117.066V25.041C117.066 22.9492 115.854 21.5957 113.823 21.5957C112.417 21.5957 111.406 22.2197 110.896 23.3008H110.853V18.3174H108.972V31ZM121.61 31.1582C122.823 31.1582 123.992 30.5078 124.528 29.4795H124.572V31H126.392V24.6279C126.392 22.7734 124.959 21.5869 122.718 21.5869C120.433 21.5869 119.009 22.8174 118.903 24.4873H120.696C120.863 23.6611 121.549 23.1338 122.647 23.1338C123.808 23.1338 124.502 23.749 124.502 24.7773V25.4893L121.971 25.6387C119.773 25.7617 118.534 26.7549 118.534 28.3721C118.534 30.0332 119.8 31.1582 121.61 31.1582ZM122.138 29.6553C121.118 29.6553 120.45 29.1279 120.45 28.3193C120.45 27.5283 121.092 27.0273 122.226 26.9482L124.502 26.8076V27.5371C124.502 28.7412 123.465 29.6553 122.138 29.6553ZM128.791 19.5654V21.7539H127.446V23.2568H128.791V28.5654C128.791 30.3496 129.521 31.0615 131.393 31.0615C131.814 31.0615 132.236 31.0264 132.447 30.9736V29.4707C132.324 29.4971 132.017 29.5146 131.823 29.5146C131.05 29.5146 130.698 29.1543 130.698 28.3545V23.2568H132.456V21.7539H130.698V19.5654H128.791ZM137.51 24.373C137.51 25.7178 138.38 26.5615 140.138 26.9658L141.641 27.3174C142.651 27.5459 142.994 27.8975 142.994 28.4951C142.994 29.251 142.291 29.7256 141.148 29.7256C139.988 29.7256 139.329 29.251 139.153 28.2842H137.272C137.448 30.042 138.837 31.1758 141.148 31.1758C143.328 31.1758 144.901 30.0156 144.901 28.3281C144.901 26.9922 144.181 26.2539 142.291 25.8145L140.788 25.4717C139.786 25.2432 139.364 24.8477 139.364 24.2676C139.364 23.5293 140.05 23.0283 141.078 23.0283C142.142 23.0283 142.801 23.5908 142.906 24.4873H144.69C144.629 22.7822 143.231 21.5869 141.078 21.5869C138.951 21.5869 137.51 22.7207 137.51 24.373ZM147.389 20.2598C147.995 20.2598 148.479 19.7676 148.479 19.1699C148.479 18.5635 147.995 18.0801 147.389 18.0801C146.782 18.0801 146.29 18.5635 146.29 19.1699C146.29 19.7676 146.782 20.2598 147.389 20.2598ZM146.439 31H148.338V21.7539H146.439V31ZM158.217 24.9355C158.05 23.1162 156.6 21.5869 154.218 21.5869C151.59 21.5869 149.867 23.4414 149.867 26.377C149.867 29.3652 151.59 31.1758 154.235 31.1758C156.459 31.1758 158.032 29.8398 158.234 27.8711H156.406C156.187 28.9434 155.422 29.585 154.253 29.585C152.776 29.585 151.801 28.4072 151.801 26.377C151.801 24.3906 152.768 23.1689 154.235 23.1689C155.475 23.1689 156.213 23.9512 156.406 24.9355H158.217ZM159.649 31H161.548V25.6562C161.548 24.1973 162.409 23.2305 163.815 23.2305C165.151 23.2305 165.837 24.0479 165.837 25.4102V31H167.744V25.041C167.744 22.9492 166.531 21.5957 164.501 21.5957C163.095 21.5957 162.084 22.2197 161.574 23.3008H161.53V18.3174H159.649V31ZM174.248 20.2598C174.854 20.2598 175.338 19.7676 175.338 19.1699C175.338 18.5635 174.854 18.0801 174.248 18.0801C173.642 18.0801 173.149 18.5635 173.149 19.1699C173.149 19.7676 173.642 20.2598 174.248 20.2598ZM173.299 31H175.197V21.7539H173.299V31ZM177.14 31H179.038V25.6123C179.038 24.1797 179.899 23.2305 181.235 23.2305C182.554 23.2305 183.204 23.9951 183.204 25.3838V31H185.111V25.0146C185.111 22.8965 183.942 21.5957 181.903 21.5957C180.479 21.5957 179.495 22.2461 178.994 23.3008H178.95V21.7539H177.14V31ZM194.076 31.1582C195.421 31.1582 196.476 30.4814 197.021 29.4268H197.056V31H198.901V18.3174H196.994V23.292H196.959C196.44 22.2725 195.386 21.6045 194.059 21.6045C191.738 21.6045 190.191 23.459 190.191 26.377C190.191 29.2949 191.738 31.1582 194.076 31.1582ZM194.577 23.2041C196.036 23.2041 197.012 24.4609 197.012 26.377C197.012 28.3105 196.036 29.5498 194.577 29.5498C193.074 29.5498 192.134 28.3281 192.134 26.377C192.134 24.4346 193.074 23.2041 194.577 23.2041ZM206.979 28.2842C206.724 29.0928 205.924 29.6377 204.843 29.6377C203.322 29.6377 202.355 28.5742 202.355 26.9658V26.8516H208.886V26.2012C208.886 23.3975 207.286 21.5869 204.72 21.5869C202.109 21.5869 200.439 23.5205 200.439 26.4209C200.439 29.3389 202.083 31.1758 204.799 31.1758C206.917 31.1758 208.517 29.9717 208.78 28.2842H206.979ZM204.72 23.1162C206.047 23.1162 206.943 24.1094 206.987 25.5244H202.364C202.461 24.127 203.393 23.1162 204.72 23.1162ZM210.362 31H212.261V25.6123C212.261 24.1797 213.122 23.2305 214.458 23.2305C215.776 23.2305 216.427 23.9951 216.427 25.3838V31H218.334V25.0146C218.334 22.8965 217.165 21.5957 215.126 21.5957C213.702 21.5957 212.718 22.2461 212.217 23.3008H212.173V21.7539H210.362V31ZM223.897 31H225.796V18.3174H223.897V31ZM233.873 28.2842C233.618 29.0928 232.818 29.6377 231.737 29.6377C230.217 29.6377 229.25 28.5742 229.25 26.9658V26.8516H235.78V26.2012C235.78 23.3975 234.181 21.5869 231.614 21.5869C229.004 21.5869 227.334 23.5205 227.334 26.4209C227.334 29.3389 228.978 31.1758 231.693 31.1758C233.812 31.1758 235.411 29.9717 235.675 28.2842H233.873ZM231.614 23.1162C232.941 23.1162 233.838 24.1094 233.882 25.5244H229.259C229.355 24.127 230.287 23.1162 231.614 23.1162ZM237.811 19.5654V21.7539H236.466V23.2568H237.811V28.5654C237.811 30.3496 238.54 31.0615 240.412 31.0615C240.834 31.0615 241.256 31.0264 241.467 30.9736V29.4707C241.344 29.4971 241.036 29.5146 240.843 29.5146C240.069 29.5146 239.718 29.1543 239.718 28.3545V23.2568H241.476V21.7539H239.718V19.5654H237.811ZM242.847 31H250.01V29.4883H245.149V29.4531L249.957 23.0547V21.7539H242.882V23.2656H247.777V23.3008L242.847 29.7783V31ZM252.26 19.5654V21.7539H250.915V23.2568H252.26V28.5654C252.26 30.3496 252.989 31.0615 254.861 31.0615C255.283 31.0615 255.705 31.0264 255.916 30.9736V29.4707C255.793 29.4971 255.485 29.5146 255.292 29.5146C254.519 29.5146 254.167 29.1543 254.167 28.3545V23.2568H255.925V21.7539H254.167V19.5654H252.26ZM263.387 28.2842C263.132 29.0928 262.332 29.6377 261.251 29.6377C259.73 29.6377 258.764 28.5742 258.764 26.9658V26.8516H265.294V26.2012C265.294 23.3975 263.694 21.5869 261.128 21.5869C258.518 21.5869 256.848 23.5205 256.848 26.4209C256.848 29.3389 258.491 31.1758 261.207 31.1758C263.325 31.1758 264.925 29.9717 265.188 28.2842H263.387ZM261.128 23.1162C262.455 23.1162 263.352 24.1094 263.396 25.5244H258.772C258.869 24.127 259.801 23.1162 261.128 23.1162ZM266.771 31H268.669V25.6123C268.669 24.1797 269.53 23.2305 270.866 23.2305C272.185 23.2305 272.835 23.9951 272.835 25.3838V31H274.742V25.0146C274.742 22.8965 273.573 21.5957 271.534 21.5957C270.11 21.5957 269.126 22.2461 268.625 23.3008H268.581V21.7539H266.771V31ZM280.174 22.0527H282.037C282.037 20.6992 283.136 19.7061 284.586 19.7061C285.931 19.7061 286.81 20.6201 286.81 21.7891C286.81 22.7822 286.423 23.4326 284.753 25.1377L280.279 29.6465V31H288.954V29.3389H282.916V29.2949L285.799 26.4033C288.066 24.1357 288.752 23.125 288.752 21.666C288.752 19.6709 287.073 18.0801 284.586 18.0801C282.037 18.0801 280.174 19.75 280.174 22.0527ZM28.4023 42.4375H28.4902L31.2324 52H33.0869L36.5146 39.3174H34.4668L32.1201 49.249H32.0498L29.3604 39.3174H27.5322L24.8516 49.249H24.7812L22.4346 39.3174H20.3867L23.8057 52H25.6689L28.4023 42.4375ZM40.8213 52.1758C43.4668 52.1758 45.207 50.3564 45.207 47.377C45.207 44.4062 43.458 42.5869 40.8213 42.5869C38.1846 42.5869 36.4355 44.4062 36.4355 47.377C36.4355 50.3564 38.1758 52.1758 40.8213 52.1758ZM40.8213 50.6113C39.3359 50.6113 38.3691 49.4336 38.3691 47.377C38.3691 45.3291 39.3359 44.1514 40.8213 44.1514C42.3066 44.1514 43.2734 45.3291 43.2734 47.377C43.2734 49.4336 42.3154 50.6113 40.8213 50.6113ZM54.6113 45.9355C54.4443 44.1162 52.9941 42.5869 50.6123 42.5869C47.9844 42.5869 46.2617 44.4414 46.2617 47.377C46.2617 50.3652 47.9844 52.1758 50.6299 52.1758C52.8535 52.1758 54.4268 50.8398 54.6289 48.8711H52.8008C52.5811 49.9434 51.8164 50.585 50.6475 50.585C49.1709 50.585 48.1953 49.4072 48.1953 47.377C48.1953 45.3906 49.1621 44.1689 50.6299 44.1689C51.8691 44.1689 52.6074 44.9512 52.8008 45.9355H54.6113ZM56.0439 52H57.9424V46.6562C57.9424 45.1973 58.8037 44.2305 60.21 44.2305C61.5459 44.2305 62.2314 45.0479 62.2314 46.4102V52H64.1387V46.041C64.1387 43.9492 62.9258 42.5957 60.8955 42.5957C59.4893 42.5957 58.4785 43.2197 57.9688 44.3008H57.9248V39.3174H56.0439V52ZM72.1016 49.2842C71.8467 50.0928 71.0469 50.6377 69.9658 50.6377C68.4453 50.6377 67.4785 49.5742 67.4785 47.9658V47.8516H74.0088V47.2012C74.0088 44.3975 72.4092 42.5869 69.8428 42.5869C67.2324 42.5869 65.5625 44.5205 65.5625 47.4209C65.5625 50.3389 67.2061 52.1758 69.9219 52.1758C72.04 52.1758 73.6396 50.9717 73.9033 49.2842H72.1016ZM69.8428 44.1162C71.1699 44.1162 72.0664 45.1094 72.1104 46.5244H67.4873C67.584 45.127 68.5156 44.1162 69.8428 44.1162ZM75.4854 52H77.3838V46.6123C77.3838 45.1797 78.2451 44.2305 79.5811 44.2305C80.8994 44.2305 81.5498 44.9951 81.5498 46.3838V52H83.457V46.0146C83.457 43.8965 82.2881 42.5957 80.249 42.5957C78.8252 42.5957 77.8408 43.2461 77.3398 44.3008H77.2959V42.7539H75.4854V52ZM95.0762 49.2842C94.8213 50.0928 94.0215 50.6377 92.9404 50.6377C91.4199 50.6377 90.4531 49.5742 90.4531 47.9658V47.8516H96.9834V47.2012C96.9834 44.3975 95.3838 42.5869 92.8174 42.5869C90.207 42.5869 88.5371 44.5205 88.5371 47.4209C88.5371 50.3389 90.1807 52.1758 92.8965 52.1758C95.0146 52.1758 96.6143 50.9717 96.8779 49.2842H95.0762ZM92.8174 44.1162C94.1445 44.1162 95.041 45.1094 95.085 46.5244H90.4619C90.5586 45.127 91.4902 44.1162 92.8174 44.1162ZM98.46 52H100.358V46.4629C100.358 45.1533 101.114 44.3359 102.336 44.3359C102.705 44.3359 103.039 44.3799 103.188 44.4414V42.6748C103.048 42.6484 102.811 42.6045 102.538 42.6045C101.448 42.6045 100.622 43.2461 100.314 44.3271H100.271V42.7539H98.46V52ZM104.437 52H106.335V46.6562C106.335 45.1973 107.196 44.2305 108.603 44.2305C109.938 44.2305 110.624 45.0479 110.624 46.4102V52H112.531V46.041C112.531 43.9492 111.318 42.5957 109.288 42.5957C107.882 42.5957 106.871 43.2197 106.361 44.3008H106.317V39.3174H104.437V52ZM116.627 41.2334C117.225 41.2334 117.699 40.7588 117.699 40.1699C117.699 39.5811 117.225 39.1064 116.627 39.1064C116.038 39.1064 115.563 39.5811 115.563 40.1699C115.563 40.7588 116.038 41.2334 116.627 41.2334ZM120.063 41.2334C120.661 41.2334 121.127 40.7588 121.127 40.1699C121.127 39.5811 120.661 39.1064 120.063 39.1064C119.466 39.1064 118.991 39.5811 118.991 40.1699C118.991 40.7588 119.466 41.2334 120.063 41.2334ZM118.341 52.1758C120.986 52.1758 122.727 50.3564 122.727 47.377C122.727 44.4062 120.978 42.5869 118.341 42.5869C115.704 42.5869 113.955 44.4062 113.955 47.377C113.955 50.3564 115.695 52.1758 118.341 52.1758ZM118.341 50.6113C116.855 50.6113 115.889 49.4336 115.889 47.377C115.889 45.3291 116.855 44.1514 118.341 44.1514C119.826 44.1514 120.793 45.3291 120.793 47.377C120.793 49.4336 119.835 50.6113 118.341 50.6113ZM124.265 52H126.163V46.6562C126.163 45.1973 127.024 44.2305 128.431 44.2305C129.767 44.2305 130.452 45.0479 130.452 46.4102V52H132.359V46.041C132.359 43.9492 131.146 42.5957 129.116 42.5957C127.71 42.5957 126.699 43.2197 126.189 44.3008H126.146V39.3174H124.265V52ZM134.75 40.5654V42.7539H133.405V44.2568H134.75V49.5654C134.75 51.3496 135.479 52.0615 137.352 52.0615C137.773 52.0615 138.195 52.0264 138.406 51.9736V50.4707C138.283 50.4971 137.976 50.5146 137.782 50.5146C137.009 50.5146 136.657 50.1543 136.657 49.3545V44.2568H138.415V42.7539H136.657V40.5654H134.75ZM140.621 39.3174L140.762 47.7988H142.44L142.581 39.3174H140.621ZM141.597 52.1318C142.256 52.1318 142.757 51.6396 142.757 50.998C142.757 50.3564 142.256 49.8643 141.597 49.8643C140.955 49.8643 140.445 50.3564 140.445 50.998C140.445 51.6396 140.955 52.1318 141.597 52.1318Z" fill="black"/>
<path d="M19.0938 64.7266V76H22.8828C26.2344 76 28.2031 73.9141 28.2031 70.3594C28.2031 66.8125 26.2266 64.7266 22.8828 64.7266H19.0938ZM20.5 65.9922H22.7891C25.3516 65.9922 26.7656 67.5547 26.7656 70.375C26.7656 73.1719 25.3438 74.7344 22.7891 74.7344H20.5V65.9922ZM32.1172 76.1406C33.2109 76.1406 34.2422 75.5312 34.7266 74.6016H34.7578V76H36.0469V70.3828C36.0469 68.7656 34.8438 67.7344 32.9375 67.7344C31.0156 67.7344 29.8125 68.8125 29.7188 70.2188H31.0312C31.2031 69.4219 31.8594 68.9297 32.9062 68.9297C34.0312 68.9297 34.6875 69.5234 34.6875 70.5156V71.1953L32.3594 71.3281C30.4844 71.4375 29.4141 72.3125 29.4141 73.7031C29.4141 75.1641 30.5 76.1406 32.1172 76.1406ZM32.4219 74.9844C31.4453 74.9844 30.7969 74.4766 30.7969 73.7031C30.7969 72.9375 31.4219 72.4531 32.5156 72.3828L34.6875 72.25V72.9141C34.6875 74.0859 33.7031 74.9844 32.4219 74.9844ZM40.8516 76.1406C42.0234 76.1406 42.9531 75.5625 43.4766 74.625H43.5V76H44.7969V64.7266H43.4375V69.1953H43.4062C42.9219 68.3047 41.9844 67.7344 40.8203 67.7344C38.7734 67.7344 37.375 69.3906 37.375 71.9375C37.375 74.4844 38.7812 76.1406 40.8516 76.1406ZM41.1094 68.9297C42.5078 68.9297 43.4453 70.125 43.4453 71.9375C43.4453 73.7578 42.5078 74.9453 41.1094 74.9453C39.6719 74.9453 38.7656 73.7812 38.7656 71.9375C38.7656 70.1016 39.6719 68.9297 41.1094 68.9297ZM53.3047 67.875H51.9453V72.6484C51.9453 74.0312 51.1484 74.9375 49.8281 74.9375C48.5703 74.9375 47.9531 74.2266 47.9531 72.9062V67.875H46.5938V73.1484C46.5938 74.9922 47.6328 76.1406 49.4062 76.1406C50.6562 76.1406 51.5 75.6172 51.9844 74.6797H52.0156V76H53.3047V67.875ZM55.0703 76H56.4297V70.9375C56.4297 69.7891 57.1172 69.0312 58.1719 69.0312C58.5 69.0312 58.7891 69.0703 58.8984 69.1094V67.7891C58.7891 67.7734 58.5859 67.7344 58.3516 67.7344C57.3984 67.7344 56.6484 68.3047 56.3828 69.2031H56.3516V67.875H55.0703V76ZM66.3672 70.5391C66.1953 69.0781 64.9844 67.7344 62.9531 67.7344C60.7109 67.7344 59.2188 69.375 59.2188 71.9375C59.2188 74.5547 60.7188 76.1406 62.9688 76.1406C64.8125 76.1406 66.1719 75 66.3828 73.3828H65.0469C64.8125 74.3594 64.0859 74.9453 62.9766 74.9453C61.5703 74.9453 60.6016 73.8281 60.6016 71.9375C60.6016 70.0938 61.5547 68.9297 62.9609 68.9297C64.1562 68.9297 64.8438 69.6562 65.0391 70.5391H66.3672ZM67.7031 76H69.0625V71.2656C69.0625 69.8594 69.8984 68.9375 71.25 68.9375C72.5234 68.9375 73.1719 69.7109 73.1719 71V76H74.5312V70.75C74.5312 68.9375 73.4531 67.7344 71.6719 67.7344C70.4375 67.7344 69.5469 68.2656 69.0938 69.1719H69.0625V64.7266H67.7031V76ZM79.3984 70.1172C79.3984 71.2891 80.1406 72 81.6719 72.3672L82.9609 72.6797C83.8906 72.9062 84.2109 73.2422 84.2109 73.8281C84.2109 74.5625 83.5312 75.0312 82.4297 75.0312C81.3281 75.0312 80.7031 74.5859 80.5391 73.6562H79.1797C79.3359 75.1797 80.5234 76.1406 82.4297 76.1406C84.2422 76.1406 85.5781 75.1406 85.5781 73.7266C85.5781 72.5625 84.9844 71.9219 83.3438 71.5234L82.0547 71.2109C81.1484 70.9922 80.7344 70.6094 80.7344 70.0469C80.7344 69.3359 81.3906 68.8438 82.3828 68.8438C83.3828 68.8438 84.0078 69.3672 84.1094 70.2188H85.4062C85.3516 68.7812 84.1641 67.7344 82.3828 67.7344C80.625 67.7344 79.3984 68.7266 79.3984 70.1172ZM87.4297 65.9141V67.875H86.2188V68.9922H87.4297V73.8906C87.4297 75.4531 88.0078 76.0625 89.5 76.0625C89.8203 76.0625 90.1953 76.0391 90.3594 76V74.8594C90.2656 74.875 89.9531 74.8984 89.7969 74.8984C89.1016 74.8984 88.7891 74.5625 88.7891 73.8203V68.9922H90.3672V67.875H88.7891V65.9141H87.4297ZM96.9766 73.6719C96.75 74.4375 95.9922 74.9609 94.9609 74.9609C93.5 74.9609 92.5859 73.9375 92.5859 72.3828V72.3047H98.4141V71.7891C98.4141 69.3281 97.0625 67.7344 94.8672 67.7344C92.625 67.7344 91.1875 69.4453 91.1875 71.9688C91.1875 74.5234 92.6016 76.1406 94.9297 76.1406C96.7031 76.1406 98.0781 75.0938 98.3125 73.6719H96.9766ZM94.8438 68.9141C96.125 68.9141 96.9766 69.8828 97.0078 71.2422H92.5938C92.6797 69.8906 93.5703 68.9141 94.8438 68.9141ZM100.539 66.4297C101.016 66.4297 101.391 66.0469 101.391 65.5781C101.391 65.1016 101.016 64.7266 100.539 64.7266C100.07 64.7266 99.6875 65.1016 99.6875 65.5781C99.6875 66.0469 100.07 66.4297 100.539 66.4297ZM99.8594 76H101.219V67.875H99.8594V76ZM106.406 79.0625C108.648 79.0625 110.078 77.7734 110.078 75.8359V67.875H108.781V69.2422H108.758C108.219 68.2969 107.266 67.7344 106.117 67.7344C104.016 67.7344 102.656 69.3594 102.656 71.9062C102.656 74.4297 104.016 76.0625 106.086 76.0625C107.227 76.0625 108.188 75.4844 108.688 74.6016H108.719V75.8828C108.719 77.0938 107.867 77.9062 106.461 77.9062C105.445 77.9062 104.641 77.4141 104.375 76.6719H102.977C103.203 78.0547 104.617 79.0625 106.406 79.0625ZM106.359 74.8672C104.961 74.8672 104.047 73.7266 104.047 71.9062C104.047 70.0859 104.961 68.9297 106.359 68.9297C107.773 68.9297 108.719 70.1172 108.719 71.9062C108.719 73.6953 107.773 74.8672 106.359 74.8672ZM112.289 65.9141V67.875H111.078V68.9922H112.289V73.8906C112.289 75.4531 112.867 76.0625 114.359 76.0625C114.68 76.0625 115.055 76.0391 115.219 76V74.8594C115.125 74.875 114.812 74.8984 114.656 74.8984C113.961 74.8984 113.648 74.5625 113.648 73.8203V68.9922H115.227V67.875H113.648V65.9141H112.289ZM123.039 76.1406C124.211 76.1406 125.141 75.5625 125.664 74.625H125.688V76H126.984V64.7266H125.625V69.1953H125.594C125.109 68.3047 124.172 67.7344 123.008 67.7344C120.961 67.7344 119.562 69.3906 119.562 71.9375C119.562 74.4844 120.969 76.1406 123.039 76.1406ZM123.297 68.9297C124.695 68.9297 125.633 70.125 125.633 71.9375C125.633 73.7578 124.695 74.9453 123.297 74.9453C121.859 74.9453 120.953 73.7812 120.953 71.9375C120.953 70.1016 121.859 68.9297 123.297 68.9297ZM134.211 73.6719C133.984 74.4375 133.227 74.9609 132.195 74.9609C130.734 74.9609 129.82 73.9375 129.82 72.3828V72.3047H135.648V71.7891C135.648 69.3281 134.297 67.7344 132.102 67.7344C129.859 67.7344 128.422 69.4453 128.422 71.9688C128.422 74.5234 129.836 76.1406 132.164 76.1406C133.938 76.1406 135.312 75.0938 135.547 73.6719H134.211ZM132.078 68.9141C133.359 68.9141 134.211 69.8828 134.242 71.2422H129.828C129.914 69.8906 130.805 68.9141 132.078 68.9141ZM137.773 66.4297C138.25 66.4297 138.625 66.0469 138.625 65.5781C138.625 65.1016 138.25 64.7266 137.773 64.7266C137.305 64.7266 136.922 65.1016 136.922 65.5781C136.922 66.0469 137.305 66.4297 137.773 66.4297ZM137.094 76H138.453V67.875H137.094V76ZM140.289 76H141.648V71.2188C141.648 69.8438 142.484 68.9375 143.766 68.9375C145.016 68.9375 145.633 69.6562 145.633 70.9688V76H146.992V70.7266C146.992 68.8828 145.961 67.7344 144.18 67.7344C142.922 67.7344 142.055 68.2969 141.602 69.1719H141.57V67.875H140.289V76ZM156.859 76.1875C159.352 76.1875 161.023 74.9453 161.539 72.7188H160.117C159.711 74.0938 158.523 74.8906 156.867 74.8906C154.641 74.8906 153.227 73.125 153.227 70.3594C153.227 67.6172 154.656 65.8359 156.859 65.8359C158.469 65.8359 159.758 66.8047 160.117 68.2812H161.539C161.18 66.0312 159.312 64.5391 156.859 64.5391C153.773 64.5391 151.781 66.8203 151.781 70.3594C151.781 73.9297 153.75 76.1875 156.859 76.1875ZM165.367 76.1406C166.461 76.1406 167.492 75.5312 167.977 74.6016H168.008V76H169.297V70.3828C169.297 68.7656 168.094 67.7344 166.188 67.7344C164.266 67.7344 163.062 68.8125 162.969 70.2188H164.281C164.453 69.4219 165.109 68.9297 166.156 68.9297C167.281 68.9297 167.938 69.5234 167.938 70.5156V71.1953L165.609 71.3281C163.734 71.4375 162.664 72.3125 162.664 73.7031C162.664 75.1641 163.75 76.1406 165.367 76.1406ZM165.672 74.9844C164.695 74.9844 164.047 74.4766 164.047 73.7031C164.047 72.9375 164.672 72.4531 165.766 72.3828L167.938 72.25V72.9141C167.938 74.0859 166.953 74.9844 165.672 74.9844ZM170.883 70.1172C170.883 71.2891 171.625 72 173.156 72.3672L174.445 72.6797C175.375 72.9062 175.695 73.2422 175.695 73.8281C175.695 74.5625 175.016 75.0312 173.914 75.0312C172.812 75.0312 172.188 74.5859 172.023 73.6562H170.664C170.82 75.1797 172.008 76.1406 173.914 76.1406C175.727 76.1406 177.062 75.1406 177.062 73.7266C177.062 72.5625 176.469 71.9219 174.828 71.5234L173.539 71.2109C172.633 70.9922 172.219 70.6094 172.219 70.0469C172.219 69.3359 172.875 68.8438 173.867 68.8438C174.867 68.8438 175.492 69.3672 175.594 70.2188H176.891C176.836 68.7812 175.648 67.7344 173.867 67.7344C172.109 67.7344 170.883 68.7266 170.883 70.1172ZM178.547 76H179.906V71.2656C179.906 69.8594 180.742 68.9375 182.094 68.9375C183.367 68.9375 184.016 69.7109 184.016 71V76H185.375V70.75C185.375 68.9375 184.297 67.7344 182.516 67.7344C181.281 67.7344 180.391 68.2656 179.938 69.1719H179.906V64.7266H178.547V76ZM191.141 76.1406C193.219 76.1406 194.594 74.4922 194.594 71.9375C194.594 69.3906 193.211 67.7344 191.164 67.7344C190.016 67.7344 189.07 68.3047 188.562 69.2344H188.531V64.7266H187.172V76H188.469V74.625H188.5C189.023 75.5625 189.953 76.1406 191.141 76.1406ZM190.875 68.9297C192.312 68.9297 193.203 70.0938 193.203 71.9375C193.203 73.7969 192.312 74.9453 190.875 74.9453C189.5 74.9453 188.523 73.75 188.523 71.9375C188.523 70.1328 189.5 68.9297 190.875 68.9297ZM198.352 76.1406C199.445 76.1406 200.477 75.5312 200.961 74.6016H200.992V76H202.281V70.3828C202.281 68.7656 201.078 67.7344 199.172 67.7344C197.25 67.7344 196.047 68.8125 195.953 70.2188H197.266C197.438 69.4219 198.094 68.9297 199.141 68.9297C200.266 68.9297 200.922 69.5234 200.922 70.5156V71.1953L198.594 71.3281C196.719 71.4375 195.648 72.3125 195.648 73.7031C195.648 75.1641 196.734 76.1406 198.352 76.1406ZM198.656 74.9844C197.68 74.9844 197.031 74.4766 197.031 73.7031C197.031 72.9375 197.656 72.4531 198.75 72.3828L200.922 72.25V72.9141C200.922 74.0859 199.938 74.9844 198.656 74.9844ZM210.758 70.5391C210.586 69.0781 209.375 67.7344 207.344 67.7344C205.102 67.7344 203.609 69.375 203.609 71.9375C203.609 74.5547 205.109 76.1406 207.359 76.1406C209.203 76.1406 210.562 75 210.773 73.3828H209.438C209.203 74.3594 208.477 74.9453 207.367 74.9453C205.961 74.9453 204.992 73.8281 204.992 71.9375C204.992 70.0938 205.945 68.9297 207.352 68.9297C208.547 68.9297 209.234 69.6562 209.43 70.5391H210.758ZM213.453 72.9375L214.211 72.2188L217.227 76H218.805L215.172 71.3828L218.695 67.875H217.047L213.453 71.4844V64.7266H212.094V76H213.453V72.9375ZM230.609 76H232.086L227.93 64.7266H226.539L222.383 76H223.859L224.992 72.7734H229.477L230.609 76ZM227.211 66.4375H227.258L229.062 71.5781H225.406L227.211 66.4375ZM233.164 76H234.523V71.2188C234.523 69.8438 235.359 68.9375 236.641 68.9375C237.891 68.9375 238.508 69.6562 238.508 70.9688V76H239.867V70.7266C239.867 68.8828 238.836 67.7344 237.055 67.7344C235.797 67.7344 234.93 68.2969 234.477 69.1719H234.445V67.875H233.164V76ZM242.039 65.9141V67.875H240.828V68.9922H242.039V73.8906C242.039 75.4531 242.617 76.0625 244.109 76.0625C244.43 76.0625 244.805 76.0391 244.969 76V74.8594C244.875 74.875 244.562 74.8984 244.406 74.8984C243.711 74.8984 243.398 74.5625 243.398 73.8203V68.9922H244.977V67.875H243.398V65.9141H242.039ZM251.586 73.6719C251.359 74.4375 250.602 74.9609 249.57 74.9609C248.109 74.9609 247.195 73.9375 247.195 72.3828V72.3047H253.023V71.7891C253.023 69.3281 251.672 67.7344 249.477 67.7344C247.234 67.7344 245.797 69.4453 245.797 71.9688C245.797 74.5234 247.211 76.1406 249.539 76.1406C251.312 76.1406 252.688 75.0938 252.922 73.6719H251.586ZM249.453 68.9141C250.734 68.9141 251.586 69.8828 251.617 71.2422H247.203C247.289 69.8906 248.18 68.9141 249.453 68.9141ZM255.148 66.4297C255.625 66.4297 256 66.0469 256 65.5781C256 65.1016 255.625 64.7266 255.148 64.7266C254.68 64.7266 254.297 65.1016 254.297 65.5781C254.297 66.0469 254.68 66.4297 255.148 66.4297ZM254.469 76H255.828V67.875H254.469V76ZM257.734 76H259.094V64.7266H257.734V76ZM262.078 76.0781C262.578 76.0781 262.969 75.6875 262.969 75.1875C262.969 74.6875 262.578 74.2969 262.078 74.2969C261.578 74.2969 261.188 74.6875 261.188 75.1875C261.188 75.6875 261.578 76.0781 262.078 76.0781ZM20.5 83.7266H19.0938V91.0469C19.0938 93.4531 20.7734 95.1875 23.5703 95.1875C26.3672 95.1875 28.0469 93.4531 28.0469 91.0469V83.7266H26.6406V90.9531C26.6406 92.6562 25.5234 93.8906 23.5703 93.8906C21.6172 93.8906 20.5 92.6562 20.5 90.9531V83.7266ZM30.0234 95H31.3828V89.9062C31.3828 88.7812 32.1641 87.9375 33.2422 87.9375C34.25 87.9375 34.9062 88.5781 34.9062 89.5547V95H36.2656V89.8359C36.2656 88.7344 37.0234 87.9375 38.1016 87.9375C39.1719 87.9375 39.7891 88.5938 39.7891 89.7031V95H41.1484V89.3906C41.1484 87.7812 40.1094 86.7344 38.5 86.7344C37.3594 86.7344 36.4062 87.3125 35.9531 88.2812H35.9219C35.5703 87.2969 34.75 86.7344 33.6406 86.7344C32.5469 86.7344 31.7188 87.3125 31.3359 88.1719H31.3047V86.875H30.0234V95ZM46.1641 95H47.5234V89.9062C47.5234 88.7812 48.3047 87.9375 49.3828 87.9375C50.3906 87.9375 51.0469 88.5781 51.0469 89.5547V95H52.4062V89.8359C52.4062 88.7344 53.1641 87.9375 54.2422 87.9375C55.3125 87.9375 55.9297 88.5938 55.9297 89.7031V95H57.2891V89.3906C57.2891 87.7812 56.25 86.7344 54.6406 86.7344C53.5 86.7344 52.5469 87.3125 52.0938 88.2812H52.0625C51.7109 87.2969 50.8906 86.7344 49.7812 86.7344C48.6875 86.7344 47.8594 87.3125 47.4766 88.1719H47.4453V86.875H46.1641V95ZM64.4141 92.6719C64.1875 93.4375 63.4297 93.9609 62.3984 93.9609C60.9375 93.9609 60.0234 92.9375 60.0234 91.3828V91.3047H65.8516V90.7891C65.8516 88.3281 64.5 86.7344 62.3047 86.7344C60.0625 86.7344 58.625 88.4453 58.625 90.9688C58.625 93.5234 60.0391 95.1406 62.3672 95.1406C64.1406 95.1406 65.5156 94.0938 65.75 92.6719H64.4141ZM62.2812 87.9141C63.5625 87.9141 64.4141 88.8828 64.4453 90.2422H60.0312C60.1172 88.8906 61.0078 87.9141 62.2812 87.9141ZM67.2969 95H68.6562V90.2656C68.6562 88.8594 69.4922 87.9375 70.8438 87.9375C72.1172 87.9375 72.7656 88.7109 72.7656 90V95H74.125V89.75C74.125 87.9375 73.0469 86.7344 71.2656 86.7344C70.0312 86.7344 69.1406 87.2656 68.6875 88.1719H68.6562V83.7266H67.2969V95ZM75.8516 95H77.2109V89.9375C77.2109 88.7891 77.8984 88.0312 78.9531 88.0312C79.2812 88.0312 79.5703 88.0703 79.6797 88.1094V86.7891C79.5703 86.7734 79.3672 86.7344 79.1328 86.7344C78.1797 86.7344 77.4297 87.3047 77.1641 88.2031H77.1328V86.875H75.8516V95ZM84.2812 83.7266V95H85.6875V90.9766H88.2891C90.4062 90.9766 91.9141 89.4844 91.9141 87.3438C91.9141 85.2109 90.4219 83.7266 88.3047 83.7266H84.2812ZM85.6875 84.9766H87.9375C89.5547 84.9766 90.4688 85.8516 90.4688 87.3438C90.4688 88.8438 89.5469 89.7266 87.9375 89.7266H85.6875V84.9766ZM99.9922 86.875H98.6328V91.6484C98.6328 93.0312 97.8359 93.9375 96.5156 93.9375C95.2578 93.9375 94.6406 93.2266 94.6406 91.9062V86.875H93.2812V92.1484C93.2812 93.9922 94.3203 95.1406 96.0938 95.1406C97.3438 95.1406 98.1875 94.6172 98.6719 93.6797H98.7031V95H99.9922V86.875ZM101.758 95H103.117V90.2188C103.117 88.8438 103.953 87.9375 105.234 87.9375C106.484 87.9375 107.102 88.6562 107.102 89.9688V95H108.461V89.7266C108.461 87.8828 107.43 86.7344 105.648 86.7344C104.391 86.7344 103.523 87.2969 103.07 88.1719H103.039V86.875H101.758V95ZM111.625 91.9375L112.383 91.2188L115.398 95H116.977L113.344 90.3828L116.867 86.875H115.219L111.625 90.4844V83.7266H110.266V95H111.625V91.9375ZM118.398 84.9141V86.875H117.188V87.9922H118.398V92.8906C118.398 94.4531 118.977 95.0625 120.469 95.0625C120.789 95.0625 121.164 95.0391 121.328 95V93.8594C121.234 93.875 120.922 93.8984 120.766 93.8984C120.07 93.8984 119.758 93.5625 119.758 92.8203V87.9922H121.336V86.875H119.758V84.9141H118.398ZM127.945 92.6719C127.719 93.4375 126.961 93.9609 125.93 93.9609C124.469 93.9609 123.555 92.9375 123.555 91.3828V91.3047H129.383V90.7891C129.383 88.3281 128.031 86.7344 125.836 86.7344C123.594 86.7344 122.156 88.4453 122.156 90.9688C122.156 93.5234 123.57 95.1406 125.898 95.1406C127.672 95.1406 129.047 94.0938 129.281 92.6719H127.945ZM125.812 87.9141C127.094 87.9141 127.945 88.8828 127.977 90.2422H123.562C123.648 88.8906 124.539 87.9141 125.812 87.9141ZM133.867 95H139.93V93.8828H135.438V93.8594L139.906 87.8672V86.875H133.875V87.9922H138.367V88.0156L133.867 94.0312V95ZM148.195 86.875H146.836V91.6484C146.836 93.0312 146.039 93.9375 144.719 93.9375C143.461 93.9375 142.844 93.2266 142.844 91.9062V86.875H141.484V92.1484C141.484 93.9922 142.523 95.1406 144.297 95.1406C145.547 95.1406 146.391 94.6172 146.875 93.6797H146.906V95H148.195V86.875ZM153.102 89.1172C153.102 90.2891 153.844 91 155.375 91.3672L156.664 91.6797C157.594 91.9062 157.914 92.2422 157.914 92.8281C157.914 93.5625 157.234 94.0312 156.133 94.0312C155.031 94.0312 154.406 93.5859 154.242 92.6562H152.883C153.039 94.1797 154.227 95.1406 156.133 95.1406C157.945 95.1406 159.281 94.1406 159.281 92.7266C159.281 91.5625 158.688 90.9219 157.047 90.5234L155.758 90.2109C154.852 89.9922 154.438 89.6094 154.438 89.0469C154.438 88.3359 155.094 87.8438 156.086 87.8438C157.086 87.8438 157.711 88.3672 157.812 89.2188H159.109C159.055 87.7812 157.867 86.7344 156.086 86.7344C154.328 86.7344 153.102 87.7266 153.102 89.1172ZM163.07 95.1406C164.164 95.1406 165.195 94.5312 165.68 93.6016H165.711V95H167V89.3828C167 87.7656 165.797 86.7344 163.891 86.7344C161.969 86.7344 160.766 87.8125 160.672 89.2188H161.984C162.156 88.4219 162.812 87.9297 163.859 87.9297C164.984 87.9297 165.641 88.5234 165.641 89.5156V90.1953L163.312 90.3281C161.438 90.4375 160.367 91.3125 160.367 92.7031C160.367 94.1641 161.453 95.1406 163.07 95.1406ZM163.375 93.9844C162.398 93.9844 161.75 93.4766 161.75 92.7031C161.75 91.9375 162.375 91.4531 163.469 91.3828L165.641 91.25V91.9141C165.641 93.0859 164.656 93.9844 163.375 93.9844ZM168.727 95H170.086V89.9062C170.086 88.7812 170.867 87.9375 171.945 87.9375C172.953 87.9375 173.609 88.5781 173.609 89.5547V95H174.969V89.8359C174.969 88.7344 175.727 87.9375 176.805 87.9375C177.875 87.9375 178.492 88.5938 178.492 89.7031V95H179.852V89.3906C179.852 87.7812 178.812 86.7344 177.203 86.7344C176.062 86.7344 175.109 87.3125 174.656 88.2812H174.625C174.273 87.2969 173.453 86.7344 172.344 86.7344C171.25 86.7344 170.422 87.3125 170.039 88.1719H170.008V86.875H168.727V95ZM181.586 95H182.945V89.9062C182.945 88.7812 183.727 87.9375 184.805 87.9375C185.812 87.9375 186.469 88.5781 186.469 89.5547V95H187.828V89.8359C187.828 88.7344 188.586 87.9375 189.664 87.9375C190.734 87.9375 191.352 88.5938 191.352 89.7031V95H192.711V89.3906C192.711 87.7812 191.672 86.7344 190.062 86.7344C188.922 86.7344 187.969 87.3125 187.516 88.2812H187.484C187.133 87.2969 186.312 86.7344 185.203 86.7344C184.109 86.7344 183.281 87.3125 182.898 88.1719H182.867V86.875H181.586V95ZM199.836 92.6719C199.609 93.4375 198.852 93.9609 197.82 93.9609C196.359 93.9609 195.445 92.9375 195.445 91.3828V91.3047H201.273V90.7891C201.273 88.3281 199.922 86.7344 197.727 86.7344C195.484 86.7344 194.047 88.4453 194.047 90.9688C194.047 93.5234 195.461 95.1406 197.789 95.1406C199.562 95.1406 200.938 94.0938 201.172 92.6719H199.836ZM197.703 87.9141C198.984 87.9141 199.836 88.8828 199.867 90.2422H195.453C195.539 88.8906 196.43 87.9141 197.703 87.9141ZM202.719 95H204.078V83.7266H202.719V95ZM205.914 95H207.273V90.2188C207.273 88.8438 208.109 87.9375 209.391 87.9375C210.641 87.9375 211.258 88.6562 211.258 89.9688V95H212.617V89.7266C212.617 87.8828 211.586 86.7344 209.805 86.7344C208.547 86.7344 207.68 87.2969 207.227 88.1719H207.195V86.875H205.914V95ZM215.281 97.2422L216.352 93.2656H214.906L214.148 97.2422H215.281ZM220.914 95H222.273V90.2188C222.273 88.8438 223.109 87.9375 224.391 87.9375C225.641 87.9375 226.258 88.6562 226.258 89.9688V95H227.617V89.7266C227.617 87.8828 226.586 86.7344 224.805 86.7344C223.547 86.7344 222.68 87.2969 222.227 88.1719H222.195V86.875H220.914V95ZM236.023 86.875H234.664V91.6484C234.664 93.0312 233.867 93.9375 232.547 93.9375C231.289 93.9375 230.672 93.2266 230.672 91.9062V86.875H229.312V92.1484C229.312 93.9922 230.352 95.1406 232.125 95.1406C233.375 95.1406 234.219 94.6172 234.703 93.6797H234.734V95H236.023V86.875ZM238.227 84.9141V86.875H237.016V87.9922H238.227V92.8906C238.227 94.4531 238.805 95.0625 240.297 95.0625C240.617 95.0625 240.992 95.0391 241.156 95V93.8594C241.062 93.875 240.75 93.8984 240.594 93.8984C239.898 93.8984 239.586 93.5625 239.586 92.8203V87.9922H241.164V86.875H239.586V84.9141H238.227ZM242.445 95H248.508V93.8828H244.016V93.8594L248.484 87.8672V86.875H242.453V87.9922H246.945V88.0156L242.445 94.0312V95ZM255.18 92.6719C254.953 93.4375 254.195 93.9609 253.164 93.9609C251.703 93.9609 250.789 92.9375 250.789 91.3828V91.3047H256.617V90.7891C256.617 88.3281 255.266 86.7344 253.07 86.7344C250.828 86.7344 249.391 88.4453 249.391 90.9688C249.391 93.5234 250.805 95.1406 253.133 95.1406C254.906 95.1406 256.281 94.0938 256.516 92.6719H255.18ZM253.047 87.9141C254.328 87.9141 255.18 88.8828 255.211 90.2422H250.797C250.883 88.8906 251.773 87.9141 253.047 87.9141ZM18.8828 114H20.2422V108.906C20.2422 107.781 21.0234 106.938 22.1016 106.938C23.1094 106.938 23.7656 107.578 23.7656 108.555V114H25.125V108.836C25.125 107.734 25.8828 106.938 26.9609 106.938C28.0312 106.938 28.6484 107.594 28.6484 108.703V114H30.0078V108.391C30.0078 106.781 28.9688 105.734 27.3594 105.734C26.2188 105.734 25.2656 106.312 24.8125 107.281H24.7812C24.4297 106.297 23.6094 105.734 22.5 105.734C21.4062 105.734 20.5781 106.312 20.1953 107.172H20.1641V105.875H18.8828V114ZM37.1328 111.672C36.9062 112.438 36.1484 112.961 35.1172 112.961C33.6562 112.961 32.7422 111.938 32.7422 110.383V110.305H38.5703V109.789C38.5703 107.328 37.2188 105.734 35.0234 105.734C32.7812 105.734 31.3438 107.445 31.3438 109.969C31.3438 112.523 32.7578 114.141 35.0859 114.141C36.8594 114.141 38.2344 113.094 38.4688 111.672H37.1328ZM35 106.914C36.2812 106.914 37.1328 107.883 37.1641 109.242H32.75C32.8359 107.891 33.7266 106.914 35 106.914ZM40.0156 114H41.375V109.266C41.375 107.859 42.2109 106.938 43.5625 106.938C44.8359 106.938 45.4844 107.711 45.4844 109V114H46.8438V108.75C46.8438 106.938 45.7656 105.734 43.9844 105.734C42.75 105.734 41.8594 106.266 41.4062 107.172H41.375V102.727H40.0156V114ZM48.5703 114H49.9297V108.938C49.9297 107.789 50.6172 107.031 51.6719 107.031C52 107.031 52.2891 107.07 52.3984 107.109V105.789C52.2891 105.773 52.0859 105.734 51.8516 105.734C50.8984 105.734 50.1484 106.305 49.8828 107.203H49.8516V105.875H48.5703V114ZM61.2578 114V103.992H64.8125V102.727H56.2969V103.992H59.8516V114H61.2578ZM67.3438 114.141C69.5859 114.141 71.1016 112.523 71.1016 109.938C71.1016 107.344 69.5859 105.734 67.3438 105.734C65.0938 105.734 63.5781 107.344 63.5781 109.938C63.5781 112.523 65.0938 114.141 67.3438 114.141ZM67.3438 112.945C65.9062 112.945 64.9609 111.852 64.9609 109.938C64.9609 108.023 65.9062 106.93 67.3438 106.93C68.7812 106.93 69.7188 108.023 69.7188 109.938C69.7188 111.852 68.7812 112.945 67.3438 112.945ZM75.8438 114.141C78.0859 114.141 79.6016 112.523 79.6016 109.938C79.6016 107.344 78.0859 105.734 75.8438 105.734C73.5938 105.734 72.0781 107.344 72.0781 109.938C72.0781 112.523 73.5938 114.141 75.8438 114.141ZM75.8438 112.945C74.4062 112.945 73.4609 111.852 73.4609 109.938C73.4609 108.023 74.4062 106.93 75.8438 106.93C77.2812 106.93 78.2188 108.023 78.2188 109.938C78.2188 111.852 77.2812 112.945 75.8438 112.945ZM81.0469 114H82.4062V102.727H81.0469V114ZM84.1016 108.117C84.1016 109.289 84.8438 110 86.375 110.367L87.6641 110.68C88.5938 110.906 88.9141 111.242 88.9141 111.828C88.9141 112.562 88.2344 113.031 87.1328 113.031C86.0312 113.031 85.4062 112.586 85.2422 111.656H83.8828C84.0391 113.18 85.2266 114.141 87.1328 114.141C88.9453 114.141 90.2812 113.141 90.2812 111.727C90.2812 110.562 89.6875 109.922 88.0469 109.523L86.7578 109.211C85.8516 108.992 85.4375 108.609 85.4375 108.047C85.4375 107.336 86.0938 106.844 87.0859 106.844C88.0859 106.844 88.7109 107.367 88.8125 108.219H90.1094C90.0547 106.781 88.8672 105.734 87.0859 105.734C85.3281 105.734 84.1016 106.727 84.1016 108.117ZM101.648 105.875H100.289V110.648C100.289 112.031 99.4922 112.938 98.1719 112.938C96.9141 112.938 96.2969 112.227 96.2969 110.906V105.875H94.9375V111.148C94.9375 112.992 95.9766 114.141 97.75 114.141C99 114.141 99.8438 113.617 100.328 112.68H100.359V114H101.648V105.875ZM103.414 114H104.773V109.219C104.773 107.844 105.609 106.938 106.891 106.938C108.141 106.938 108.758 107.656 108.758 108.969V114H110.117V108.727C110.117 106.883 109.086 105.734 107.305 105.734C106.047 105.734 105.18 106.297 104.727 107.172H104.695V105.875H103.414V114ZM114.93 114.141C116.102 114.141 117.031 113.562 117.555 112.625H117.578V114H118.875V102.727H117.516V107.195H117.484C117 106.305 116.062 105.734 114.898 105.734C112.852 105.734 111.453 107.391 111.453 109.938C111.453 112.484 112.859 114.141 114.93 114.141ZM115.188 106.93C116.586 106.93 117.523 108.125 117.523 109.938C117.523 111.758 116.586 112.945 115.188 112.945C113.75 112.945 112.844 111.781 112.844 109.938C112.844 108.102 113.75 106.93 115.188 106.93ZM123.852 108.117C123.852 109.289 124.594 110 126.125 110.367L127.414 110.68C128.344 110.906 128.664 111.242 128.664 111.828C128.664 112.562 127.984 113.031 126.883 113.031C125.781 113.031 125.156 112.586 124.992 111.656H123.633C123.789 113.18 124.977 114.141 126.883 114.141C128.695 114.141 130.031 113.141 130.031 111.727C130.031 110.562 129.438 109.922 127.797 109.523L126.508 109.211C125.602 108.992 125.188 108.609 125.188 108.047C125.188 107.336 125.844 106.844 126.836 106.844C127.836 106.844 128.461 107.367 128.562 108.219H129.859C129.805 106.781 128.617 105.734 126.836 105.734C125.078 105.734 123.852 106.727 123.852 108.117ZM133.82 114.141C134.914 114.141 135.945 113.531 136.43 112.602H136.461V114H137.75V108.383C137.75 106.766 136.547 105.734 134.641 105.734C132.719 105.734 131.516 106.812 131.422 108.219H132.734C132.906 107.422 133.562 106.93 134.609 106.93C135.734 106.93 136.391 107.523 136.391 108.516V109.195L134.062 109.328C132.188 109.438 131.117 110.312 131.117 111.703C131.117 113.164 132.203 114.141 133.82 114.141ZM134.125 112.984C133.148 112.984 132.5 112.477 132.5 111.703C132.5 110.938 133.125 110.453 134.219 110.383L136.391 110.25V110.914C136.391 112.086 135.406 112.984 134.125 112.984ZM139.477 114H140.836V108.906C140.836 107.781 141.617 106.938 142.695 106.938C143.703 106.938 144.359 107.578 144.359 108.555V114H145.719V108.836C145.719 107.734 146.477 106.938 147.555 106.938C148.625 106.938 149.242 107.594 149.242 108.703V114H150.602V108.391C150.602 106.781 149.562 105.734 147.953 105.734C146.812 105.734 145.859 106.312 145.406 107.281H145.375C145.023 106.297 144.203 105.734 143.094 105.734C142 105.734 141.172 106.312 140.789 107.172H140.758V105.875H139.477V114ZM152.336 114H153.695V108.906C153.695 107.781 154.477 106.938 155.555 106.938C156.562 106.938 157.219 107.578 157.219 108.555V114H158.578V108.836C158.578 107.734 159.336 106.938 160.414 106.938C161.484 106.938 162.102 107.594 162.102 108.703V114H163.461V108.391C163.461 106.781 162.422 105.734 160.812 105.734C159.672 105.734 158.719 106.312 158.266 107.281H158.234C157.883 106.297 157.062 105.734 155.953 105.734C154.859 105.734 154.031 106.312 153.648 107.172H153.617V105.875H152.336V114ZM165.266 114H166.625V102.727H165.266V114ZM173.852 111.672C173.625 112.438 172.867 112.961 171.836 112.961C170.375 112.961 169.461 111.938 169.461 110.383V110.305H175.289V109.789C175.289 107.328 173.938 105.734 171.742 105.734C169.5 105.734 168.062 107.445 168.062 109.969C168.062 112.523 169.477 114.141 171.805 114.141C173.578 114.141 174.953 113.094 175.188 111.672H173.852ZM171.719 106.914C173 106.914 173.852 107.883 173.883 109.242H169.469C169.555 107.891 170.445 106.914 171.719 106.914ZM190.281 105.875H188.938L187.312 112.484H187.281L185.438 105.875H184.125L182.289 112.484H182.258L180.633 105.875H179.281L181.555 114H182.938L184.766 107.711H184.797L186.633 114H188.016L190.281 105.875ZM196.789 111.672C196.562 112.438 195.805 112.961 194.773 112.961C193.312 112.961 192.398 111.938 192.398 110.383V110.305H198.227V109.789C198.227 107.328 196.875 105.734 194.68 105.734C192.438 105.734 191 107.445 191 109.969C191 112.523 192.414 114.141 194.742 114.141C196.516 114.141 197.891 113.094 198.125 111.672H196.789ZM194.656 106.914C195.938 106.914 196.789 107.883 196.82 109.242H192.406C192.492 107.891 193.383 106.914 194.656 106.914ZM200.352 104.43C200.828 104.43 201.203 104.047 201.203 103.578C201.203 103.102 200.828 102.727 200.352 102.727C199.883 102.727 199.5 103.102 199.5 103.578C199.5 104.047 199.883 104.43 200.352 104.43ZM199.672 114H201.031V105.875H199.672V114ZM203.305 103.914V105.875H202.094V106.992H203.305V111.891C203.305 113.453 203.883 114.062 205.375 114.062C205.695 114.062 206.07 114.039 206.234 114V112.859C206.141 112.875 205.828 112.898 205.672 112.898C204.977 112.898 204.664 112.562 204.664 111.82V106.992H206.242V105.875H204.664V103.914H203.305ZM212.852 111.672C212.625 112.438 211.867 112.961 210.836 112.961C209.375 112.961 208.461 111.938 208.461 110.383V110.305H214.289V109.789C214.289 107.328 212.938 105.734 210.742 105.734C208.5 105.734 207.062 107.445 207.062 109.969C207.062 112.523 208.477 114.141 210.805 114.141C212.578 114.141 213.953 113.094 214.188 111.672H212.852ZM210.719 106.914C212 106.914 212.852 107.883 212.883 109.242H208.469C208.555 107.891 209.445 106.914 210.719 106.914ZM215.664 114H217.023V108.938C217.023 107.789 217.711 107.031 218.766 107.031C219.094 107.031 219.383 107.07 219.492 107.109V105.789C219.383 105.773 219.18 105.734 218.945 105.734C217.992 105.734 217.242 106.305 216.977 107.203H216.945V105.875H215.664V114ZM225.602 111.672C225.375 112.438 224.617 112.961 223.586 112.961C222.125 112.961 221.211 111.938 221.211 110.383V110.305H227.039V109.789C227.039 107.328 225.688 105.734 223.492 105.734C221.25 105.734 219.812 107.445 219.812 109.969C219.812 112.523 221.227 114.141 223.555 114.141C225.328 114.141 226.703 113.094 226.938 111.672H225.602ZM223.469 106.914C224.75 106.914 225.602 107.883 225.633 109.242H221.219C221.305 107.891 222.195 106.914 223.469 106.914ZM240.906 114V102.727H239.5V107.602H233.312V102.727H231.906V114H233.312V108.867H239.5V114H240.906ZM248.273 111.672C248.047 112.438 247.289 112.961 246.258 112.961C244.797 112.961 243.883 111.938 243.883 110.383V110.305H249.711V109.789C249.711 107.328 248.359 105.734 246.164 105.734C243.922 105.734 242.484 107.445 242.484 109.969C242.484 112.523 243.898 114.141 246.227 114.141C248 114.141 249.375 113.094 249.609 111.672H248.273ZM246.141 106.914C247.422 106.914 248.273 107.883 248.305 109.242H243.891C243.977 107.891 244.867 106.914 246.141 106.914ZM253.461 114.141C254.555 114.141 255.586 113.531 256.07 112.602H256.102V114H257.391V108.383C257.391 106.766 256.188 105.734 254.281 105.734C252.359 105.734 251.156 106.812 251.062 108.219H252.375C252.547 107.422 253.203 106.93 254.25 106.93C255.375 106.93 256.031 107.523 256.031 108.516V109.195L253.703 109.328C251.828 109.438 250.758 110.312 250.758 111.703C250.758 113.164 251.844 114.141 253.461 114.141ZM253.766 112.984C252.789 112.984 252.141 112.477 252.141 111.703C252.141 110.938 252.766 110.453 253.859 110.383L256.031 110.25V110.914C256.031 112.086 255.047 112.984 253.766 112.984ZM259.188 114H260.547V102.727H259.188V114ZM262.82 103.914V105.875H261.609V106.992H262.82V111.891C262.82 113.453 263.398 114.062 264.891 114.062C265.211 114.062 265.586 114.039 265.75 114V112.859C265.656 112.875 265.344 112.898 265.188 112.898C264.492 112.898 264.18 112.562 264.18 111.82V106.992H265.758V105.875H264.18V103.914H262.82ZM267.281 114H268.641V109.266C268.641 107.859 269.477 106.938 270.828 106.938C272.102 106.938 272.75 107.711 272.75 109V114H274.109V108.75C274.109 106.938 273.031 105.734 271.25 105.734C270.016 105.734 269.125 106.266 268.672 107.172H268.641V102.727H267.281V114ZM19.0938 121.727V133H22.8828C26.2344 133 28.2031 130.914 28.2031 127.359C28.2031 123.812 26.2266 121.727 22.8828 121.727H19.0938ZM20.5 122.992H22.7891C25.3516 122.992 26.7656 124.555 26.7656 127.375C26.7656 130.172 25.3438 131.734 22.7891 131.734H20.5V122.992ZM32.1172 133.141C33.2109 133.141 34.2422 132.531 34.7266 131.602H34.7578V133H36.0469V127.383C36.0469 125.766 34.8438 124.734 32.9375 124.734C31.0156 124.734 29.8125 125.812 29.7188 127.219H31.0312C31.2031 126.422 31.8594 125.93 32.9062 125.93C34.0312 125.93 34.6875 126.523 34.6875 127.516V128.195L32.3594 128.328C30.4844 128.438 29.4141 129.312 29.4141 130.703C29.4141 132.164 30.5 133.141 32.1172 133.141ZM32.4219 131.984C31.4453 131.984 30.7969 131.477 30.7969 130.703C30.7969 129.938 31.4219 129.453 32.5156 129.383L34.6875 129.25V129.914C34.6875 131.086 33.7031 131.984 32.4219 131.984ZM38.2109 122.914V124.875H37V125.992H38.2109V130.891C38.2109 132.453 38.7891 133.062 40.2812 133.062C40.6016 133.062 40.9766 133.039 41.1406 133V131.859C41.0469 131.875 40.7344 131.898 40.5781 131.898C39.8828 131.898 39.5703 131.562 39.5703 130.82V125.992H41.1484V124.875H39.5703V122.914H38.2109ZM47.7578 130.672C47.5312 131.438 46.7734 131.961 45.7422 131.961C44.2812 131.961 43.3672 130.938 43.3672 129.383V129.305H49.1953V128.789C49.1953 126.328 47.8438 124.734 45.6484 124.734C43.4062 124.734 41.9688 126.445 41.9688 128.969C41.9688 131.523 43.3828 133.141 45.7109 133.141C47.4844 133.141 48.8594 132.094 49.0938 130.672H47.7578ZM45.625 125.914C46.9062 125.914 47.7578 126.883 47.7891 128.242H43.375C43.4609 126.891 44.3516 125.914 45.625 125.914ZM50.5703 133H51.9297V128.219C51.9297 126.844 52.7656 125.938 54.0469 125.938C55.2969 125.938 55.9141 126.656 55.9141 127.969V133H57.2734V127.727C57.2734 125.883 56.2422 124.734 54.4609 124.734C53.2031 124.734 52.3359 125.297 51.8828 126.172H51.8516V124.875H50.5703V133Z" fill="black"/>
<path d="M61.0291 293C53.4426 293 50.1168 283.426 56.0694 278.723L172.076 187.064C172.689 186.579 173.369 186.187 174.096 185.9L297.061 137.322C302.311 135.248 308 139.117 308 144.762V285C308 289.418 304.418 293 300 293H173H61.0291Z" fill="#F4D96D" fill-opacity="0.6"/>
<path d="M59.5 255.188C62.2578 255.188 63.8672 252.969 63.8672 249.172C63.8672 244.898 61.6016 243.531 59.5859 243.531C57.2734 243.531 55.5938 245.156 55.5938 247.383C55.5938 249.523 57.1875 251.109 59.3359 251.109C60.7734 251.109 62.0078 250.383 62.4844 249.266H62.5078C62.4688 252.258 61.4297 253.961 59.5156 253.961C58.3438 253.961 57.4609 253.422 57.1484 252.383H55.7188C56.0469 254.078 57.5547 255.188 59.5 255.188ZM59.5781 249.875C58.1016 249.875 57.0156 248.805 57.0156 247.336C57.0156 245.922 58.1562 244.797 59.6016 244.797C61.0547 244.797 62.1797 245.93 62.1797 247.375C62.1797 248.812 61.0703 249.875 59.5781 249.875ZM65.8281 255H67.3047L72.3203 245.031V243.727H64.8594V244.977H70.9297V245.008L65.8281 255Z" fill="black"/>
<path d="M161.789 176H163.148V164.727H161.773L158.773 166.883V168.297L161.758 166.219H161.789V176ZM169.953 176.188C172.578 176.188 174.094 173.914 174.094 170.352C174.094 166.812 172.57 164.539 169.953 164.539C167.336 164.539 165.797 166.828 165.797 170.359C165.797 173.922 167.32 176.188 169.953 176.188ZM169.953 174.961C168.188 174.961 167.211 173.164 167.211 170.352C167.211 167.602 168.211 165.773 169.953 165.773C171.695 165.773 172.68 167.586 172.68 170.359C172.68 173.172 171.711 174.961 169.953 174.961ZM176.047 176H177.523L182.539 166.031V164.727H175.078V165.977H181.148V166.008L176.047 176Z" fill="black"/>
<defs>
<filter id="filter0_d" x="0" y="0" width="371" height="305" filterUnits="userSpaceOnUse" color-interpolation-filters="sRGB">
<feFlood flood-opacity="0" result="BackgroundImageFix"/>
<feColorMatrix in="SourceAlpha" type="matrix" values="0 0 0 0 0 0 0 0 0 0 0 0 0 0 0 0 0 0 127 0"/>
<feOffset dy="4"/>
<feGaussianBlur stdDeviation="4"/>
<feColorMatrix type="matrix" values="0 0 0 0 0 0 0 0 0 0 0 0 0 0 0 0 0 0 0.08 0"/>
<feBlend mode="normal" in2="BackgroundImageFix" result="effect1_dropShadow"/>
<feBlend mode="normal" in="SourceGraphic" in2="effect1_dropShadow" result="shape"/>
</filter>
<filter id="filter1_d" x="281" y="46" width="80" height="80" filterUnits="userSpaceOnUse" color-interpolation-filters="sRGB">
<feFlood flood-opacity="0" result="BackgroundImageFix"/>
<feColorMatrix in="SourceAlpha" type="matrix" values="0 0 0 0 0 0 0 0 0 0 0 0 0 0 0 0 0 0 127 0"/>
<feOffset dy="4"/>
<feGaussianBlur stdDeviation="4"/>
<feColorMatrix type="matrix" values="0 0 0 0 0 0 0 0 0 0 0 0 0 0 0 0 0 0 0.08 0"/>
<feBlend mode="normal" in2="BackgroundImageFix" result="effect1_dropShadow"/>
<feBlend mode="normal" in="SourceGraphic" in2="effect1_dropShadow" result="shape"/>
</filter>
</defs>
</svg>
