<svg width="371" height="305" viewBox="0 0 371 305" fill="none" xmlns="http://www.w3.org/2000/svg">
<g filter="url(#filter0_d)">
<rect x="8" y="4" width="355" height="289" rx="12" fill="white"/>
</g>
<path d="M315.789 149H317.148V137.727H315.773L312.773 139.883V141.297L315.758 139.219H315.789V149ZM319.938 140.984H321.297C321.297 139.719 322.344 138.766 323.734 138.766C325.023 138.766 325.852 139.648 325.852 140.758C325.852 141.695 325.5 142.305 323.977 143.891L320.008 148.031V149H327.445V147.75H321.938V147.719L324.617 144.969C326.688 142.844 327.258 141.914 327.258 140.672C327.258 138.961 325.82 137.539 323.734 137.539C321.562 137.539 319.938 139.008 319.938 140.984ZM332.945 149.188C335.336 149.188 337.039 147.844 337.039 145.953C337.039 144.555 336.07 143.398 334.609 143.055V143.023C335.859 142.625 336.617 141.68 336.617 140.508C336.617 138.789 335.078 137.539 332.945 137.539C330.828 137.539 329.266 138.797 329.266 140.5C329.266 141.688 330.039 142.641 331.281 143.023V143.055C329.828 143.391 328.859 144.547 328.859 145.953C328.859 147.836 330.562 149.188 332.945 149.188ZM332.945 142.5C331.602 142.5 330.664 141.727 330.664 140.633C330.664 139.531 331.602 138.75 332.945 138.75C334.289 138.75 335.227 139.523 335.227 140.633C335.227 141.727 334.281 142.5 332.945 142.5ZM332.945 147.961C331.398 147.961 330.289 147.078 330.289 145.852C330.289 144.617 331.398 143.734 332.945 143.734C334.5 143.734 335.602 144.609 335.602 145.852C335.602 147.078 334.5 147.961 332.945 147.961Z" fill="black"/>
<g filter="url(#filter1_d)">
<rect x="18" y="33" width="56" height="56" rx="12" fill="#00A699"/>
</g>
<path d="M30.4258 70H33.9297V53.0898H30.4141L26.043 56.125V59.2656L30.3555 56.3359H30.4258V70ZM37.5273 58.2344H40.8086C40.8086 56.6055 42.0859 55.4688 43.7734 55.4688C45.2969 55.4688 46.3398 56.5 46.3398 57.8594C46.3398 59.0312 45.8594 59.8398 43.7148 61.9023L37.7266 67.5742V70H50.0195V67.1875H42.3555V67.1172L45.9062 63.7188C48.7656 60.9883 49.7852 59.7109 49.7852 57.6367C49.7852 54.8242 47.3945 52.7148 43.7734 52.7148C40.1055 52.7148 37.5273 54.9766 37.5273 58.2344ZM58.8438 70.375C62.875 70.375 65.6992 68.3594 65.6992 65.4297C65.6992 63.2031 64.0703 61.5625 61.7617 61.1055V61.0352C63.7422 60.543 65.0781 59.0898 65.0781 57.2734C65.0781 54.625 62.5117 52.7148 58.8438 52.7148C55.1758 52.7148 52.5977 54.6367 52.5977 57.2617C52.5977 59.1016 53.9453 60.5547 55.9375 61.0352V61.1055C53.6289 61.5508 51.9883 63.1914 51.9883 65.418C51.9883 68.3477 54.8008 70.375 58.8438 70.375ZM58.8438 59.9688C57.2383 59.9688 56.1016 59.0078 56.1016 57.625C56.1016 56.2305 57.2383 55.2695 58.8438 55.2695C60.4375 55.2695 61.5859 56.2305 61.5859 57.625C61.5859 59.0078 60.4375 59.9688 58.8438 59.9688ZM58.8438 67.7969C56.9805 67.7969 55.6797 66.6953 55.6797 65.1602C55.6797 63.6484 56.9805 62.5469 58.8438 62.5469C60.707 62.5469 61.9961 63.6367 61.9961 65.1602C61.9961 66.6953 60.707 67.7969 58.8438 67.7969Z" fill="white"/>
<path d="M84.1689 18.3174V31H88.6426C92.4219 31 94.6455 28.6445 94.6455 24.6367C94.6455 20.6377 92.4131 18.3174 88.6426 18.3174H84.1689ZM86.1377 20.0137H88.458C91.1387 20.0137 92.6328 21.666 92.6328 24.6543C92.6328 27.6514 91.1475 29.2949 88.458 29.2949H86.1377V20.0137ZM102.424 28.2842C102.169 29.0928 101.369 29.6377 100.288 29.6377C98.7676 29.6377 97.8008 28.5742 97.8008 26.9658V26.8516H104.331V26.2012C104.331 23.3975 102.731 21.5869 100.165 21.5869C97.5547 21.5869 95.8848 23.5205 95.8848 26.4209C95.8848 29.3389 97.5283 31.1758 100.244 31.1758C102.362 31.1758 103.962 29.9717 104.226 28.2842H102.424ZM100.165 23.1162C101.492 23.1162 102.389 24.1094 102.433 25.5244H97.8096C97.9062 24.127 98.8379 23.1162 100.165 23.1162ZM106.818 20.2598C107.425 20.2598 107.908 19.7676 107.908 19.1699C107.908 18.5635 107.425 18.0801 106.818 18.0801C106.212 18.0801 105.72 18.5635 105.72 19.1699C105.72 19.7676 106.212 20.2598 106.818 20.2598ZM105.869 31H107.768V21.7539H105.869V31ZM109.71 31H111.608V25.6123C111.608 24.1797 112.47 23.2305 113.806 23.2305C115.124 23.2305 115.774 23.9951 115.774 25.3838V31H117.682V25.0146C117.682 22.8965 116.513 21.5957 114.474 21.5957C113.05 21.5957 112.065 22.2461 111.564 23.3008H111.521V21.7539H109.71V31ZM122.832 27.5195C122.955 29.7783 124.862 31.2109 127.728 31.2109C130.681 31.2109 132.562 29.708 132.562 27.3174C132.562 25.4717 131.472 24.4082 128.817 23.8457L127.429 23.5557C125.785 23.2041 125.135 22.5889 125.135 21.666C125.135 20.5059 126.225 19.7852 127.71 19.7852C129.248 19.7852 130.294 20.5674 130.417 21.8418H132.324C132.263 19.627 130.426 18.1064 127.736 18.1064C125.038 18.1064 123.131 19.6006 123.131 21.7715C123.131 23.5996 124.282 24.7773 126.822 25.3135L128.202 25.6035C129.898 25.9727 130.566 26.5879 130.566 27.5723C130.566 28.7061 129.415 29.5322 127.807 29.5322C126.119 29.5322 124.924 28.7764 124.748 27.5195H122.832ZM142.045 24.9355C141.878 23.1162 140.428 21.5869 138.046 21.5869C135.418 21.5869 133.695 23.4414 133.695 26.377C133.695 29.3652 135.418 31.1758 138.063 31.1758C140.287 31.1758 141.86 29.8398 142.062 27.8711H140.234C140.015 28.9434 139.25 29.585 138.081 29.585C136.604 29.585 135.629 28.4072 135.629 26.377C135.629 24.3906 136.596 23.1689 138.063 23.1689C139.303 23.1689 140.041 23.9512 140.234 24.9355H142.045ZM147.38 31.1758C150.025 31.1758 151.766 29.3564 151.766 26.377C151.766 23.4062 150.017 21.5869 147.38 21.5869C144.743 21.5869 142.994 23.4062 142.994 26.377C142.994 29.3564 144.734 31.1758 147.38 31.1758ZM147.38 29.6113C145.895 29.6113 144.928 28.4336 144.928 26.377C144.928 24.3291 145.895 23.1514 147.38 23.1514C148.865 23.1514 149.832 24.3291 149.832 26.377C149.832 28.4336 148.874 29.6113 147.38 29.6113ZM153.233 31H155.132V25.4629C155.132 24.1533 155.888 23.3359 157.109 23.3359C157.479 23.3359 157.812 23.3799 157.962 23.4414V21.6748C157.821 21.6484 157.584 21.6045 157.312 21.6045C156.222 21.6045 155.396 22.2461 155.088 23.3271H155.044V21.7539H153.233V31ZM164.861 28.2842C164.606 29.0928 163.807 29.6377 162.726 29.6377C161.205 29.6377 160.238 28.5742 160.238 26.9658V26.8516H166.769V26.2012C166.769 23.3975 165.169 21.5869 162.603 21.5869C159.992 21.5869 158.322 23.5205 158.322 26.4209C158.322 29.3389 159.966 31.1758 162.682 31.1758C164.8 31.1758 166.399 29.9717 166.663 28.2842H164.861ZM162.603 23.1162C163.93 23.1162 164.826 24.1094 164.87 25.5244H160.247C160.344 24.127 161.275 23.1162 162.603 23.1162ZM171.972 31H173.87V25.6562C173.87 24.1973 174.731 23.2305 176.138 23.2305C177.474 23.2305 178.159 24.0479 178.159 25.4102V31H180.066V25.041C180.066 22.9492 178.854 21.5957 176.823 21.5957C175.417 21.5957 174.406 22.2197 173.896 23.3008H173.853V18.3174H171.972V31ZM184.61 31.1582C185.823 31.1582 186.992 30.5078 187.528 29.4795H187.572V31H189.392V24.6279C189.392 22.7734 187.959 21.5869 185.718 21.5869C183.433 21.5869 182.009 22.8174 181.903 24.4873H183.696C183.863 23.6611 184.549 23.1338 185.647 23.1338C186.808 23.1338 187.502 23.749 187.502 24.7773V25.4893L184.971 25.6387C182.773 25.7617 181.534 26.7549 181.534 28.3721C181.534 30.0332 182.8 31.1582 184.61 31.1582ZM185.138 29.6553C184.118 29.6553 183.45 29.1279 183.45 28.3193C183.45 27.5283 184.092 27.0273 185.226 26.9482L187.502 26.8076V27.5371C187.502 28.7412 186.465 29.6553 185.138 29.6553ZM191.791 19.5654V21.7539H190.446V23.2568H191.791V28.5654C191.791 30.3496 192.521 31.0615 194.393 31.0615C194.814 31.0615 195.236 31.0264 195.447 30.9736V29.4707C195.324 29.4971 195.017 29.5146 194.823 29.5146C194.05 29.5146 193.698 29.1543 193.698 28.3545V23.2568H195.456V21.7539H193.698V19.5654H191.791ZM200.51 24.373C200.51 25.7178 201.38 26.5615 203.138 26.9658L204.641 27.3174C205.651 27.5459 205.994 27.8975 205.994 28.4951C205.994 29.251 205.291 29.7256 204.148 29.7256C202.988 29.7256 202.329 29.251 202.153 28.2842H200.272C200.448 30.042 201.837 31.1758 204.148 31.1758C206.328 31.1758 207.901 30.0156 207.901 28.3281C207.901 26.9922 207.181 26.2539 205.291 25.8145L203.788 25.4717C202.786 25.2432 202.364 24.8477 202.364 24.2676C202.364 23.5293 203.05 23.0283 204.078 23.0283C205.142 23.0283 205.801 23.5908 205.906 24.4873H207.69C207.629 22.7822 206.231 21.5869 204.078 21.5869C201.951 21.5869 200.51 22.7207 200.51 24.373ZM210.389 20.2598C210.995 20.2598 211.479 19.7676 211.479 19.1699C211.479 18.5635 210.995 18.0801 210.389 18.0801C209.782 18.0801 209.29 18.5635 209.29 19.1699C209.29 19.7676 209.782 20.2598 210.389 20.2598ZM209.439 31H211.338V21.7539H209.439V31ZM221.217 24.9355C221.05 23.1162 219.6 21.5869 217.218 21.5869C214.59 21.5869 212.867 23.4414 212.867 26.377C212.867 29.3652 214.59 31.1758 217.235 31.1758C219.459 31.1758 221.032 29.8398 221.234 27.8711H219.406C219.187 28.9434 218.422 29.585 217.253 29.585C215.776 29.585 214.801 28.4072 214.801 26.377C214.801 24.3906 215.768 23.1689 217.235 23.1689C218.475 23.1689 219.213 23.9512 219.406 24.9355H221.217ZM222.649 31H224.548V25.6562C224.548 24.1973 225.409 23.2305 226.815 23.2305C228.151 23.2305 228.837 24.0479 228.837 25.4102V31H230.744V25.041C230.744 22.9492 229.531 21.5957 227.501 21.5957C226.095 21.5957 225.084 22.2197 224.574 23.3008H224.53V18.3174H222.649V31ZM237.248 20.2598C237.854 20.2598 238.338 19.7676 238.338 19.1699C238.338 18.5635 237.854 18.0801 237.248 18.0801C236.642 18.0801 236.149 18.5635 236.149 19.1699C236.149 19.7676 236.642 20.2598 237.248 20.2598ZM236.299 31H238.197V21.7539H236.299V31ZM240.14 31H242.038V25.6123C242.038 24.1797 242.899 23.2305 244.235 23.2305C245.554 23.2305 246.204 23.9951 246.204 25.3838V31H248.111V25.0146C248.111 22.8965 246.942 21.5957 244.903 21.5957C243.479 21.5957 242.495 22.2461 241.994 23.3008H241.95V21.7539H240.14V31ZM257.076 31.1582C258.421 31.1582 259.476 30.4814 260.021 29.4268H260.056V31H261.901V18.3174H259.994V23.292H259.959C259.44 22.2725 258.386 21.6045 257.059 21.6045C254.738 21.6045 253.191 23.459 253.191 26.377C253.191 29.2949 254.738 31.1582 257.076 31.1582ZM257.577 23.2041C259.036 23.2041 260.012 24.4609 260.012 26.377C260.012 28.3105 259.036 29.5498 257.577 29.5498C256.074 29.5498 255.134 28.3281 255.134 26.377C255.134 24.4346 256.074 23.2041 257.577 23.2041ZM269.979 28.2842C269.724 29.0928 268.924 29.6377 267.843 29.6377C266.322 29.6377 265.355 28.5742 265.355 26.9658V26.8516H271.886V26.2012C271.886 23.3975 270.286 21.5869 267.72 21.5869C265.109 21.5869 263.439 23.5205 263.439 26.4209C263.439 29.3389 265.083 31.1758 267.799 31.1758C269.917 31.1758 271.517 29.9717 271.78 28.2842H269.979ZM267.72 23.1162C269.047 23.1162 269.943 24.1094 269.987 25.5244H265.364C265.461 24.127 266.393 23.1162 267.72 23.1162ZM273.362 31H275.261V25.6123C275.261 24.1797 276.122 23.2305 277.458 23.2305C278.776 23.2305 279.427 23.9951 279.427 25.3838V31H281.334V25.0146C281.334 22.8965 280.165 21.5957 278.126 21.5957C276.702 21.5957 275.718 22.2461 275.217 23.3008H275.173V21.7539H273.362V31ZM286.897 31H288.796V18.3174H286.897V31ZM296.873 28.2842C296.618 29.0928 295.818 29.6377 294.737 29.6377C293.217 29.6377 292.25 28.5742 292.25 26.9658V26.8516H298.78V26.2012C298.78 23.3975 297.181 21.5869 294.614 21.5869C292.004 21.5869 290.334 23.5205 290.334 26.4209C290.334 29.3389 291.978 31.1758 294.693 31.1758C296.812 31.1758 298.411 29.9717 298.675 28.2842H296.873ZM294.614 23.1162C295.941 23.1162 296.838 24.1094 296.882 25.5244H292.259C292.355 24.127 293.287 23.1162 294.614 23.1162ZM300.811 19.5654V21.7539H299.466V23.2568H300.811V28.5654C300.811 30.3496 301.54 31.0615 303.412 31.0615C303.834 31.0615 304.256 31.0264 304.467 30.9736V29.4707C304.344 29.4971 304.036 29.5146 303.843 29.5146C303.069 29.5146 302.718 29.1543 302.718 28.3545V23.2568H304.476V21.7539H302.718V19.5654H300.811ZM305.847 31H313.01V29.4883H308.149V29.4531L312.957 23.0547V21.7539H305.882V23.2656H310.777V23.3008L305.847 29.7783V31ZM315.26 19.5654V21.7539H313.915V23.2568H315.26V28.5654C315.26 30.3496 315.989 31.0615 317.861 31.0615C318.283 31.0615 318.705 31.0264 318.916 30.9736V29.4707C318.793 29.4971 318.485 29.5146 318.292 29.5146C317.519 29.5146 317.167 29.1543 317.167 28.3545V23.2568H318.925V21.7539H317.167V19.5654H315.26ZM326.387 28.2842C326.132 29.0928 325.332 29.6377 324.251 29.6377C322.73 29.6377 321.764 28.5742 321.764 26.9658V26.8516H328.294V26.2012C328.294 23.3975 326.694 21.5869 324.128 21.5869C321.518 21.5869 319.848 23.5205 319.848 26.4209C319.848 29.3389 321.491 31.1758 324.207 31.1758C326.325 31.1758 327.925 29.9717 328.188 28.2842H326.387ZM324.128 23.1162C325.455 23.1162 326.352 24.1094 326.396 25.5244H321.772C321.869 24.127 322.801 23.1162 324.128 23.1162ZM329.771 31H331.669V25.6123C331.669 24.1797 332.53 23.2305 333.866 23.2305C335.185 23.2305 335.835 23.9951 335.835 25.3838V31H337.742V25.0146C337.742 22.8965 336.573 21.5957 334.534 21.5957C333.11 21.5957 332.126 22.2461 331.625 23.3008H331.581V21.7539H329.771V31ZM343.174 22.0527H345.037C345.037 20.6992 346.136 19.7061 347.586 19.7061C348.931 19.7061 349.81 20.6201 349.81 21.7891C349.81 22.7822 349.423 23.4326 347.753 25.1377L343.279 29.6465V31H351.954V29.3389H345.916V29.2949L348.799 26.4033C351.066 24.1357 351.752 23.125 351.752 21.666C351.752 19.6709 350.073 18.0801 347.586 18.0801C345.037 18.0801 343.174 19.75 343.174 22.0527ZM91.4023 42.4375H91.4902L94.2324 52H96.0869L99.5146 39.3174H97.4668L95.1201 49.249H95.0498L92.3604 39.3174H90.5322L87.8516 49.249H87.7812L85.4346 39.3174H83.3867L86.8057 52H88.6689L91.4023 42.4375ZM103.821 52.1758C106.467 52.1758 108.207 50.3564 108.207 47.377C108.207 44.4062 106.458 42.5869 103.821 42.5869C101.185 42.5869 99.4355 44.4062 99.4355 47.377C99.4355 50.3564 101.176 52.1758 103.821 52.1758ZM103.821 50.6113C102.336 50.6113 101.369 49.4336 101.369 47.377C101.369 45.3291 102.336 44.1514 103.821 44.1514C105.307 44.1514 106.273 45.3291 106.273 47.377C106.273 49.4336 105.315 50.6113 103.821 50.6113ZM117.611 45.9355C117.444 44.1162 115.994 42.5869 113.612 42.5869C110.984 42.5869 109.262 44.4414 109.262 47.377C109.262 50.3652 110.984 52.1758 113.63 52.1758C115.854 52.1758 117.427 50.8398 117.629 48.8711H115.801C115.581 49.9434 114.816 50.585 113.647 50.585C112.171 50.585 111.195 49.4072 111.195 47.377C111.195 45.3906 112.162 44.1689 113.63 44.1689C114.869 44.1689 115.607 44.9512 115.801 45.9355H117.611ZM119.044 52H120.942V46.6562C120.942 45.1973 121.804 44.2305 123.21 44.2305C124.546 44.2305 125.231 45.0479 125.231 46.4102V52H127.139V46.041C127.139 43.9492 125.926 42.5957 123.896 42.5957C122.489 42.5957 121.479 43.2197 120.969 44.3008H120.925V39.3174H119.044V52ZM135.102 49.2842C134.847 50.0928 134.047 50.6377 132.966 50.6377C131.445 50.6377 130.479 49.5742 130.479 47.9658V47.8516H137.009V47.2012C137.009 44.3975 135.409 42.5869 132.843 42.5869C130.232 42.5869 128.562 44.5205 128.562 47.4209C128.562 50.3389 130.206 52.1758 132.922 52.1758C135.04 52.1758 136.64 50.9717 136.903 49.2842H135.102ZM132.843 44.1162C134.17 44.1162 135.066 45.1094 135.11 46.5244H130.487C130.584 45.127 131.516 44.1162 132.843 44.1162ZM138.485 52H140.384V46.6123C140.384 45.1797 141.245 44.2305 142.581 44.2305C143.899 44.2305 144.55 44.9951 144.55 46.3838V52H146.457V46.0146C146.457 43.8965 145.288 42.5957 143.249 42.5957C141.825 42.5957 140.841 43.2461 140.34 44.3008H140.296V42.7539H138.485V52ZM158.076 49.2842C157.821 50.0928 157.021 50.6377 155.94 50.6377C154.42 50.6377 153.453 49.5742 153.453 47.9658V47.8516H159.983V47.2012C159.983 44.3975 158.384 42.5869 155.817 42.5869C153.207 42.5869 151.537 44.5205 151.537 47.4209C151.537 50.3389 153.181 52.1758 155.896 52.1758C158.015 52.1758 159.614 50.9717 159.878 49.2842H158.076ZM155.817 44.1162C157.145 44.1162 158.041 45.1094 158.085 46.5244H153.462C153.559 45.127 154.49 44.1162 155.817 44.1162ZM161.46 52H163.358V46.4629C163.358 45.1533 164.114 44.3359 165.336 44.3359C165.705 44.3359 166.039 44.3799 166.188 44.4414V42.6748C166.048 42.6484 165.811 42.6045 165.538 42.6045C164.448 42.6045 163.622 43.2461 163.314 44.3271H163.271V42.7539H161.46V52ZM167.437 52H169.335V46.6562C169.335 45.1973 170.196 44.2305 171.603 44.2305C172.938 44.2305 173.624 45.0479 173.624 46.4102V52H175.531V46.041C175.531 43.9492 174.318 42.5957 172.288 42.5957C170.882 42.5957 169.871 43.2197 169.361 44.3008H169.317V39.3174H167.437V52ZM179.627 41.2334C180.225 41.2334 180.699 40.7588 180.699 40.1699C180.699 39.5811 180.225 39.1064 179.627 39.1064C179.038 39.1064 178.563 39.5811 178.563 40.1699C178.563 40.7588 179.038 41.2334 179.627 41.2334ZM183.063 41.2334C183.661 41.2334 184.127 40.7588 184.127 40.1699C184.127 39.5811 183.661 39.1064 183.063 39.1064C182.466 39.1064 181.991 39.5811 181.991 40.1699C181.991 40.7588 182.466 41.2334 183.063 41.2334ZM181.341 52.1758C183.986 52.1758 185.727 50.3564 185.727 47.377C185.727 44.4062 183.978 42.5869 181.341 42.5869C178.704 42.5869 176.955 44.4062 176.955 47.377C176.955 50.3564 178.695 52.1758 181.341 52.1758ZM181.341 50.6113C179.855 50.6113 178.889 49.4336 178.889 47.377C178.889 45.3291 179.855 44.1514 181.341 44.1514C182.826 44.1514 183.793 45.3291 183.793 47.377C183.793 49.4336 182.835 50.6113 181.341 50.6113ZM187.265 52H189.163V46.6562C189.163 45.1973 190.024 44.2305 191.431 44.2305C192.767 44.2305 193.452 45.0479 193.452 46.4102V52H195.359V46.041C195.359 43.9492 194.146 42.5957 192.116 42.5957C190.71 42.5957 189.699 43.2197 189.189 44.3008H189.146V39.3174H187.265V52ZM197.75 40.5654V42.7539H196.405V44.2568H197.75V49.5654C197.75 51.3496 198.479 52.0615 200.352 52.0615C200.773 52.0615 201.195 52.0264 201.406 51.9736V50.4707C201.283 50.4971 200.976 50.5146 200.782 50.5146C200.009 50.5146 199.657 50.1543 199.657 49.3545V44.2568H201.415V42.7539H199.657V40.5654H197.75ZM203.621 39.3174L203.762 47.7988H205.44L205.581 39.3174H203.621ZM204.597 52.1318C205.256 52.1318 205.757 51.6396 205.757 50.998C205.757 50.3564 205.256 49.8643 204.597 49.8643C203.955 49.8643 203.445 50.3564 203.445 50.998C203.445 51.6396 203.955 52.1318 204.597 52.1318Z" fill="black"/>
<path d="M82.0938 64.7266V76H85.8828C89.2344 76 91.2031 73.9141 91.2031 70.3594C91.2031 66.8125 89.2266 64.7266 85.8828 64.7266H82.0938ZM83.5 65.9922H85.7891C88.3516 65.9922 89.7656 67.5547 89.7656 70.375C89.7656 73.1719 88.3438 74.7344 85.7891 74.7344H83.5V65.9922ZM95.1172 76.1406C96.2109 76.1406 97.2422 75.5312 97.7266 74.6016H97.7578V76H99.0469V70.3828C99.0469 68.7656 97.8438 67.7344 95.9375 67.7344C94.0156 67.7344 92.8125 68.8125 92.7188 70.2188H94.0312C94.2031 69.4219 94.8594 68.9297 95.9062 68.9297C97.0312 68.9297 97.6875 69.5234 97.6875 70.5156V71.1953L95.3594 71.3281C93.4844 71.4375 92.4141 72.3125 92.4141 73.7031C92.4141 75.1641 93.5 76.1406 95.1172 76.1406ZM95.4219 74.9844C94.4453 74.9844 93.7969 74.4766 93.7969 73.7031C93.7969 72.9375 94.4219 72.4531 95.5156 72.3828L97.6875 72.25V72.9141C97.6875 74.0859 96.7031 74.9844 95.4219 74.9844ZM103.852 76.1406C105.023 76.1406 105.953 75.5625 106.477 74.625H106.5V76H107.797V64.7266H106.438V69.1953H106.406C105.922 68.3047 104.984 67.7344 103.82 67.7344C101.773 67.7344 100.375 69.3906 100.375 71.9375C100.375 74.4844 101.781 76.1406 103.852 76.1406ZM104.109 68.9297C105.508 68.9297 106.445 70.125 106.445 71.9375C106.445 73.7578 105.508 74.9453 104.109 74.9453C102.672 74.9453 101.766 73.7812 101.766 71.9375C101.766 70.1016 102.672 68.9297 104.109 68.9297ZM116.305 67.875H114.945V72.6484C114.945 74.0312 114.148 74.9375 112.828 74.9375C111.57 74.9375 110.953 74.2266 110.953 72.9062V67.875H109.594V73.1484C109.594 74.9922 110.633 76.1406 112.406 76.1406C113.656 76.1406 114.5 75.6172 114.984 74.6797H115.016V76H116.305V67.875ZM118.07 76H119.43V70.9375C119.43 69.7891 120.117 69.0312 121.172 69.0312C121.5 69.0312 121.789 69.0703 121.898 69.1094V67.7891C121.789 67.7734 121.586 67.7344 121.352 67.7344C120.398 67.7344 119.648 68.3047 119.383 69.2031H119.352V67.875H118.07V76ZM129.367 70.5391C129.195 69.0781 127.984 67.7344 125.953 67.7344C123.711 67.7344 122.219 69.375 122.219 71.9375C122.219 74.5547 123.719 76.1406 125.969 76.1406C127.812 76.1406 129.172 75 129.383 73.3828H128.047C127.812 74.3594 127.086 74.9453 125.977 74.9453C124.57 74.9453 123.602 73.8281 123.602 71.9375C123.602 70.0938 124.555 68.9297 125.961 68.9297C127.156 68.9297 127.844 69.6562 128.039 70.5391H129.367ZM130.703 76H132.062V71.2656C132.062 69.8594 132.898 68.9375 134.25 68.9375C135.523 68.9375 136.172 69.7109 136.172 71V76H137.531V70.75C137.531 68.9375 136.453 67.7344 134.672 67.7344C133.438 67.7344 132.547 68.2656 132.094 69.1719H132.062V64.7266H130.703V76ZM142.398 70.1172C142.398 71.2891 143.141 72 144.672 72.3672L145.961 72.6797C146.891 72.9062 147.211 73.2422 147.211 73.8281C147.211 74.5625 146.531 75.0312 145.43 75.0312C144.328 75.0312 143.703 74.5859 143.539 73.6562H142.18C142.336 75.1797 143.523 76.1406 145.43 76.1406C147.242 76.1406 148.578 75.1406 148.578 73.7266C148.578 72.5625 147.984 71.9219 146.344 71.5234L145.055 71.2109C144.148 70.9922 143.734 70.6094 143.734 70.0469C143.734 69.3359 144.391 68.8438 145.383 68.8438C146.383 68.8438 147.008 69.3672 147.109 70.2188H148.406C148.352 68.7812 147.164 67.7344 145.383 67.7344C143.625 67.7344 142.398 68.7266 142.398 70.1172ZM150.43 65.9141V67.875H149.219V68.9922H150.43V73.8906C150.43 75.4531 151.008 76.0625 152.5 76.0625C152.82 76.0625 153.195 76.0391 153.359 76V74.8594C153.266 74.875 152.953 74.8984 152.797 74.8984C152.102 74.8984 151.789 74.5625 151.789 73.8203V68.9922H153.367V67.875H151.789V65.9141H150.43ZM159.977 73.6719C159.75 74.4375 158.992 74.9609 157.961 74.9609C156.5 74.9609 155.586 73.9375 155.586 72.3828V72.3047H161.414V71.7891C161.414 69.3281 160.062 67.7344 157.867 67.7344C155.625 67.7344 154.188 69.4453 154.188 71.9688C154.188 74.5234 155.602 76.1406 157.93 76.1406C159.703 76.1406 161.078 75.0938 161.312 73.6719H159.977ZM157.844 68.9141C159.125 68.9141 159.977 69.8828 160.008 71.2422H155.594C155.68 69.8906 156.57 68.9141 157.844 68.9141ZM163.539 66.4297C164.016 66.4297 164.391 66.0469 164.391 65.5781C164.391 65.1016 164.016 64.7266 163.539 64.7266C163.07 64.7266 162.688 65.1016 162.688 65.5781C162.688 66.0469 163.07 66.4297 163.539 66.4297ZM162.859 76H164.219V67.875H162.859V76ZM169.406 79.0625C171.648 79.0625 173.078 77.7734 173.078 75.8359V67.875H171.781V69.2422H171.758C171.219 68.2969 170.266 67.7344 169.117 67.7344C167.016 67.7344 165.656 69.3594 165.656 71.9062C165.656 74.4297 167.016 76.0625 169.086 76.0625C170.227 76.0625 171.188 75.4844 171.688 74.6016H171.719V75.8828C171.719 77.0938 170.867 77.9062 169.461 77.9062C168.445 77.9062 167.641 77.4141 167.375 76.6719H165.977C166.203 78.0547 167.617 79.0625 169.406 79.0625ZM169.359 74.8672C167.961 74.8672 167.047 73.7266 167.047 71.9062C167.047 70.0859 167.961 68.9297 169.359 68.9297C170.773 68.9297 171.719 70.1172 171.719 71.9062C171.719 73.6953 170.773 74.8672 169.359 74.8672ZM175.289 65.9141V67.875H174.078V68.9922H175.289V73.8906C175.289 75.4531 175.867 76.0625 177.359 76.0625C177.68 76.0625 178.055 76.0391 178.219 76V74.8594C178.125 74.875 177.812 74.8984 177.656 74.8984C176.961 74.8984 176.648 74.5625 176.648 73.8203V68.9922H178.227V67.875H176.648V65.9141H175.289ZM186.039 76.1406C187.211 76.1406 188.141 75.5625 188.664 74.625H188.688V76H189.984V64.7266H188.625V69.1953H188.594C188.109 68.3047 187.172 67.7344 186.008 67.7344C183.961 67.7344 182.562 69.3906 182.562 71.9375C182.562 74.4844 183.969 76.1406 186.039 76.1406ZM186.297 68.9297C187.695 68.9297 188.633 70.125 188.633 71.9375C188.633 73.7578 187.695 74.9453 186.297 74.9453C184.859 74.9453 183.953 73.7812 183.953 71.9375C183.953 70.1016 184.859 68.9297 186.297 68.9297ZM197.211 73.6719C196.984 74.4375 196.227 74.9609 195.195 74.9609C193.734 74.9609 192.82 73.9375 192.82 72.3828V72.3047H198.648V71.7891C198.648 69.3281 197.297 67.7344 195.102 67.7344C192.859 67.7344 191.422 69.4453 191.422 71.9688C191.422 74.5234 192.836 76.1406 195.164 76.1406C196.938 76.1406 198.312 75.0938 198.547 73.6719H197.211ZM195.078 68.9141C196.359 68.9141 197.211 69.8828 197.242 71.2422H192.828C192.914 69.8906 193.805 68.9141 195.078 68.9141ZM200.773 66.4297C201.25 66.4297 201.625 66.0469 201.625 65.5781C201.625 65.1016 201.25 64.7266 200.773 64.7266C200.305 64.7266 199.922 65.1016 199.922 65.5781C199.922 66.0469 200.305 66.4297 200.773 66.4297ZM200.094 76H201.453V67.875H200.094V76ZM203.289 76H204.648V71.2188C204.648 69.8438 205.484 68.9375 206.766 68.9375C208.016 68.9375 208.633 69.6562 208.633 70.9688V76H209.992V70.7266C209.992 68.8828 208.961 67.7344 207.18 67.7344C205.922 67.7344 205.055 68.2969 204.602 69.1719H204.57V67.875H203.289V76ZM219.859 76.1875C222.352 76.1875 224.023 74.9453 224.539 72.7188H223.117C222.711 74.0938 221.523 74.8906 219.867 74.8906C217.641 74.8906 216.227 73.125 216.227 70.3594C216.227 67.6172 217.656 65.8359 219.859 65.8359C221.469 65.8359 222.758 66.8047 223.117 68.2812H224.539C224.18 66.0312 222.312 64.5391 219.859 64.5391C216.773 64.5391 214.781 66.8203 214.781 70.3594C214.781 73.9297 216.75 76.1875 219.859 76.1875ZM228.367 76.1406C229.461 76.1406 230.492 75.5312 230.977 74.6016H231.008V76H232.297V70.3828C232.297 68.7656 231.094 67.7344 229.188 67.7344C227.266 67.7344 226.062 68.8125 225.969 70.2188H227.281C227.453 69.4219 228.109 68.9297 229.156 68.9297C230.281 68.9297 230.938 69.5234 230.938 70.5156V71.1953L228.609 71.3281C226.734 71.4375 225.664 72.3125 225.664 73.7031C225.664 75.1641 226.75 76.1406 228.367 76.1406ZM228.672 74.9844C227.695 74.9844 227.047 74.4766 227.047 73.7031C227.047 72.9375 227.672 72.4531 228.766 72.3828L230.938 72.25V72.9141C230.938 74.0859 229.953 74.9844 228.672 74.9844ZM233.883 70.1172C233.883 71.2891 234.625 72 236.156 72.3672L237.445 72.6797C238.375 72.9062 238.695 73.2422 238.695 73.8281C238.695 74.5625 238.016 75.0312 236.914 75.0312C235.812 75.0312 235.188 74.5859 235.023 73.6562H233.664C233.82 75.1797 235.008 76.1406 236.914 76.1406C238.727 76.1406 240.062 75.1406 240.062 73.7266C240.062 72.5625 239.469 71.9219 237.828 71.5234L236.539 71.2109C235.633 70.9922 235.219 70.6094 235.219 70.0469C235.219 69.3359 235.875 68.8438 236.867 68.8438C237.867 68.8438 238.492 69.3672 238.594 70.2188H239.891C239.836 68.7812 238.648 67.7344 236.867 67.7344C235.109 67.7344 233.883 68.7266 233.883 70.1172ZM241.547 76H242.906V71.2656C242.906 69.8594 243.742 68.9375 245.094 68.9375C246.367 68.9375 247.016 69.7109 247.016 71V76H248.375V70.75C248.375 68.9375 247.297 67.7344 245.516 67.7344C244.281 67.7344 243.391 68.2656 242.938 69.1719H242.906V64.7266H241.547V76ZM254.141 76.1406C256.219 76.1406 257.594 74.4922 257.594 71.9375C257.594 69.3906 256.211 67.7344 254.164 67.7344C253.016 67.7344 252.07 68.3047 251.562 69.2344H251.531V64.7266H250.172V76H251.469V74.625H251.5C252.023 75.5625 252.953 76.1406 254.141 76.1406ZM253.875 68.9297C255.312 68.9297 256.203 70.0938 256.203 71.9375C256.203 73.7969 255.312 74.9453 253.875 74.9453C252.5 74.9453 251.523 73.75 251.523 71.9375C251.523 70.1328 252.5 68.9297 253.875 68.9297ZM261.352 76.1406C262.445 76.1406 263.477 75.5312 263.961 74.6016H263.992V76H265.281V70.3828C265.281 68.7656 264.078 67.7344 262.172 67.7344C260.25 67.7344 259.047 68.8125 258.953 70.2188H260.266C260.438 69.4219 261.094 68.9297 262.141 68.9297C263.266 68.9297 263.922 69.5234 263.922 70.5156V71.1953L261.594 71.3281C259.719 71.4375 258.648 72.3125 258.648 73.7031C258.648 75.1641 259.734 76.1406 261.352 76.1406ZM261.656 74.9844C260.68 74.9844 260.031 74.4766 260.031 73.7031C260.031 72.9375 260.656 72.4531 261.75 72.3828L263.922 72.25V72.9141C263.922 74.0859 262.938 74.9844 261.656 74.9844ZM273.758 70.5391C273.586 69.0781 272.375 67.7344 270.344 67.7344C268.102 67.7344 266.609 69.375 266.609 71.9375C266.609 74.5547 268.109 76.1406 270.359 76.1406C272.203 76.1406 273.562 75 273.773 73.3828H272.438C272.203 74.3594 271.477 74.9453 270.367 74.9453C268.961 74.9453 267.992 73.8281 267.992 71.9375C267.992 70.0938 268.945 68.9297 270.352 68.9297C271.547 68.9297 272.234 69.6562 272.43 70.5391H273.758ZM276.453 72.9375L277.211 72.2188L280.227 76H281.805L278.172 71.3828L281.695 67.875H280.047L276.453 71.4844V64.7266H275.094V76H276.453V72.9375ZM293.609 76H295.086L290.93 64.7266H289.539L285.383 76H286.859L287.992 72.7734H292.477L293.609 76ZM290.211 66.4375H290.258L292.062 71.5781H288.406L290.211 66.4375ZM296.164 76H297.523V71.2188C297.523 69.8438 298.359 68.9375 299.641 68.9375C300.891 68.9375 301.508 69.6562 301.508 70.9688V76H302.867V70.7266C302.867 68.8828 301.836 67.7344 300.055 67.7344C298.797 67.7344 297.93 68.2969 297.477 69.1719H297.445V67.875H296.164V76ZM305.039 65.9141V67.875H303.828V68.9922H305.039V73.8906C305.039 75.4531 305.617 76.0625 307.109 76.0625C307.43 76.0625 307.805 76.0391 307.969 76V74.8594C307.875 74.875 307.562 74.8984 307.406 74.8984C306.711 74.8984 306.398 74.5625 306.398 73.8203V68.9922H307.977V67.875H306.398V65.9141H305.039ZM314.586 73.6719C314.359 74.4375 313.602 74.9609 312.57 74.9609C311.109 74.9609 310.195 73.9375 310.195 72.3828V72.3047H316.023V71.7891C316.023 69.3281 314.672 67.7344 312.477 67.7344C310.234 67.7344 308.797 69.4453 308.797 71.9688C308.797 74.5234 310.211 76.1406 312.539 76.1406C314.312 76.1406 315.688 75.0938 315.922 73.6719H314.586ZM312.453 68.9141C313.734 68.9141 314.586 69.8828 314.617 71.2422H310.203C310.289 69.8906 311.18 68.9141 312.453 68.9141ZM318.148 66.4297C318.625 66.4297 319 66.0469 319 65.5781C319 65.1016 318.625 64.7266 318.148 64.7266C317.68 64.7266 317.297 65.1016 317.297 65.5781C317.297 66.0469 317.68 66.4297 318.148 66.4297ZM317.469 76H318.828V67.875H317.469V76ZM320.734 76H322.094V64.7266H320.734V76ZM325.078 76.0781C325.578 76.0781 325.969 75.6875 325.969 75.1875C325.969 74.6875 325.578 74.2969 325.078 74.2969C324.578 74.2969 324.188 74.6875 324.188 75.1875C324.188 75.6875 324.578 76.0781 325.078 76.0781ZM83.5 83.7266H82.0938V91.0469C82.0938 93.4531 83.7734 95.1875 86.5703 95.1875C89.3672 95.1875 91.0469 93.4531 91.0469 91.0469V83.7266H89.6406V90.9531C89.6406 92.6562 88.5234 93.8906 86.5703 93.8906C84.6172 93.8906 83.5 92.6562 83.5 90.9531V83.7266ZM93.0234 95H94.3828V89.9062C94.3828 88.7812 95.1641 87.9375 96.2422 87.9375C97.25 87.9375 97.9062 88.5781 97.9062 89.5547V95H99.2656V89.8359C99.2656 88.7344 100.023 87.9375 101.102 87.9375C102.172 87.9375 102.789 88.5938 102.789 89.7031V95H104.148V89.3906C104.148 87.7812 103.109 86.7344 101.5 86.7344C100.359 86.7344 99.4062 87.3125 98.9531 88.2812H98.9219C98.5703 87.2969 97.75 86.7344 96.6406 86.7344C95.5469 86.7344 94.7188 87.3125 94.3359 88.1719H94.3047V86.875H93.0234V95ZM109.164 95H110.523V89.9062C110.523 88.7812 111.305 87.9375 112.383 87.9375C113.391 87.9375 114.047 88.5781 114.047 89.5547V95H115.406V89.8359C115.406 88.7344 116.164 87.9375 117.242 87.9375C118.312 87.9375 118.93 88.5938 118.93 89.7031V95H120.289V89.3906C120.289 87.7812 119.25 86.7344 117.641 86.7344C116.5 86.7344 115.547 87.3125 115.094 88.2812H115.062C114.711 87.2969 113.891 86.7344 112.781 86.7344C111.688 86.7344 110.859 87.3125 110.477 88.1719H110.445V86.875H109.164V95ZM127.414 92.6719C127.188 93.4375 126.43 93.9609 125.398 93.9609C123.938 93.9609 123.023 92.9375 123.023 91.3828V91.3047H128.852V90.7891C128.852 88.3281 127.5 86.7344 125.305 86.7344C123.062 86.7344 121.625 88.4453 121.625 90.9688C121.625 93.5234 123.039 95.1406 125.367 95.1406C127.141 95.1406 128.516 94.0938 128.75 92.6719H127.414ZM125.281 87.9141C126.562 87.9141 127.414 88.8828 127.445 90.2422H123.031C123.117 88.8906 124.008 87.9141 125.281 87.9141ZM130.297 95H131.656V90.2656C131.656 88.8594 132.492 87.9375 133.844 87.9375C135.117 87.9375 135.766 88.7109 135.766 90V95H137.125V89.75C137.125 87.9375 136.047 86.7344 134.266 86.7344C133.031 86.7344 132.141 87.2656 131.688 88.1719H131.656V83.7266H130.297V95ZM138.852 95H140.211V89.9375C140.211 88.7891 140.898 88.0312 141.953 88.0312C142.281 88.0312 142.57 88.0703 142.68 88.1094V86.7891C142.57 86.7734 142.367 86.7344 142.133 86.7344C141.18 86.7344 140.43 87.3047 140.164 88.2031H140.133V86.875H138.852V95ZM147.281 83.7266V95H148.688V90.9766H151.289C153.406 90.9766 154.914 89.4844 154.914 87.3438C154.914 85.2109 153.422 83.7266 151.305 83.7266H147.281ZM148.688 84.9766H150.938C152.555 84.9766 153.469 85.8516 153.469 87.3438C153.469 88.8438 152.547 89.7266 150.938 89.7266H148.688V84.9766ZM162.992 86.875H161.633V91.6484C161.633 93.0312 160.836 93.9375 159.516 93.9375C158.258 93.9375 157.641 93.2266 157.641 91.9062V86.875H156.281V92.1484C156.281 93.9922 157.32 95.1406 159.094 95.1406C160.344 95.1406 161.188 94.6172 161.672 93.6797H161.703V95H162.992V86.875ZM164.758 95H166.117V90.2188C166.117 88.8438 166.953 87.9375 168.234 87.9375C169.484 87.9375 170.102 88.6562 170.102 89.9688V95H171.461V89.7266C171.461 87.8828 170.43 86.7344 168.648 86.7344C167.391 86.7344 166.523 87.2969 166.07 88.1719H166.039V86.875H164.758V95ZM174.625 91.9375L175.383 91.2188L178.398 95H179.977L176.344 90.3828L179.867 86.875H178.219L174.625 90.4844V83.7266H173.266V95H174.625V91.9375ZM181.398 84.9141V86.875H180.188V87.9922H181.398V92.8906C181.398 94.4531 181.977 95.0625 183.469 95.0625C183.789 95.0625 184.164 95.0391 184.328 95V93.8594C184.234 93.875 183.922 93.8984 183.766 93.8984C183.07 93.8984 182.758 93.5625 182.758 92.8203V87.9922H184.336V86.875H182.758V84.9141H181.398ZM190.945 92.6719C190.719 93.4375 189.961 93.9609 188.93 93.9609C187.469 93.9609 186.555 92.9375 186.555 91.3828V91.3047H192.383V90.7891C192.383 88.3281 191.031 86.7344 188.836 86.7344C186.594 86.7344 185.156 88.4453 185.156 90.9688C185.156 93.5234 186.57 95.1406 188.898 95.1406C190.672 95.1406 192.047 94.0938 192.281 92.6719H190.945ZM188.812 87.9141C190.094 87.9141 190.945 88.8828 190.977 90.2422H186.562C186.648 88.8906 187.539 87.9141 188.812 87.9141ZM196.867 95H202.93V93.8828H198.438V93.8594L202.906 87.8672V86.875H196.875V87.9922H201.367V88.0156L196.867 94.0312V95ZM211.195 86.875H209.836V91.6484C209.836 93.0312 209.039 93.9375 207.719 93.9375C206.461 93.9375 205.844 93.2266 205.844 91.9062V86.875H204.484V92.1484C204.484 93.9922 205.523 95.1406 207.297 95.1406C208.547 95.1406 209.391 94.6172 209.875 93.6797H209.906V95H211.195V86.875ZM216.102 89.1172C216.102 90.2891 216.844 91 218.375 91.3672L219.664 91.6797C220.594 91.9062 220.914 92.2422 220.914 92.8281C220.914 93.5625 220.234 94.0312 219.133 94.0312C218.031 94.0312 217.406 93.5859 217.242 92.6562H215.883C216.039 94.1797 217.227 95.1406 219.133 95.1406C220.945 95.1406 222.281 94.1406 222.281 92.7266C222.281 91.5625 221.688 90.9219 220.047 90.5234L218.758 90.2109C217.852 89.9922 217.438 89.6094 217.438 89.0469C217.438 88.3359 218.094 87.8438 219.086 87.8438C220.086 87.8438 220.711 88.3672 220.812 89.2188H222.109C222.055 87.7812 220.867 86.7344 219.086 86.7344C217.328 86.7344 216.102 87.7266 216.102 89.1172ZM226.07 95.1406C227.164 95.1406 228.195 94.5312 228.68 93.6016H228.711V95H230V89.3828C230 87.7656 228.797 86.7344 226.891 86.7344C224.969 86.7344 223.766 87.8125 223.672 89.2188H224.984C225.156 88.4219 225.812 87.9297 226.859 87.9297C227.984 87.9297 228.641 88.5234 228.641 89.5156V90.1953L226.312 90.3281C224.438 90.4375 223.367 91.3125 223.367 92.7031C223.367 94.1641 224.453 95.1406 226.07 95.1406ZM226.375 93.9844C225.398 93.9844 224.75 93.4766 224.75 92.7031C224.75 91.9375 225.375 91.4531 226.469 91.3828L228.641 91.25V91.9141C228.641 93.0859 227.656 93.9844 226.375 93.9844ZM231.727 95H233.086V89.9062C233.086 88.7812 233.867 87.9375 234.945 87.9375C235.953 87.9375 236.609 88.5781 236.609 89.5547V95H237.969V89.8359C237.969 88.7344 238.727 87.9375 239.805 87.9375C240.875 87.9375 241.492 88.5938 241.492 89.7031V95H242.852V89.3906C242.852 87.7812 241.812 86.7344 240.203 86.7344C239.062 86.7344 238.109 87.3125 237.656 88.2812H237.625C237.273 87.2969 236.453 86.7344 235.344 86.7344C234.25 86.7344 233.422 87.3125 233.039 88.1719H233.008V86.875H231.727V95ZM244.586 95H245.945V89.9062C245.945 88.7812 246.727 87.9375 247.805 87.9375C248.812 87.9375 249.469 88.5781 249.469 89.5547V95H250.828V89.8359C250.828 88.7344 251.586 87.9375 252.664 87.9375C253.734 87.9375 254.352 88.5938 254.352 89.7031V95H255.711V89.3906C255.711 87.7812 254.672 86.7344 253.062 86.7344C251.922 86.7344 250.969 87.3125 250.516 88.2812H250.484C250.133 87.2969 249.312 86.7344 248.203 86.7344C247.109 86.7344 246.281 87.3125 245.898 88.1719H245.867V86.875H244.586V95ZM262.836 92.6719C262.609 93.4375 261.852 93.9609 260.82 93.9609C259.359 93.9609 258.445 92.9375 258.445 91.3828V91.3047H264.273V90.7891C264.273 88.3281 262.922 86.7344 260.727 86.7344C258.484 86.7344 257.047 88.4453 257.047 90.9688C257.047 93.5234 258.461 95.1406 260.789 95.1406C262.562 95.1406 263.938 94.0938 264.172 92.6719H262.836ZM260.703 87.9141C261.984 87.9141 262.836 88.8828 262.867 90.2422H258.453C258.539 88.8906 259.43 87.9141 260.703 87.9141ZM265.719 95H267.078V83.7266H265.719V95ZM268.914 95H270.273V90.2188C270.273 88.8438 271.109 87.9375 272.391 87.9375C273.641 87.9375 274.258 88.6562 274.258 89.9688V95H275.617V89.7266C275.617 87.8828 274.586 86.7344 272.805 86.7344C271.547 86.7344 270.68 87.2969 270.227 88.1719H270.195V86.875H268.914V95ZM278.281 97.2422L279.352 93.2656H277.906L277.148 97.2422H278.281ZM283.914 95H285.273V90.2188C285.273 88.8438 286.109 87.9375 287.391 87.9375C288.641 87.9375 289.258 88.6562 289.258 89.9688V95H290.617V89.7266C290.617 87.8828 289.586 86.7344 287.805 86.7344C286.547 86.7344 285.68 87.2969 285.227 88.1719H285.195V86.875H283.914V95ZM299.023 86.875H297.664V91.6484C297.664 93.0312 296.867 93.9375 295.547 93.9375C294.289 93.9375 293.672 93.2266 293.672 91.9062V86.875H292.312V92.1484C292.312 93.9922 293.352 95.1406 295.125 95.1406C296.375 95.1406 297.219 94.6172 297.703 93.6797H297.734V95H299.023V86.875ZM301.227 84.9141V86.875H300.016V87.9922H301.227V92.8906C301.227 94.4531 301.805 95.0625 303.297 95.0625C303.617 95.0625 303.992 95.0391 304.156 95V93.8594C304.062 93.875 303.75 93.8984 303.594 93.8984C302.898 93.8984 302.586 93.5625 302.586 92.8203V87.9922H304.164V86.875H302.586V84.9141H301.227ZM305.445 95H311.508V93.8828H307.016V93.8594L311.484 87.8672V86.875H305.453V87.9922H309.945V88.0156L305.445 94.0312V95ZM318.18 92.6719C317.953 93.4375 317.195 93.9609 316.164 93.9609C314.703 93.9609 313.789 92.9375 313.789 91.3828V91.3047H319.617V90.7891C319.617 88.3281 318.266 86.7344 316.07 86.7344C313.828 86.7344 312.391 88.4453 312.391 90.9688C312.391 93.5234 313.805 95.1406 316.133 95.1406C317.906 95.1406 319.281 94.0938 319.516 92.6719H318.18ZM316.047 87.9141C317.328 87.9141 318.18 88.8828 318.211 90.2422H313.797C313.883 88.8906 314.773 87.9141 316.047 87.9141ZM81.8828 114H83.2422V108.906C83.2422 107.781 84.0234 106.938 85.1016 106.938C86.1094 106.938 86.7656 107.578 86.7656 108.555V114H88.125V108.836C88.125 107.734 88.8828 106.938 89.9609 106.938C91.0312 106.938 91.6484 107.594 91.6484 108.703V114H93.0078V108.391C93.0078 106.781 91.9688 105.734 90.3594 105.734C89.2188 105.734 88.2656 106.312 87.8125 107.281H87.7812C87.4297 106.297 86.6094 105.734 85.5 105.734C84.4062 105.734 83.5781 106.312 83.1953 107.172H83.1641V105.875H81.8828V114ZM100.133 111.672C99.9062 112.438 99.1484 112.961 98.1172 112.961C96.6562 112.961 95.7422 111.938 95.7422 110.383V110.305H101.57V109.789C101.57 107.328 100.219 105.734 98.0234 105.734C95.7812 105.734 94.3438 107.445 94.3438 109.969C94.3438 112.523 95.7578 114.141 98.0859 114.141C99.8594 114.141 101.234 113.094 101.469 111.672H100.133ZM98 106.914C99.2812 106.914 100.133 107.883 100.164 109.242H95.75C95.8359 107.891 96.7266 106.914 98 106.914ZM103.016 114H104.375V109.266C104.375 107.859 105.211 106.938 106.562 106.938C107.836 106.938 108.484 107.711 108.484 109V114H109.844V108.75C109.844 106.938 108.766 105.734 106.984 105.734C105.75 105.734 104.859 106.266 104.406 107.172H104.375V102.727H103.016V114ZM111.57 114H112.93V108.938C112.93 107.789 113.617 107.031 114.672 107.031C115 107.031 115.289 107.07 115.398 107.109V105.789C115.289 105.773 115.086 105.734 114.852 105.734C113.898 105.734 113.148 106.305 112.883 107.203H112.852V105.875H111.57V114ZM124.258 114V103.992H127.812V102.727H119.297V103.992H122.852V114H124.258ZM130.344 114.141C132.586 114.141 134.102 112.523 134.102 109.938C134.102 107.344 132.586 105.734 130.344 105.734C128.094 105.734 126.578 107.344 126.578 109.938C126.578 112.523 128.094 114.141 130.344 114.141ZM130.344 112.945C128.906 112.945 127.961 111.852 127.961 109.938C127.961 108.023 128.906 106.93 130.344 106.93C131.781 106.93 132.719 108.023 132.719 109.938C132.719 111.852 131.781 112.945 130.344 112.945ZM138.844 114.141C141.086 114.141 142.602 112.523 142.602 109.938C142.602 107.344 141.086 105.734 138.844 105.734C136.594 105.734 135.078 107.344 135.078 109.938C135.078 112.523 136.594 114.141 138.844 114.141ZM138.844 112.945C137.406 112.945 136.461 111.852 136.461 109.938C136.461 108.023 137.406 106.93 138.844 106.93C140.281 106.93 141.219 108.023 141.219 109.938C141.219 111.852 140.281 112.945 138.844 112.945ZM144.047 114H145.406V102.727H144.047V114ZM147.102 108.117C147.102 109.289 147.844 110 149.375 110.367L150.664 110.68C151.594 110.906 151.914 111.242 151.914 111.828C151.914 112.562 151.234 113.031 150.133 113.031C149.031 113.031 148.406 112.586 148.242 111.656H146.883C147.039 113.18 148.227 114.141 150.133 114.141C151.945 114.141 153.281 113.141 153.281 111.727C153.281 110.562 152.688 109.922 151.047 109.523L149.758 109.211C148.852 108.992 148.438 108.609 148.438 108.047C148.438 107.336 149.094 106.844 150.086 106.844C151.086 106.844 151.711 107.367 151.812 108.219H153.109C153.055 106.781 151.867 105.734 150.086 105.734C148.328 105.734 147.102 106.727 147.102 108.117ZM164.648 105.875H163.289V110.648C163.289 112.031 162.492 112.938 161.172 112.938C159.914 112.938 159.297 112.227 159.297 110.906V105.875H157.938V111.148C157.938 112.992 158.977 114.141 160.75 114.141C162 114.141 162.844 113.617 163.328 112.68H163.359V114H164.648V105.875ZM166.414 114H167.773V109.219C167.773 107.844 168.609 106.938 169.891 106.938C171.141 106.938 171.758 107.656 171.758 108.969V114H173.117V108.727C173.117 106.883 172.086 105.734 170.305 105.734C169.047 105.734 168.18 106.297 167.727 107.172H167.695V105.875H166.414V114ZM177.93 114.141C179.102 114.141 180.031 113.562 180.555 112.625H180.578V114H181.875V102.727H180.516V107.195H180.484C180 106.305 179.062 105.734 177.898 105.734C175.852 105.734 174.453 107.391 174.453 109.938C174.453 112.484 175.859 114.141 177.93 114.141ZM178.188 106.93C179.586 106.93 180.523 108.125 180.523 109.938C180.523 111.758 179.586 112.945 178.188 112.945C176.75 112.945 175.844 111.781 175.844 109.938C175.844 108.102 176.75 106.93 178.188 106.93ZM186.852 108.117C186.852 109.289 187.594 110 189.125 110.367L190.414 110.68C191.344 110.906 191.664 111.242 191.664 111.828C191.664 112.562 190.984 113.031 189.883 113.031C188.781 113.031 188.156 112.586 187.992 111.656H186.633C186.789 113.18 187.977 114.141 189.883 114.141C191.695 114.141 193.031 113.141 193.031 111.727C193.031 110.562 192.438 109.922 190.797 109.523L189.508 109.211C188.602 108.992 188.188 108.609 188.188 108.047C188.188 107.336 188.844 106.844 189.836 106.844C190.836 106.844 191.461 107.367 191.562 108.219H192.859C192.805 106.781 191.617 105.734 189.836 105.734C188.078 105.734 186.852 106.727 186.852 108.117ZM196.82 114.141C197.914 114.141 198.945 113.531 199.43 112.602H199.461V114H200.75V108.383C200.75 106.766 199.547 105.734 197.641 105.734C195.719 105.734 194.516 106.812 194.422 108.219H195.734C195.906 107.422 196.562 106.93 197.609 106.93C198.734 106.93 199.391 107.523 199.391 108.516V109.195L197.062 109.328C195.188 109.438 194.117 110.312 194.117 111.703C194.117 113.164 195.203 114.141 196.82 114.141ZM197.125 112.984C196.148 112.984 195.5 112.477 195.5 111.703C195.5 110.938 196.125 110.453 197.219 110.383L199.391 110.25V110.914C199.391 112.086 198.406 112.984 197.125 112.984ZM202.477 114H203.836V108.906C203.836 107.781 204.617 106.938 205.695 106.938C206.703 106.938 207.359 107.578 207.359 108.555V114H208.719V108.836C208.719 107.734 209.477 106.938 210.555 106.938C211.625 106.938 212.242 107.594 212.242 108.703V114H213.602V108.391C213.602 106.781 212.562 105.734 210.953 105.734C209.812 105.734 208.859 106.312 208.406 107.281H208.375C208.023 106.297 207.203 105.734 206.094 105.734C205 105.734 204.172 106.312 203.789 107.172H203.758V105.875H202.477V114ZM215.336 114H216.695V108.906C216.695 107.781 217.477 106.938 218.555 106.938C219.562 106.938 220.219 107.578 220.219 108.555V114H221.578V108.836C221.578 107.734 222.336 106.938 223.414 106.938C224.484 106.938 225.102 107.594 225.102 108.703V114H226.461V108.391C226.461 106.781 225.422 105.734 223.812 105.734C222.672 105.734 221.719 106.312 221.266 107.281H221.234C220.883 106.297 220.062 105.734 218.953 105.734C217.859 105.734 217.031 106.312 216.648 107.172H216.617V105.875H215.336V114ZM228.266 114H229.625V102.727H228.266V114ZM236.852 111.672C236.625 112.438 235.867 112.961 234.836 112.961C233.375 112.961 232.461 111.938 232.461 110.383V110.305H238.289V109.789C238.289 107.328 236.938 105.734 234.742 105.734C232.5 105.734 231.062 107.445 231.062 109.969C231.062 112.523 232.477 114.141 234.805 114.141C236.578 114.141 237.953 113.094 238.188 111.672H236.852ZM234.719 106.914C236 106.914 236.852 107.883 236.883 109.242H232.469C232.555 107.891 233.445 106.914 234.719 106.914ZM253.281 105.875H251.938L250.312 112.484H250.281L248.438 105.875H247.125L245.289 112.484H245.258L243.633 105.875H242.281L244.555 114H245.938L247.766 107.711H247.797L249.633 114H251.016L253.281 105.875ZM259.789 111.672C259.562 112.438 258.805 112.961 257.773 112.961C256.312 112.961 255.398 111.938 255.398 110.383V110.305H261.227V109.789C261.227 107.328 259.875 105.734 257.68 105.734C255.438 105.734 254 107.445 254 109.969C254 112.523 255.414 114.141 257.742 114.141C259.516 114.141 260.891 113.094 261.125 111.672H259.789ZM257.656 106.914C258.938 106.914 259.789 107.883 259.82 109.242H255.406C255.492 107.891 256.383 106.914 257.656 106.914ZM263.352 104.43C263.828 104.43 264.203 104.047 264.203 103.578C264.203 103.102 263.828 102.727 263.352 102.727C262.883 102.727 262.5 103.102 262.5 103.578C262.5 104.047 262.883 104.43 263.352 104.43ZM262.672 114H264.031V105.875H262.672V114ZM266.305 103.914V105.875H265.094V106.992H266.305V111.891C266.305 113.453 266.883 114.062 268.375 114.062C268.695 114.062 269.07 114.039 269.234 114V112.859C269.141 112.875 268.828 112.898 268.672 112.898C267.977 112.898 267.664 112.562 267.664 111.82V106.992H269.242V105.875H267.664V103.914H266.305ZM275.852 111.672C275.625 112.438 274.867 112.961 273.836 112.961C272.375 112.961 271.461 111.938 271.461 110.383V110.305H277.289V109.789C277.289 107.328 275.938 105.734 273.742 105.734C271.5 105.734 270.062 107.445 270.062 109.969C270.062 112.523 271.477 114.141 273.805 114.141C275.578 114.141 276.953 113.094 277.188 111.672H275.852ZM273.719 106.914C275 106.914 275.852 107.883 275.883 109.242H271.469C271.555 107.891 272.445 106.914 273.719 106.914ZM278.664 114H280.023V108.938C280.023 107.789 280.711 107.031 281.766 107.031C282.094 107.031 282.383 107.07 282.492 107.109V105.789C282.383 105.773 282.18 105.734 281.945 105.734C280.992 105.734 280.242 106.305 279.977 107.203H279.945V105.875H278.664V114ZM288.602 111.672C288.375 112.438 287.617 112.961 286.586 112.961C285.125 112.961 284.211 111.938 284.211 110.383V110.305H290.039V109.789C290.039 107.328 288.688 105.734 286.492 105.734C284.25 105.734 282.812 107.445 282.812 109.969C282.812 112.523 284.227 114.141 286.555 114.141C288.328 114.141 289.703 113.094 289.938 111.672H288.602ZM286.469 106.914C287.75 106.914 288.602 107.883 288.633 109.242H284.219C284.305 107.891 285.195 106.914 286.469 106.914ZM303.906 114V102.727H302.5V107.602H296.312V102.727H294.906V114H296.312V108.867H302.5V114H303.906ZM311.273 111.672C311.047 112.438 310.289 112.961 309.258 112.961C307.797 112.961 306.883 111.938 306.883 110.383V110.305H312.711V109.789C312.711 107.328 311.359 105.734 309.164 105.734C306.922 105.734 305.484 107.445 305.484 109.969C305.484 112.523 306.898 114.141 309.227 114.141C311 114.141 312.375 113.094 312.609 111.672H311.273ZM309.141 106.914C310.422 106.914 311.273 107.883 311.305 109.242H306.891C306.977 107.891 307.867 106.914 309.141 106.914ZM316.461 114.141C317.555 114.141 318.586 113.531 319.07 112.602H319.102V114H320.391V108.383C320.391 106.766 319.188 105.734 317.281 105.734C315.359 105.734 314.156 106.812 314.062 108.219H315.375C315.547 107.422 316.203 106.93 317.25 106.93C318.375 106.93 319.031 107.523 319.031 108.516V109.195L316.703 109.328C314.828 109.438 313.758 110.312 313.758 111.703C313.758 113.164 314.844 114.141 316.461 114.141ZM316.766 112.984C315.789 112.984 315.141 112.477 315.141 111.703C315.141 110.938 315.766 110.453 316.859 110.383L319.031 110.25V110.914C319.031 112.086 318.047 112.984 316.766 112.984ZM322.188 114H323.547V102.727H322.188V114ZM325.82 103.914V105.875H324.609V106.992H325.82V111.891C325.82 113.453 326.398 114.062 327.891 114.062C328.211 114.062 328.586 114.039 328.75 114V112.859C328.656 112.875 328.344 112.898 328.188 112.898C327.492 112.898 327.18 112.562 327.18 111.82V106.992H328.758V105.875H327.18V103.914H325.82ZM330.281 114H331.641V109.266C331.641 107.859 332.477 106.938 333.828 106.938C335.102 106.938 335.75 107.711 335.75 109V114H337.109V108.75C337.109 106.938 336.031 105.734 334.25 105.734C333.016 105.734 332.125 106.266 331.672 107.172H331.641V102.727H330.281V114ZM82.0938 121.727V133H85.8828C89.2344 133 91.2031 130.914 91.2031 127.359C91.2031 123.812 89.2266 121.727 85.8828 121.727H82.0938ZM83.5 122.992H85.7891C88.3516 122.992 89.7656 124.555 89.7656 127.375C89.7656 130.172 88.3438 131.734 85.7891 131.734H83.5V122.992ZM95.1172 133.141C96.2109 133.141 97.2422 132.531 97.7266 131.602H97.7578V133H99.0469V127.383C99.0469 125.766 97.8438 124.734 95.9375 124.734C94.0156 124.734 92.8125 125.812 92.7188 127.219H94.0312C94.2031 126.422 94.8594 125.93 95.9062 125.93C97.0312 125.93 97.6875 126.523 97.6875 127.516V128.195L95.3594 128.328C93.4844 128.438 92.4141 129.312 92.4141 130.703C92.4141 132.164 93.5 133.141 95.1172 133.141ZM95.4219 131.984C94.4453 131.984 93.7969 131.477 93.7969 130.703C93.7969 129.938 94.4219 129.453 95.5156 129.383L97.6875 129.25V129.914C97.6875 131.086 96.7031 131.984 95.4219 131.984ZM101.211 122.914V124.875H100V125.992H101.211V130.891C101.211 132.453 101.789 133.062 103.281 133.062C103.602 133.062 103.977 133.039 104.141 133V131.859C104.047 131.875 103.734 131.898 103.578 131.898C102.883 131.898 102.57 131.562 102.57 130.82V125.992H104.148V124.875H102.57V122.914H101.211ZM110.758 130.672C110.531 131.438 109.773 131.961 108.742 131.961C107.281 131.961 106.367 130.938 106.367 129.383V129.305H112.195V128.789C112.195 126.328 110.844 124.734 108.648 124.734C106.406 124.734 104.969 126.445 104.969 128.969C104.969 131.523 106.383 133.141 108.711 133.141C110.484 133.141 111.859 132.094 112.094 130.672H110.758ZM108.625 125.914C109.906 125.914 110.758 126.883 110.789 128.242H106.375C106.461 126.891 107.352 125.914 108.625 125.914ZM113.57 133H114.93V128.219C114.93 126.844 115.766 125.938 117.047 125.938C118.297 125.938 118.914 126.656 118.914 127.969V133H120.273V127.727C120.273 125.883 119.242 124.734 117.461 124.734C116.203 124.734 115.336 125.297 114.883 126.172H114.852V124.875H113.57V133Z" fill="black"/>
<path d="M61.0291 293C53.4426 293 50.1168 283.426 56.0694 278.723L172.076 187.064C172.689 186.579 173.369 186.187 174.096 185.9L297.061 137.322C302.311 135.248 308 139.117 308 144.762V285C308 289.418 304.418 293 300 293H173H61.0291Z" fill="#F4D96D" fill-opacity="0.6"/>
<path d="M59.5 255.188C62.2578 255.188 63.8672 252.969 63.8672 249.172C63.8672 244.898 61.6016 243.531 59.5859 243.531C57.2734 243.531 55.5938 245.156 55.5938 247.383C55.5938 249.523 57.1875 251.109 59.3359 251.109C60.7734 251.109 62.0078 250.383 62.4844 249.266H62.5078C62.4688 252.258 61.4297 253.961 59.5156 253.961C58.3438 253.961 57.4609 253.422 57.1484 252.383H55.7188C56.0469 254.078 57.5547 255.188 59.5 255.188ZM59.5781 249.875C58.1016 249.875 57.0156 248.805 57.0156 247.336C57.0156 245.922 58.1562 244.797 59.6016 244.797C61.0547 244.797 62.1797 245.93 62.1797 247.375C62.1797 248.812 61.0703 249.875 59.5781 249.875ZM65.8281 255H67.3047L72.3203 245.031V243.727H64.8594V244.977H70.9297V245.008L65.8281 255Z" fill="black"/>
<path d="M161.789 176H163.148V164.727H161.773L158.773 166.883V168.297L161.758 166.219H161.789V176ZM169.953 176.188C172.578 176.188 174.094 173.914 174.094 170.352C174.094 166.812 172.57 164.539 169.953 164.539C167.336 164.539 165.797 166.828 165.797 170.359C165.797 173.922 167.32 176.188 169.953 176.188ZM169.953 174.961C168.188 174.961 167.211 173.164 167.211 170.352C167.211 167.602 168.211 165.773 169.953 165.773C171.695 165.773 172.68 167.586 172.68 170.359C172.68 173.172 171.711 174.961 169.953 174.961ZM176.047 176H177.523L182.539 166.031V164.727H175.078V165.977H181.148V166.008L176.047 176Z" fill="black"/>
<defs>
<filter id="filter0_d" x="0" y="0" width="371" height="305" filterUnits="userSpaceOnUse" color-interpolation-filters="sRGB">
<feFlood flood-opacity="0" result="BackgroundImageFix"/>
<feColorMatrix in="SourceAlpha" type="matrix" values="0 0 0 0 0 0 0 0 0 0 0 0 0 0 0 0 0 0 127 0"/>
<feOffset dy="4"/>
<feGaussianBlur stdDeviation="4"/>
<feColorMatrix type="matrix" values="0 0 0 0 0 0 0 0 0 0 0 0 0 0 0 0 0 0 0.08 0"/>
<feBlend mode="normal" in2="BackgroundImageFix" result="effect1_dropShadow"/>
<feBlend mode="normal" in="SourceGraphic" in2="effect1_dropShadow" result="shape"/>
</filter>
<filter id="filter1_d" x="10" y="29" width="72" height="72" filterUnits="userSpaceOnUse" color-interpolation-filters="sRGB">
<feFlood flood-opacity="0" result="BackgroundImageFix"/>
<feColorMatrix in="SourceAlpha" type="matrix" values="0 0 0 0 0 0 0 0 0 0 0 0 0 0 0 0 0 0 127 0"/>
<feOffset dy="4"/>
<feGaussianBlur stdDeviation="4"/>
<feColorMatrix type="matrix" values="0 0 0 0 0 0 0 0 0 0 0 0 0 0 0 0 0 0 0.08 0"/>
<feBlend mode="normal" in2="BackgroundImageFix" result="effect1_dropShadow"/>
<feBlend mode="normal" in="SourceGraphic" in2="effect1_dropShadow" result="shape"/>
</filter>
</defs>
</svg>
