<svg width="152" height="96" viewBox="0 0 152 96" fill="none" xmlns="http://www.w3.org/2000/svg">
<g clip-path="url(#clip0)">
<path d="M134.371 63.414C133.634 69.7144 132.104 74.7728 130.005 78.807C127.211 84.1822 122.431 86.3479 118.162 88.614C116.928 89.2677 115.645 89.8247 114.325 90.2802C106.556 92.9733 97.8612 92.2589 91.0309 90.8369C86.2403 89.8388 81.3775 89.2247 76.489 89.0006C75.0947 88.9378 73.699 88.9066 72.302 88.9071C70.1477 88.9099 31.3584 89.6452 21.9143 70.5475C19.5826 65.8365 17.9843 60.0818 17.4101 53.067C15.7854 33.2352 24.7154 20.2103 36.2341 11.6968C58.024 -4.40782 87.8918 -3.73243 109.36 12.7964C123.661 23.8063 137.05 40.4691 134.371 63.414Z" fill="#3F3D56"/>
<path d="M130.005 78.8069C127.211 84.1821 123.409 87.7432 119.14 90.0094C117.906 90.663 116.623 91.2201 115.303 91.6755C107.534 94.3687 98.8391 93.6542 92.0089 92.2323C87.2183 91.2341 82.3555 90.62 77.4669 90.3959C76.0726 90.3331 74.677 90.302 73.2799 90.3024C71.1256 90.3052 68.9718 90.3852 66.8185 90.5424C52.8242 91.5695 31.3584 89.6452 21.9142 70.5474L45.5441 24.8333L54.3386 47.3861L57.1453 54.5851L64.8808 43.9827L68.875 38.5084L87.0647 59.3379L92.2059 47.9973L127.8 77.011L129.785 78.6283L130.005 78.8069Z" fill="#F2F2F2"/>
<path opacity="0.1" d="M42.1912 39.4852L45.8235 31.5312L50.8529 43.1133L46.522 34.7407L42.1912 39.4852Z" fill="black"/>
<path opacity="0.1" d="M77.4669 90.396C76.0726 90.3332 74.677 90.302 73.2799 90.3025L57.1453 54.5852L77.4669 90.396Z" fill="black"/>
<path opacity="0.1" d="M64.881 43.9825L68.875 40.8806L87.0368 61.812L68.5956 43.9506L64.881 43.9825Z" fill="black"/>
<path opacity="0.1" d="M119.14 90.0093C117.906 90.663 116.623 91.22 115.303 91.6755L87.0647 59.3379L119.14 90.0093Z" fill="black"/>
<path d="M67.3382 14.6468C67.5697 14.6468 67.7574 14.4594 67.7574 14.2282C67.7574 13.997 67.5697 13.8096 67.3382 13.8096C67.1068 13.8096 66.9191 13.997 66.9191 14.2282C66.9191 14.4594 67.1068 14.6468 67.3382 14.6468Z" fill="#F2F2F2"/>
<path d="M55.7427 29.0196C55.9741 29.0196 56.1618 28.8322 56.1618 28.601C56.1618 28.3698 55.9741 28.1824 55.7427 28.1824C55.5112 28.1824 55.3235 28.3698 55.3235 28.601C55.3235 28.8322 55.5112 29.0196 55.7427 29.0196Z" fill="#F2F2F2"/>
<path d="M84.1029 31.3917C84.2573 31.3917 84.3824 31.2667 84.3824 31.1126C84.3824 30.9584 84.2573 30.8335 84.1029 30.8335C83.9486 30.8335 83.8235 30.9584 83.8235 31.1126C83.8235 31.2667 83.9486 31.3917 84.1029 31.3917Z" fill="#F2F2F2"/>
<path d="M25.4265 37.6712C25.5808 37.6712 25.7059 37.5463 25.7059 37.3921C25.7059 37.238 25.5808 37.113 25.4265 37.113C25.2722 37.113 25.1471 37.238 25.1471 37.3921C25.1471 37.5463 25.2722 37.6712 25.4265 37.6712Z" fill="#F2F2F2"/>
<path d="M85.7794 14.0884C85.9337 14.0884 86.0588 13.9635 86.0588 13.8094C86.0588 13.6552 85.9337 13.5303 85.7794 13.5303C85.6251 13.5303 85.5 13.6552 85.5 13.8094C85.5 13.9635 85.6251 14.0884 85.7794 14.0884Z" fill="#F2F2F2"/>
<path d="M103.103 27.4847C103.257 27.4847 103.382 27.3597 103.382 27.2056C103.382 27.0515 103.257 26.9265 103.103 26.9265C102.949 26.9265 102.824 27.0515 102.824 27.2056C102.824 27.3597 102.949 27.4847 103.103 27.4847Z" fill="#F2F2F2"/>
<path d="M120.147 48.6952C120.301 48.6952 120.426 48.5702 120.426 48.4161C120.426 48.2619 120.301 48.137 120.147 48.137C119.993 48.137 119.868 48.2619 119.868 48.4161C119.868 48.5702 119.993 48.6952 120.147 48.6952Z" fill="#F2F2F2"/>
<path d="M42.75 16.9157H42.3644V16.5305H42.1577V16.9157H41.7721V17.1223H42.1577V17.5073H42.3644V17.1223H42.75V16.9157Z" fill="#F2F2F2"/>
<path d="M118.471 59.1971H118.085V58.812H117.878V59.1971H117.493V59.4038H117.878V59.7888H118.085V59.4038H118.471V59.1971Z" fill="#F2F2F2"/>
<path d="M152 85.6737C152 87.9857 117.974 95.9999 76 95.9999C34.0264 95.9999 0 87.9857 0 85.6737C0 83.3617 34.0264 87.6273 76 87.6273C117.974 87.6273 152 83.3617 152 85.6737Z" fill="#3F3D56"/>
<path opacity="0.1" d="M152 85.6737C152 87.9857 117.974 95.9999 76 95.9999C34.0264 95.9999 0 87.9857 0 85.6737C0 83.3617 34.0264 87.6273 76 87.6273C117.974 87.6273 152 83.3617 152 85.6737Z" fill="black"/>
<path d="M76 89.8601C117.974 89.8601 152 87.9858 152 85.6738C152 83.3618 117.974 81.4875 76 81.4875C34.0264 81.4875 0 83.3618 0 85.6738C0 87.9858 34.0264 89.8601 76 89.8601Z" fill="#3F3D56"/>
<path d="M79.3529 79.8131C79.3529 84.4371 77.2888 83.1621 74.7426 83.1621C72.1965 83.1621 70.1324 84.4371 70.1324 79.8131C70.1324 75.189 74.7426 66.417 74.7426 66.417C74.7426 66.417 79.3529 75.189 79.3529 79.8131Z" fill="#FF6584"/>
<path opacity="0.1" d="M76.8382 81.5823C76.8382 83.6841 75.9 83.1045 74.7427 83.1045C73.5853 83.1045 72.6471 83.6841 72.6471 81.5823C72.6471 79.4804 74.7427 75.4932 74.7427 75.4932C74.7427 75.4932 76.8382 79.4804 76.8382 81.5823Z" fill="black"/>
<path d="M79.9117 84.418H69.5735C68.8791 84.418 68.3162 84.9802 68.3162 85.6738C68.3162 86.3674 68.8791 86.9297 69.5735 86.9297H79.9117C80.6062 86.9297 81.1691 86.3674 81.1691 85.6738C81.1691 84.9802 80.6062 84.418 79.9117 84.418Z" fill="#2F2E41"/>
<path d="M79.9117 81.9062H69.5735C68.8791 81.9062 68.3162 82.4685 68.3162 83.1621C68.3162 83.8557 68.8791 84.418 69.5735 84.418H79.9117C80.6062 84.418 81.1691 83.8557 81.1691 83.1621C81.1691 82.4685 80.6062 81.9062 79.9117 81.9062Z" fill="#2F2E41"/>
<path d="M19.1397 68.4495C19.1397 76.1722 23.9902 82.4213 29.9845 82.4213Z" fill="#3F3D56"/>
<path d="M29.9845 82.4213C29.9845 74.6118 35.3974 68.2925 42.0867 68.2925Z" fill="white"/>
<path d="M23.069 69.1497C23.069 76.4854 26.1621 82.4214 29.9845 82.4214Z" fill="white"/>
<path d="M29.9845 82.4212C29.9845 72.4424 36.241 64.3677 43.9728 64.3677Z" fill="#3F3D56"/>
<path d="M27.7031 82.52C27.7031 82.52 29.241 82.4727 29.7045 82.143C30.168 81.8134 32.0703 81.4197 32.1853 81.9484C32.3003 82.4772 34.4966 84.578 32.7602 84.592C31.0239 84.606 28.7257 84.3219 28.2631 84.0404C27.8005 83.759 27.7031 82.52 27.7031 82.52Z" fill="#A8A8A8"/>
<path opacity="0.2" d="M32.7912 84.408C31.0549 84.422 28.7567 84.1379 28.2941 83.8564C27.9418 83.6421 27.8014 82.8729 27.7544 82.5181C27.7219 82.5195 27.7031 82.5201 27.7031 82.5201C27.7031 82.5201 27.8005 83.759 28.2631 84.0405C28.7257 84.3219 31.0239 84.6061 32.7602 84.5921C33.2615 84.588 33.4346 84.4099 33.4251 84.1461C33.3555 84.3055 33.1643 84.405 32.7912 84.408Z" fill="black"/>
<path d="M100.788 73.5476C100.788 78.8543 104.121 83.1484 108.24 83.1484Z" fill="#3F3D56"/>
<path d="M108.24 83.1483C108.24 77.782 111.959 73.4397 116.556 73.4397Z" fill="white"/>
<path d="M103.488 74.0286C103.488 79.0693 105.613 83.1483 108.24 83.1483Z" fill="white"/>
<path d="M108.24 83.1481C108.24 76.2912 112.539 70.7427 117.852 70.7427Z" fill="#3F3D56"/>
<path d="M106.672 83.2161C106.672 83.2161 107.729 83.1836 108.047 82.9571C108.366 82.7306 109.673 82.4601 109.752 82.8234C109.831 83.1867 111.34 84.6303 110.147 84.6399C108.954 84.6495 107.375 84.4543 107.057 84.2609C106.739 84.0675 106.672 83.2161 106.672 83.2161Z" fill="#A8A8A8"/>
<path opacity="0.2" d="M110.168 84.513C108.975 84.5227 107.396 84.3274 107.078 84.134C106.836 83.9867 106.74 83.4582 106.707 83.2144C106.685 83.2153 106.672 83.2157 106.672 83.2157C106.672 83.2157 106.739 84.0671 107.057 84.2605C107.375 84.4539 108.954 84.6491 110.147 84.6395C110.492 84.6367 110.611 84.5143 110.604 84.3331C110.556 84.4426 110.425 84.511 110.168 84.513Z" fill="black"/>
<path d="M124.871 86.3347C124.871 86.3347 126.458 86.0935 126.897 85.6941C127.335 85.2947 129.256 84.6492 129.442 85.1824C129.627 85.7156 132.165 87.617 130.368 87.8486C128.572 88.0801 126.156 88.0732 125.641 87.8395C125.127 87.6058 124.871 86.3347 124.871 86.3347Z" fill="#A8A8A8"/>
<path opacity="0.2" d="M130.377 87.6542C128.581 87.8858 126.165 87.8788 125.651 87.6451C125.259 87.4672 125.017 86.6881 124.924 86.3264C124.89 86.3319 124.871 86.3349 124.871 86.3349C124.871 86.3349 125.127 87.6059 125.641 87.8396C126.156 88.0733 128.572 88.0803 130.368 87.8488C130.887 87.7819 131.044 87.5758 131.001 87.3037C130.949 87.4775 130.763 87.6045 130.377 87.6542Z" fill="black"/>
<path d="M85.8157 86.2203C85.8157 86.2203 87.1551 86.0167 87.5253 85.6796C87.8956 85.3425 89.5168 84.7977 89.6732 85.2478C89.8297 85.6978 91.9716 87.3025 90.4553 87.4979C88.939 87.6933 86.9002 87.6874 86.466 87.4902C86.0319 87.293 85.8157 86.2203 85.8157 86.2203Z" fill="#A8A8A8"/>
<path opacity="0.2" d="M90.463 87.3335C88.9467 87.529 86.9078 87.5231 86.4736 87.3258C86.143 87.1756 85.939 86.5181 85.8604 86.2129C85.8321 86.2175 85.8157 86.2201 85.8157 86.2201C85.8157 86.2201 86.0319 87.2928 86.466 87.49C86.9002 87.6872 88.939 87.6931 90.4553 87.4977C90.893 87.4413 91.0255 87.2673 90.9893 87.0377C90.9453 87.1844 90.7887 87.2915 90.463 87.3335Z" fill="black"/>
<path d="M17.0984 85.552C17.0984 85.552 18.1411 85.3935 18.4294 85.1311C18.7177 84.8687 19.9798 84.4446 20.1015 84.7949C20.2233 85.1453 21.8908 86.3945 20.7104 86.5467C19.53 86.6988 17.9427 86.6942 17.6047 86.5407C17.2667 86.3871 17.0984 85.552 17.0984 85.552Z" fill="#A8A8A8"/>
<path opacity="0.2" d="M20.7163 86.4191C19.5359 86.5712 17.9486 86.5666 17.6106 86.4131C17.3533 86.2961 17.1944 85.7843 17.1332 85.5466C17.1112 85.5503 17.0984 85.5522 17.0984 85.5522C17.0984 85.5522 17.2667 86.3873 17.6047 86.5409C17.9427 86.6944 19.53 86.699 20.7104 86.5469C21.0511 86.5029 21.1543 86.3675 21.1261 86.1888C21.0918 86.303 20.97 86.3864 20.7163 86.4191Z" fill="black"/>
<path opacity="0.1" d="M53.6045 83.9096C53.6045 88.1266 47.7196 86.8223 40.5142 86.8223C33.3087 86.8223 27.5112 88.1266 27.5112 83.9096C27.5112 79.6925 33.3953 78.7754 40.6008 78.7754C47.8063 78.7754 53.6045 79.6926 53.6045 83.9096Z" fill="black"/>
<path d="M53.6045 82.871C53.6045 87.088 47.7196 85.7837 40.5142 85.7837C33.3087 85.7837 27.5112 87.088 27.5112 82.871C27.5112 78.654 33.3953 77.7368 40.6008 77.7368C47.8063 77.7368 53.6045 78.654 53.6045 82.871Z" fill="#3F3D56"/>
<path d="M54.7265 63.5505C54.3793 63.7277 54.0493 63.9366 53.7406 64.1745C53.4307 64.4143 53.1934 64.7352 53.0551 65.1016C52.8815 64.6954 52.7395 64.2765 52.6307 63.8484C52.3859 63.0802 52.0963 62.327 51.7634 61.5927C52.3099 61.3848 52.7837 61.0219 53.1266 60.5486C53.797 61.2154 54.4864 61.9108 54.82 62.7951C54.8775 62.9475 55.0448 63.1099 55.0836 63.2463C55.1385 63.4393 54.873 63.47 54.7265 63.5505Z" fill="#FFBFC5"/>
<path d="M61.0363 79.8055C61.7687 80.0366 62.4518 80.4016 63.0506 80.882C63.0957 80.9103 63.1284 80.9545 63.1421 81.0059C63.1573 81.1217 63.0025 81.169 62.89 81.2014C62.5594 81.2965 62.3481 81.6067 62.1046 81.8495C61.8611 82.0923 61.4699 82.2828 61.1858 82.0889C61.1112 82.0319 61.0461 81.9634 60.9929 81.8859L59.7928 80.3214C60.1997 80.0942 60.6276 79.9066 61.0704 79.7612" fill="#F1F1F1"/>
<path d="M63.1936 80.131C63.3524 80.2929 63.4214 80.5258 63.5773 80.6906C63.6822 80.7905 63.802 80.8735 63.9324 80.9367L64.8505 81.4415C64.9916 81.5248 65.1401 81.5949 65.2942 81.6508C65.4672 81.699 65.6432 81.7357 65.8211 81.7607C66.0755 81.8083 66.3245 81.8817 66.5641 81.9797C66.7441 82.0533 66.9448 82.1804 66.944 82.3746C66.9366 82.4696 66.8979 82.5594 66.8338 82.6299C66.4718 83.0853 65.831 83.1863 65.2521 83.2474C63.9987 83.3798 62.7161 83.479 61.4908 83.1839C61.2516 83.14 61.0256 83.0422 60.8298 82.8982C60.46 82.5922 60.3864 82.0347 60.5245 81.5754C60.5636 81.3993 60.6678 81.2444 60.8164 81.1418C61.0105 81.0307 61.2523 81.0823 61.4753 81.0651C61.7126 81.0327 61.9424 80.9596 62.1547 80.849C62.2947 80.7858 62.456 80.7045 62.486 80.538C62.5139 80.3836 62.3323 80.229 62.3705 80.0911C62.4552 79.7854 63.0472 79.9818 63.1936 80.131Z" fill="#575A89"/>
<path opacity="0.1" d="M63.1936 80.131C63.3524 80.2929 63.4214 80.5258 63.5773 80.6906C63.6822 80.7905 63.802 80.8735 63.9324 80.9367L64.8505 81.4415C64.9916 81.5248 65.1401 81.5949 65.2942 81.6508C65.4672 81.699 65.6432 81.7357 65.8211 81.7607C66.0755 81.8083 66.3245 81.8817 66.5641 81.9797C66.7441 82.0533 66.9448 82.1804 66.944 82.3746C66.9366 82.4696 66.8979 82.5594 66.8338 82.6299C66.4718 83.0853 65.831 83.1863 65.2521 83.2474C63.9987 83.3798 62.7161 83.479 61.4908 83.1839C61.2516 83.14 61.0256 83.0422 60.8298 82.8982C60.46 82.5922 60.3864 82.0347 60.5245 81.5754C60.5636 81.3993 60.6678 81.2444 60.8164 81.1418C61.0105 81.0307 61.2523 81.0823 61.4753 81.0651C61.7126 81.0327 61.9424 80.9596 62.1547 80.849C62.2947 80.7858 62.456 80.7045 62.486 80.538C62.5139 80.3836 62.3323 80.229 62.3705 80.0911C62.4552 79.7854 63.0472 79.9818 63.1936 80.131Z" fill="black"/>
<path d="M65.3238 85.1401C65.4525 85.2247 65.581 85.3095 65.7095 85.3944C65.8277 85.4573 65.9251 85.5533 65.9898 85.6705C66.0734 85.8669 65.9603 86.089 65.8345 86.2614C65.4571 86.7769 64.9419 87.1756 64.3479 87.4121C64.142 87.4977 63.9244 87.5519 63.7023 87.5729C63.6515 87.5807 63.5995 87.5742 63.5522 87.554C63.4347 87.492 63.4516 87.3241 63.4501 87.1913C63.446 86.806 63.1547 86.4931 62.8928 86.2101C62.631 85.927 62.3641 85.5785 62.424 85.1979C62.4784 84.9737 62.5933 84.7688 62.7564 84.6056C62.9015 84.4238 63.0717 84.2634 63.2618 84.1293C63.5342 83.9513 63.6303 84.0471 63.8866 84.2103C64.368 84.5167 64.8471 84.8267 65.3238 85.1401Z" fill="#F1F1F1"/>
<path d="M64.0703 87.0174C64.1753 87.0438 64.2849 87.0452 64.3905 87.0215C64.4961 86.9977 64.5945 86.9494 64.6779 86.8805C64.8435 86.7411 64.9779 86.5685 65.0724 86.374C65.1662 86.2008 65.2478 86.0213 65.3167 85.8368C65.3973 85.6208 65.4721 85.3819 65.6621 85.2508C65.8924 85.092 66.2169 85.1542 66.4509 85.3074C66.6716 85.4794 66.8743 85.6733 67.0559 85.8862C67.5422 86.3392 68.1318 86.6669 68.7736 86.8408C69.4126 87.0132 70.0604 87.1515 70.7142 87.2552C70.8448 87.2726 70.9713 87.3133 71.0876 87.3753C71.3504 87.5354 71.438 87.8928 71.3649 88.1915C71.2722 88.4862 71.1057 88.7524 70.8814 88.965C70.7048 89.1743 70.4857 89.3437 70.2387 89.462C70.0298 89.5383 69.8098 89.5799 69.5875 89.5852C68.5109 89.6583 67.4293 89.5737 66.3771 89.3341C65.9906 89.2292 65.5974 89.1508 65.2002 89.0994C64.9581 89.0781 64.7143 89.0849 64.4717 89.0684C63.9896 89.0354 63.5182 88.9112 63.0825 88.7024C62.9764 88.6635 62.887 88.5894 62.8292 88.4924C62.7979 88.4031 62.7914 88.3071 62.8104 88.2144L62.9712 86.8077C62.9853 86.6853 63.026 86.5331 63.148 86.514C63.264 86.4958 63.3483 86.6145 63.4212 86.7064C63.5628 86.8757 63.7567 86.9932 63.9725 87.0403C64.1882 87.0874 64.4135 87.0615 64.6129 86.9667" fill="#575A89"/>
<path d="M54.746 69.281C55.4526 69.2014 56.2721 69.1881 56.7499 69.7141C57.0429 70.0367 57.1319 70.4885 57.2333 70.9122C57.3918 71.6235 57.6495 72.3091 57.9989 72.9489C58.2236 73.3453 58.4961 73.7173 58.6685 74.139C58.8452 74.5711 58.9103 75.0389 59.0136 75.4942C59.4278 77.2933 60.4389 78.8997 61.8826 80.0523C61.6278 80.7448 60.8905 81.1404 60.1734 81.3173C60.0214 81.3817 59.8521 81.3932 59.6928 81.3498C59.5335 81.3065 59.3934 81.2108 59.2951 81.0783C58.9596 80.7165 58.6471 80.3342 58.3594 79.9334C57.3257 78.5546 56.2763 77.1468 55.7132 75.5187C55.5156 74.9474 55.318 74.2805 54.7621 74.0418C54.4451 73.9056 54.0826 73.9481 53.7423 74.0058C52.9819 74.1345 52.2336 74.3265 51.5052 74.5795C50.7285 74.8493 49.8393 75.1814 49.1284 74.7685C48.7031 74.5214 48.4499 74.0469 48.3565 73.5644C48.2862 73.0773 48.2855 72.5826 48.3545 72.0953C48.3593 71.8748 48.4122 71.6579 48.5097 71.4601C48.6081 71.3121 48.7343 71.1845 48.8813 71.0845C49.516 70.6029 50.222 70.223 50.9739 69.9585C51.6921 69.7056 52.4641 69.6199 53.2133 69.4949C53.7222 69.41 54.2331 69.3387 54.746 69.281Z" fill="#575A89"/>
<path opacity="0.1" d="M54.746 69.281C55.4526 69.2014 56.2721 69.1881 56.7499 69.7141C57.0429 70.0367 57.1319 70.4885 57.2333 70.9122C57.3918 71.6235 57.6495 72.3091 57.9989 72.9489C58.2236 73.3453 58.4961 73.7173 58.6685 74.139C58.8452 74.5711 58.9103 75.0389 59.0136 75.4942C59.4278 77.2933 60.4389 78.8997 61.8826 80.0523C61.6278 80.7448 60.8905 81.1404 60.1734 81.3173C60.0214 81.3817 59.8521 81.3932 59.6928 81.3498C59.5335 81.3065 59.3934 81.2108 59.2951 81.0783C58.9596 80.7165 58.6471 80.3342 58.3594 79.9334C57.3257 78.5546 56.2763 77.1468 55.7132 75.5187C55.5156 74.9474 55.318 74.2805 54.7621 74.0418C54.4451 73.9056 54.0826 73.9481 53.7423 74.0058C52.9819 74.1345 52.2336 74.3265 51.5052 74.5795C50.7285 74.8493 49.8393 75.1814 49.1284 74.7685C48.7031 74.5214 48.4499 74.0469 48.3565 73.5644C48.2862 73.0773 48.2855 72.5826 48.3545 72.0953C48.3593 71.8748 48.4122 71.6579 48.5097 71.4601C48.6081 71.3121 48.7343 71.1845 48.8813 71.0845C49.516 70.6029 50.222 70.223 50.9739 69.9585C51.6921 69.7056 52.4641 69.6199 53.2133 69.4949C53.7222 69.41 54.2331 69.3387 54.746 69.281Z" fill="black"/>
<path d="M58.7911 74.3704C59.1188 74.5356 59.4199 74.7492 59.684 75.0039C59.9566 75.3247 60.1636 75.6958 60.2935 76.096C60.3516 76.2296 60.3872 76.3719 60.399 76.517C60.4043 76.5897 60.3929 76.6627 60.3658 76.7303C60.3388 76.798 60.2966 76.8586 60.2426 76.9077C60.1118 76.9916 59.9566 77.0295 59.8017 77.0153C59.5968 77.0169 59.392 77.0116 59.1873 76.9993C59.0628 76.9984 58.9396 76.975 58.8235 76.9304C58.7171 76.8762 58.6211 76.8036 58.54 76.7161C58.1798 76.382 57.8848 75.9841 57.6699 75.5427C57.5216 75.216 57.2774 74.463 57.5109 74.123C57.7515 73.7728 58.5367 74.2262 58.7911 74.3704Z" fill="#FFBFC5"/>
<path d="M48.8841 74.2539C49.9292 74.5883 51.0415 74.6265 52.1341 74.7284C53.9719 74.9001 55.7874 75.2585 57.5523 75.7982C57.9208 75.8879 58.2679 76.0493 58.5738 76.2733C58.81 76.4913 59.01 76.7455 59.1664 77.0262C59.4535 77.4632 59.7135 77.9173 59.945 78.3861C60.1435 78.8097 60.2948 79.2537 60.4794 79.6836C61.0998 81.1226 62.0809 82.3777 63.328 83.3279C63.5559 83.5011 63.8097 83.6896 63.8683 83.9695C63.8946 84.1497 63.8651 84.3336 63.7839 84.4966C63.5145 85.1234 62.9552 85.5793 62.3685 85.9282C62.1161 86.0783 61.8385 86.2306 61.7145 86.4964C60.8225 86.1286 60.1596 85.3445 59.6077 84.5539C59.0558 83.7634 58.5663 82.9138 57.859 82.2582C57.5474 81.9694 57.1934 81.7178 56.9484 81.3709C56.5743 80.8414 56.4732 80.117 55.9697 79.7083C55.4626 79.2967 54.7351 79.3527 54.0848 79.4164C50.7539 79.7422 47.3974 79.7059 44.0744 79.3082C43.3835 79.2255 42.6737 79.1201 42.0753 78.7655C41.4769 78.411 41.0109 77.7458 41.0957 77.056C41.1751 76.4103 41.7136 75.8984 42.3137 75.6456C42.9138 75.3929 43.5772 75.3475 44.2244 75.2748C45.8126 75.12 47.3768 74.7773 48.8841 74.2539V74.2539Z" fill="#575A89"/>
<path d="M39.3288 75.5946C39.4108 75.0471 39.6237 74.5286 39.7573 73.9913C39.8242 73.6533 39.909 73.319 40.0112 72.9898C40.0146 72.9805 40.0184 72.9715 40.0218 72.9622C40.0558 72.9594 40.0887 72.9492 40.1183 72.9323C40.1479 72.9154 40.1734 72.8923 40.193 72.8645C40.2112 72.8165 40.2162 72.7645 40.2075 72.714C40.2048 72.6604 40.2064 72.6067 40.2123 72.5533C40.4308 72.1873 40.6696 71.8336 40.9276 71.4941C41.3801 70.8538 41.7721 70.1732 42.1634 69.4937C42.4841 68.9367 42.8054 68.3786 43.0709 67.7933C43.27 67.3544 43.4374 66.9009 43.6576 66.4722C44.441 64.946 45.8493 63.822 47.364 63.0141C48.8169 62.2393 50.3877 61.7169 51.9154 61.1008C51.9547 61.1394 51.9903 61.1814 52.022 61.2264C52.8474 62.3533 52.9364 63.8343 53.276 65.1887C53.4132 65.7355 53.5965 66.2805 53.5962 66.8442C53.5957 67.6763 53.1975 68.4505 52.8018 69.1828C52.4481 69.8826 52.0304 70.5483 51.5542 71.1715C51.3205 71.4604 51.063 71.7296 50.828 72.0175C49.865 73.1969 49.309 74.6471 48.7684 76.0699C48.4554 76.8938 47.9439 77.6245 47.5999 78.4359C47.4677 78.7477 47.3913 79.0839 47.2253 79.3791C47.0592 79.6743 46.7702 79.934 46.4312 79.9355C46.332 79.9328 46.2335 79.9174 46.1383 79.8897C44.9111 79.5743 43.8833 78.7634 42.8635 78.0122C42.6815 77.8781 42.4983 77.7453 42.3074 77.6243C42.1145 77.5022 41.9141 77.3925 41.7139 77.2829C41.5622 77.1999 41.4105 77.1168 41.2587 77.0338C40.7615 76.7616 40.2635 76.4891 39.7454 76.2589C39.5897 76.1964 39.44 76.1197 39.2984 76.0297C39.2969 75.8841 39.3071 75.7386 39.3288 75.5946V75.5946Z" fill="white"/>
<path d="M55.3737 63.4571C56.9354 63.4571 58.2013 62.1927 58.2013 60.6329C58.2013 59.0731 56.9354 57.8086 55.3737 57.8086C53.8121 57.8086 52.5461 59.0731 52.5461 60.6329C52.5461 62.1927 53.8121 63.4571 55.3737 63.4571Z" fill="#FFBFC5"/>
<path d="M57.2757 59.3112C57.3441 59.4306 57.4476 59.526 57.5722 59.5845C57.6968 59.643 57.8364 59.6617 57.9721 59.6382C58.107 59.6111 58.2346 59.5559 58.3466 59.4761C58.4586 59.3963 58.5524 59.2938 58.6219 59.1752C58.7594 58.9368 58.8417 58.6706 58.8627 58.3962C58.8847 58.2909 58.8856 58.1822 58.8654 58.0765C58.8452 57.9708 58.8042 57.8702 58.7449 57.7803C58.6395 57.6783 58.5184 57.5937 58.3863 57.5298C58.2041 57.4162 58.0512 57.2615 57.9397 57.0781C57.8605 56.9476 57.8037 56.8048 57.7326 56.6698C57.4753 56.1818 56.975 55.7851 56.4232 55.8031C56.1582 55.8117 55.9055 55.9124 55.6443 55.9581C54.7677 56.1117 53.8149 55.6484 53.0017 56.0097C52.8015 56.1069 52.6155 56.2308 52.4487 56.378C52.2198 56.5666 51.9997 56.7653 51.7885 56.974C51.6051 57.1302 51.4663 57.332 51.3862 57.559C51.2757 57.9733 51.5384 58.4363 51.3713 58.8313C51.3141 58.9444 51.2458 59.0515 51.1674 59.1511C50.9829 59.4214 51.1834 60.4765 51.1629 60.8029C51.1394 60.9628 51.1801 61.1254 51.2761 61.2554C51.4095 61.4039 51.6339 61.4169 51.8335 61.4193L52.2007 61.4237C52.2555 61.4275 52.3106 61.4218 52.3635 61.407C52.4356 61.3749 52.4989 61.3261 52.5483 61.2647C52.8536 60.9434 52.9197 59.8926 53.3632 59.8964C53.4305 59.8927 53.4974 59.91 53.5545 59.9459C53.6348 60.0048 53.6585 60.1129 53.7154 60.1946C53.7805 60.2713 53.8686 60.3251 53.9667 60.348C54.0648 60.3709 54.1677 60.3616 54.2601 60.3216C54.4433 60.237 54.6027 60.1084 54.7239 59.9473C54.8447 59.7865 54.9912 59.6467 55.1575 59.5336C55.3938 59.3959 55.6609 59.3359 55.8909 59.1804C56.0831 59.0503 56.1925 58.8617 56.365 58.718C56.434 58.6586 56.5207 58.6237 56.6116 58.6186C56.7025 58.6135 56.7926 58.6386 56.8677 58.6899C57.1398 58.8317 57.1517 59.0642 57.2757 59.3112Z" fill="#2F2E41"/>
<path opacity="0.1" d="M50.7426 64.2874C51.403 64.1937 52.0759 64.2477 52.7129 64.4454C52.9255 64.4939 53.1175 64.6077 53.262 64.7708C53.3441 64.8944 53.3976 65.0348 53.4185 65.1816C53.5484 65.857 53.4651 66.556 53.1801 67.1821C53.1597 67.2134 53.1462 67.2486 53.1405 67.2855C53.1348 67.3224 53.1371 67.3601 53.1471 67.396C53.1758 67.4395 53.2132 67.4766 53.2571 67.5049C53.2968 67.543 53.3279 67.5891 53.3485 67.6401C53.369 67.6912 53.3785 67.746 53.3763 67.8009C53.374 67.8559 53.3602 67.9097 53.3356 67.9589C53.311 68.0081 53.2762 68.0515 53.2335 68.0863C53.1808 68.1248 53.1116 68.1582 53.1013 68.2226C53.0901 68.2928 53.1561 68.3478 53.2075 68.397C53.2828 68.4706 53.3383 68.562 53.369 68.6627C53.3996 68.7634 53.4044 68.8702 53.3828 68.9732C53.3551 69.0561 53.3361 69.1417 53.3261 69.2286C53.3367 69.3349 53.368 69.438 53.4183 69.5322C53.5043 69.7448 53.5336 69.9761 53.5035 70.2034C53.4762 70.3108 53.4735 70.423 53.4957 70.5317C53.5267 70.6035 53.5689 70.67 53.6206 70.7288C53.8238 71.0026 53.8684 71.4606 53.5736 71.6323C53.6998 71.697 53.8026 71.7994 53.8677 71.9252C53.9329 72.051 53.957 72.194 53.9369 72.3342C54.1129 72.2403 54.3264 72.3604 54.473 72.4956C54.6196 72.6308 54.7695 72.7961 54.9688 72.8061C55.1078 72.813 55.2542 72.741 55.381 72.7982C55.5738 72.8851 55.5673 73.1974 55.7569 73.291C55.9232 73.3731 56.1549 73.2391 56.2966 73.3587C56.346 73.4003 56.3711 73.4647 56.4187 73.5083C56.5263 73.6067 56.6943 73.5648 56.8401 73.559C57.0129 73.5639 57.1815 73.6138 57.3291 73.7038C57.4766 73.7938 57.5981 73.9208 57.6814 74.0721C57.8442 74.3769 57.9424 74.7119 57.9699 75.0562C58.0072 75.2433 58.0035 75.4363 57.959 75.6218C57.9352 75.7142 57.8846 75.7974 57.8137 75.8613C57.7428 75.9251 57.6546 75.9667 57.5602 75.9808C55.8249 76.093 54.1125 75.6774 52.423 75.2665C51.9267 75.1458 51.4219 75.0045 51.008 74.7056C50.632 74.4339 50.3555 74.0497 50.0858 73.6725C49.5885 72.977 49.0881 72.2761 48.7322 71.4988C48.2742 70.4985 48.07 69.4042 47.8697 68.3225C47.8008 68.0325 47.7763 67.7338 47.797 67.4364C47.8571 67.0887 47.9902 66.7576 48.1876 66.4649C48.4264 66.0769 48.6905 65.7049 48.9782 65.3516C49.4154 64.7924 50.0435 64.4136 50.7426 64.2874Z" fill="black"/>
<path d="M50.857 64.1731C51.5174 64.0794 52.1903 64.1334 52.8273 64.3312C53.0399 64.3797 53.2319 64.4935 53.3764 64.6566C53.4585 64.7802 53.512 64.9205 53.5329 65.0674C53.6628 65.7428 53.5795 66.4418 53.2945 67.0679C53.2741 67.0991 53.2606 67.1344 53.2549 67.1713C53.2492 67.2081 53.2515 67.2458 53.2615 67.2818C53.2902 67.3253 53.3277 67.3624 53.3715 67.3907C53.4112 67.4288 53.4423 67.4749 53.4629 67.5259C53.4834 67.5769 53.4929 67.6317 53.4907 67.6867C53.4884 67.7416 53.4746 67.7955 53.45 67.8447C53.4254 67.8939 53.3906 67.9373 53.348 67.9721C53.2952 68.0105 53.226 68.044 53.2157 68.1084C53.2045 68.1785 53.2705 68.2336 53.3219 68.2827C53.3972 68.3564 53.4527 68.4477 53.4834 68.5484C53.514 68.6491 53.5188 68.7559 53.4972 68.859C53.4695 68.9419 53.4505 69.0275 53.4405 69.1144C53.4511 69.2206 53.4824 69.3238 53.5327 69.418C53.6187 69.6306 53.648 69.8618 53.6179 70.0891C53.5906 70.1966 53.5879 70.3088 53.6101 70.4174C53.6411 70.4893 53.6833 70.5558 53.735 70.6146C53.9382 70.8884 53.9828 71.3464 53.688 71.5181C53.8142 71.5827 53.917 71.6851 53.9821 71.8109C54.0473 71.9368 54.0714 72.0798 54.0513 72.22C54.2273 72.126 54.4408 72.2461 54.5874 72.3813C54.7341 72.5165 54.8839 72.6819 55.0832 72.6918C55.2222 72.6988 55.3686 72.6268 55.4954 72.6839C55.6882 72.7709 55.6817 73.0831 55.8713 73.1767C56.0376 73.2589 56.2693 73.1249 56.411 73.2444C56.4604 73.2861 56.4855 73.3505 56.5331 73.394C56.6407 73.4924 56.8087 73.4506 56.9545 73.4448C57.1273 73.4497 57.2959 73.4996 57.4435 73.5896C57.591 73.6796 57.7125 73.8065 57.7958 73.9579C57.9586 74.2626 58.0568 74.5976 58.0843 74.942C58.1216 75.1291 58.1179 75.322 58.0734 75.5076C58.0496 75.5999 57.999 75.6832 57.9281 75.7471C57.8572 75.8109 57.769 75.8525 57.6746 75.8666C55.9393 75.9788 54.227 75.5632 52.5374 75.1523C52.0411 75.0316 51.5363 74.8903 51.1224 74.5913C50.7464 74.3197 50.4699 73.9355 50.2002 73.5583C49.7029 72.8627 49.2025 72.1618 48.8466 71.3846C48.3886 70.3843 48.1844 69.2899 47.9841 68.2083C47.9152 67.9183 47.8907 67.6195 47.9114 67.3222C47.9715 66.9744 48.1046 66.6433 48.302 66.3506C48.5408 65.9626 48.8049 65.5907 49.0926 65.2373C49.5298 64.6781 50.1579 64.2993 50.857 64.1731Z" fill="white"/>
</g>
<defs>
<clipPath id="clip0">
<rect width="152" height="96" fill="white"/>
</clipPath>
</defs>
</svg>
