<svg width="142" height="114" viewBox="0 0 142 114" fill="none" xmlns="http://www.w3.org/2000/svg">
<g clip-path="url(#clip0)">
<path opacity="0.1" d="M132.125 76.8451C126.575 81.0338 126.097 89.261 127.051 96.2194C127.37 98.5484 127.772 101.03 126.804 103.166C125.619 105.777 122.68 107.114 119.872 107.478C114.753 108.141 109.369 106.162 105.856 102.322C102.819 99.0041 101.207 94.5276 98.0788 91.2981C92.8405 85.8937 84.5572 85.101 77.1255 85.7791C71.867 86.258 66.0176 87.1544 61.7719 83.9659C58.7847 81.7214 57.3394 77.867 56.9902 74.1095C56.8237 72.2949 56.8559 70.3916 56.05 68.7666C55.5678 67.8006 54.8156 67.0011 54.0178 66.282C46.7325 59.718 35.4916 59.0508 28.573 52.0924C23.9002 47.3921 21.966 40.4242 22.0721 33.7455C22.1782 27.0668 24.1124 20.5655 26.2359 14.2348C27.7416 9.74046 29.5535 4.99785 33.3735 2.26362C37.4043 -0.627514 42.9972 -0.577032 47.5263 1.4368C52.0554 3.45064 55.6578 7.15904 58.6248 11.1758C62.3333 16.1967 65.4548 22.0363 70.8274 25.1376C74.4929 27.2565 78.7736 27.8309 82.8823 28.7573C89.7499 30.3031 96.3407 32.8982 102.873 35.5519C109.126 38.0911 115.406 40.7202 120.985 44.5569C124.934 47.2679 127.69 50.9695 131.288 54.0203C133.634 56.0082 136.462 57.1584 138.574 59.4478C141.174 62.268 143.128 66.4649 141.26 70.2265C139.487 73.7998 135.069 74.6212 132.125 76.8451Z" fill="#FF5A5F"/>
<path d="M71.8361 24.7418C71.9889 24.7418 72.1128 24.616 72.1128 24.4608C72.1128 24.3055 71.9889 24.1797 71.8361 24.1797C71.6833 24.1797 71.5594 24.3055 71.5594 24.4608C71.5594 24.616 71.6833 24.7418 71.8361 24.7418Z" fill="#F8F9FA"/>
<path d="M72.5749 24.7418C72.7277 24.7418 72.8516 24.616 72.8516 24.4608C72.8516 24.3055 72.7277 24.1797 72.5749 24.1797C72.4221 24.1797 72.2982 24.3055 72.2982 24.4608C72.2982 24.616 72.4221 24.7418 72.5749 24.7418Z" fill="#F8F9FA"/>
<path d="M73.3149 24.7418C73.4677 24.7418 73.5916 24.616 73.5916 24.4608C73.5916 24.3055 73.4677 24.1797 73.3149 24.1797C73.1621 24.1797 73.0382 24.3055 73.0382 24.4608C73.0382 24.616 73.1621 24.7418 73.3149 24.7418Z" fill="#F8F9FA"/>
<path d="M0.956348 77.0442C0.956348 77.0442 -5.70169 87.61 16.1246 87.7915C16.1246 87.7915 16.4456 78.5983 9.31079 74.8107C7.92343 74.0709 6.31715 73.8738 4.79624 74.2565C3.27532 74.6392 1.94541 75.5752 1.05843 76.8873L0.956348 77.0442Z" fill="#FF5A5F"/>
<path d="M1.00601 76.8669C1.00601 76.8669 12.1851 79.1045 16.1246 87.7916" stroke="#535461" stroke-miterlimit="10"/>
<path d="M17.0997 86.3698C17.0997 86.3698 9.9219 76.9474 10.5774 67.6586C10.846 63.7606 9.94474 59.8666 7.86284 56.5784C6.87221 55.0215 5.74327 53.5601 4.49017 52.2124" stroke="#535461" stroke-width="2" stroke-miterlimit="10"/>
<path d="M4.86628 46.3579C5.36728 47.6622 4.49557 52.368 4.49557 52.368C4.49557 52.368 0.717262 49.5041 0.216265 48.1998C0.0841652 47.8871 0.0153473 47.5506 0.0139085 47.2104C0.0124698 46.8701 0.0784391 46.5331 0.207889 46.2192C0.337339 45.9054 0.527625 45.6213 0.767416 45.3837C1.00721 45.1461 1.2916 44.96 1.60367 44.8364C1.91574 44.7128 2.24911 44.6542 2.58392 44.6642C2.91874 44.6741 3.24816 44.7524 3.55257 44.8944C3.85698 45.0363 4.13016 45.2391 4.35585 45.4905C4.58155 45.7419 4.75513 46.0369 4.86628 46.3579V46.3579Z" fill="#FF5A5F"/>
<path d="M11.488 52.058C11.2113 53.4306 7.9609 56.8989 7.9609 56.8989C7.9609 56.8989 6.31956 52.41 6.59625 51.032C6.65503 50.6989 6.77884 50.3811 6.96038 50.0973C7.14193 49.8136 7.37754 49.5696 7.65334 49.3798C7.92914 49.1899 8.23955 49.0581 8.56629 48.992C8.89302 48.9259 9.22948 48.9269 9.55583 48.9949C9.88219 49.0629 10.1918 49.1966 10.4666 49.388C10.7413 49.5794 10.9755 49.8248 11.1554 50.1096C11.3354 50.3944 11.4574 50.713 11.5143 51.0464C11.5712 51.3799 11.5618 51.7215 11.4867 52.0512L11.488 52.058Z" fill="#FF5A5F"/>
<path d="M16.0655 64.4741C15.1441 65.5165 10.6163 66.844 10.6163 66.844C10.6163 66.844 11.4303 62.1273 12.3503 61.0849C12.7955 60.5949 13.4127 60.3026 14.0683 60.2713C14.724 60.2401 15.3654 60.4723 15.8538 60.9178C16.3422 61.3633 16.6382 61.9863 16.6778 62.6518C16.7174 63.3174 16.4975 63.972 16.0655 64.4741V64.4741Z" fill="#FF5A5F"/>
<path d="M17.4463 74.662C16.7116 75.8477 12.4685 77.9366 12.4685 77.9366C12.4685 77.9366 12.486 73.1489 13.2207 71.9633C13.3919 71.6741 13.6181 71.4224 13.8862 71.2232C14.1543 71.0239 14.4588 70.8809 14.782 70.8027C15.1052 70.7245 15.4404 70.7126 15.7682 70.7676C16.096 70.8227 16.4096 70.9437 16.6908 71.1234C16.9719 71.3032 17.2149 71.5381 17.4056 71.8144C17.5962 72.0908 17.7307 72.403 17.801 72.7328C17.8714 73.0626 17.8763 73.4034 17.8153 73.7351C17.7544 74.0669 17.629 74.3829 17.4463 74.6648V74.662Z" fill="#FF5A5F"/>
<path d="M3.17118 59.0875C4.44181 59.6333 9.09586 58.872 9.09586 58.872C9.09586 58.872 6.38536 54.9535 5.11473 54.4077C4.81223 54.2781 4.48756 54.2102 4.15924 54.2081C3.83093 54.2059 3.50542 54.2694 3.20128 54.395C2.89714 54.5207 2.62033 54.7059 2.38667 54.9402C2.15301 55.1745 1.96706 55.4532 1.83944 55.7605C1.71183 56.0678 1.64504 56.3976 1.64291 56.7311C1.64077 57.0646 1.70332 57.3952 1.82698 57.7042C1.95064 58.0131 2.133 58.2943 2.36364 58.5317C2.59428 58.769 2.86868 58.9579 3.17118 59.0875V59.0875Z" fill="#FF5A5F"/>
<path d="M4.93878 70.9808C6.31149 71.1172 10.5277 68.9738 10.5277 68.9738C10.5277 68.9738 6.78428 66.0649 5.41157 65.9312C5.08057 65.8903 4.74485 65.917 4.42421 66.01C4.10358 66.103 3.80452 66.2603 3.54469 66.4725C3.28486 66.6848 3.06951 66.9478 2.91137 67.246C2.75322 67.5442 2.65547 67.8716 2.62389 68.2088C2.59231 68.546 2.62754 68.8862 2.7275 69.2093C2.82745 69.5324 2.99011 69.832 3.20587 70.0902C3.42164 70.3485 3.68614 70.5602 3.98376 70.7129C4.28139 70.8656 4.60612 70.9563 4.93878 70.9794V70.9808Z" fill="#FF5A5F"/>
<path d="M8.21474 82.2999C9.54581 82.6669 14.0575 81.2807 14.0575 81.2807C14.0575 81.2807 10.8514 77.7702 9.52029 77.4045C9.20165 77.3102 8.86769 77.2813 8.53795 77.3197C8.2082 77.358 7.88928 77.4627 7.59984 77.6276C7.31039 77.7926 7.05623 78.0146 6.85222 78.2805C6.6482 78.5464 6.49842 78.851 6.41164 79.1764C6.32485 79.5018 6.30281 79.8415 6.34679 80.1757C6.39077 80.5099 6.49989 80.8318 6.66777 81.1226C6.83566 81.4134 7.05894 81.6673 7.32456 81.8695C7.59017 82.0716 7.8928 82.218 8.21474 82.2999V82.2999Z" fill="#FF5A5F"/>
<path opacity="0.25" d="M4.86628 46.3579C5.36728 47.6622 4.49557 52.368 4.49557 52.368C4.49557 52.368 0.717262 49.5041 0.216265 48.1998C0.0841652 47.8871 0.0153473 47.5506 0.0139085 47.2104C0.0124698 46.8701 0.0784391 46.5331 0.207889 46.2192C0.337339 45.9054 0.527625 45.6213 0.767416 45.3837C1.00721 45.1461 1.2916 44.96 1.60367 44.8364C1.91574 44.7128 2.24911 44.6542 2.58392 44.6642C2.91874 44.6741 3.24816 44.7524 3.55257 44.8944C3.85698 45.0363 4.13016 45.2391 4.35585 45.4905C4.58155 45.7419 4.75513 46.0369 4.86628 46.3579V46.3579Z" fill="black"/>
<path opacity="0.25" d="M11.488 52.058C11.2113 53.4306 7.9609 56.8989 7.9609 56.8989C7.9609 56.8989 6.31956 52.41 6.59625 51.032C6.65503 50.6989 6.77884 50.3811 6.96038 50.0973C7.14193 49.8136 7.37754 49.5696 7.65334 49.3798C7.92914 49.1899 8.23955 49.0581 8.56629 48.992C8.89302 48.9259 9.22948 48.9269 9.55583 48.9949C9.88219 49.0629 10.1918 49.1966 10.4666 49.388C10.7413 49.5794 10.9755 49.8248 11.1554 50.1096C11.3354 50.3944 11.4574 50.713 11.5143 51.0464C11.5712 51.3799 11.5618 51.7215 11.4867 52.0512L11.488 52.058Z" fill="black"/>
<path opacity="0.25" d="M16.0655 64.4741C15.1441 65.5165 10.6163 66.844 10.6163 66.844C10.6163 66.844 11.4303 62.1273 12.3503 61.0849C12.7955 60.5949 13.4127 60.3026 14.0683 60.2713C14.724 60.2401 15.3654 60.4723 15.8538 60.9178C16.3422 61.3633 16.6382 61.9863 16.6778 62.6518C16.7174 63.3174 16.4975 63.972 16.0655 64.4741V64.4741Z" fill="black"/>
<path opacity="0.25" d="M17.4463 74.662C16.7116 75.8477 12.4685 77.9366 12.4685 77.9366C12.4685 77.9366 12.486 73.1489 13.2207 71.9633C13.3919 71.6741 13.6181 71.4224 13.8862 71.2232C14.1543 71.0239 14.4588 70.8809 14.782 70.8027C15.1052 70.7245 15.4404 70.7126 15.7682 70.7676C16.096 70.8227 16.4096 70.9437 16.6908 71.1234C16.9719 71.3032 17.2149 71.5381 17.4056 71.8144C17.5962 72.0908 17.7307 72.403 17.801 72.7328C17.8714 73.0626 17.8763 73.4034 17.8153 73.7351C17.7544 74.0669 17.629 74.3829 17.4463 74.6648V74.662Z" fill="black"/>
<path opacity="0.25" d="M3.17118 59.0875C4.44181 59.6333 9.09586 58.872 9.09586 58.872C9.09586 58.872 6.38536 54.9535 5.11473 54.4077C4.81223 54.2781 4.48756 54.2102 4.15924 54.2081C3.83093 54.2059 3.50542 54.2694 3.20128 54.395C2.89714 54.5207 2.62033 54.7059 2.38667 54.9402C2.15301 55.1745 1.96706 55.4532 1.83944 55.7605C1.71183 56.0678 1.64504 56.3976 1.64291 56.7311C1.64077 57.0646 1.70332 57.3952 1.82698 57.7042C1.95064 58.0131 2.133 58.2943 2.36364 58.5317C2.59428 58.769 2.86868 58.9579 3.17118 59.0875V59.0875Z" fill="black"/>
<path opacity="0.25" d="M4.93878 70.9808C6.31149 71.1172 10.5277 68.9738 10.5277 68.9738C10.5277 68.9738 6.78428 66.0649 5.41157 65.9312C5.08057 65.8903 4.74485 65.917 4.42421 66.01C4.10358 66.103 3.80452 66.2603 3.54469 66.4725C3.28486 66.6848 3.06951 66.9478 2.91137 67.246C2.75322 67.5442 2.65547 67.8716 2.62389 68.2088C2.59231 68.546 2.62754 68.8862 2.7275 69.2093C2.82745 69.5324 2.99011 69.832 3.20587 70.0902C3.42164 70.3485 3.68614 70.5602 3.98376 70.7129C4.28139 70.8656 4.60612 70.9563 4.93878 70.9794V70.9808Z" fill="black"/>
<path opacity="0.25" d="M8.21474 82.2999C9.54581 82.6669 14.0575 81.2807 14.0575 81.2807C14.0575 81.2807 10.8514 77.7702 9.52029 77.4045C9.20165 77.3102 8.86769 77.2813 8.53795 77.3197C8.2082 77.358 7.88928 77.4627 7.59984 77.6276C7.31039 77.7926 7.05623 78.0146 6.85222 78.2805C6.6482 78.5464 6.49842 78.851 6.41164 79.1764C6.32485 79.5018 6.30281 79.8415 6.34679 80.1757C6.39077 80.5099 6.49989 80.8318 6.66777 81.1226C6.83566 81.4134 7.05894 81.6673 7.32456 81.8695C7.59017 82.0716 7.8928 82.218 8.21474 82.2999V82.2999Z" fill="black"/>
<path opacity="0.1" d="M62.2554 68.2794C59.7034 68.2221 56.962 68.3517 54.9338 69.3709C51.173 71.2565 51.6794 75.0809 49.2267 77.7346C47.1556 79.9749 43.1973 81.1388 39.3586 81.881C33.1048 83.0912 26.5462 83.5442 20.3354 84.8444C16.674 85.6112 13.0394 86.7259 10.5304 88.6333C8.02135 90.5408 6.89578 93.3855 8.59219 95.6422C10.161 97.7283 13.6169 98.8444 16.764 99.925C19.911 101.006 23.2447 102.423 24.1204 104.676C24.608 105.93 24.2454 107.282 24.8149 108.519C25.9377 110.962 30.1432 112.114 33.9215 112.738C36.9395 113.236 40.0073 113.603 43.0993 113.829C45.5693 114.014 48.0958 114.111 50.5202 113.752C52.6196 113.441 54.5631 112.797 56.5765 112.301C69.3687 109.137 84.0817 111.874 97.1291 109.195C99.5038 108.71 101.84 108.028 103.639 106.912C104.983 106.082 105.977 105.046 106.813 103.97C108.944 101.242 110.111 98.1813 110.201 95.1128C110.254 93.2736 109.932 91.4153 110.428 89.6034C110.948 87.7178 112.335 85.9837 113.074 84.1295C114.417 80.7595 113.477 77.0347 110.553 74.119C109.509 73.0444 108.229 72.2364 106.819 71.7613C105.637 71.3766 104.315 71.2292 103.014 71.0791C99.387 70.6794 95.7134 70.2782 92.0547 70.5034C89.4516 70.6644 86.9037 71.1405 84.2926 71.2265C80.6284 71.3479 77.7581 70.4897 74.4365 69.6834C70.6152 68.7638 66.3157 68.3695 62.2554 68.2794Z" fill="#FF5A5F"/>
<path d="M16.1367 40.3873V76.8805L63.937 67.4485L63.0237 39.4595L16.1367 40.3873Z" fill="#DBACA2"/>
<path d="M105.99 83.4146V95.4757L55.4496 110.476L54.9338 110.204L14.9574 89.1354V39.2657L64.4313 37.6421L64.7362 65.3214L62.7563 65.9408L61.9948 40.0516L18.4577 41.5852L18.1541 79.084L56.058 95.9396L56.0876 95.9328L105.99 83.4146Z" fill="#E8C2B8"/>
<path opacity="0.1" d="M105.99 83.4146V95.4757L55.4496 110.476L54.9338 110.204L56.0876 95.9328L105.99 83.4146Z" fill="black"/>
<path d="M45.0603 65.9014C45.0603 65.9014 20.5906 68.3818 18.2146 71.9743C15.8385 75.5667 18.1944 79.9737 18.1944 79.9737L56.0231 96.6738L107.324 83.2209C107.324 83.2209 105.954 73.7875 101.692 72.7056C97.43 71.6236 63.479 64.2013 63.479 64.2013C63.479 64.2013 49.7788 63.35 45.0603 65.9014Z" fill="#EBECF0"/>
<path d="M18.1917 72.0082L56.782 85.5388C56.782 85.5388 97.9431 72.861 103.774 74.0548C103.774 74.0548 74.9805 63.5859 63.479 64.0416C54.3133 64.4045 44.7164 65.9326 44.7164 65.9326C44.7164 65.9326 19.2582 68.5304 18.1917 72.0082Z" fill="#F8F9FA"/>
<path d="M77.566 80.7131L77.5754 80.6995V80.6913L77.5821 80.6777V80.6681V80.6545V80.6449V80.6299V80.6204V80.6026V80.5944C77.5821 80.5863 77.5821 80.5781 77.5821 80.5699C77.5821 80.5603 77.5821 80.5508 77.5821 80.5412C77.5821 80.5317 77.5821 80.5412 77.5821 80.5317C77.5821 80.5221 77.5821 80.518 77.5821 80.5112V80.4989V80.4785V80.4648V80.4444V80.4307V80.4089V80.3952V80.372V80.3598L77.5714 80.3257L77.558 80.2875V80.2752L77.5472 80.2479V80.2329L77.5365 80.207L77.5298 80.1906L77.519 80.1647L77.511 80.1469L77.4989 80.121L77.4908 80.1046L77.476 80.076L77.468 80.061L77.4478 80.0214L77.4237 79.975L77.4156 79.96L77.3981 79.9273L77.3887 79.9095L77.3713 79.8795L77.3605 79.8604L77.3431 79.8304L77.3135 79.7854L77.2947 79.7553L77.2826 79.7362L77.2625 79.7035L77.2517 79.6858L77.2249 79.6421V79.6339L77.1913 79.5821L77.1805 79.5671L77.1564 79.5302L77.1429 79.5111L77.1201 79.4784L77.1067 79.4579L77.0838 79.4252L77.0691 79.4033L77.0449 79.376L77.0301 79.3556L77.0046 79.3201L76.9912 79.3024L76.9576 79.256V79.2492L76.9186 79.1946L76.9052 79.1755L76.8797 79.14L76.8622 79.1168L76.838 79.0841L76.8206 79.0609L76.7964 79.0281L76.7789 79.0063L76.7534 78.9722L76.736 78.9504L76.7091 78.9149L76.693 78.8944L76.6607 78.8535L76.65 78.8398C76.5291 78.6843 76.4042 78.5288 76.2793 78.3787C75.927 77.9533 75.4956 77.6026 75.0097 77.3467C74.5239 77.0909 73.9932 76.9348 73.4479 76.8874C73.3364 76.8779 73.2196 76.8656 73.1014 76.8506H73.0517L72.9644 76.8383H72.9227L72.7884 76.8192L72.6608 76.7987L72.6165 76.7905L72.5265 76.7742L72.4728 76.7632L72.3908 76.7469L72.3331 76.7346L72.2552 76.7169L72.1961 76.7032L72.1182 76.6841L72.0577 76.6691L71.9812 76.6486L71.9207 76.6323L71.8442 76.6104C71.4412 76.0019 70.8288 75.4603 70.2324 75.3552C70.0681 75.3293 69.9003 75.3381 69.7394 75.3811L69.7112 75.3497L69.6709 75.3034L69.6172 75.2338L69.5823 75.1874L69.5259 75.1069L69.4977 75.0673C69.4699 75.0264 69.4435 74.9845 69.4184 74.9418C69.3392 74.906 69.2563 74.879 69.1713 74.8613C70.3598 74.6784 71.5318 74.3978 72.6756 74.0222C72.731 74.0009 72.7838 73.9729 72.8327 73.939L72.8569 73.9308C73.8522 73.5624 75.0745 69.9741 74.2148 69.472C73.3552 68.9699 72.043 64.833 71.2733 62.7142C70.5037 60.5953 68.2862 60.3701 68.2862 60.3701C68.2862 60.3701 65.0733 57.8419 63.6254 58.1175C62.1775 58.3931 61.9505 56.1869 61.8148 56.0955C61.799 56.0822 61.7858 56.066 61.7759 56.0478C61.4266 55.4925 58.6503 54.7516 57.1527 54.3859C55.6887 53.3081 53.9426 52.4717 52.5309 52.1265C52.0593 51.9969 51.5646 51.9799 51.0855 52.077C50.6064 52.1741 50.1559 52.3825 49.7694 52.6859C46.8037 52.8387 46.3309 55.1145 46.3309 55.1145C46.3207 55.4251 46.3738 55.7344 46.4867 56.0232C46.3265 56.0254 46.1663 56.0167 46.0072 55.9973C46.351 55.4201 46.3618 54.6779 46.6183 54.0435C47.1247 52.7882 48.5216 52.1402 49.8419 51.971C50.6115 51.8727 51.4537 51.8727 52.0608 51.3829C52.3733 51.1293 52.5866 50.7708 52.6625 50.3719C52.6872 50.2858 52.6795 50.1934 52.6411 50.1127C52.6035 50.0603 52.553 50.0189 52.4946 49.9926C51.6995 49.5615 50.7418 49.6733 49.8392 49.6529C48.3725 49.6201 46.9434 49.2122 45.525 48.8342C44.9246 48.6746 44.2759 48.5204 43.6956 48.7469C43.1476 48.9598 42.7742 49.4673 42.335 49.8616C40.5352 51.4743 37.5466 51.241 35.9456 53.0584C35.5749 53.48 35.2969 54.0517 35.4325 54.6001C35.4876 54.8239 35.6098 55.0299 35.6488 55.2578C35.7267 55.708 35.4741 56.1392 35.2606 56.5417C35.047 56.9442 34.8576 57.4326 35.0591 57.8419C35.364 58.4668 36.2948 58.4204 36.7784 58.9157C37.0027 59.1463 37.1115 59.4765 37.3452 59.6961C37.7199 60.0468 38.2961 60.0195 38.8038 59.969C39.004 59.9499 39.3035 59.894 39.4136 59.7152C39.8063 60.0905 40.2795 60.3679 40.7957 60.5258C41.312 60.6837 41.8572 60.7177 42.3886 60.6251C42.92 60.5326 43.423 60.3159 43.8579 59.9923C44.2928 59.6687 44.6479 59.2469 44.8951 58.7602C45.9892 58.6851 47.0766 58.9838 47.9843 59.6088C48.1211 60.0183 48.3722 60.3786 48.7069 60.6457C49.0239 60.8982 49.4014 61.2079 49.7815 61.5394C48.8184 61.7973 47.9628 61.9624 47.9628 61.9624C47.9628 61.9624 44.1617 63.204 44.1617 64.0308C44.1752 64.1805 44.221 64.3254 44.296 64.4551C44.1998 64.6607 44.1454 64.8839 44.1362 65.1114C43.0872 64.9313 42.2477 64.6598 41.8139 64.26C41.8139 64.26 41.6903 64.2259 41.4996 64.1877C41.2444 63.8561 40.4949 62.9352 40.0489 62.972C39.7521 62.9966 39.646 63.6979 39.6084 64.3255C39.5693 64.3598 39.535 64.3992 39.5063 64.4428C39.0537 65.1318 39.869 66.5112 40.4116 66.7418C40.9542 66.9724 43.9414 66.8783 45.9776 68.3968C46.8802 69.0695 48.4316 69.1991 49.8728 69.1363C48.4235 70.176 46.394 71.7737 46.112 72.7642C45.9602 73.2895 45.7815 73.9417 45.7923 74.6116C44.9058 75.8027 43.564 78.3173 46.8816 79.5234C49.6163 80.5153 57.0305 80.3884 62.3131 80.1456C64.7711 80.5863 66.8006 81.0297 67.6522 81.454C67.6522 81.454 69.6884 81.7269 70.5037 82.2358C71.319 82.7447 72.8112 82.6042 72.8112 82.6042C72.8112 82.6042 75.7071 83.1104 76.3411 83.753C76.975 84.3956 78.0603 82.6492 76.7037 81.8224C76.1745 81.5004 75.3861 80.9696 74.6218 80.3884C75.6037 80.5058 76.47 80.634 77.0207 80.765L77.0758 80.7773H77.0932H77.1282H77.1483H77.1779H77.1967H77.2249H77.3592H77.3941H77.4048H77.4263H77.4384H77.4559H77.4666H77.4828H77.4935L77.5083 80.7704H77.5177L77.5311 80.7609H77.5378L77.5553 80.7459L77.566 80.7131ZM65.0653 76.3062C65.0653 76.3062 64.6838 76.2175 64.1143 76.081L62.9834 75.6172C62.9834 75.6172 64.9135 75.0005 66.7012 74.2159C67.213 74.4438 67.6629 74.6253 67.7758 74.7903C67.8243 74.845 67.8905 74.8804 67.9625 74.8899C67.2909 75.0591 66.4286 75.4944 65.4172 76.4986C65.2945 76.4451 65.1767 76.3808 65.0653 76.3062V76.3062ZM51.4 65.2274L52.5161 64.7007C52.7592 64.9108 53.0198 65.11 53.275 65.3038C52.6625 65.3406 51.8392 65.3815 50.9084 65.4075C51.1931 65.3106 51.4 65.2274 51.4 65.2274Z" fill="url(#paint0_linear)"/>
<path d="M41.8891 64.3487C41.8891 64.3487 40.9139 63.0034 40.3834 63.0444C39.8528 63.0853 39.9401 65.3393 39.9401 65.3393L41.8891 64.3487Z" fill="#FFD5D8"/>
<path d="M54.4261 65.249C54.4261 65.249 44.0596 66.1045 42.1107 64.3035C42.1107 64.3035 40.2947 63.8082 39.8515 64.4836C39.4083 65.159 40.2061 66.5084 40.738 66.7335C41.2699 66.9586 44.1939 66.8699 46.1872 68.353C48.1804 69.8361 53.408 68.6259 53.408 68.6259L55.5785 67.7704L54.4261 65.249Z" fill="#FF7C5E"/>
<path opacity="0.05" d="M54.4261 65.249C54.4261 65.249 44.0596 66.1045 42.1107 64.3035C42.1107 64.3035 40.2947 63.8082 39.8515 64.4836C39.4083 65.159 40.2061 66.5084 40.738 66.7335C41.2699 66.9586 44.1939 66.8699 46.1872 68.353C48.1804 69.8361 53.408 68.6259 53.408 68.6259L55.5785 67.7704L54.4261 65.249Z" fill="black"/>
<path d="M69.2666 70.289C69.2666 70.289 67.0518 68.6695 62.4891 70.6984C57.9264 72.7272 46.5418 73.8037 46.5418 73.8037C46.5418 73.8037 42.7326 77.6731 47.079 79.249C51.4255 80.8248 67.8106 79.5218 67.8106 79.5218C67.8106 79.5218 74.4996 79.9721 76.5815 80.4673C77.8413 80.7675 76.8501 79.3185 75.8629 78.1288C75.5182 77.712 75.0959 77.3684 74.6201 77.1179C74.1444 76.8674 73.6246 76.7148 73.0906 76.6689C71.7824 76.5557 69.9678 76.1382 69.1377 74.7519C69.1377 74.7519 67.5434 73.9415 65.1512 76.3715L62.8437 75.4191C62.8437 75.4191 69.178 73.3944 69.3996 72.0436C69.6212 70.6929 69.2666 70.289 69.2666 70.289Z" fill="#FFD5D8"/>
<path opacity="0.05" d="M69.2667 70.289C69.2667 70.289 67.0518 68.6695 62.4891 70.6984C57.9264 72.7272 46.5418 73.8037 46.5418 73.8037C46.5418 73.8037 42.7326 77.6731 47.079 79.249C51.4255 80.8249 67.8107 79.5219 67.8107 79.5219C67.8107 79.5219 74.4996 79.9721 76.5815 80.4674C77.6856 80.7293 77.0583 79.6487 76.2269 78.5818C75.8123 78.0458 75.2974 77.5985 74.7119 77.2655C74.1264 76.9326 73.4818 76.7205 72.8153 76.6416C71.5393 76.4943 69.9114 76.0427 69.1391 74.752C69.1391 74.752 67.5447 73.9415 65.1526 76.3715L62.8437 75.4191C62.8437 75.4191 69.178 73.3944 69.3996 72.0436C69.6213 70.6929 69.2667 70.289 69.2667 70.289Z" fill="black"/>
<path d="M69.3109 63.8999C69.3109 63.8999 66.5199 59.3974 59.9196 63.3145L51.4577 68.0899C51.4577 68.0899 46.7566 71.1052 46.3188 72.6347C45.8809 74.1642 45.2107 76.7742 49.819 77.7648C54.4274 78.7553 65.1472 80.0147 67.4064 81.1403C67.4064 81.1403 69.3996 81.4132 70.1974 81.9057C70.9953 82.3982 72.4566 82.2659 72.4566 82.2659C72.4566 82.2659 75.292 82.7612 75.9126 83.3915C76.5331 84.0219 77.5955 82.3109 76.2672 81.5018C74.9388 80.6928 71.9261 78.5316 71.9691 77.6816C72.012 76.8315 70.9496 75.3293 69.9261 75.1465C68.9026 74.9637 67.5783 76.4959 67.5783 76.4959C67.5783 76.4959 65.8953 76.7688 64.8758 76.0866C64.8758 76.0866 59.6483 74.8709 59.1164 74.5121C58.5845 74.1532 54.9526 72.7575 54.9526 72.7575C54.9526 72.7575 63.5488 72.6674 66.0713 70.3275C66.0713 70.3275 67.0464 69.6071 67.8429 69.8322C67.8496 69.8391 71.7918 68.3096 69.3109 63.8999Z" fill="#FFD5D8"/>
<path d="M44.1926 55.4393C44.1926 55.4393 46.7177 57.2389 48.6666 55.4393C50.6156 53.6396 49.5101 60.9746 49.5101 60.9746C49.5101 60.9746 46.8077 57.3289 42.7769 59.7152L44.1926 55.4393Z" fill="#FFD5D8"/>
<path opacity="0.05" d="M44.1926 55.4393C44.1926 55.4393 46.7177 57.2389 48.6666 55.4393C50.6156 53.6396 49.5101 60.9746 49.5101 60.9746C49.5101 60.9746 46.8077 57.3289 42.7769 59.7152L44.1926 55.4393Z" fill="black"/>
<path d="M33.3842 70.8744C33.3842 70.8744 36.0423 68.5795 37.548 68.5345C37.9966 68.5208 38.5151 68.057 39.0255 67.413C39.6702 66.5993 40.5206 65.9791 41.4857 65.6186C42.4507 65.2581 43.4941 65.1709 44.5042 65.3664C45.3611 65.5274 46.4155 65.5233 47.6955 65.2013C52.3469 64.0307 50.0434 61.1081 50.0434 61.1081L48.582 59.8488C48.582 59.8488 46.5888 58.4544 45.8353 58.5445C45.0818 58.6345 43.1328 60.6593 42.9112 60.4341C42.6896 60.209 39.9872 58.1843 39.5439 57.644C39.1007 57.1037 35.5547 55.3491 36.4412 54.8538C37.3277 54.3585 41.8004 52.5139 40.9139 52.1537C40.0275 51.7935 35.2431 51.2532 33.3829 53.503C31.5226 55.7529 32.452 69.5687 33.3842 70.8744Z" fill="#F8F9FA"/>
<path opacity="0.05" d="M33.3842 70.8744C33.3842 70.8744 36.0423 68.5795 37.548 68.5345C37.9966 68.5208 38.5151 68.057 39.0255 67.413C39.6702 66.5993 40.5206 65.9791 41.4857 65.6186C42.4507 65.2581 43.4941 65.1709 44.5042 65.3664C45.3611 65.5274 46.4155 65.5233 47.6955 65.2013C52.3469 64.0307 50.0434 61.1081 50.0434 61.1081L48.582 59.8488C48.582 59.8488 46.5888 58.4544 45.8353 58.5445C45.0818 58.6345 43.1328 60.6593 42.9112 60.4341C42.6896 60.209 39.9872 58.1843 39.5439 57.644C39.1007 57.1037 35.5547 55.3491 36.4412 54.8538C37.3277 54.3585 41.8004 52.5139 40.9139 52.1537C40.0275 51.7935 35.2431 51.2532 33.3829 53.503C31.5226 55.7529 32.452 69.5687 33.3842 70.8744Z" fill="black"/>
<path d="M33.5615 70.5591C33.5615 70.5591 36.2196 68.2642 37.7253 68.2192C38.1739 68.2056 38.6924 67.7417 39.2028 67.0977C39.8468 66.285 40.696 65.6652 41.6598 65.3045C42.6235 64.9438 43.6656 64.8557 44.6748 65.0497C45.5317 65.2107 46.5861 65.2067 47.8661 64.8847C52.5175 63.714 50.214 60.7915 50.214 60.7915L48.7526 59.5322C48.7526 59.5322 46.7594 58.1378 46.0058 58.2278C45.2523 58.3179 43.3034 60.3426 43.0818 60.1175C42.8602 59.8924 40.1577 57.8676 39.7145 57.3273C39.2713 56.787 35.732 55.0338 36.6158 54.544C37.4996 54.0542 41.9764 52.2041 41.0899 51.8439C40.2034 51.4837 35.4191 50.9434 33.5588 53.1932C31.6985 55.4431 32.6307 69.2534 33.5615 70.5591Z" fill="#F8F9FA"/>
<path d="M46.5404 55.3491C46.5404 55.3491 47.2496 51.9286 52.4328 53.2793C57.6161 54.6301 60.1855 57.554 60.1855 57.554L55.4845 59.7588L49.725 57.7791C49.725 57.7791 46.4974 57.8187 46.5404 55.3491Z" fill="#FFD5D8"/>
<path opacity="0.05" d="M56.0218 54.4937C56.0218 54.4937 61.0062 55.5852 61.4763 56.337C61.4863 56.3548 61.4995 56.3705 61.5153 56.3834C61.6496 56.4734 61.8699 58.6332 63.2869 58.3631C64.7039 58.0929 67.8537 60.5679 67.8537 60.5679C67.8537 60.5679 70.0242 60.7931 70.7777 62.8628C71.5312 64.9326 72.8153 68.9835 73.6574 69.4774C74.4996 69.9713 73.3028 73.4819 72.3291 73.8434C71.3553 74.205 67.855 75.0591 67.5447 74.6088C67.2345 74.1586 64.532 73.6633 64.7093 72.2239C64.8866 70.7845 65.949 69.4337 65.1123 68.5782C64.2755 67.7228 63.7396 65.4729 62.4985 65.0227C61.2574 64.5724 59.0425 64.4373 57.7142 65.3378C56.3858 66.2383 54.7807 66.2779 54.7807 66.2779C54.7807 66.2779 52.0339 64.6584 51.5907 63.5327C51.2925 62.7742 49.807 61.5053 48.8695 60.7589C48.6238 60.563 48.423 60.3151 48.2813 60.0323C48.1396 59.7495 48.0602 59.4388 48.0488 59.1217C48.0098 58.0111 47.9749 56.3738 48.0904 56.1091C48.2677 55.6998 50.7042 53.2739 50.7042 53.2739L56.0218 54.4937Z" fill="black"/>
<path d="M56.1991 54.4077C56.1991 54.4077 61.1835 55.4992 61.6537 56.251C61.6636 56.2688 61.6769 56.2845 61.6926 56.2973C61.8269 56.3874 62.0472 58.5472 63.4642 58.2771C64.8813 58.0069 68.031 60.4819 68.031 60.4819C68.031 60.4819 70.2015 60.707 70.955 62.7768C71.7085 64.8466 72.9926 68.8975 73.8348 69.3914C74.6769 69.8853 73.4802 73.3959 72.5064 73.7574C71.5326 74.119 68.0323 74.9731 67.7221 74.5228C67.4118 74.0726 64.7093 73.5773 64.8866 72.1379C65.0639 70.6985 66.1264 69.3477 65.2896 68.4922C64.4528 67.6368 63.9169 65.3869 62.6758 64.9367C61.4347 64.4864 59.2199 64.3513 57.8915 65.2518C56.5631 66.1523 54.8129 66.3092 54.8129 66.3092C54.8129 66.3092 52.222 64.5765 51.7788 63.4522C51.4806 62.6936 49.995 61.4247 49.0575 60.6784C48.8118 60.4825 48.6111 60.2345 48.4694 59.9517C48.3276 59.669 48.2483 59.3582 48.2368 59.0411C48.1979 57.9305 48.163 56.2932 48.2785 56.0286C48.4558 55.6192 50.8923 53.1934 50.8923 53.1934L56.1991 54.4077Z" fill="#FF7C5E"/>
<path d="M44.7245 64.1685C44.6802 64.2135 43.9267 65.3391 44.8131 65.9681C45.0584 66.1507 45.3418 66.2737 45.6413 66.3274C45.9408 66.3811 46.2484 66.3641 46.5404 66.2778L44.7245 64.1685Z" fill="#FFD5D8"/>
<path opacity="0.1" d="M48.9729 54.3586C48.9729 54.3586 50.1696 51.9286 52.7337 52.559C55.2978 53.1893 59.0237 55.4842 59.9102 57.7791C60.7967 60.074 56.5523 62.8669 56.5523 62.8669L51.5021 65.2519C51.5021 65.2519 49.9521 65.8822 49.5088 65.6612C49.0656 65.4402 46.9393 67.3694 46.9393 67.3694C46.9393 67.3694 44.5472 65.0295 44.5472 64.219C44.5472 63.4086 48.2691 62.1847 48.2691 62.1847C48.2691 62.1847 52.7015 61.3293 52.6545 60.4752C52.6545 60.4752 53.408 59.5747 53.0091 59.3045C52.6102 59.0344 48.3349 57.7518 48.3349 57.7518C48.3349 57.7518 48.1804 54.8989 48.9729 54.3586Z" fill="black"/>
<path d="M48.8386 54.2234C48.8386 54.2234 50.0353 51.7934 52.5994 52.4237C55.1635 53.0541 58.8894 55.349 59.7759 57.6439C60.6624 59.9388 56.4194 62.7303 56.4194 62.7303L51.3691 65.1153C51.3691 65.1153 49.8191 65.7456 49.3758 65.5246C48.9326 65.3036 46.8064 67.2328 46.8064 67.2328C46.8064 67.2328 44.4142 64.8929 44.4142 64.0824C44.4142 63.272 48.1361 62.0481 48.1361 62.0481C48.1361 62.0481 52.5685 61.1927 52.5215 60.3386C52.5215 60.3386 53.275 59.4381 52.8761 59.1679C52.4772 58.8978 48.2019 57.6152 48.2019 57.6152C48.2019 57.6152 48.0475 54.7637 48.8386 54.2234Z" fill="#FF7C5E"/>
<path opacity="0.1" d="M43.1745 59.2635C43.893 58.8189 44.702 58.5469 45.5398 58.4681C45.7829 57.9919 45.1449 57.4735 45.1449 56.9004C45.1449 56.4202 44.9649 56.2373 44.7903 55.8198C44.1563 55.5865 44.5915 54.9875 44.5915 54.9875L43.1745 59.2635Z" fill="black"/>
<path d="M42.1107 60.7944C43.9949 60.7944 45.5223 59.2428 45.5223 57.3288C45.5223 55.4149 43.9949 53.8633 42.1107 53.8633C40.2265 53.8633 38.6991 55.4149 38.6991 57.3288C38.6991 59.2428 40.2265 60.7944 42.1107 60.7944Z" fill="#FFD5D8"/>
<path d="M39.5533 58.7504C40.3149 58.1528 41.3061 57.9522 42.2652 57.8649C42.8642 57.8103 43.474 57.7912 44.0489 57.6057C44.3795 57.4885 44.7002 57.3443 45.0079 57.1745C45.4189 56.9617 45.8433 56.7379 46.1241 56.3654C46.5619 55.7842 46.5485 54.9792 46.8225 54.3011C47.3181 53.0732 48.6854 52.4374 49.9829 52.2723C50.7364 52.1754 51.5598 52.1754 52.1562 51.6965C52.4621 51.4484 52.6712 51.0977 52.7458 50.7073C52.7697 50.6229 52.762 50.5326 52.7243 50.4535C52.6873 50.4023 52.6378 50.3619 52.5806 50.3362C51.8016 49.9146 50.8641 50.0238 49.9816 50.0033C48.5458 49.9719 47.1462 49.5708 45.7574 49.201C45.1691 49.0441 44.5338 48.8941 43.9669 49.1151C43.4297 49.3238 43.0657 49.8205 42.6345 50.2066C40.8723 51.7866 37.9469 51.5573 36.3794 53.3365C36.0168 53.7458 35.7441 54.3093 35.8771 54.8455C35.9322 55.0652 36.0504 55.2657 36.0893 55.4895C36.1659 55.9302 35.9187 56.3532 35.7092 56.7461C35.4997 57.1391 35.317 57.6193 35.5118 58.0191C35.8113 58.6303 36.7206 58.5853 37.1947 59.0697C37.415 59.2948 37.5198 59.6154 37.7495 59.8337C38.1175 60.1775 38.6803 60.1503 39.1772 60.1066C39.4459 60.0807 39.8851 59.9906 39.8085 59.625C39.7441 59.2975 39.3183 59.157 39.5533 58.7504Z" fill="#85596B"/>
<path d="M38.3619 60.8204C38.3619 60.8204 40.6883 59.0467 42.1496 59.628C43.611 60.2092 44.0099 60.5285 44.9407 60.1737C45.8715 59.819 46.2691 60.8941 46.2691 60.8941L40.472 62.5941L38.3619 60.8204Z" fill="#F8F9FA"/>
<path opacity="0.05" d="M35.223 63.9215C35.223 63.9215 36.2867 61.1314 37.5708 60.5911Z" fill="black"/>
<path opacity="0.05" d="M33.8489 63.0209C33.8489 63.0209 34.9127 60.2307 36.1968 59.6904Z" fill="black"/>
<path opacity="0.05" d="M58.7457 63.6962C58.7457 63.6962 62.5065 61.8516 65.0357 62.0317C67.5649 62.2118 68.0041 60.5923 68.0041 60.5923" fill="black"/>
<path d="M42.476 109.753C42.1631 109.457 41.8689 109.107 41.7776 108.683C41.6862 108.259 41.8649 107.748 42.2651 107.591C42.7124 107.417 43.1919 107.728 43.5546 108.051C43.9172 108.375 44.3336 108.733 44.8077 108.665C44.5635 108.44 44.3809 108.155 44.2775 107.837C44.1742 107.519 44.1537 107.179 44.2181 106.851C44.2389 106.715 44.2955 106.588 44.382 106.482C44.6304 106.209 45.0817 106.328 45.3786 106.541C46.3188 107.223 46.5874 108.523 46.5941 109.699C46.6895 109.275 46.6089 108.833 46.6116 108.398C46.6143 107.963 46.7311 107.481 47.0924 107.246C47.3175 107.123 47.5705 107.063 47.8258 107.072C48.2516 107.055 48.7257 107.099 49.0158 107.415C49.3772 107.808 49.2845 108.467 48.9688 108.9C48.6532 109.332 48.1764 109.604 47.7372 109.903C47.3846 110.116 47.0839 110.408 46.8574 110.755C46.8305 110.804 46.8085 110.855 46.7916 110.908H44.1254C43.5268 110.6 42.972 110.212 42.476 109.753V109.753Z" fill="#FF5A5F"/>
<path d="M104.064 97.5891C103.856 97.417 103.705 97.1848 103.63 96.9233C103.574 96.6586 103.685 96.3421 103.934 96.2411C104.212 96.1333 104.51 96.3284 104.739 96.5276C104.969 96.7268 105.223 96.9519 105.519 96.9096C105.367 96.7698 105.253 96.5923 105.189 96.3946C105.124 96.1968 105.112 95.9855 105.152 95.7813C105.165 95.6969 105.2 95.6177 105.254 95.5521C105.408 95.3843 105.689 95.4566 105.874 95.5889C106.463 96.0092 106.627 96.8169 106.631 97.5523C106.69 97.2889 106.64 97.0133 106.641 96.7432C106.643 96.473 106.715 96.1729 106.941 96.0282C107.081 95.9516 107.239 95.9139 107.398 95.9191C107.666 95.9095 107.956 95.9368 108.138 96.1333C108.362 96.3775 108.304 96.7868 108.108 97.0556C107.912 97.3244 107.615 97.4936 107.343 97.6791C107.123 97.8121 106.936 97.9935 106.796 98.2099C106.779 98.2399 106.766 98.2714 106.756 98.304H105.089C104.717 98.1137 104.372 97.8732 104.064 97.5891Z" fill="#FF5A5F"/>
</g>
<defs>
<linearGradient id="paint0_linear" x1="56.2985" y1="83.8922" x2="56.2985" y2="48.6323" gradientUnits="userSpaceOnUse">
<stop stop-color="#808080" stop-opacity="0.25"/>
<stop offset="0.54" stop-color="#808080" stop-opacity="0.12"/>
<stop offset="1" stop-color="#808080" stop-opacity="0.1"/>
</linearGradient>
<clipPath id="clip0">
<rect width="142" height="114" fill="white"/>
</clipPath>
</defs>
</svg>
