<svg width="207" height="113" viewBox="0 0 207 113" fill="none" xmlns="http://www.w3.org/2000/svg">
<g clip-path="url(#clip0)">
<path d="M207 105.933C207 99.765 203.872 94.7651 200.012 94.7651C197.587 94.7651 195.451 96.7411 194.198 99.7399C193.775 99.5641 193.321 99.473 192.862 99.4719C191.694 99.4719 190.614 100.071 189.734 101.084C188.604 97.3449 186.209 94.7651 183.438 94.7651C180.846 94.7651 178.585 97.0221 177.379 100.372C176.709 99.8058 175.864 99.4881 174.988 99.4719C172.026 99.4719 169.625 103.309 169.625 108.042C169.613 109.62 169.899 111.186 170.47 112.657H205.591C206.475 110.787 207 108.458 207 105.933Z" fill="white"/>
<path d="M181.949 41.4449C176.446 29.5364 165.677 19.3775 152.668 17.7217C149.228 17.284 145.637 17.4595 142.445 18.8157C138.256 20.596 135.169 24.1893 132.048 27.504C125.441 34.5204 118.048 40.7513 110.014 46.0736C106.049 48.6996 101.796 51.1498 97.0887 51.8217C87.65 53.1689 78.3139 46.7298 74.0093 38.2193C71.3204 32.903 70.0778 26.6613 67.9041 21.1316C65.4006 21.1268 62.418 21.1277 59.2091 21.1425C50.3394 21.1834 43.1198 21.3145 43.1198 21.3145C43.1198 21.3145 51.7014 9.94292 59.1769 14.156C61.5659 15.5024 64.0681 16.7039 66.3676 17.716C65.0612 15.2021 63.4134 12.9403 61.1465 11.1217C56.6766 7.53576 50.6226 6.52992 44.8991 6.79697C38.8891 7.07739 32.8238 8.68707 27.9402 12.2026C19.2403 18.4652 15.6476 29.4885 12.5728 39.76L20.0051 43.4874C23.1932 40.7302 27.855 38.0027 32.1519 40.4244C39.6274 44.6375 48.2149 47.4348 48.2149 47.4348C48.2149 47.4348 41.0538 47.37 32.1841 47.4109C30.6944 47.4178 29.2531 47.4273 27.8829 47.4382L110.4 88.8212C137.617 89.2047 158.138 87.7323 184 88.8212C185.349 88.878 188.383 81.805 188.393 79.9436C188.464 66.8245 187.452 53.3534 181.949 41.4449ZM155.522 45.0142C146.652 45.0551 139.432 45.1862 139.432 45.1862C139.432 45.1862 148.014 33.8146 155.489 38.0277C162.965 42.2408 171.552 45.0381 171.552 45.0381C171.552 45.0381 164.391 44.9733 155.522 45.0142L155.522 45.0142Z" fill="#F2F2F2"/>
<path opacity="0.3" d="M178.633 83.9317C178.633 79.4472 175.858 75.8118 172.434 75.8118C170.282 75.8118 168.387 77.2485 167.276 79.4289C166.894 79.3001 166.494 79.2343 166.091 79.234C165.049 79.2517 164.054 79.6717 163.315 80.4062C162.313 77.6875 160.188 75.8118 157.729 75.8118C155.43 75.8118 153.424 77.4528 152.354 79.8882C151.726 79.4667 150.989 79.2392 150.233 79.234C147.605 79.234 145.475 82.024 145.475 85.4656C145.467 86.6265 145.724 87.7739 146.225 88.8211H177.383C178.219 87.3281 178.65 85.6426 178.633 83.9317V83.9317Z" fill="white"/>
<path d="M207 112.98H15.7167V112.597H206.808L207 112.98Z" fill="#2F2E41"/>
<path d="M191.283 89.2045H0V88.821H191.092L191.283 89.2045Z" fill="#2F2E41"/>
<path d="M81.1956 53.9052C81.1956 53.9052 82.4004 45.0672 84.4082 47.4775C86.4161 49.8879 84.4082 53.5034 84.4082 53.5034L82.8019 55.5121L81.1956 54.3069V53.9052Z" fill="#FFB8B8"/>
<path d="M76.3768 56.7173C76.3768 56.7173 80.3925 52.2983 81.1957 53.1018C81.9988 53.9052 84.4082 54.307 84.0067 55.9139C83.6051 57.5208 75.1721 62.7432 75.1721 62.7432L76.3768 56.7173Z" fill="white"/>
<path opacity="0.1" d="M76.3768 56.7173C76.3768 56.7173 80.3925 52.2983 81.1957 53.1018C81.9988 53.9052 84.4082 54.307 84.0067 55.9139C83.6051 57.5208 75.1721 62.7432 75.1721 62.7432L76.3768 56.7173Z" fill="black"/>
<path d="M53.4872 56.3157V59.5295C53.4872 59.5295 53.0856 66.7606 55.4951 66.3588C57.9045 65.9571 56.6998 59.9312 56.6998 59.9312L56.2982 56.3157H53.4872Z" fill="#FFB8B8"/>
<path d="M54.692 79.6157C54.692 79.6157 51.0778 85.2399 49.8731 85.6416C48.6684 86.0433 42.2432 89.6589 41.4401 93.2744L35.8181 100.505L38.6291 104.121C38.6291 104.121 51.4794 90.4623 55.0935 89.2572C58.7077 88.052 62.3218 82.0261 62.3218 82.0261L54.692 79.6157Z" fill="#FFB8B8"/>
<path d="M83.2035 70.376C83.2035 70.376 90.8334 71.5812 89.6287 76.4019C88.424 81.2226 76.7784 91.2658 76.7784 91.2658L76.3768 93.6761L71.9595 94.4796L69.9517 92.4709L70.3532 91.2658C70.3532 91.2658 75.1721 86.8468 75.5737 85.2399C75.9752 83.633 80.3925 77.2053 82.4004 76.8036L79.5894 75.1967L83.2035 70.376Z" fill="#FFB8B8"/>
<path d="M37.0227 100.505C37.0227 100.505 38.629 98.0951 36.2196 98.4968C33.8101 98.8986 32.2039 99.3003 32.2039 100.907C32.2039 102.514 34.2117 113.762 36.6211 112.959C39.0306 112.156 37.0227 108.54 37.0227 108.54C37.0227 108.54 38.2274 105.326 39.0306 104.924C39.8337 104.523 39.8337 102.514 39.0306 102.514C38.2274 102.514 36.6212 101.309 37.0227 100.505Z" fill="#2F2E41"/>
<path d="M71.1564 91.6676C71.1564 91.6676 71.1564 89.659 69.5501 91.6676C67.9438 93.6763 67.1406 95.2832 68.7469 96.4883C70.3532 97.6935 75.9752 100.506 75.9752 100.506C75.9752 100.506 81.9988 101.711 81.1957 98.8987C81.1957 98.8987 77.18 96.8901 77.18 95.2832C77.18 93.6763 77.18 90.8642 75.9752 91.6676C74.7705 92.4711 71.1564 92.8728 71.1564 91.6676Z" fill="#2F2E41"/>
<path d="M63.5265 61.5381C63.5265 61.5381 57.9045 62.3415 58.3061 70.3761C58.3061 70.3761 51.0778 77.6071 53.0856 80.0175C55.0935 82.4278 59.5108 86.8468 61.1171 85.6417C62.7234 84.4365 67.5422 75.1968 67.5422 75.1968C67.5422 75.1968 78.7862 79.214 80.7941 77.2054C82.802 75.1968 84.8098 70.3761 84.8098 70.3761L74.7705 65.1536L63.5265 61.5381Z" fill="#2F2E41"/>
<path d="M79.1878 38.6397C81.8492 38.6397 84.0067 36.4814 84.0067 33.819C84.0067 31.1566 81.8492 28.9983 79.1878 28.9983C76.5264 28.9983 74.369 31.1566 74.369 33.819C74.369 36.4814 76.5264 38.6397 79.1878 38.6397Z" fill="#FFB8B8"/>
<path d="M75.5736 34.2207C75.5736 34.2207 72.7626 38.6397 71.9595 39.0414C71.1563 39.4431 77.5815 43.4604 77.5815 43.4604C77.5815 43.4604 77.5815 38.238 79.5894 37.0328L75.5736 34.2207Z" fill="#FFB8B8"/>
<path d="M75.1721 38.6397C75.1721 38.6397 68.7469 36.6311 67.5422 39.8449C66.3375 43.0587 63.5265 49.0846 63.9281 53.1019C64.3296 57.1191 65.1328 56.3157 63.9281 57.5209C62.7234 58.726 61.9202 57.9226 62.3218 59.5295C62.7233 61.1364 63.1249 61.1364 62.7233 61.9399C62.3218 62.7433 67.5422 65.5554 71.9595 65.9571L76.3768 66.3588C76.3768 66.3588 76.3768 59.1278 77.1799 57.5209C77.9831 55.914 79.5894 52.7002 79.5894 51.495V48.3062C79.5894 46.1837 79.0357 44.098 77.9831 42.2553V42.2553C77.9831 42.2553 75.5737 38.6397 75.1721 38.6397Z" fill="white"/>
<path d="M70.3532 40.2466C70.3532 40.2466 55.495 41.4518 53.8888 45.469C52.2825 49.4863 51.4793 57.5208 53.0856 57.5208C54.6919 57.5208 56.6998 58.3243 57.1013 57.5208C57.5029 56.7173 59.1092 48.6828 59.5108 48.6828C59.9123 48.6828 71.9595 47.4777 71.9595 47.4777C71.9595 47.4777 77.1799 41.05 70.3532 40.2466Z" fill="white"/>
<path d="M79.3814 32.6239C79.3814 32.6239 80.6602 30.4007 82.2587 32.3318C83.8571 34.2628 86.4575 30.7142 86.0583 29.957C85.6591 29.1998 84.2494 29.9911 81.8336 29.201C79.4177 28.411 74.764 26.8015 73.9846 32.0517C73.2052 37.3018 75.0615 36.7514 75.0615 36.7514C75.0615 36.7514 75.9123 32.0992 76.6813 33.4355L77.4503 34.7719L78.1173 34.9361L79.3814 32.6239Z" fill="#2F2E41"/>
<path d="M124.834 20.3221C128.081 20.3221 130.713 17.6889 130.713 14.4406C130.713 11.1923 128.081 8.55908 124.834 8.55908C121.587 8.55908 118.955 11.1923 118.955 14.4406C118.955 17.6889 121.587 20.3221 124.834 20.3221Z" fill="#2F2E41"/>
<path d="M122.955 18.794C122.955 18.794 123.259 24.2724 122.651 24.2724C122.042 24.2724 126.454 26.8594 126.454 26.8594L129.192 25.3377V23.5115C129.192 23.5115 125.541 23.055 127.062 19.0984C128.583 15.1417 122.955 18.794 122.955 18.794Z" fill="#9F616A"/>
<path d="M110.177 78.9043L109.72 83.4696L111.242 83.9262L112.458 82.7088L112.915 78.9043H110.177Z" fill="#9F616A"/>
<path d="M132.082 81.4915L132.843 84.3827L134.972 85.7523L137.254 84.535L134.668 80.2739L132.082 81.4915Z" fill="#9F616A"/>
<path d="M124.4 21.1528C126.836 21.1528 128.811 19.1769 128.811 16.7396C128.811 14.3023 126.836 12.3264 124.4 12.3264C121.964 12.3264 119.989 14.3023 119.989 16.7396C119.989 19.1769 121.964 21.1528 124.4 21.1528Z" fill="#9F616A"/>
<path d="M121.738 33.2509L120.673 32.7944C120.673 32.7944 118.848 31.7291 118.696 29.5986C118.543 27.4681 120.217 24.7289 120.217 24.7289L122.651 23.968L125.51 26.2964L125.541 30.0552L121.738 33.2509Z" fill="#9F616A"/>
<path d="M120.673 25.0333L120.065 24.7289C120.065 24.7289 117.022 24.5768 116.718 28.229C116.414 31.8813 115.349 37.9684 115.349 37.9684C115.349 37.9684 112.915 42.2294 113.067 46.7948L111.85 50.7514C111.85 50.7514 110.177 56.5342 112.154 56.5342C114.132 56.5342 113.98 50.2949 113.98 50.2949C113.98 50.2949 117.631 41.4685 117.935 39.9468C118.239 38.425 120.825 31.2726 120.065 29.2943C119.304 27.316 120.673 25.0333 120.673 25.0333Z" fill="#9F616A"/>
<path d="M122.955 34.6206V36.2946C122.955 36.2946 124.02 37.512 123.563 38.2729C123.107 39.0338 122.651 40.5556 122.651 40.5556L124.78 43.9035L131.93 44.5122L133.352 34.9828L122.955 34.6206Z" fill="#9F616A"/>
<path d="M129.648 23.9681L130.865 23.3594C130.865 23.3594 133.451 21.5333 135.581 21.2289L142.122 16.8157L146.381 6.6198C146.381 6.6198 146.229 1.14138 147.446 1.75009C148.663 2.35881 148.511 7.07633 148.511 7.07633C148.511 7.07633 146.229 16.5114 144.252 19.0984C142.274 21.6854 135.124 25.9464 135.124 25.9464C135.124 25.9464 133.147 28.2291 133.299 29.2944C133.451 30.3596 129.648 23.9681 129.648 23.9681Z" fill="#9F616A"/>
<path d="M124.02 40.5554C124.02 40.5554 122.346 39.4902 121.282 41.3163C120.217 43.1425 118.239 43.599 117.022 49.0774C115.805 54.5558 112.915 63.23 112.154 63.8387C111.394 64.4474 108.199 70.8389 110.025 79.8174H113.067L115.653 66.8823C115.653 66.8823 124.02 56.5342 124.628 52.2732L127.366 68.2519C127.366 68.2519 127.518 74.339 129.8 77.2304L132.234 83.0132L135.429 81.4914L131.778 66.8823C131.778 66.8823 133.603 52.121 132.386 48.0122L132.211 42.6254C132.211 42.6254 127.214 42.8381 124.02 40.5554Z" fill="#2F2E41"/>
<path d="M111.242 82.7088H109.416C109.112 82.7088 106.678 84.6871 107.743 85.7524C108.808 86.8176 110.481 88.7959 110.481 88.7959C110.481 88.7959 116.414 89.5508 116.566 88.4855C116.718 87.4203 113.98 85.1437 113.98 85.1437L113.219 82.7088C113.219 82.7088 111.698 81.0349 111.242 82.7088Z" fill="#2F2E41"/>
<path d="M135.429 84.2306C135.429 84.2306 132.843 84.0784 132.386 83.9262C131.93 83.7741 131.017 87.8829 132.386 88.1872C133.755 88.4916 139.384 88.9481 139.384 88.9481C139.384 88.9481 143.795 88.7959 143.491 87.5785C143.187 86.3611 137.254 83.9262 137.254 83.9262C137.254 83.9262 136.494 82.4044 135.429 84.2306Z" fill="#2F2E41"/>
<path d="M123.411 23.8159L122.651 23.3594L121.738 24.1202C121.738 24.1202 124.476 25.9464 123.868 27.6203C123.259 29.2943 120.673 32.7944 120.673 32.7944C120.673 32.7944 122.955 35.3814 122.955 36.2945C122.955 36.2945 128.888 34.164 133.299 36.2945C133.299 36.2945 133.299 33.2509 133.907 32.6422C134.516 32.0335 134.82 29.903 133.299 28.0769C132.227 26.7332 131.261 25.3086 130.409 23.8159L128.888 22.9028L128.104 23.1515C128.104 23.1515 129.648 24.8811 128.127 25.0333C126.606 25.1855 124.172 24.729 123.411 23.8159Z" fill="white"/>
<path d="M129.131 4.41333C128.614 4.99044 127.906 5.36137 127.138 5.45786C125.809 5.64777 126.853 7.73683 126.853 7.73683C126.853 7.73683 126.473 6.97717 127.233 6.31247C127.992 5.64777 129.131 5.26794 129.131 4.41333Z" fill="#2F2E41"/>
<path d="M126.569 9.81264C127.474 9.81264 128.208 9.07879 128.208 8.17353C128.208 7.26828 127.474 6.53442 126.569 6.53442C125.664 6.53442 124.931 7.26828 124.931 8.17353C124.931 9.07879 125.664 9.81264 126.569 9.81264Z" fill="#2F2E41"/>
<path d="M128.482 9.78748C127.216 9.12607 125.039 8.60585 123.882 8.64304L124.174 7.52368C125.198 8.21982 127.365 8.74975 128.775 8.66812L128.482 9.78748Z" fill="white"/>
<path d="M125.867 9.88599C125.867 9.88599 123.872 12.4515 119.883 13.0216C115.894 13.5918 119.028 19.8631 119.028 19.8631C119.028 19.8631 117.888 17.5826 120.168 15.5872C122.447 13.5918 125.867 12.4515 125.867 9.88599Z" fill="#2F2E41"/>
<path d="M126.019 9.73389C126.019 9.73389 127.159 13.7247 128.868 14.2948C130.578 14.865 129.723 20.8512 126.874 21.4213C126.874 21.4213 129.296 18.1431 127.871 15.5776C126.446 13.0121 125.591 11.0167 126.019 9.73389Z" fill="#2F2E41"/>
<path d="M152.846 3.0437H142.35V4.26113H152.846V3.0437Z" fill="#2F2E41"/>
<path d="M152.846 7.30456C153.351 7.30456 153.759 5.66938 153.759 3.65228C153.759 1.63518 153.351 0 152.846 0C152.342 0 151.934 1.63518 151.934 3.65228C151.934 5.66938 152.342 7.30456 152.846 7.30456Z" fill="#2F2E41"/>
<path d="M142.35 7.30456C142.854 7.30456 143.263 5.66938 143.263 3.65228C143.263 1.63518 142.854 0 142.35 0C141.846 0 141.437 1.63518 141.437 3.65228C141.437 5.66938 141.846 7.30456 142.35 7.30456Z" fill="#2F2E41"/>
<path d="M158.171 84.9185H147.674V86.1359H158.171V84.9185Z" fill="#2F2E41"/>
<path d="M158.171 89.1793C158.675 89.1793 159.083 87.5441 159.083 85.527C159.083 83.5099 158.675 81.8748 158.171 81.8748C157.667 81.8748 157.258 83.5099 157.258 85.527C157.258 87.5441 157.667 89.1793 158.171 89.1793Z" fill="#2F2E41"/>
<path d="M147.674 89.1793C148.178 89.1793 148.587 87.5441 148.587 85.527C148.587 83.5099 148.178 81.8748 147.674 81.8748C147.17 81.8748 146.762 83.5099 146.762 85.527C146.762 87.5441 147.17 89.1793 147.674 89.1793Z" fill="#2F2E41"/>
<path opacity="0.3" d="M37.1833 83.9317C37.1833 79.4472 34.4079 75.8118 30.9841 75.8118C28.8323 75.8118 26.937 77.2485 25.8255 79.4289C25.4438 79.3001 25.0437 79.2343 24.6408 79.234C23.599 79.2517 22.6043 79.6717 21.865 80.4062C20.863 77.6875 18.7384 75.8118 16.2791 75.8118C13.9798 75.8118 11.9743 77.4528 10.9042 79.8882C10.2764 79.4667 9.53853 79.2392 8.78248 79.234C6.15499 79.234 4.02498 82.024 4.02498 85.4656C4.01729 86.6265 4.27359 87.7739 4.77451 88.8211H35.9331C36.7686 87.3281 37.1996 85.6426 37.1833 83.9317V83.9317Z" fill="white"/>
</g>
<defs>
<clipPath id="clip0">
<rect width="207" height="113" fill="white"/>
</clipPath>
</defs>
</svg>
