<svg width="81" height="110" viewBox="0 0 81 110" fill="none" xmlns="http://www.w3.org/2000/svg">
<path fill-rule="evenodd" clip-rule="evenodd" d="M37.687 16.0282C36.4859 14.6184 35.6729 12.8905 35.8088 10.9545C36.2002 5.37617 43.9654 6.60333 45.4759 9.41879C46.9864 12.2342 46.8069 19.3759 44.8547 19.8791C44.0762 20.0798 42.4177 19.5882 40.7297 18.5708L41.7892 26.0663H35.5333L37.687 16.0282Z" fill="#915B3C"/>
<path fill-rule="evenodd" clip-rule="evenodd" d="M43.0049 6.35236C42.15 6.0917 40.9091 6.0033 40.3871 6.0631C40.684 5.35164 40.8019 4.55899 40.7058 3.7872C40.6124 3.03727 40.2773 2.39872 39.9674 1.7296C39.8246 1.42118 39.6627 1.11444 39.4213 0.878534C39.1754 0.638194 38.8642 0.47955 38.5378 0.403863C38.2038 0.32639 37.8545 0.332841 37.52 0.403149C37.372 0.434247 37.2393 0.501907 37.0941 0.539519C36.9455 0.578056 36.8734 0.485034 36.7655 0.39155C36.5056 0.166296 36.1244 0.0550986 35.7955 0.0153011C35.4265 -0.0293294 35.0437 0.0263326 34.6917 0.147637C34.3492 0.265727 34.0201 0.457487 33.7725 0.736847C33.6622 0.861199 33.5621 1.00274 33.497 1.15901C33.4704 1.22314 33.466 1.26113 33.402 1.28462C33.3428 1.30637 33.2735 1.307 33.2125 1.3277C32.6218 1.52773 32.1169 1.98408 31.8419 2.57001C31.6815 2.91185 31.6055 3.51369 31.6263 4.18825C31.6471 4.86282 32.2562 6.62296 32.8259 7.26497C33.3344 7.83802 34.0819 8.21618 34.8032 8.38172C34.3244 8.92899 34.0057 9.61286 33.77 10.3084C33.514 11.0639 33.3556 11.8489 33.2971 12.6487C33.2415 13.4087 33.2364 14.2123 33.4145 14.956C33.5812 15.6515 33.9376 16.2221 34.5326 16.584C34.8051 16.7498 35.0983 16.8744 35.3933 16.9882C35.6839 17.1004 35.9755 17.2095 36.2799 17.2724C36.8562 17.3915 37.5201 17.3711 37.964 16.9124C38.124 16.7471 38.2999 16.5393 38.4166 16.3373C38.4586 16.2647 38.4839 16.2172 38.4329 16.1462C38.3718 16.0611 38.273 15.996 38.1946 15.9295C37.7471 15.5502 37.4702 15.0438 37.4003 14.442C37.3295 13.8315 37.4935 13.0434 38.0871 12.777C38.8199 12.448 39.6269 12.8256 40.2781 13.1775C40.5549 12.2006 41.1233 11.321 42.0143 10.8729C43.0001 10.3771 44.1313 10.3191 45.1443 9.89377C45.4083 9.78294 45.6771 9.65711 45.8715 9.43127C45.9527 9.33688 46.048 9.21444 46.0804 9.08961C46.123 8.92563 46.0173 8.78814 45.9356 8.6603C45.5024 7.98246 43.8597 6.61303 43.0049 6.35236Z" fill="#191847"/>
<path fill-rule="evenodd" clip-rule="evenodd" d="M33.9693 47.7014L53.3383 80.0829L67.8595 107.459H70.9872L46.6568 47.7014L33.9693 47.7014Z" fill="#784931"/>
<path fill-rule="evenodd" clip-rule="evenodd" d="M65.9471 106.195C65.6555 106.973 65.5096 107.556 65.5096 107.942C65.5096 108.412 65.588 109.098 65.7446 110C66.2899 110 71.1905 110 80.4465 110C80.8285 108.737 80.608 108.055 79.7848 107.954C78.9617 107.854 78.2779 107.763 77.7335 107.682L70.9002 104.635C70.7687 104.577 70.6146 104.636 70.556 104.767C70.5549 104.769 70.554 104.772 70.553 104.774L70.1138 105.839C69.3518 106.195 68.7326 106.373 68.2562 106.373C67.8691 106.373 67.3345 106.216 66.6525 105.904L66.6525 105.904C66.3908 105.784 66.0813 105.899 65.9614 106.16C65.9562 106.172 65.9514 106.183 65.9471 106.195Z" fill="#E4E4E4"/>
<path fill-rule="evenodd" clip-rule="evenodd" d="M63.8265 103.075L69.8583 101.25C67.2156 93.3501 63.9766 84.6562 60.1414 75.1687C56.3061 65.6811 52.1871 56.5254 47.7845 47.7014H30.7486C35.6434 58.8633 40.8325 69.0053 46.3159 78.1274C51.7994 87.2495 57.6362 95.5654 63.8265 103.075Z" fill="#DB2721"/>
<path fill-rule="evenodd" clip-rule="evenodd" d="M32.6964 47.7014C30.8683 59.0805 27.3425 73.6185 27.0098 74.0672C26.7879 74.3663 18.802 77.0423 3.052 82.0952L3.72763 84.8533C22.5095 82.1434 32.4059 80.0409 33.4169 78.5459C34.9335 76.3034 42.5057 58.5876 45.4385 47.7014H32.6964Z" fill="#915B3C"/>
<path fill-rule="evenodd" clip-rule="evenodd" d="M8.58841 79.711L9.77845 84.1531C23.8262 85.3852 32.4335 84.4949 35.6005 81.4824C38.7675 78.4698 42.3769 67.2095 46.4288 47.7014H30.184C27.6169 63.6759 26.1816 71.9984 25.8784 72.669C25.5751 73.3396 19.8118 75.6869 8.58841 79.711Z" fill="#FF4133"/>
<path fill-rule="evenodd" clip-rule="evenodd" d="M3.82333 80.9461C3.00605 80.7941 2.4071 80.7517 2.02649 80.8188C1.56358 80.9004 0.901681 81.0967 0.0407851 81.4075C0.135474 81.9445 0.98646 86.7707 2.59374 95.886C3.90394 96.0429 4.53716 95.7073 4.4934 94.8792C4.44965 94.0511 4.42046 93.3619 4.40584 92.8116L6.21929 85.5532C6.25418 85.4135 6.16925 85.272 6.02958 85.2371C6.02719 85.2365 6.02479 85.2359 6.02239 85.2354L4.89682 84.9879C4.41436 84.2992 4.13177 83.7202 4.04904 83.2511C3.98183 82.8699 4.04296 82.3163 4.23243 81.5903L4.23243 81.5903C4.30514 81.3117 4.13824 81.027 3.85965 80.9543C3.84764 80.9511 3.83553 80.9484 3.82333 80.9461Z" fill="#E4E4E4"/>
<path fill-rule="evenodd" clip-rule="evenodd" d="M47.1688 31.4621L56.2164 26.5068C57.721 24.7202 59.2034 23.3326 60.6636 22.344C61.1098 22.1577 61.8901 22.045 61.1604 23.3402C60.4307 24.6354 59.7213 26.0306 60.0931 26.4296C60.4649 26.8286 61.3919 26.2712 61.8354 26.9342C62.1311 27.3762 60.5473 28.0744 57.0841 29.0288L50.5099 35.0482L47.1688 31.4621ZM61.339 35.6431L65.3132 33.4599C65.8709 31.338 66.5374 30.2704 67.313 30.2571C67.9088 29.9799 66.8712 32.6611 68.0006 32.4286C69.13 32.1961 71.8866 30.1459 72.3615 30.5622C73.0642 31.178 72.4377 33.0689 71.6994 34.0096C70.3197 35.7676 69.1773 36.3688 66.3537 37.1561C64.8774 37.5677 63.2813 38.3928 61.5653 39.6313L61.339 35.6431Z" fill="#915B3C"/>
<path fill-rule="evenodd" clip-rule="evenodd" d="M42.7626 30.3583C45.9316 30.3248 50.1575 29.6555 54.6666 26.7933L56.4375 30.7423C53.3272 33.829 48.9539 36.3651 45.1299 36.2577C42.1164 36.1731 40.5763 32.528 42.7626 30.3583Z" fill="#2026A2"/>
<path fill-rule="evenodd" clip-rule="evenodd" d="M47.0297 36.6913C50.394 37.5304 56.0358 36.5409 63.955 33.7229C65.9193 37.7867 66.8273 40.6839 66.6791 42.4144C59.8856 45.9631 54.063 47.5452 49.2659 47.6497C49.4183 50.4961 49.0719 53.2045 47.908 55.6793C45.5153 60.767 31.5048 56.0552 26.794 56.9826C23.844 47.402 29.5479 43.5085 29.5525 37.3783C29.5575 30.665 34.948 20.3318 35.7411 20.3318H42.9736C43.3727 25.4588 45.3813 31.1091 47.0297 36.6913Z" fill="#1F28CF"/>
</svg>
