<svg width="371" height="127" viewBox="0 0 371 127" fill="none" xmlns="http://www.w3.org/2000/svg">
<path d="M139.938 3.13574V13H143.417C146.356 13 148.086 11.168 148.086 8.05078C148.086 4.94043 146.35 3.13574 143.417 3.13574H139.938ZM141.469 4.45508H143.273C145.358 4.45508 146.521 5.74023 146.521 8.06445C146.521 10.3955 145.365 11.6738 143.273 11.6738H141.469V4.45508ZM154.136 10.8877C153.938 11.5166 153.315 11.9404 152.475 11.9404C151.292 11.9404 150.54 11.1133 150.54 9.8623V9.77344H155.619V9.26758C155.619 7.08691 154.375 5.67871 152.379 5.67871C150.349 5.67871 149.05 7.18262 149.05 9.43848C149.05 11.708 150.328 13.1367 152.44 13.1367C154.088 13.1367 155.332 12.2002 155.537 10.8877H154.136ZM152.379 6.86816C153.411 6.86816 154.108 7.64062 154.143 8.74121H150.547C150.622 7.6543 151.347 6.86816 152.379 6.86816ZM157.554 4.64648C158.025 4.64648 158.401 4.26367 158.401 3.79883C158.401 3.32715 158.025 2.95117 157.554 2.95117C157.082 2.95117 156.699 3.32715 156.699 3.79883C156.699 4.26367 157.082 4.64648 157.554 4.64648ZM156.815 13H158.292V5.80859H156.815V13ZM159.803 13H161.279V8.80957C161.279 7.69531 161.949 6.95703 162.988 6.95703C164.014 6.95703 164.52 7.55176 164.52 8.63184V13H166.003V8.34473C166.003 6.69727 165.094 5.68555 163.508 5.68555C162.4 5.68555 161.635 6.19141 161.245 7.01172H161.211V5.80859H159.803V13ZM172.196 10.8877C171.998 11.5166 171.376 11.9404 170.535 11.9404C169.353 11.9404 168.601 11.1133 168.601 9.8623V9.77344H173.68V9.26758C173.68 7.08691 172.436 5.67871 170.439 5.67871C168.409 5.67871 167.11 7.18262 167.11 9.43848C167.11 11.708 168.389 13.1367 170.501 13.1367C172.148 13.1367 173.393 12.2002 173.598 10.8877H172.196ZM170.439 6.86816C171.472 6.86816 172.169 7.64062 172.203 8.74121H168.607C168.683 7.6543 169.407 6.86816 170.439 6.86816ZM179.381 9.20605H181.486L183.496 13H185.26L183.052 8.9668C184.255 8.56348 184.966 7.4834 184.966 6.15039C184.966 4.31152 183.701 3.13574 181.671 3.13574H177.85V13H179.381V9.20605ZM179.381 4.4209H181.486C182.669 4.4209 183.387 5.09082 183.387 6.19141C183.387 7.31934 182.71 7.96875 181.527 7.96875H179.381V4.4209ZM189.334 13.1367C191.392 13.1367 192.745 11.7217 192.745 9.4043C192.745 7.09375 191.385 5.67871 189.334 5.67871C187.283 5.67871 185.923 7.09375 185.923 9.4043C185.923 11.7217 187.276 13.1367 189.334 13.1367ZM189.334 11.9199C188.179 11.9199 187.427 11.0039 187.427 9.4043C187.427 7.81152 188.179 6.89551 189.334 6.89551C190.489 6.89551 191.241 7.81152 191.241 9.4043C191.241 11.0039 190.496 11.9199 189.334 11.9199ZM200.053 5.80859H198.576V9.99902C198.576 11.1201 197.934 11.8584 196.867 11.8584C195.849 11.8584 195.329 11.2705 195.329 10.1768V5.80859H193.853V10.4639C193.853 12.1113 194.81 13.1299 196.375 13.1299C197.476 13.1299 198.207 12.6445 198.604 11.7832H198.638V13H200.053V5.80859ZM201.946 4.10645V5.80859H200.9V6.97754H201.946V11.1064C201.946 12.4941 202.514 13.0479 203.97 13.0479C204.298 13.0479 204.626 13.0205 204.79 12.9795V11.8105C204.694 11.8311 204.455 11.8447 204.305 11.8447C203.703 11.8447 203.43 11.5645 203.43 10.9424V6.97754H204.797V5.80859H203.43V4.10645H201.946ZM206.8 4.64648C207.271 4.64648 207.647 4.26367 207.647 3.79883C207.647 3.32715 207.271 2.95117 206.8 2.95117C206.328 2.95117 205.945 3.32715 205.945 3.79883C205.945 4.26367 206.328 4.64648 206.8 4.64648ZM206.062 13H207.538V5.80859H206.062V13ZM209.049 13H210.525V8.80957C210.525 7.69531 211.195 6.95703 212.234 6.95703C213.26 6.95703 213.766 7.55176 213.766 8.63184V13H215.249V8.34473C215.249 6.69727 214.34 5.68555 212.754 5.68555C211.646 5.68555 210.881 6.19141 210.491 7.01172H210.457V5.80859H209.049V13ZM221.442 10.8877C221.244 11.5166 220.622 11.9404 219.781 11.9404C218.599 11.9404 217.847 11.1133 217.847 9.8623V9.77344H222.926V9.26758C222.926 7.08691 221.682 5.67871 219.686 5.67871C217.655 5.67871 216.356 7.18262 216.356 9.43848C216.356 11.708 217.635 13.1367 219.747 13.1367C221.395 13.1367 222.639 12.2002 222.844 10.8877H221.442ZM219.686 6.86816C220.718 6.86816 221.415 7.64062 221.449 8.74121H217.854C217.929 7.6543 218.653 6.86816 219.686 6.86816ZM224.074 13H225.551V8.80957C225.551 7.69531 226.221 6.95703 227.26 6.95703C228.285 6.95703 228.791 7.55176 228.791 8.63184V13H230.274V8.34473C230.274 6.69727 229.365 5.68555 227.779 5.68555C226.672 5.68555 225.906 6.19141 225.517 7.01172H225.482V5.80859H224.074V13Z" fill="black"/>
<g filter="url(#filter0_d)">
<rect x="8" y="25" width="355" height="90" rx="12" fill="white"/>
</g>
<path d="M179.172 50H180.279L184.041 42.5234V41.5449H178.445V42.4824H182.998V42.5059L179.172 50ZM187.686 50H188.705V46.1797C188.705 45.3359 189.291 44.7031 190.1 44.7031C190.855 44.7031 191.348 45.1836 191.348 45.916V50H192.367V46.127C192.367 45.3008 192.936 44.7031 193.744 44.7031C194.547 44.7031 195.01 45.1953 195.01 46.0273V50H196.029V45.793C196.029 44.5859 195.25 43.8008 194.043 43.8008C193.188 43.8008 192.473 44.2344 192.133 44.9609H192.109C191.846 44.2227 191.23 43.8008 190.398 43.8008C189.578 43.8008 188.957 44.2344 188.67 44.8789H188.646V43.9062H187.686V50ZM197.893 42.8223C198.25 42.8223 198.531 42.5352 198.531 42.1836C198.531 41.8262 198.25 41.5449 197.893 41.5449C197.541 41.5449 197.254 41.8262 197.254 42.1836C197.254 42.5352 197.541 42.8223 197.893 42.8223ZM197.383 50H198.402V43.9062H197.383V50ZM199.779 50H200.799V46.4141C200.799 45.3828 201.426 44.7031 202.387 44.7031C203.324 44.7031 203.787 45.2422 203.787 46.2266V50H204.807V46.0449C204.807 44.6621 204.033 43.8008 202.697 43.8008C201.754 43.8008 201.104 44.2227 200.764 44.8789H200.74V43.9062H199.779V50ZM206.969 50.0586C207.344 50.0586 207.637 49.7656 207.637 49.3906C207.637 49.0156 207.344 48.7227 206.969 48.7227C206.594 48.7227 206.301 49.0156 206.301 49.3906C206.301 49.7656 206.594 50.0586 206.969 50.0586Z" fill="#00A699"/>
<path d="M56.5977 48.5195C56.7207 50.7783 58.6279 52.2109 61.4932 52.2109C64.4463 52.2109 66.3271 50.708 66.3271 48.3174C66.3271 46.4717 65.2373 45.4082 62.583 44.8457L61.1943 44.5557C59.5508 44.2041 58.9004 43.5889 58.9004 42.666C58.9004 41.5059 59.9902 40.7852 61.4756 40.7852C63.0137 40.7852 64.0596 41.5674 64.1826 42.8418H66.0898C66.0283 40.627 64.1914 39.1064 61.502 39.1064C58.8037 39.1064 56.8965 40.6006 56.8965 42.7715C56.8965 44.5996 58.0479 45.7773 60.5879 46.3135L61.9678 46.6035C63.6641 46.9727 64.332 47.5879 64.332 48.5723C64.332 49.7061 63.1807 50.5322 61.5723 50.5322C59.8848 50.5322 58.6895 49.7764 58.5137 48.5195H56.5977ZM72.6904 42.6045C71.3545 42.6045 70.291 43.2812 69.7461 44.3447H69.7109V42.7539H67.874V55.0586H69.7725V50.4795H69.8164C70.3438 51.5078 71.3984 52.1582 72.7256 52.1582C75.0459 52.1582 76.584 50.3037 76.584 47.377C76.584 44.4502 75.0371 42.6045 72.6904 42.6045ZM72.1895 50.5498C70.7305 50.5498 69.7637 49.3018 69.7637 47.377C69.7637 45.4697 70.7393 44.2041 72.1895 44.2041C73.6924 44.2041 74.6328 45.4434 74.6328 47.377C74.6328 49.3193 73.6924 50.5498 72.1895 50.5498ZM82.0244 52.1758C84.6699 52.1758 86.4102 50.3564 86.4102 47.377C86.4102 44.4062 84.6611 42.5869 82.0244 42.5869C79.3877 42.5869 77.6387 44.4062 77.6387 47.377C77.6387 50.3564 79.3789 52.1758 82.0244 52.1758ZM82.0244 50.6113C80.5391 50.6113 79.5723 49.4336 79.5723 47.377C79.5723 45.3291 80.5391 44.1514 82.0244 44.1514C83.5098 44.1514 84.4766 45.3291 84.4766 47.377C84.4766 49.4336 83.5186 50.6113 82.0244 50.6113ZM87.8779 52H89.7764V46.4629C89.7764 45.1533 90.5322 44.3359 91.7539 44.3359C92.123 44.3359 92.457 44.3799 92.6064 44.4414V42.6748C92.4658 42.6484 92.2285 42.6045 91.9561 42.6045C90.8662 42.6045 90.04 43.2461 89.7324 44.3271H89.6885V42.7539H87.8779V52ZM94.6719 40.5654V42.7539H93.3271V44.2568H94.6719V49.5654C94.6719 51.3496 95.4014 52.0615 97.2734 52.0615C97.6953 52.0615 98.1172 52.0264 98.3281 51.9736V50.4707C98.2051 50.4971 97.8975 50.5146 97.7041 50.5146C96.9307 50.5146 96.5791 50.1543 96.5791 49.3545V44.2568H98.3369V42.7539H96.5791V40.5654H94.6719ZM104.568 41.2598C105.175 41.2598 105.658 40.7676 105.658 40.1699C105.658 39.5635 105.175 39.0801 104.568 39.0801C103.962 39.0801 103.47 39.5635 103.47 40.1699C103.47 40.7676 103.962 41.2598 104.568 41.2598ZM103.619 52H105.518V42.7539H103.619V52ZM107.46 52H109.358V46.2871C109.358 45.1006 110.158 44.2217 111.283 44.2217C112.355 44.2217 113.032 44.8984 113.032 45.9619V52H114.896V46.2256C114.896 45.0566 115.678 44.2217 116.803 44.2217C117.928 44.2217 118.569 44.9072 118.569 46.1025V52H120.477V45.6455C120.477 43.8086 119.281 42.5957 117.453 42.5957C116.135 42.5957 115.045 43.2812 114.57 44.4062H114.526C114.157 43.2549 113.226 42.5957 111.942 42.5957C110.694 42.5957 109.728 43.2812 109.314 44.3096H109.271V42.7539H107.46V52ZM134.46 52H136.543L131.964 39.3174H129.837L125.258 52H127.306L128.466 48.5723H133.3L134.46 52ZM130.856 41.4268H130.909L132.799 46.9902H128.967L130.856 41.4268ZM137.782 52H139.681V39.3174H137.782V52ZM141.702 52H143.601V39.3174H141.702V52ZM146.105 40.5654V42.7539H144.761V44.2568H146.105V49.5654C146.105 51.3496 146.835 52.0615 148.707 52.0615C149.129 52.0615 149.551 52.0264 149.762 51.9736V50.4707C149.639 50.4971 149.331 50.5146 149.138 50.5146C148.364 50.5146 148.013 50.1543 148.013 49.3545V44.2568H149.771V42.7539H148.013V40.5654H146.105ZM153.901 52.1582C155.114 52.1582 156.283 51.5078 156.819 50.4795H156.863V52H158.683V45.6279C158.683 43.7734 157.25 42.5869 155.009 42.5869C152.724 42.5869 151.3 43.8174 151.194 45.4873H152.987C153.154 44.6611 153.84 44.1338 154.938 44.1338C156.099 44.1338 156.793 44.749 156.793 45.7773V46.4893L154.262 46.6387C152.064 46.7617 150.825 47.7549 150.825 49.3721C150.825 51.0332 152.091 52.1582 153.901 52.1582ZM154.429 50.6553C153.409 50.6553 152.741 50.1279 152.741 49.3193C152.741 48.5283 153.383 48.0273 154.517 47.9482L156.793 47.8076V48.5371C156.793 49.7412 155.756 50.6553 154.429 50.6553ZM164.483 55.4805C167.12 55.4805 168.825 54.0391 168.825 51.833V42.7539H166.979V44.3359H166.944C166.382 43.2637 165.31 42.6045 164 42.6045C161.627 42.6045 160.115 44.4326 160.115 47.3418C160.115 50.2246 161.636 52.0352 163.956 52.0352C165.274 52.0352 166.364 51.376 166.883 50.374H166.918V51.8945C166.918 53.1602 166.039 54.0039 164.554 54.0039C163.473 54.0039 162.629 53.4941 162.356 52.7207H160.449C160.687 54.3203 162.304 55.4805 164.483 55.4805ZM164.466 50.4619C163.007 50.4619 162.058 49.2842 162.058 47.3506C162.058 45.4258 163.007 44.2041 164.466 44.2041C165.951 44.2041 166.927 45.4521 166.927 47.3506C166.927 49.2578 165.951 50.4619 164.466 50.4619Z" fill="black"/>
<path d="M56.5469 67.9766C56.6797 69.9219 58.3203 71.1875 60.7812 71.1875C63.3047 71.1875 64.9453 69.8828 64.9453 67.7969C64.9453 66.2031 64.0156 65.2656 61.6641 64.75L60.4141 64.4766C58.875 64.1406 58.2734 63.5312 58.2734 62.6406C58.2734 61.4922 59.3594 60.8047 60.7656 60.8047C62.2344 60.8047 63.2109 61.5625 63.3359 62.7969H64.7422C64.6797 60.8828 63.0547 59.5391 60.8047 59.5391C58.4688 59.5391 56.8281 60.8438 56.8281 62.7031C56.8281 64.3047 57.8047 65.3281 60.0625 65.8203L61.3125 66.0938C62.875 66.4375 63.5 67.0625 63.5 68.0078C63.5 69.1172 62.3906 69.9219 60.8594 69.9219C59.2422 69.9219 58.1172 69.1875 57.9531 67.9766H56.5469ZM68.7578 71.1406C69.8516 71.1406 70.8828 70.5312 71.3672 69.6016H71.3984V71H72.6875V65.3828C72.6875 63.7656 71.4844 62.7344 69.5781 62.7344C67.6562 62.7344 66.4531 63.8125 66.3594 65.2188H67.6719C67.8438 64.4219 68.5 63.9297 69.5469 63.9297C70.6719 63.9297 71.3281 64.5234 71.3281 65.5156V66.1953L69 66.3281C67.125 66.4375 66.0547 67.3125 66.0547 68.7031C66.0547 70.1641 67.1406 71.1406 68.7578 71.1406ZM69.0625 69.9844C68.0859 69.9844 67.4375 69.4766 67.4375 68.7031C67.4375 67.9375 68.0625 67.4531 69.1562 67.3828L71.3281 67.25V67.9141C71.3281 69.0859 70.3438 69.9844 69.0625 69.9844ZM74.4141 71H75.7734V65.9062C75.7734 64.7812 76.5547 63.9375 77.6328 63.9375C78.6406 63.9375 79.2969 64.5781 79.2969 65.5547V71H80.6562V65.8359C80.6562 64.7344 81.4141 63.9375 82.4922 63.9375C83.5625 63.9375 84.1797 64.5938 84.1797 65.7031V71H85.5391V65.3906C85.5391 63.7812 84.5 62.7344 82.8906 62.7344C81.75 62.7344 80.7969 63.3125 80.3438 64.2812H80.3125C79.9609 63.2969 79.1406 62.7344 78.0312 62.7344C76.9375 62.7344 76.1094 63.3125 75.7266 64.1719H75.6953V62.875H74.4141V71ZM87.2734 71H88.6328V65.9062C88.6328 64.7812 89.4141 63.9375 90.4922 63.9375C91.5 63.9375 92.1562 64.5781 92.1562 65.5547V71H93.5156V65.8359C93.5156 64.7344 94.2734 63.9375 95.3516 63.9375C96.4219 63.9375 97.0391 64.5938 97.0391 65.7031V71H98.3984V65.3906C98.3984 63.7812 97.3594 62.7344 95.75 62.7344C94.6094 62.7344 93.6562 63.3125 93.2031 64.2812H93.1719C92.8203 63.2969 92 62.7344 90.8906 62.7344C89.7969 62.7344 88.9688 63.3125 88.5859 64.1719H88.5547V62.875H87.2734V71ZM100.203 71H101.562V59.7266H100.203V71ZM108.789 68.6719C108.562 69.4375 107.805 69.9609 106.773 69.9609C105.312 69.9609 104.398 68.9375 104.398 67.3828V67.3047H110.227V66.7891C110.227 64.3281 108.875 62.7344 106.68 62.7344C104.438 62.7344 103 64.4453 103 66.9688C103 69.5234 104.414 71.1406 106.742 71.1406C108.516 71.1406 109.891 70.0938 110.125 68.6719H108.789ZM106.656 63.9141C107.938 63.9141 108.789 64.8828 108.82 66.2422H104.406C104.492 64.8906 105.383 63.9141 106.656 63.9141ZM114.883 71H116.242V66.2188C116.242 64.8438 117.078 63.9375 118.359 63.9375C119.609 63.9375 120.227 64.6562 120.227 65.9688V71H121.586V65.7266C121.586 63.8828 120.555 62.7344 118.773 62.7344C117.516 62.7344 116.648 63.2969 116.195 64.1719H116.164V62.875H114.883V71ZM128.711 68.6719C128.484 69.4375 127.727 69.9609 126.695 69.9609C125.234 69.9609 124.32 68.9375 124.32 67.3828V67.3047H130.148V66.7891C130.148 64.3281 128.797 62.7344 126.602 62.7344C124.359 62.7344 122.922 64.4453 122.922 66.9688C122.922 69.5234 124.336 71.1406 126.664 71.1406C128.438 71.1406 129.812 70.0938 130.047 68.6719H128.711ZM126.578 63.9141C127.859 63.9141 128.711 64.8828 128.742 66.2422H124.328C124.414 64.8906 125.305 63.9141 126.578 63.9141ZM138.195 62.875H136.836V67.6484C136.836 69.0312 136.039 69.9375 134.719 69.9375C133.461 69.9375 132.844 69.2266 132.844 67.9062V62.875H131.484V68.1484C131.484 69.9922 132.523 71.1406 134.297 71.1406C135.547 71.1406 136.391 70.6172 136.875 69.6797H136.906V71H138.195V62.875ZM145.352 68.6719C145.125 69.4375 144.367 69.9609 143.336 69.9609C141.875 69.9609 140.961 68.9375 140.961 67.3828V67.3047H146.789V66.7891C146.789 64.3281 145.438 62.7344 143.242 62.7344C141 62.7344 139.562 64.4453 139.562 66.9688C139.562 69.5234 140.977 71.1406 143.305 71.1406C145.078 71.1406 146.453 70.0938 146.688 68.6719H145.352ZM143.219 63.9141C144.5 63.9141 145.352 64.8828 145.383 66.2422H140.969C141.055 64.8906 141.945 63.9141 143.219 63.9141ZM158.641 69.7344H153.062V65.8594H158.352V64.6094H153.062V60.9922H158.641V59.7266H151.656V71H158.641V69.7344ZM160.289 71H161.648V66.2188C161.648 64.8438 162.484 63.9375 163.766 63.9375C165.016 63.9375 165.633 64.6562 165.633 65.9688V71H166.992V65.7266C166.992 63.8828 165.961 62.7344 164.18 62.7344C162.922 62.7344 162.055 63.2969 161.602 64.1719H161.57V62.875H160.289V71ZM174.117 68.6719C173.891 69.4375 173.133 69.9609 172.102 69.9609C170.641 69.9609 169.727 68.9375 169.727 67.3828V67.3047H175.555V66.7891C175.555 64.3281 174.203 62.7344 172.008 62.7344C169.766 62.7344 168.328 64.4453 168.328 66.9688C168.328 69.5234 169.742 71.1406 172.07 71.1406C173.844 71.1406 175.219 70.0938 175.453 68.6719H174.117ZM171.984 63.9141C173.266 63.9141 174.117 64.8828 174.148 66.2422H169.734C169.82 64.8906 170.711 63.9141 171.984 63.9141ZM176.93 71H178.289V65.9375C178.289 64.7891 178.977 64.0312 180.031 64.0312C180.359 64.0312 180.648 64.0703 180.758 64.1094V62.7891C180.648 62.7734 180.445 62.7344 180.211 62.7344C179.258 62.7344 178.508 63.3047 178.242 64.2031H178.211V62.875H176.93V71ZM184.828 74.0625C187.07 74.0625 188.5 72.7734 188.5 70.8359V62.875H187.203V64.2422H187.18C186.641 63.2969 185.688 62.7344 184.539 62.7344C182.438 62.7344 181.078 64.3594 181.078 66.9062C181.078 69.4297 182.438 71.0625 184.508 71.0625C185.648 71.0625 186.609 70.4844 187.109 69.6016H187.141V70.8828C187.141 72.0938 186.289 72.9062 184.883 72.9062C183.867 72.9062 183.062 72.4141 182.797 71.6719H181.398C181.625 73.0547 183.039 74.0625 184.828 74.0625ZM184.781 69.8672C183.383 69.8672 182.469 68.7266 182.469 66.9062C182.469 65.0859 183.383 63.9297 184.781 63.9297C186.195 63.9297 187.141 65.1172 187.141 66.9062C187.141 68.6953 186.195 69.8672 184.781 69.8672ZM191.023 61.4297C191.5 61.4297 191.875 61.0469 191.875 60.5781C191.875 60.1016 191.5 59.7266 191.023 59.7266C190.555 59.7266 190.172 60.1016 190.172 60.5781C190.172 61.0469 190.555 61.4297 191.023 61.4297ZM190.344 71H191.703V62.875H190.344V71ZM198.93 68.6719C198.703 69.4375 197.945 69.9609 196.914 69.9609C195.453 69.9609 194.539 68.9375 194.539 67.3828V67.3047H200.367V66.7891C200.367 64.3281 199.016 62.7344 196.82 62.7344C194.578 62.7344 193.141 64.4453 193.141 66.9688C193.141 69.5234 194.555 71.1406 196.883 71.1406C198.656 71.1406 200.031 70.0938 200.266 68.6719H198.93ZM196.797 63.9141C198.078 63.9141 198.93 64.8828 198.961 66.2422H194.547C194.633 64.8906 195.523 63.9141 196.797 63.9141ZM211.695 62.875H210.336V67.6484C210.336 69.0312 209.539 69.9375 208.219 69.9375C206.961 69.9375 206.344 69.2266 206.344 67.9062V62.875H204.984V68.1484C204.984 69.9922 206.023 71.1406 207.797 71.1406C209.047 71.1406 209.891 70.6172 210.375 69.6797H210.406V71H211.695V62.875ZM213.461 71H214.82V66.2188C214.82 64.8438 215.656 63.9375 216.938 63.9375C218.188 63.9375 218.805 64.6562 218.805 65.9688V71H220.164V65.7266C220.164 63.8828 219.133 62.7344 217.352 62.7344C216.094 62.7344 215.227 63.2969 214.773 64.1719H214.742V62.875H213.461V71ZM224.977 71.1406C226.148 71.1406 227.078 70.5625 227.602 69.625H227.625V71H228.922V59.7266H227.562V64.1953H227.531C227.047 63.3047 226.109 62.7344 224.945 62.7344C222.898 62.7344 221.5 64.3906 221.5 66.9375C221.5 69.4844 222.906 71.1406 224.977 71.1406ZM225.234 63.9297C226.633 63.9297 227.57 65.125 227.57 66.9375C227.57 68.7578 226.633 69.9453 225.234 69.9453C223.797 69.9453 222.891 68.7812 222.891 66.9375C222.891 65.1016 223.797 63.9297 225.234 63.9297ZM56.7422 84.1172C56.7422 85.2891 57.4844 86 59.0156 86.3672L60.3047 86.6797C61.2344 86.9062 61.5547 87.2422 61.5547 87.8281C61.5547 88.5625 60.875 89.0312 59.7734 89.0312C58.6719 89.0312 58.0469 88.5859 57.8828 87.6562H56.5234C56.6797 89.1797 57.8672 90.1406 59.7734 90.1406C61.5859 90.1406 62.9219 89.1406 62.9219 87.7266C62.9219 86.5625 62.3281 85.9219 60.6875 85.5234L59.3984 85.2109C58.4922 84.9922 58.0781 84.6094 58.0781 84.0469C58.0781 83.3359 58.7344 82.8438 59.7266 82.8438C60.7266 82.8438 61.3516 83.3672 61.4531 84.2188H62.75C62.6953 82.7812 61.5078 81.7344 59.7266 81.7344C57.9688 81.7344 56.7422 82.7266 56.7422 84.1172ZM71.0859 84.5391C70.9141 83.0781 69.7031 81.7344 67.6719 81.7344C65.4297 81.7344 63.9375 83.375 63.9375 85.9375C63.9375 88.5547 65.4375 90.1406 67.6875 90.1406C69.5312 90.1406 70.8906 89 71.1016 87.3828H69.7656C69.5312 88.3594 68.8047 88.9453 67.6953 88.9453C66.2891 88.9453 65.3203 87.8281 65.3203 85.9375C65.3203 84.0938 66.2734 82.9297 67.6797 82.9297C68.875 82.9297 69.5625 83.6562 69.7578 84.5391H71.0859ZM72.4219 90H73.7812V85.2656C73.7812 83.8594 74.6172 82.9375 75.9688 82.9375C77.2422 82.9375 77.8906 83.7109 77.8906 85V90H79.25V84.75C79.25 82.9375 78.1719 81.7344 76.3906 81.7344C75.1562 81.7344 74.2656 82.2656 73.8125 83.1719H73.7812V78.7266H72.4219V90ZM82.6172 80.4297C83.0938 80.4297 83.4688 80.0469 83.4688 79.5781C83.4688 79.1016 83.0938 78.7266 82.6172 78.7266C82.1484 78.7266 81.7656 79.1016 81.7656 79.5781C81.7656 80.0469 82.1484 80.4297 82.6172 80.4297ZM85.5391 80.4297C86.0156 80.4297 86.3906 80.0469 86.3906 79.5781C86.3906 79.1016 86.0156 78.7266 85.5391 78.7266C85.0703 78.7266 84.6875 79.1016 84.6875 79.5781C84.6875 80.0469 85.0703 80.4297 85.5391 80.4297ZM83.3516 90.1406C84.4453 90.1406 85.4766 89.5312 85.9609 88.6016H85.9922V90H87.2812V84.3828C87.2812 82.7656 86.0781 81.7344 84.1719 81.7344C82.25 81.7344 81.0469 82.8125 80.9531 84.2188H82.2656C82.4375 83.4219 83.0938 82.9297 84.1406 82.9297C85.2656 82.9297 85.9219 83.5234 85.9219 84.5156V85.1953L83.5938 85.3281C81.7188 85.4375 80.6484 86.3125 80.6484 87.7031C80.6484 89.1641 81.7344 90.1406 83.3516 90.1406ZM83.6562 88.9844C82.6797 88.9844 82.0312 88.4766 82.0312 87.7031C82.0312 86.9375 82.6562 86.4531 83.75 86.3828L85.9219 86.25V86.9141C85.9219 88.0859 84.9375 88.9844 83.6562 88.9844ZM89.0078 90H90.3672V84.9375C90.3672 83.7891 91.0547 83.0312 92.1094 83.0312C92.4375 83.0312 92.7266 83.0703 92.8359 83.1094V81.7891C92.7266 81.7734 92.5234 81.7344 92.2891 81.7344C91.3359 81.7344 90.5859 82.3047 90.3203 83.2031H90.2891V81.875H89.0078V90ZM94.6953 90H96.0547V82.9922H97.7109V81.875H96.0469V80.9766C96.0469 80.1719 96.3984 79.7812 97.1328 79.7812C97.3594 79.7812 97.5859 79.8047 97.75 79.8281V78.7266C97.5547 78.6953 97.2266 78.6641 96.9219 78.6641C95.4219 78.6641 94.6953 79.4062 94.6953 80.9688V81.875H93.5625V82.9922H94.6953V90ZM104.117 87.6719C103.891 88.4375 103.133 88.9609 102.102 88.9609C100.641 88.9609 99.7266 87.9375 99.7266 86.3828V86.3047H105.555V85.7891C105.555 83.3281 104.203 81.7344 102.008 81.7344C99.7656 81.7344 98.3281 83.4453 98.3281 85.9688C98.3281 88.5234 99.7422 90.1406 102.07 90.1406C103.844 90.1406 105.219 89.0938 105.453 87.6719H104.117ZM101.984 82.9141C103.266 82.9141 104.117 83.8828 104.148 85.2422H99.7344C99.8203 83.8906 100.711 82.9141 101.984 82.9141ZM113.289 90.1406C114.461 90.1406 115.391 89.5625 115.914 88.625H115.938V90H117.234V78.7266H115.875V83.1953H115.844C115.359 82.3047 114.422 81.7344 113.258 81.7344C111.211 81.7344 109.812 83.3906 109.812 85.9375C109.812 88.4844 111.219 90.1406 113.289 90.1406ZM113.547 82.9297C114.945 82.9297 115.883 84.125 115.883 85.9375C115.883 87.7578 114.945 88.9453 113.547 88.9453C112.109 88.9453 111.203 87.7812 111.203 85.9375C111.203 84.1016 112.109 82.9297 113.547 82.9297ZM124.461 87.6719C124.234 88.4375 123.477 88.9609 122.445 88.9609C120.984 88.9609 120.07 87.9375 120.07 86.3828V86.3047H125.898V85.7891C125.898 83.3281 124.547 81.7344 122.352 81.7344C120.109 81.7344 118.672 83.4453 118.672 85.9688C118.672 88.5234 120.086 90.1406 122.414 90.1406C124.188 90.1406 125.562 89.0938 125.797 87.6719H124.461ZM122.328 82.9141C123.609 82.9141 124.461 83.8828 124.492 85.2422H120.078C120.164 83.8906 121.055 82.9141 122.328 82.9141ZM128.023 80.4297C128.5 80.4297 128.875 80.0469 128.875 79.5781C128.875 79.1016 128.5 78.7266 128.023 78.7266C127.555 78.7266 127.172 79.1016 127.172 79.5781C127.172 80.0469 127.555 80.4297 128.023 80.4297ZM127.344 90H128.703V81.875H127.344V90ZM130.539 90H131.898V85.2188C131.898 83.8438 132.734 82.9375 134.016 82.9375C135.266 82.9375 135.883 83.6562 135.883 84.9688V90H137.242V84.7266C137.242 82.8828 136.211 81.7344 134.43 81.7344C133.172 81.7344 132.305 82.2969 131.852 83.1719H131.82V81.875H130.539V90ZM144.367 87.6719C144.141 88.4375 143.383 88.9609 142.352 88.9609C140.891 88.9609 139.977 87.9375 139.977 86.3828V86.3047H145.805V85.7891C145.805 83.3281 144.453 81.7344 142.258 81.7344C140.016 81.7344 138.578 83.4453 138.578 85.9688C138.578 88.5234 139.992 90.1406 142.32 90.1406C144.094 90.1406 145.469 89.0938 145.703 87.6719H144.367ZM142.234 82.9141C143.516 82.9141 144.367 83.8828 144.398 85.2422H139.984C140.07 83.8906 140.961 82.9141 142.234 82.9141ZM147.18 90H148.539V85.2188C148.539 83.8438 149.375 82.9375 150.656 82.9375C151.906 82.9375 152.523 83.6562 152.523 84.9688V90H153.883V84.7266C153.883 82.8828 152.852 81.7344 151.07 81.7344C149.812 81.7344 148.945 82.2969 148.492 83.1719H148.461V81.875H147.18V90ZM168.617 85.3359V84.2656H164.031V85.5H167.211V85.7031C167.211 87.5938 165.836 88.8906 163.836 88.8906C161.539 88.8906 160.117 87.1328 160.117 84.2969C160.117 81.5078 161.516 79.8359 163.836 79.8359C165.422 79.8359 166.602 80.7031 167.07 82.2266H168.547C168.125 79.9844 166.273 78.5391 163.836 78.5391C160.68 78.5391 158.672 80.7812 158.672 84.3047C158.672 87.8906 160.688 90.1875 163.836 90.1875C166.844 90.1875 168.617 88.3828 168.617 85.3359ZM175.602 87.6719C175.375 88.4375 174.617 88.9609 173.586 88.9609C172.125 88.9609 171.211 87.9375 171.211 86.3828V86.3047H177.039V85.7891C177.039 83.3281 175.688 81.7344 173.492 81.7344C171.25 81.7344 169.812 83.4453 169.812 85.9688C169.812 88.5234 171.227 90.1406 173.555 90.1406C175.328 90.1406 176.703 89.0938 176.938 87.6719H175.602ZM173.469 82.9141C174.75 82.9141 175.602 83.8828 175.633 85.2422H171.219C171.305 83.8906 172.195 82.9141 173.469 82.9141ZM179.164 80.4297C179.641 80.4297 180.016 80.0469 180.016 79.5781C180.016 79.1016 179.641 78.7266 179.164 78.7266C178.695 78.7266 178.312 79.1016 178.312 79.5781C178.312 80.0469 178.695 80.4297 179.164 80.4297ZM178.484 90H179.844V81.875H178.484V90ZM181.539 84.1172C181.539 85.2891 182.281 86 183.812 86.3672L185.102 86.6797C186.031 86.9062 186.352 87.2422 186.352 87.8281C186.352 88.5625 185.672 89.0312 184.57 89.0312C183.469 89.0312 182.844 88.5859 182.68 87.6562H181.32C181.477 89.1797 182.664 90.1406 184.57 90.1406C186.383 90.1406 187.719 89.1406 187.719 87.7266C187.719 86.5625 187.125 85.9219 185.484 85.5234L184.195 85.2109C183.289 84.9922 182.875 84.6094 182.875 84.0469C182.875 83.3359 183.531 82.8438 184.523 82.8438C185.523 82.8438 186.148 83.3672 186.25 84.2188H187.547C187.492 82.7812 186.305 81.7344 184.523 81.7344C182.766 81.7344 181.539 82.7266 181.539 84.1172ZM189.57 79.9141V81.875H188.359V82.9922H189.57V87.8906C189.57 89.4531 190.148 90.0625 191.641 90.0625C191.961 90.0625 192.336 90.0391 192.5 90V88.8594C192.406 88.875 192.094 88.8984 191.938 88.8984C191.242 88.8984 190.93 88.5625 190.93 87.8203V82.9922H192.508V81.875H190.93V79.9141H189.57Z" fill="#5C6166"/>
<path d="M50.3333 65H45L41 77L33 53L29 65H23.6666" stroke="#F4D96D" stroke-width="3" stroke-linecap="round" stroke-linejoin="round"/>
<path d="M301.203 67.0234H298.648V65.6016H301.059V64.6953H298.648V63.3359H301.203V62.3633H297.469V68H301.203V67.0234ZM303.184 68V64.3086H303.219L305.855 68H306.832V62.3633H305.703V66.0352H305.672L303.039 62.3633H302.055V68H303.184ZM310.301 68V63.3359H311.934V62.3633H307.492V63.3359H309.121V68H310.301ZM313.766 68V65.7812H316.059V64.8477H313.766V63.3359H316.277V62.3633H312.586V68H313.766ZM320.711 67.0234H318.156V65.6016H320.566V64.6953H318.156V63.3359H320.711V62.3633H316.977V68H320.711V67.0234ZM322.742 65.9375H323.688L324.738 68H326.074L324.887 65.7617C325.535 65.5078 325.91 64.8828 325.91 64.1602C325.91 63.0469 325.168 62.3633 323.871 62.3633H321.562V68H322.742V65.9375ZM322.742 63.2852H323.746C324.332 63.2852 324.699 63.6367 324.699 64.1836C324.699 64.7422 324.352 65.082 323.758 65.082H322.742V63.2852ZM327.816 68V64.3086H327.852L330.488 68H331.465V62.3633H330.336V66.0352H330.305L327.672 62.3633H326.688V68H327.816ZM336.141 67.0234H333.586V65.6016H335.996V64.6953H333.586V63.3359H336.141V62.3633H332.406V68H336.141V67.0234ZM338.121 68V64.3086H338.156L340.793 68H341.77V62.3633H340.641V66.0352H340.609L337.977 62.3633H336.992V68H338.121Z" fill="#FF5A5F"/>
<defs>
<filter id="filter0_d" x="0" y="21" width="371" height="106" filterUnits="userSpaceOnUse" color-interpolation-filters="sRGB">
<feFlood flood-opacity="0" result="BackgroundImageFix"/>
<feColorMatrix in="SourceAlpha" type="matrix" values="0 0 0 0 0 0 0 0 0 0 0 0 0 0 0 0 0 0 127 0"/>
<feOffset dy="4"/>
<feGaussianBlur stdDeviation="4"/>
<feColorMatrix type="matrix" values="0 0 0 0 0 0 0 0 0 0 0 0 0 0 0 0 0 0 0.08 0"/>
<feBlend mode="normal" in2="BackgroundImageFix" result="effect1_dropShadow"/>
<feBlend mode="normal" in="SourceGraphic" in2="effect1_dropShadow" result="shape"/>
</filter>
</defs>
</svg>
