<svg width="371" height="48" viewBox="0 0 371 48" fill="none" xmlns="http://www.w3.org/2000/svg">
<g filter="url(#filter0_d)">
<rect x="8" y="4" width="355" height="32" rx="12" fill="white"/>
</g>
<path d="M29 27C33.4183 27 37 23.4183 37 19C37 14.5817 33.4183 11 29 11C24.5817 11 21 14.5817 21 19C21 23.4183 24.5817 27 29 27Z" stroke="#FF5A5F" stroke-width="2" stroke-linecap="round" stroke-linejoin="round"/>
<path d="M39 29L34.65 24.65" stroke="#FF5A5F" stroke-width="2" stroke-linecap="round" stroke-linejoin="round"/>
<path d="M51.75 25V13.7266H50.3438V25H51.75ZM60.4766 19.5391C60.3047 18.0781 59.0938 16.7344 57.0625 16.7344C54.8203 16.7344 53.3281 18.375 53.3281 20.9375C53.3281 23.5547 54.8281 25.1406 57.0781 25.1406C58.9219 25.1406 60.2812 24 60.4922 22.3828H59.1562C58.9219 23.3594 58.1953 23.9453 57.0859 23.9453C55.6797 23.9453 54.7109 22.8281 54.7109 20.9375C54.7109 19.0938 55.6641 17.9297 57.0703 17.9297C58.2656 17.9297 58.9531 18.6562 59.1484 19.5391H60.4766ZM61.8125 25H63.1719V20.2656C63.1719 18.8594 64.0078 17.9375 65.3594 17.9375C66.6328 17.9375 67.2812 18.7109 67.2812 20V25H68.6406V19.75C68.6406 17.9375 67.5625 16.7344 65.7812 16.7344C64.5469 16.7344 63.6562 17.2656 63.2031 18.1719H63.1719V13.7266H61.8125V25ZM73.6484 25H75.0078V19.9062C75.0078 18.7812 75.7891 17.9375 76.8672 17.9375C77.875 17.9375 78.5312 18.5781 78.5312 19.5547V25H79.8906V19.8359C79.8906 18.7344 80.6484 17.9375 81.7266 17.9375C82.7969 17.9375 83.4141 18.5938 83.4141 19.7031V25H84.7734V19.3906C84.7734 17.7812 83.7344 16.7344 82.125 16.7344C80.9844 16.7344 80.0312 17.3125 79.5781 18.2812H79.5469C79.1953 17.2969 78.375 16.7344 77.2656 16.7344C76.1719 16.7344 75.3438 17.3125 74.9609 18.1719H74.9297V16.875H73.6484V25ZM88.4141 15.4297C88.8906 15.4297 89.2656 15.0469 89.2656 14.5781C89.2656 14.1016 88.8906 13.7266 88.4141 13.7266C87.9453 13.7266 87.5625 14.1016 87.5625 14.5781C87.5625 15.0469 87.9453 15.4297 88.4141 15.4297ZM91.3359 15.4297C91.8125 15.4297 92.1875 15.0469 92.1875 14.5781C92.1875 14.1016 91.8125 13.7266 91.3359 13.7266C90.8672 13.7266 90.4844 14.1016 90.4844 14.5781C90.4844 15.0469 90.8672 15.4297 91.3359 15.4297ZM89.875 25.1406C92.1172 25.1406 93.6328 23.5234 93.6328 20.9375C93.6328 18.3438 92.1172 16.7344 89.875 16.7344C87.625 16.7344 86.1094 18.3438 86.1094 20.9375C86.1094 23.5234 87.625 25.1406 89.875 25.1406ZM89.875 23.9453C88.4375 23.9453 87.4922 22.8516 87.4922 20.9375C87.4922 19.0234 88.4375 17.9297 89.875 17.9297C91.3125 17.9297 92.25 19.0234 92.25 20.9375C92.25 22.8516 91.3125 23.9453 89.875 23.9453ZM101.758 19.5391C101.586 18.0781 100.375 16.7344 98.3438 16.7344C96.1016 16.7344 94.6094 18.375 94.6094 20.9375C94.6094 23.5547 96.1094 25.1406 98.3594 25.1406C100.203 25.1406 101.562 24 101.773 22.3828H100.438C100.203 23.3594 99.4766 23.9453 98.3672 23.9453C96.9609 23.9453 95.9922 22.8281 95.9922 20.9375C95.9922 19.0938 96.9453 17.9297 98.3516 17.9297C99.5469 17.9297 100.234 18.6562 100.43 19.5391H101.758ZM103.094 25H104.453V20.2656C104.453 18.8594 105.289 17.9375 106.641 17.9375C107.914 17.9375 108.562 18.7109 108.562 20V25H109.922V19.75C109.922 17.9375 108.844 16.7344 107.062 16.7344C105.828 16.7344 104.938 17.2656 104.484 18.1719H104.453V13.7266H103.094V25ZM112.086 14.9141V16.875H110.875V17.9922H112.086V22.8906C112.086 24.4531 112.664 25.0625 114.156 25.0625C114.477 25.0625 114.852 25.0391 115.016 25V23.8594C114.922 23.875 114.609 23.8984 114.453 23.8984C113.758 23.8984 113.445 23.5625 113.445 22.8203V17.9922H115.023V16.875H113.445V14.9141H112.086ZM121.633 22.6719C121.406 23.4375 120.648 23.9609 119.617 23.9609C118.156 23.9609 117.242 22.9375 117.242 21.3828V21.3047H123.07V20.7891C123.07 18.3281 121.719 16.7344 119.523 16.7344C117.281 16.7344 115.844 18.4453 115.844 20.9688C115.844 23.5234 117.258 25.1406 119.586 25.1406C121.359 25.1406 122.734 24.0938 122.969 22.6719H121.633ZM119.5 17.9141C120.781 17.9141 121.633 18.8828 121.664 20.2422H117.25C117.336 18.8906 118.227 17.9141 119.5 17.9141ZM125.594 25.0781C126.094 25.0781 126.484 24.6875 126.484 24.1875C126.484 23.6875 126.094 23.2969 125.594 23.2969C125.094 23.2969 124.703 23.6875 124.703 24.1875C124.703 24.6875 125.094 25.0781 125.594 25.0781ZM129.656 25.0781C130.156 25.0781 130.547 24.6875 130.547 24.1875C130.547 23.6875 130.156 23.2969 129.656 23.2969C129.156 23.2969 128.766 23.6875 128.766 24.1875C128.766 24.6875 129.156 25.0781 129.656 25.0781ZM133.719 25.0781C134.219 25.0781 134.609 24.6875 134.609 24.1875C134.609 23.6875 134.219 23.2969 133.719 23.2969C133.219 23.2969 132.828 23.6875 132.828 24.1875C132.828 24.6875 133.219 25.0781 133.719 25.0781Z" fill="#5C6166"/>
<defs>
<filter id="filter0_d" x="0" y="0" width="371" height="48" filterUnits="userSpaceOnUse" color-interpolation-filters="sRGB">
<feFlood flood-opacity="0" result="BackgroundImageFix"/>
<feColorMatrix in="SourceAlpha" type="matrix" values="0 0 0 0 0 0 0 0 0 0 0 0 0 0 0 0 0 0 127 0"/>
<feOffset dy="4"/>
<feGaussianBlur stdDeviation="4"/>
<feColorMatrix type="matrix" values="0 0 0 0 0 0 0 0 0 0 0 0 0 0 0 0 0 0 0.08 0"/>
<feBlend mode="normal" in2="BackgroundImageFix" result="effect1_dropShadow"/>
<feBlend mode="normal" in="SourceGraphic" in2="effect1_dropShadow" result="shape"/>
</filter>
</defs>
</svg>
