<svg width="371" height="207" viewBox="0 0 371 207" fill="none" xmlns="http://www.w3.org/2000/svg">
<path d="M139.938 3.13574V13H143.417C146.356 13 148.086 11.168 148.086 8.05078C148.086 4.94043 146.35 3.13574 143.417 3.13574H139.938ZM141.469 4.45508H143.273C145.358 4.45508 146.521 5.74023 146.521 8.06445C146.521 10.3955 145.365 11.6738 143.273 11.6738H141.469V4.45508ZM154.136 10.8877C153.938 11.5166 153.315 11.9404 152.475 11.9404C151.292 11.9404 150.54 11.1133 150.54 9.8623V9.77344H155.619V9.26758C155.619 7.08691 154.375 5.67871 152.379 5.67871C150.349 5.67871 149.05 7.18262 149.05 9.43848C149.05 11.708 150.328 13.1367 152.44 13.1367C154.088 13.1367 155.332 12.2002 155.537 10.8877H154.136ZM152.379 6.86816C153.411 6.86816 154.108 7.64062 154.143 8.74121H150.547C150.622 7.6543 151.347 6.86816 152.379 6.86816ZM157.554 4.64648C158.025 4.64648 158.401 4.26367 158.401 3.79883C158.401 3.32715 158.025 2.95117 157.554 2.95117C157.082 2.95117 156.699 3.32715 156.699 3.79883C156.699 4.26367 157.082 4.64648 157.554 4.64648ZM156.815 13H158.292V5.80859H156.815V13ZM159.803 13H161.279V8.80957C161.279 7.69531 161.949 6.95703 162.988 6.95703C164.014 6.95703 164.52 7.55176 164.52 8.63184V13H166.003V8.34473C166.003 6.69727 165.094 5.68555 163.508 5.68555C162.4 5.68555 161.635 6.19141 161.245 7.01172H161.211V5.80859H159.803V13ZM172.196 10.8877C171.998 11.5166 171.376 11.9404 170.535 11.9404C169.353 11.9404 168.601 11.1133 168.601 9.8623V9.77344H173.68V9.26758C173.68 7.08691 172.436 5.67871 170.439 5.67871C168.409 5.67871 167.11 7.18262 167.11 9.43848C167.11 11.708 168.389 13.1367 170.501 13.1367C172.148 13.1367 173.393 12.2002 173.598 10.8877H172.196ZM170.439 6.86816C171.472 6.86816 172.169 7.64062 172.203 8.74121H168.607C168.683 7.6543 169.407 6.86816 170.439 6.86816ZM179.381 9.20605H181.486L183.496 13H185.26L183.052 8.9668C184.255 8.56348 184.966 7.4834 184.966 6.15039C184.966 4.31152 183.701 3.13574 181.671 3.13574H177.85V13H179.381V9.20605ZM179.381 4.4209H181.486C182.669 4.4209 183.387 5.09082 183.387 6.19141C183.387 7.31934 182.71 7.96875 181.527 7.96875H179.381V4.4209ZM189.334 13.1367C191.392 13.1367 192.745 11.7217 192.745 9.4043C192.745 7.09375 191.385 5.67871 189.334 5.67871C187.283 5.67871 185.923 7.09375 185.923 9.4043C185.923 11.7217 187.276 13.1367 189.334 13.1367ZM189.334 11.9199C188.179 11.9199 187.427 11.0039 187.427 9.4043C187.427 7.81152 188.179 6.89551 189.334 6.89551C190.489 6.89551 191.241 7.81152 191.241 9.4043C191.241 11.0039 190.496 11.9199 189.334 11.9199ZM200.053 5.80859H198.576V9.99902C198.576 11.1201 197.934 11.8584 196.867 11.8584C195.849 11.8584 195.329 11.2705 195.329 10.1768V5.80859H193.853V10.4639C193.853 12.1113 194.81 13.1299 196.375 13.1299C197.476 13.1299 198.207 12.6445 198.604 11.7832H198.638V13H200.053V5.80859ZM201.946 4.10645V5.80859H200.9V6.97754H201.946V11.1064C201.946 12.4941 202.514 13.0479 203.97 13.0479C204.298 13.0479 204.626 13.0205 204.79 12.9795V11.8105C204.694 11.8311 204.455 11.8447 204.305 11.8447C203.703 11.8447 203.43 11.5645 203.43 10.9424V6.97754H204.797V5.80859H203.43V4.10645H201.946ZM206.8 4.64648C207.271 4.64648 207.647 4.26367 207.647 3.79883C207.647 3.32715 207.271 2.95117 206.8 2.95117C206.328 2.95117 205.945 3.32715 205.945 3.79883C205.945 4.26367 206.328 4.64648 206.8 4.64648ZM206.062 13H207.538V5.80859H206.062V13ZM209.049 13H210.525V8.80957C210.525 7.69531 211.195 6.95703 212.234 6.95703C213.26 6.95703 213.766 7.55176 213.766 8.63184V13H215.249V8.34473C215.249 6.69727 214.34 5.68555 212.754 5.68555C211.646 5.68555 210.881 6.19141 210.491 7.01172H210.457V5.80859H209.049V13ZM221.442 10.8877C221.244 11.5166 220.622 11.9404 219.781 11.9404C218.599 11.9404 217.847 11.1133 217.847 9.8623V9.77344H222.926V9.26758C222.926 7.08691 221.682 5.67871 219.686 5.67871C217.655 5.67871 216.356 7.18262 216.356 9.43848C216.356 11.708 217.635 13.1367 219.747 13.1367C221.395 13.1367 222.639 12.2002 222.844 10.8877H221.442ZM219.686 6.86816C220.718 6.86816 221.415 7.64062 221.449 8.74121H217.854C217.929 7.6543 218.653 6.86816 219.686 6.86816ZM224.074 13H225.551V8.80957C225.551 7.69531 226.221 6.95703 227.26 6.95703C228.285 6.95703 228.791 7.55176 228.791 8.63184V13H230.274V8.34473C230.274 6.69727 229.365 5.68555 227.779 5.68555C226.672 5.68555 225.906 6.19141 225.517 7.01172H225.482V5.80859H224.074V13Z" fill="black"/>
<g filter="url(#filter0_d)">
<rect x="8" y="25" width="355" height="170" rx="12" fill="white"/>
</g>
<path d="M179.172 50H180.279L184.041 42.5234V41.5449H178.445V42.4824H182.998V42.5059L179.172 50ZM187.686 50H188.705V46.1797C188.705 45.3359 189.291 44.7031 190.1 44.7031C190.855 44.7031 191.348 45.1836 191.348 45.916V50H192.367V46.127C192.367 45.3008 192.936 44.7031 193.744 44.7031C194.547 44.7031 195.01 45.1953 195.01 46.0273V50H196.029V45.793C196.029 44.5859 195.25 43.8008 194.043 43.8008C193.188 43.8008 192.473 44.2344 192.133 44.9609H192.109C191.846 44.2227 191.23 43.8008 190.398 43.8008C189.578 43.8008 188.957 44.2344 188.67 44.8789H188.646V43.9062H187.686V50ZM197.893 42.8223C198.25 42.8223 198.531 42.5352 198.531 42.1836C198.531 41.8262 198.25 41.5449 197.893 41.5449C197.541 41.5449 197.254 41.8262 197.254 42.1836C197.254 42.5352 197.541 42.8223 197.893 42.8223ZM197.383 50H198.402V43.9062H197.383V50ZM199.779 50H200.799V46.4141C200.799 45.3828 201.426 44.7031 202.387 44.7031C203.324 44.7031 203.787 45.2422 203.787 46.2266V50H204.807V46.0449C204.807 44.6621 204.033 43.8008 202.697 43.8008C201.754 43.8008 201.104 44.2227 200.764 44.8789H200.74V43.9062H199.779V50ZM206.969 50.0586C207.344 50.0586 207.637 49.7656 207.637 49.3906C207.637 49.0156 207.344 48.7227 206.969 48.7227C206.594 48.7227 206.301 49.0156 206.301 49.3906C206.301 49.7656 206.594 50.0586 206.969 50.0586Z" fill="#00A699"/>
<path d="M56.5977 48.5195C56.7207 50.7783 58.6279 52.2109 61.4932 52.2109C64.4463 52.2109 66.3271 50.708 66.3271 48.3174C66.3271 46.4717 65.2373 45.4082 62.583 44.8457L61.1943 44.5557C59.5508 44.2041 58.9004 43.5889 58.9004 42.666C58.9004 41.5059 59.9902 40.7852 61.4756 40.7852C63.0137 40.7852 64.0596 41.5674 64.1826 42.8418H66.0898C66.0283 40.627 64.1914 39.1064 61.502 39.1064C58.8037 39.1064 56.8965 40.6006 56.8965 42.7715C56.8965 44.5996 58.0479 45.7773 60.5879 46.3135L61.9678 46.6035C63.6641 46.9727 64.332 47.5879 64.332 48.5723C64.332 49.7061 63.1807 50.5322 61.5723 50.5322C59.8848 50.5322 58.6895 49.7764 58.5137 48.5195H56.5977ZM72.6904 42.6045C71.3545 42.6045 70.291 43.2812 69.7461 44.3447H69.7109V42.7539H67.874V55.0586H69.7725V50.4795H69.8164C70.3438 51.5078 71.3984 52.1582 72.7256 52.1582C75.0459 52.1582 76.584 50.3037 76.584 47.377C76.584 44.4502 75.0371 42.6045 72.6904 42.6045ZM72.1895 50.5498C70.7305 50.5498 69.7637 49.3018 69.7637 47.377C69.7637 45.4697 70.7393 44.2041 72.1895 44.2041C73.6924 44.2041 74.6328 45.4434 74.6328 47.377C74.6328 49.3193 73.6924 50.5498 72.1895 50.5498ZM82.0244 52.1758C84.6699 52.1758 86.4102 50.3564 86.4102 47.377C86.4102 44.4062 84.6611 42.5869 82.0244 42.5869C79.3877 42.5869 77.6387 44.4062 77.6387 47.377C77.6387 50.3564 79.3789 52.1758 82.0244 52.1758ZM82.0244 50.6113C80.5391 50.6113 79.5723 49.4336 79.5723 47.377C79.5723 45.3291 80.5391 44.1514 82.0244 44.1514C83.5098 44.1514 84.4766 45.3291 84.4766 47.377C84.4766 49.4336 83.5186 50.6113 82.0244 50.6113ZM87.8779 52H89.7764V46.4629C89.7764 45.1533 90.5322 44.3359 91.7539 44.3359C92.123 44.3359 92.457 44.3799 92.6064 44.4414V42.6748C92.4658 42.6484 92.2285 42.6045 91.9561 42.6045C90.8662 42.6045 90.04 43.2461 89.7324 44.3271H89.6885V42.7539H87.8779V52ZM94.6719 40.5654V42.7539H93.3271V44.2568H94.6719V49.5654C94.6719 51.3496 95.4014 52.0615 97.2734 52.0615C97.6953 52.0615 98.1172 52.0264 98.3281 51.9736V50.4707C98.2051 50.4971 97.8975 50.5146 97.7041 50.5146C96.9307 50.5146 96.5791 50.1543 96.5791 49.3545V44.2568H98.3369V42.7539H96.5791V40.5654H94.6719ZM104.568 41.2598C105.175 41.2598 105.658 40.7676 105.658 40.1699C105.658 39.5635 105.175 39.0801 104.568 39.0801C103.962 39.0801 103.47 39.5635 103.47 40.1699C103.47 40.7676 103.962 41.2598 104.568 41.2598ZM103.619 52H105.518V42.7539H103.619V52ZM107.46 52H109.358V46.2871C109.358 45.1006 110.158 44.2217 111.283 44.2217C112.355 44.2217 113.032 44.8984 113.032 45.9619V52H114.896V46.2256C114.896 45.0566 115.678 44.2217 116.803 44.2217C117.928 44.2217 118.569 44.9072 118.569 46.1025V52H120.477V45.6455C120.477 43.8086 119.281 42.5957 117.453 42.5957C116.135 42.5957 115.045 43.2812 114.57 44.4062H114.526C114.157 43.2549 113.226 42.5957 111.942 42.5957C110.694 42.5957 109.728 43.2812 109.314 44.3096H109.271V42.7539H107.46V52ZM134.46 52H136.543L131.964 39.3174H129.837L125.258 52H127.306L128.466 48.5723H133.3L134.46 52ZM130.856 41.4268H130.909L132.799 46.9902H128.967L130.856 41.4268ZM137.782 52H139.681V39.3174H137.782V52ZM141.702 52H143.601V39.3174H141.702V52ZM146.105 40.5654V42.7539H144.761V44.2568H146.105V49.5654C146.105 51.3496 146.835 52.0615 148.707 52.0615C149.129 52.0615 149.551 52.0264 149.762 51.9736V50.4707C149.639 50.4971 149.331 50.5146 149.138 50.5146C148.364 50.5146 148.013 50.1543 148.013 49.3545V44.2568H149.771V42.7539H148.013V40.5654H146.105ZM153.901 52.1582C155.114 52.1582 156.283 51.5078 156.819 50.4795H156.863V52H158.683V45.6279C158.683 43.7734 157.25 42.5869 155.009 42.5869C152.724 42.5869 151.3 43.8174 151.194 45.4873H152.987C153.154 44.6611 153.84 44.1338 154.938 44.1338C156.099 44.1338 156.793 44.749 156.793 45.7773V46.4893L154.262 46.6387C152.064 46.7617 150.825 47.7549 150.825 49.3721C150.825 51.0332 152.091 52.1582 153.901 52.1582ZM154.429 50.6553C153.409 50.6553 152.741 50.1279 152.741 49.3193C152.741 48.5283 153.383 48.0273 154.517 47.9482L156.793 47.8076V48.5371C156.793 49.7412 155.756 50.6553 154.429 50.6553ZM164.483 55.4805C167.12 55.4805 168.825 54.0391 168.825 51.833V42.7539H166.979V44.3359H166.944C166.382 43.2637 165.31 42.6045 164 42.6045C161.627 42.6045 160.115 44.4326 160.115 47.3418C160.115 50.2246 161.636 52.0352 163.956 52.0352C165.274 52.0352 166.364 51.376 166.883 50.374H166.918V51.8945C166.918 53.1602 166.039 54.0039 164.554 54.0039C163.473 54.0039 162.629 53.4941 162.356 52.7207H160.449C160.687 54.3203 162.304 55.4805 164.483 55.4805ZM164.466 50.4619C163.007 50.4619 162.058 49.2842 162.058 47.3506C162.058 45.4258 163.007 44.2041 164.466 44.2041C165.951 44.2041 166.927 45.4521 166.927 47.3506C166.927 49.2578 165.951 50.4619 164.466 50.4619Z" fill="black"/>
<path d="M56.5469 67.9766C56.6797 69.9219 58.3203 71.1875 60.7812 71.1875C63.3047 71.1875 64.9453 69.8828 64.9453 67.7969C64.9453 66.2031 64.0156 65.2656 61.6641 64.75L60.4141 64.4766C58.875 64.1406 58.2734 63.5312 58.2734 62.6406C58.2734 61.4922 59.3594 60.8047 60.7656 60.8047C62.2344 60.8047 63.2109 61.5625 63.3359 62.7969H64.7422C64.6797 60.8828 63.0547 59.5391 60.8047 59.5391C58.4688 59.5391 56.8281 60.8438 56.8281 62.7031C56.8281 64.3047 57.8047 65.3281 60.0625 65.8203L61.3125 66.0938C62.875 66.4375 63.5 67.0625 63.5 68.0078C63.5 69.1172 62.3906 69.9219 60.8594 69.9219C59.2422 69.9219 58.1172 69.1875 57.9531 67.9766H56.5469ZM68.7578 71.1406C69.8516 71.1406 70.8828 70.5312 71.3672 69.6016H71.3984V71H72.6875V65.3828C72.6875 63.7656 71.4844 62.7344 69.5781 62.7344C67.6562 62.7344 66.4531 63.8125 66.3594 65.2188H67.6719C67.8438 64.4219 68.5 63.9297 69.5469 63.9297C70.6719 63.9297 71.3281 64.5234 71.3281 65.5156V66.1953L69 66.3281C67.125 66.4375 66.0547 67.3125 66.0547 68.7031C66.0547 70.1641 67.1406 71.1406 68.7578 71.1406ZM69.0625 69.9844C68.0859 69.9844 67.4375 69.4766 67.4375 68.7031C67.4375 67.9375 68.0625 67.4531 69.1562 67.3828L71.3281 67.25V67.9141C71.3281 69.0859 70.3438 69.9844 69.0625 69.9844ZM74.4141 71H75.7734V65.9062C75.7734 64.7812 76.5547 63.9375 77.6328 63.9375C78.6406 63.9375 79.2969 64.5781 79.2969 65.5547V71H80.6562V65.8359C80.6562 64.7344 81.4141 63.9375 82.4922 63.9375C83.5625 63.9375 84.1797 64.5938 84.1797 65.7031V71H85.5391V65.3906C85.5391 63.7812 84.5 62.7344 82.8906 62.7344C81.75 62.7344 80.7969 63.3125 80.3438 64.2812H80.3125C79.9609 63.2969 79.1406 62.7344 78.0312 62.7344C76.9375 62.7344 76.1094 63.3125 75.7266 64.1719H75.6953V62.875H74.4141V71ZM87.2734 71H88.6328V65.9062C88.6328 64.7812 89.4141 63.9375 90.4922 63.9375C91.5 63.9375 92.1562 64.5781 92.1562 65.5547V71H93.5156V65.8359C93.5156 64.7344 94.2734 63.9375 95.3516 63.9375C96.4219 63.9375 97.0391 64.5938 97.0391 65.7031V71H98.3984V65.3906C98.3984 63.7812 97.3594 62.7344 95.75 62.7344C94.6094 62.7344 93.6562 63.3125 93.2031 64.2812H93.1719C92.8203 63.2969 92 62.7344 90.8906 62.7344C89.7969 62.7344 88.9688 63.3125 88.5859 64.1719H88.5547V62.875H87.2734V71ZM100.203 71H101.562V59.7266H100.203V71ZM108.789 68.6719C108.562 69.4375 107.805 69.9609 106.773 69.9609C105.312 69.9609 104.398 68.9375 104.398 67.3828V67.3047H110.227V66.7891C110.227 64.3281 108.875 62.7344 106.68 62.7344C104.438 62.7344 103 64.4453 103 66.9688C103 69.5234 104.414 71.1406 106.742 71.1406C108.516 71.1406 109.891 70.0938 110.125 68.6719H108.789ZM106.656 63.9141C107.938 63.9141 108.789 64.8828 108.82 66.2422H104.406C104.492 64.8906 105.383 63.9141 106.656 63.9141ZM114.883 71H116.242V66.2188C116.242 64.8438 117.078 63.9375 118.359 63.9375C119.609 63.9375 120.227 64.6562 120.227 65.9688V71H121.586V65.7266C121.586 63.8828 120.555 62.7344 118.773 62.7344C117.516 62.7344 116.648 63.2969 116.195 64.1719H116.164V62.875H114.883V71ZM128.711 68.6719C128.484 69.4375 127.727 69.9609 126.695 69.9609C125.234 69.9609 124.32 68.9375 124.32 67.3828V67.3047H130.148V66.7891C130.148 64.3281 128.797 62.7344 126.602 62.7344C124.359 62.7344 122.922 64.4453 122.922 66.9688C122.922 69.5234 124.336 71.1406 126.664 71.1406C128.438 71.1406 129.812 70.0938 130.047 68.6719H128.711ZM126.578 63.9141C127.859 63.9141 128.711 64.8828 128.742 66.2422H124.328C124.414 64.8906 125.305 63.9141 126.578 63.9141ZM138.195 62.875H136.836V67.6484C136.836 69.0312 136.039 69.9375 134.719 69.9375C133.461 69.9375 132.844 69.2266 132.844 67.9062V62.875H131.484V68.1484C131.484 69.9922 132.523 71.1406 134.297 71.1406C135.547 71.1406 136.391 70.6172 136.875 69.6797H136.906V71H138.195V62.875ZM145.352 68.6719C145.125 69.4375 144.367 69.9609 143.336 69.9609C141.875 69.9609 140.961 68.9375 140.961 67.3828V67.3047H146.789V66.7891C146.789 64.3281 145.438 62.7344 143.242 62.7344C141 62.7344 139.562 64.4453 139.562 66.9688C139.562 69.5234 140.977 71.1406 143.305 71.1406C145.078 71.1406 146.453 70.0938 146.688 68.6719H145.352ZM143.219 63.9141C144.5 63.9141 145.352 64.8828 145.383 66.2422H140.969C141.055 64.8906 141.945 63.9141 143.219 63.9141ZM158.641 69.7344H153.062V65.8594H158.352V64.6094H153.062V60.9922H158.641V59.7266H151.656V71H158.641V69.7344ZM160.289 71H161.648V66.2188C161.648 64.8438 162.484 63.9375 163.766 63.9375C165.016 63.9375 165.633 64.6562 165.633 65.9688V71H166.992V65.7266C166.992 63.8828 165.961 62.7344 164.18 62.7344C162.922 62.7344 162.055 63.2969 161.602 64.1719H161.57V62.875H160.289V71ZM174.117 68.6719C173.891 69.4375 173.133 69.9609 172.102 69.9609C170.641 69.9609 169.727 68.9375 169.727 67.3828V67.3047H175.555V66.7891C175.555 64.3281 174.203 62.7344 172.008 62.7344C169.766 62.7344 168.328 64.4453 168.328 66.9688C168.328 69.5234 169.742 71.1406 172.07 71.1406C173.844 71.1406 175.219 70.0938 175.453 68.6719H174.117ZM171.984 63.9141C173.266 63.9141 174.117 64.8828 174.148 66.2422H169.734C169.82 64.8906 170.711 63.9141 171.984 63.9141ZM176.93 71H178.289V65.9375C178.289 64.7891 178.977 64.0312 180.031 64.0312C180.359 64.0312 180.648 64.0703 180.758 64.1094V62.7891C180.648 62.7734 180.445 62.7344 180.211 62.7344C179.258 62.7344 178.508 63.3047 178.242 64.2031H178.211V62.875H176.93V71ZM184.828 74.0625C187.07 74.0625 188.5 72.7734 188.5 70.8359V62.875H187.203V64.2422H187.18C186.641 63.2969 185.688 62.7344 184.539 62.7344C182.438 62.7344 181.078 64.3594 181.078 66.9062C181.078 69.4297 182.438 71.0625 184.508 71.0625C185.648 71.0625 186.609 70.4844 187.109 69.6016H187.141V70.8828C187.141 72.0938 186.289 72.9062 184.883 72.9062C183.867 72.9062 183.062 72.4141 182.797 71.6719H181.398C181.625 73.0547 183.039 74.0625 184.828 74.0625ZM184.781 69.8672C183.383 69.8672 182.469 68.7266 182.469 66.9062C182.469 65.0859 183.383 63.9297 184.781 63.9297C186.195 63.9297 187.141 65.1172 187.141 66.9062C187.141 68.6953 186.195 69.8672 184.781 69.8672ZM191.023 61.4297C191.5 61.4297 191.875 61.0469 191.875 60.5781C191.875 60.1016 191.5 59.7266 191.023 59.7266C190.555 59.7266 190.172 60.1016 190.172 60.5781C190.172 61.0469 190.555 61.4297 191.023 61.4297ZM190.344 71H191.703V62.875H190.344V71ZM198.93 68.6719C198.703 69.4375 197.945 69.9609 196.914 69.9609C195.453 69.9609 194.539 68.9375 194.539 67.3828V67.3047H200.367V66.7891C200.367 64.3281 199.016 62.7344 196.82 62.7344C194.578 62.7344 193.141 64.4453 193.141 66.9688C193.141 69.5234 194.555 71.1406 196.883 71.1406C198.656 71.1406 200.031 70.0938 200.266 68.6719H198.93ZM196.797 63.9141C198.078 63.9141 198.93 64.8828 198.961 66.2422H194.547C194.633 64.8906 195.523 63.9141 196.797 63.9141ZM211.695 62.875H210.336V67.6484C210.336 69.0312 209.539 69.9375 208.219 69.9375C206.961 69.9375 206.344 69.2266 206.344 67.9062V62.875H204.984V68.1484C204.984 69.9922 206.023 71.1406 207.797 71.1406C209.047 71.1406 209.891 70.6172 210.375 69.6797H210.406V71H211.695V62.875ZM213.461 71H214.82V66.2188C214.82 64.8438 215.656 63.9375 216.938 63.9375C218.188 63.9375 218.805 64.6562 218.805 65.9688V71H220.164V65.7266C220.164 63.8828 219.133 62.7344 217.352 62.7344C216.094 62.7344 215.227 63.2969 214.773 64.1719H214.742V62.875H213.461V71ZM224.977 71.1406C226.148 71.1406 227.078 70.5625 227.602 69.625H227.625V71H228.922V59.7266H227.562V64.1953H227.531C227.047 63.3047 226.109 62.7344 224.945 62.7344C222.898 62.7344 221.5 64.3906 221.5 66.9375C221.5 69.4844 222.906 71.1406 224.977 71.1406ZM225.234 63.9297C226.633 63.9297 227.57 65.125 227.57 66.9375C227.57 68.7578 226.633 69.9453 225.234 69.9453C223.797 69.9453 222.891 68.7812 222.891 66.9375C222.891 65.1016 223.797 63.9297 225.234 63.9297ZM56.7422 84.1172C56.7422 85.2891 57.4844 86 59.0156 86.3672L60.3047 86.6797C61.2344 86.9062 61.5547 87.2422 61.5547 87.8281C61.5547 88.5625 60.875 89.0312 59.7734 89.0312C58.6719 89.0312 58.0469 88.5859 57.8828 87.6562H56.5234C56.6797 89.1797 57.8672 90.1406 59.7734 90.1406C61.5859 90.1406 62.9219 89.1406 62.9219 87.7266C62.9219 86.5625 62.3281 85.9219 60.6875 85.5234L59.3984 85.2109C58.4922 84.9922 58.0781 84.6094 58.0781 84.0469C58.0781 83.3359 58.7344 82.8438 59.7266 82.8438C60.7266 82.8438 61.3516 83.3672 61.4531 84.2188H62.75C62.6953 82.7812 61.5078 81.7344 59.7266 81.7344C57.9688 81.7344 56.7422 82.7266 56.7422 84.1172ZM71.0859 84.5391C70.9141 83.0781 69.7031 81.7344 67.6719 81.7344C65.4297 81.7344 63.9375 83.375 63.9375 85.9375C63.9375 88.5547 65.4375 90.1406 67.6875 90.1406C69.5312 90.1406 70.8906 89 71.1016 87.3828H69.7656C69.5312 88.3594 68.8047 88.9453 67.6953 88.9453C66.2891 88.9453 65.3203 87.8281 65.3203 85.9375C65.3203 84.0938 66.2734 82.9297 67.6797 82.9297C68.875 82.9297 69.5625 83.6562 69.7578 84.5391H71.0859ZM72.4219 90H73.7812V85.2656C73.7812 83.8594 74.6172 82.9375 75.9688 82.9375C77.2422 82.9375 77.8906 83.7109 77.8906 85V90H79.25V84.75C79.25 82.9375 78.1719 81.7344 76.3906 81.7344C75.1562 81.7344 74.2656 82.2656 73.8125 83.1719H73.7812V78.7266H72.4219V90ZM82.6172 80.4297C83.0938 80.4297 83.4688 80.0469 83.4688 79.5781C83.4688 79.1016 83.0938 78.7266 82.6172 78.7266C82.1484 78.7266 81.7656 79.1016 81.7656 79.5781C81.7656 80.0469 82.1484 80.4297 82.6172 80.4297ZM85.5391 80.4297C86.0156 80.4297 86.3906 80.0469 86.3906 79.5781C86.3906 79.1016 86.0156 78.7266 85.5391 78.7266C85.0703 78.7266 84.6875 79.1016 84.6875 79.5781C84.6875 80.0469 85.0703 80.4297 85.5391 80.4297ZM83.3516 90.1406C84.4453 90.1406 85.4766 89.5312 85.9609 88.6016H85.9922V90H87.2812V84.3828C87.2812 82.7656 86.0781 81.7344 84.1719 81.7344C82.25 81.7344 81.0469 82.8125 80.9531 84.2188H82.2656C82.4375 83.4219 83.0938 82.9297 84.1406 82.9297C85.2656 82.9297 85.9219 83.5234 85.9219 84.5156V85.1953L83.5938 85.3281C81.7188 85.4375 80.6484 86.3125 80.6484 87.7031C80.6484 89.1641 81.7344 90.1406 83.3516 90.1406ZM83.6562 88.9844C82.6797 88.9844 82.0312 88.4766 82.0312 87.7031C82.0312 86.9375 82.6562 86.4531 83.75 86.3828L85.9219 86.25V86.9141C85.9219 88.0859 84.9375 88.9844 83.6562 88.9844ZM89.0078 90H90.3672V84.9375C90.3672 83.7891 91.0547 83.0312 92.1094 83.0312C92.4375 83.0312 92.7266 83.0703 92.8359 83.1094V81.7891C92.7266 81.7734 92.5234 81.7344 92.2891 81.7344C91.3359 81.7344 90.5859 82.3047 90.3203 83.2031H90.2891V81.875H89.0078V90ZM94.6953 90H96.0547V82.9922H97.7109V81.875H96.0469V80.9766C96.0469 80.1719 96.3984 79.7812 97.1328 79.7812C97.3594 79.7812 97.5859 79.8047 97.75 79.8281V78.7266C97.5547 78.6953 97.2266 78.6641 96.9219 78.6641C95.4219 78.6641 94.6953 79.4062 94.6953 80.9688V81.875H93.5625V82.9922H94.6953V90ZM104.117 87.6719C103.891 88.4375 103.133 88.9609 102.102 88.9609C100.641 88.9609 99.7266 87.9375 99.7266 86.3828V86.3047H105.555V85.7891C105.555 83.3281 104.203 81.7344 102.008 81.7344C99.7656 81.7344 98.3281 83.4453 98.3281 85.9688C98.3281 88.5234 99.7422 90.1406 102.07 90.1406C103.844 90.1406 105.219 89.0938 105.453 87.6719H104.117ZM101.984 82.9141C103.266 82.9141 104.117 83.8828 104.148 85.2422H99.7344C99.8203 83.8906 100.711 82.9141 101.984 82.9141ZM113.289 90.1406C114.461 90.1406 115.391 89.5625 115.914 88.625H115.938V90H117.234V78.7266H115.875V83.1953H115.844C115.359 82.3047 114.422 81.7344 113.258 81.7344C111.211 81.7344 109.812 83.3906 109.812 85.9375C109.812 88.4844 111.219 90.1406 113.289 90.1406ZM113.547 82.9297C114.945 82.9297 115.883 84.125 115.883 85.9375C115.883 87.7578 114.945 88.9453 113.547 88.9453C112.109 88.9453 111.203 87.7812 111.203 85.9375C111.203 84.1016 112.109 82.9297 113.547 82.9297ZM124.461 87.6719C124.234 88.4375 123.477 88.9609 122.445 88.9609C120.984 88.9609 120.07 87.9375 120.07 86.3828V86.3047H125.898V85.7891C125.898 83.3281 124.547 81.7344 122.352 81.7344C120.109 81.7344 118.672 83.4453 118.672 85.9688C118.672 88.5234 120.086 90.1406 122.414 90.1406C124.188 90.1406 125.562 89.0938 125.797 87.6719H124.461ZM122.328 82.9141C123.609 82.9141 124.461 83.8828 124.492 85.2422H120.078C120.164 83.8906 121.055 82.9141 122.328 82.9141ZM128.023 80.4297C128.5 80.4297 128.875 80.0469 128.875 79.5781C128.875 79.1016 128.5 78.7266 128.023 78.7266C127.555 78.7266 127.172 79.1016 127.172 79.5781C127.172 80.0469 127.555 80.4297 128.023 80.4297ZM127.344 90H128.703V81.875H127.344V90ZM130.539 90H131.898V85.2188C131.898 83.8438 132.734 82.9375 134.016 82.9375C135.266 82.9375 135.883 83.6562 135.883 84.9688V90H137.242V84.7266C137.242 82.8828 136.211 81.7344 134.43 81.7344C133.172 81.7344 132.305 82.2969 131.852 83.1719H131.82V81.875H130.539V90ZM144.367 87.6719C144.141 88.4375 143.383 88.9609 142.352 88.9609C140.891 88.9609 139.977 87.9375 139.977 86.3828V86.3047H145.805V85.7891C145.805 83.3281 144.453 81.7344 142.258 81.7344C140.016 81.7344 138.578 83.4453 138.578 85.9688C138.578 88.5234 139.992 90.1406 142.32 90.1406C144.094 90.1406 145.469 89.0938 145.703 87.6719H144.367ZM142.234 82.9141C143.516 82.9141 144.367 83.8828 144.398 85.2422H139.984C140.07 83.8906 140.961 82.9141 142.234 82.9141ZM147.18 90H148.539V85.2188C148.539 83.8438 149.375 82.9375 150.656 82.9375C151.906 82.9375 152.523 83.6562 152.523 84.9688V90H153.883V84.7266C153.883 82.8828 152.852 81.7344 151.07 81.7344C149.812 81.7344 148.945 82.2969 148.492 83.1719H148.461V81.875H147.18V90ZM168.617 85.3359V84.2656H164.031V85.5H167.211V85.7031C167.211 87.5938 165.836 88.8906 163.836 88.8906C161.539 88.8906 160.117 87.1328 160.117 84.2969C160.117 81.5078 161.516 79.8359 163.836 79.8359C165.422 79.8359 166.602 80.7031 167.07 82.2266H168.547C168.125 79.9844 166.273 78.5391 163.836 78.5391C160.68 78.5391 158.672 80.7812 158.672 84.3047C158.672 87.8906 160.688 90.1875 163.836 90.1875C166.844 90.1875 168.617 88.3828 168.617 85.3359ZM175.602 87.6719C175.375 88.4375 174.617 88.9609 173.586 88.9609C172.125 88.9609 171.211 87.9375 171.211 86.3828V86.3047H177.039V85.7891C177.039 83.3281 175.688 81.7344 173.492 81.7344C171.25 81.7344 169.812 83.4453 169.812 85.9688C169.812 88.5234 171.227 90.1406 173.555 90.1406C175.328 90.1406 176.703 89.0938 176.938 87.6719H175.602ZM173.469 82.9141C174.75 82.9141 175.602 83.8828 175.633 85.2422H171.219C171.305 83.8906 172.195 82.9141 173.469 82.9141ZM179.164 80.4297C179.641 80.4297 180.016 80.0469 180.016 79.5781C180.016 79.1016 179.641 78.7266 179.164 78.7266C178.695 78.7266 178.312 79.1016 178.312 79.5781C178.312 80.0469 178.695 80.4297 179.164 80.4297ZM178.484 90H179.844V81.875H178.484V90ZM181.539 84.1172C181.539 85.2891 182.281 86 183.812 86.3672L185.102 86.6797C186.031 86.9062 186.352 87.2422 186.352 87.8281C186.352 88.5625 185.672 89.0312 184.57 89.0312C183.469 89.0312 182.844 88.5859 182.68 87.6562H181.32C181.477 89.1797 182.664 90.1406 184.57 90.1406C186.383 90.1406 187.719 89.1406 187.719 87.7266C187.719 86.5625 187.125 85.9219 185.484 85.5234L184.195 85.2109C183.289 84.9922 182.875 84.6094 182.875 84.0469C182.875 83.3359 183.531 82.8438 184.523 82.8438C185.523 82.8438 186.148 83.3672 186.25 84.2188H187.547C187.492 82.7812 186.305 81.7344 184.523 81.7344C182.766 81.7344 181.539 82.7266 181.539 84.1172ZM189.57 79.9141V81.875H188.359V82.9922H189.57V87.8906C189.57 89.4531 190.148 90.0625 191.641 90.0625C191.961 90.0625 192.336 90.0391 192.5 90V88.8594C192.406 88.875 192.094 88.8984 191.938 88.8984C191.242 88.8984 190.93 88.5625 190.93 87.8203V82.9922H192.508V81.875H190.93V79.9141H189.57Z" fill="#5C6166"/>
<path d="M50.3333 65H45L41 77L33 53L29 65H23.6666" stroke="#F4D96D" stroke-width="3" stroke-linecap="round" stroke-linejoin="round"/>
<path d="M301.203 67.0234H298.648V65.6016H301.059V64.6953H298.648V63.3359H301.203V62.3633H297.469V68H301.203V67.0234ZM303.184 68V64.3086H303.219L305.855 68H306.832V62.3633H305.703V66.0352H305.672L303.039 62.3633H302.055V68H303.184ZM310.301 68V63.3359H311.934V62.3633H307.492V63.3359H309.121V68H310.301ZM313.766 68V65.7812H316.059V64.8477H313.766V63.3359H316.277V62.3633H312.586V68H313.766ZM320.711 67.0234H318.156V65.6016H320.566V64.6953H318.156V63.3359H320.711V62.3633H316.977V68H320.711V67.0234ZM322.742 65.9375H323.688L324.738 68H326.074L324.887 65.7617C325.535 65.5078 325.91 64.8828 325.91 64.1602C325.91 63.0469 325.168 62.3633 323.871 62.3633H321.562V68H322.742V65.9375ZM322.742 63.2852H323.746C324.332 63.2852 324.699 63.6367 324.699 64.1836C324.699 64.7422 324.352 65.082 323.758 65.082H322.742V63.2852ZM327.816 68V64.3086H327.852L330.488 68H331.465V62.3633H330.336V66.0352H330.305L327.672 62.3633H326.688V68H327.816ZM336.141 67.0234H333.586V65.6016H335.996V64.6953H333.586V63.3359H336.141V62.3633H332.406V68H336.141V67.0234ZM338.121 68V64.3086H338.156L340.793 68H341.77V62.3633H340.641V66.0352H340.609L337.977 62.3633H336.992V68H338.121Z" fill="#FF5A5F"/>
<path d="M67.4023 121.438H67.4902L70.2324 131H72.0869L75.5146 118.317H73.4668L71.1201 128.249H71.0498L68.3604 118.317H66.5322L63.8516 128.249H63.7812L61.4346 118.317H59.3867L62.8057 131H64.6689L67.4023 121.438ZM78.3447 131.158C79.5576 131.158 80.7266 130.508 81.2627 129.479H81.3066V131H83.126V124.628C83.126 122.773 81.6934 121.587 79.4521 121.587C77.167 121.587 75.7432 122.817 75.6377 124.487H77.4307C77.5977 123.661 78.2832 123.134 79.3818 123.134C80.542 123.134 81.2363 123.749 81.2363 124.777V125.489L78.7051 125.639C76.5078 125.762 75.2686 126.755 75.2686 128.372C75.2686 130.033 76.5342 131.158 78.3447 131.158ZM78.8721 129.655C77.8525 129.655 77.1846 129.128 77.1846 128.319C77.1846 127.528 77.8262 127.027 78.96 126.948L81.2363 126.808V127.537C81.2363 128.741 80.1992 129.655 78.8721 129.655ZM84.8047 124.373C84.8047 125.718 85.6748 126.562 87.4326 126.966L88.9355 127.317C89.9463 127.546 90.2891 127.897 90.2891 128.495C90.2891 129.251 89.5859 129.726 88.4434 129.726C87.2832 129.726 86.624 129.251 86.4482 128.284H84.5674C84.7432 130.042 86.1318 131.176 88.4434 131.176C90.623 131.176 92.1963 130.016 92.1963 128.328C92.1963 126.992 91.4756 126.254 89.5859 125.814L88.083 125.472C87.0811 125.243 86.6592 124.848 86.6592 124.268C86.6592 123.529 87.3447 123.028 88.373 123.028C89.4365 123.028 90.0957 123.591 90.2012 124.487H91.9854C91.9238 122.782 90.5264 121.587 88.373 121.587C86.2461 121.587 84.8047 122.721 84.8047 124.373ZM93.5059 124.373C93.5059 125.718 94.376 126.562 96.1338 126.966L97.6367 127.317C98.6475 127.546 98.9902 127.897 98.9902 128.495C98.9902 129.251 98.2871 129.726 97.1445 129.726C95.9844 129.726 95.3252 129.251 95.1494 128.284H93.2686C93.4443 130.042 94.833 131.176 97.1445 131.176C99.3242 131.176 100.897 130.016 100.897 128.328C100.897 126.992 100.177 126.254 98.2871 125.814L96.7842 125.472C95.7822 125.243 95.3604 124.848 95.3604 124.268C95.3604 123.529 96.0459 123.028 97.0742 123.028C98.1377 123.028 98.7969 123.591 98.9023 124.487H100.687C100.625 122.782 99.2275 121.587 97.0742 121.587C94.9473 121.587 93.5059 122.721 93.5059 124.373ZM108.5 128.284C108.245 129.093 107.445 129.638 106.364 129.638C104.844 129.638 103.877 128.574 103.877 126.966V126.852H110.407V126.201C110.407 123.397 108.808 121.587 106.241 121.587C103.631 121.587 101.961 123.521 101.961 126.421C101.961 129.339 103.604 131.176 106.32 131.176C108.438 131.176 110.038 129.972 110.302 128.284H108.5ZM106.241 123.116C107.568 123.116 108.465 124.109 108.509 125.524H103.886C103.982 124.127 104.914 123.116 106.241 123.116ZM111.884 131H113.782V125.463C113.782 124.153 114.538 123.336 115.76 123.336C116.129 123.336 116.463 123.38 116.612 123.441V121.675C116.472 121.648 116.234 121.604 115.962 121.604C114.872 121.604 114.046 122.246 113.738 123.327H113.694V121.754H111.884V131ZM122 119.565V121.754H120.655V123.257H122V128.565C122 130.35 122.729 131.062 124.602 131.062C125.023 131.062 125.445 131.026 125.656 130.974V129.471C125.533 129.497 125.226 129.515 125.032 129.515C124.259 129.515 123.907 129.154 123.907 128.354V123.257H125.665V121.754H123.907V119.565H122ZM127.229 131H129.128V125.463C129.128 124.153 129.884 123.336 131.105 123.336C131.475 123.336 131.809 123.38 131.958 123.441V121.675C131.817 121.648 131.58 121.604 131.308 121.604C130.218 121.604 129.392 122.246 129.084 123.327H129.04V121.754H127.229V131ZM134.146 120.26C134.753 120.26 135.236 119.768 135.236 119.17C135.236 118.563 134.753 118.08 134.146 118.08C133.54 118.08 133.048 118.563 133.048 119.17C133.048 119.768 133.54 120.26 134.146 120.26ZM133.197 131H135.096V121.754H133.197V131ZM137.038 131H138.937V125.612C138.937 124.18 139.798 123.23 141.134 123.23C142.452 123.23 143.103 123.995 143.103 125.384V131H145.01V125.015C145.01 122.896 143.841 121.596 141.802 121.596C140.378 121.596 139.394 122.246 138.893 123.301H138.849V121.754H137.038V131ZM148.833 125.718H148.815V118.317H146.917V131H148.815V127.678L149.606 126.896L152.744 131H154.95L150.969 125.735L154.801 121.754H152.568L148.833 125.718ZM161.621 128.284C161.366 129.093 160.566 129.638 159.485 129.638C157.965 129.638 156.998 128.574 156.998 126.966V126.852H163.528V126.201C163.528 123.397 161.929 121.587 159.362 121.587C156.752 121.587 155.082 123.521 155.082 126.421C155.082 129.339 156.726 131.176 159.441 131.176C161.56 131.176 163.159 129.972 163.423 128.284H161.621ZM159.362 123.116C160.689 123.116 161.586 124.109 161.63 125.524H157.007C157.104 124.127 158.035 123.116 159.362 123.116ZM165.005 131H166.903V125.612C166.903 124.18 167.765 123.23 169.101 123.23C170.419 123.23 171.069 123.995 171.069 125.384V131H172.977V125.015C172.977 122.896 171.808 121.596 169.769 121.596C168.345 121.596 167.36 122.246 166.859 123.301H166.815V121.754H165.005V131Z" fill="black"/>
<path d="M66.3516 141.055H66.4297L69.0312 150H70.3594L73.4297 138.727H71.9609L69.7031 147.93H69.6406L67.1016 138.727H65.6797L63.1406 147.93H63.0781L60.8203 138.727H59.3516L62.4219 150H63.75L66.3516 141.055ZM79.1953 147.672C78.9688 148.438 78.2109 148.961 77.1797 148.961C75.7188 148.961 74.8047 147.938 74.8047 146.383V146.305H80.6328V145.789C80.6328 143.328 79.2812 141.734 77.0859 141.734C74.8438 141.734 73.4062 143.445 73.4062 145.969C73.4062 148.523 74.8203 150.141 77.1484 150.141C78.9219 150.141 80.2969 149.094 80.5312 147.672H79.1953ZM77.0625 142.914C78.3438 142.914 79.1953 143.883 79.2266 145.242H74.8125C74.8984 143.891 75.7891 142.914 77.0625 142.914ZM82.0078 150H83.3672V145.219C83.3672 143.844 84.2031 142.938 85.4844 142.938C86.7344 142.938 87.3516 143.656 87.3516 144.969V150H88.7109V144.727C88.7109 142.883 87.6797 141.734 85.8984 141.734C84.6406 141.734 83.7734 142.297 83.3203 143.172H83.2891V141.875H82.0078V150ZM90.4453 150H91.8047V145.219C91.8047 143.844 92.6406 142.938 93.9219 142.938C95.1719 142.938 95.7891 143.656 95.7891 144.969V150H97.1484V144.727C97.1484 142.883 96.1172 141.734 94.3359 141.734C93.0781 141.734 92.2109 142.297 91.7578 143.172H91.7266V141.875H90.4453V150ZM105.242 150.141C106.414 150.141 107.344 149.562 107.867 148.625H107.891V150H109.188V138.727H107.828V143.195H107.797C107.312 142.305 106.375 141.734 105.211 141.734C103.164 141.734 101.766 143.391 101.766 145.938C101.766 148.484 103.172 150.141 105.242 150.141ZM105.5 142.93C106.898 142.93 107.836 144.125 107.836 145.938C107.836 147.758 106.898 148.945 105.5 148.945C104.062 148.945 103.156 147.781 103.156 145.938C103.156 144.102 104.062 142.93 105.5 142.93ZM117.695 141.875H116.336V146.648C116.336 148.031 115.539 148.938 114.219 148.938C112.961 148.938 112.344 148.227 112.344 146.906V141.875H110.984V147.148C110.984 148.992 112.023 150.141 113.797 150.141C115.047 150.141 115.891 149.617 116.375 148.68H116.406V150H117.695V141.875ZM122.953 138.727V150H126.742C130.094 150 132.062 147.914 132.062 144.359C132.062 140.812 130.086 138.727 126.742 138.727H122.953ZM124.359 139.992H126.648C129.211 139.992 130.625 141.555 130.625 144.375C130.625 147.172 129.203 148.734 126.648 148.734H124.359V139.992ZM140.273 141.875H138.914V146.648C138.914 148.031 138.117 148.938 136.797 148.938C135.539 148.938 134.922 148.227 134.922 146.906V141.875H133.562V147.148C133.562 148.992 134.602 150.141 136.375 150.141C137.625 150.141 138.469 149.617 138.953 148.68H138.984V150H140.273V141.875ZM142.039 150H143.398V144.938C143.398 143.789 144.086 143.031 145.141 143.031C145.469 143.031 145.758 143.07 145.867 143.109V141.789C145.758 141.773 145.555 141.734 145.32 141.734C144.367 141.734 143.617 142.305 143.352 143.203H143.32V141.875H142.039V150ZM146.836 144.117C146.836 145.289 147.578 146 149.109 146.367L150.398 146.68C151.328 146.906 151.648 147.242 151.648 147.828C151.648 148.562 150.969 149.031 149.867 149.031C148.766 149.031 148.141 148.586 147.977 147.656H146.617C146.773 149.18 147.961 150.141 149.867 150.141C151.68 150.141 153.016 149.141 153.016 147.727C153.016 146.562 152.422 145.922 150.781 145.523L149.492 145.211C148.586 144.992 148.172 144.609 148.172 144.047C148.172 143.336 148.828 142.844 149.82 142.844C150.82 142.844 151.445 143.367 151.547 144.219H152.844C152.789 142.781 151.602 141.734 149.82 141.734C148.062 141.734 146.836 142.727 146.836 144.117ZM154.867 139.914V141.875H153.656V142.992H154.867V147.891C154.867 149.453 155.445 150.062 156.938 150.062C157.258 150.062 157.633 150.039 157.797 150V148.859C157.703 148.875 157.391 148.898 157.234 148.898C156.539 148.898 156.227 148.562 156.227 147.82V142.992H157.805V141.875H156.227V139.914H154.867ZM162.609 150H163.969V145.266C163.969 143.859 164.805 142.938 166.156 142.938C167.43 142.938 168.078 143.711 168.078 145V150H169.438V144.75C169.438 142.938 168.359 141.734 166.578 141.734C165.344 141.734 164.453 142.266 164 143.172H163.969V138.727H162.609V150ZM173.539 150.141C174.633 150.141 175.664 149.531 176.148 148.602H176.18V150H177.469V144.383C177.469 142.766 176.266 141.734 174.359 141.734C172.438 141.734 171.234 142.812 171.141 144.219H172.453C172.625 143.422 173.281 142.93 174.328 142.93C175.453 142.93 176.109 143.523 176.109 144.516V145.195L173.781 145.328C171.906 145.438 170.836 146.312 170.836 147.703C170.836 149.164 171.922 150.141 173.539 150.141ZM173.844 148.984C172.867 148.984 172.219 148.477 172.219 147.703C172.219 146.938 172.844 146.453 173.938 146.383L176.109 146.25V146.914C176.109 148.086 175.125 148.984 173.844 148.984ZM179.055 144.117C179.055 145.289 179.797 146 181.328 146.367L182.617 146.68C183.547 146.906 183.867 147.242 183.867 147.828C183.867 148.562 183.188 149.031 182.086 149.031C180.984 149.031 180.359 148.586 180.195 147.656H178.836C178.992 149.18 180.18 150.141 182.086 150.141C183.898 150.141 185.234 149.141 185.234 147.727C185.234 146.562 184.641 145.922 183 145.523L181.711 145.211C180.805 144.992 180.391 144.609 180.391 144.047C180.391 143.336 181.047 142.844 182.039 142.844C183.039 142.844 183.664 143.367 183.766 144.219H185.062C185.008 142.781 183.82 141.734 182.039 141.734C180.281 141.734 179.055 142.727 179.055 144.117ZM187.086 139.914V141.875H185.875V142.992H187.086V147.891C187.086 149.453 187.664 150.062 189.156 150.062C189.477 150.062 189.852 150.039 190.016 150V148.859C189.922 148.875 189.609 148.898 189.453 148.898C188.758 148.898 188.445 148.562 188.445 147.82V142.992H190.023V141.875H188.445V139.914H187.086ZM192.406 152.242L193.477 148.266H192.031L191.273 152.242H192.406ZM202.078 150.141C204.156 150.141 205.531 148.492 205.531 145.938C205.531 143.391 204.148 141.734 202.102 141.734C200.953 141.734 200.008 142.305 199.5 143.234H199.469V138.727H198.109V150H199.406V148.625H199.438C199.961 149.562 200.891 150.141 202.078 150.141ZM201.812 142.93C203.25 142.93 204.141 144.094 204.141 145.938C204.141 147.797 203.25 148.945 201.812 148.945C200.438 148.945 199.461 147.75 199.461 145.938C199.461 144.133 200.438 142.93 201.812 142.93ZM207.664 140.43C208.141 140.43 208.516 140.047 208.516 139.578C208.516 139.102 208.141 138.727 207.664 138.727C207.195 138.727 206.812 139.102 206.812 139.578C206.812 140.047 207.195 140.43 207.664 140.43ZM206.984 150H208.344V141.875H206.984V150ZM210.039 144.117C210.039 145.289 210.781 146 212.312 146.367L213.602 146.68C214.531 146.906 214.852 147.242 214.852 147.828C214.852 148.562 214.172 149.031 213.07 149.031C211.969 149.031 211.344 148.586 211.18 147.656H209.82C209.977 149.18 211.164 150.141 213.07 150.141C214.883 150.141 216.219 149.141 216.219 147.727C216.219 146.562 215.625 145.922 213.984 145.523L212.695 145.211C211.789 144.992 211.375 144.609 211.375 144.047C211.375 143.336 212.031 142.844 213.023 142.844C214.023 142.844 214.648 143.367 214.75 144.219H216.047C215.992 142.781 214.805 141.734 213.023 141.734C211.266 141.734 210.039 142.727 210.039 144.117ZM218.07 139.914V141.875H216.859V142.992H218.07V147.891C218.07 149.453 218.648 150.062 220.141 150.062C220.461 150.062 220.836 150.039 221 150V148.859C220.906 148.875 220.594 148.898 220.438 148.898C219.742 148.898 219.43 148.562 219.43 147.82V142.992H221.008V141.875H219.43V139.914H218.07ZM228.82 150.141C229.992 150.141 230.922 149.562 231.445 148.625H231.469V150H232.766V138.727H231.406V143.195H231.375C230.891 142.305 229.953 141.734 228.789 141.734C226.742 141.734 225.344 143.391 225.344 145.938C225.344 148.484 226.75 150.141 228.82 150.141ZM229.078 142.93C230.477 142.93 231.414 144.125 231.414 145.938C231.414 147.758 230.477 148.945 229.078 148.945C227.641 148.945 226.734 147.781 226.734 145.938C226.734 144.102 227.641 142.93 229.078 142.93ZM241.273 141.875H239.914V146.648C239.914 148.031 239.117 148.938 237.797 148.938C236.539 148.938 235.922 148.227 235.922 146.906V141.875H234.562V147.148C234.562 148.992 235.602 150.141 237.375 150.141C238.625 150.141 239.469 149.617 239.953 148.68H239.984V150H241.273V141.875ZM63.9219 169.141C66 169.141 67.375 167.492 67.375 164.938C67.375 162.391 65.9922 160.734 63.9453 160.734C62.7969 160.734 61.8516 161.305 61.3438 162.234H61.3125V157.727H59.9531V169H61.25V167.625H61.2812C61.8047 168.562 62.7344 169.141 63.9219 169.141ZM63.6562 161.93C65.0938 161.93 65.9844 163.094 65.9844 164.938C65.9844 166.797 65.0938 167.945 63.6562 167.945C62.2812 167.945 61.3047 166.75 61.3047 164.938C61.3047 163.133 62.2812 161.93 63.6562 161.93ZM74.1484 166.672C73.9219 167.438 73.1641 167.961 72.1328 167.961C70.6719 167.961 69.7578 166.938 69.7578 165.383V165.305H75.5859V164.789C75.5859 162.328 74.2344 160.734 72.0391 160.734C69.7969 160.734 68.3594 162.445 68.3594 164.969C68.3594 167.523 69.7734 169.141 72.1016 169.141C73.875 169.141 75.25 168.094 75.4844 166.672H74.1484ZM72.0156 161.914C73.2969 161.914 74.1484 162.883 74.1797 164.242H69.7656C69.8516 162.891 70.7422 161.914 72.0156 161.914ZM76.9609 169H78.3203V163.938C78.3203 162.789 79.0078 162.031 80.0625 162.031C80.3906 162.031 80.6797 162.07 80.7891 162.109V160.789C80.6797 160.773 80.4766 160.734 80.2422 160.734C79.2891 160.734 78.5391 161.305 78.2734 162.203H78.2422V160.875H76.9609V169ZM86.8984 166.672C86.6719 167.438 85.9141 167.961 84.8828 167.961C83.4219 167.961 82.5078 166.938 82.5078 165.383V165.305H88.3359V164.789C88.3359 162.328 86.9844 160.734 84.7891 160.734C82.5469 160.734 81.1094 162.445 81.1094 164.969C81.1094 167.523 82.5234 169.141 84.8516 169.141C86.625 169.141 88 168.094 88.2344 166.672H86.8984ZM84.7656 161.914C86.0469 161.914 86.8984 162.883 86.9297 164.242H82.5156C82.6016 162.891 83.4922 161.914 84.7656 161.914ZM90.4609 159.43C90.9375 159.43 91.3125 159.047 91.3125 158.578C91.3125 158.102 90.9375 157.727 90.4609 157.727C89.9922 157.727 89.6094 158.102 89.6094 158.578C89.6094 159.047 89.9922 159.43 90.4609 159.43ZM89.7812 169H91.1406V160.875H89.7812V169ZM93.4141 158.914V160.875H92.2031V161.992H93.4141V166.891C93.4141 168.453 93.9922 169.062 95.4844 169.062C95.8047 169.062 96.1797 169.039 96.3438 169V167.859C96.25 167.875 95.9375 167.898 95.7812 167.898C95.0859 167.898 94.7734 167.562 94.7734 166.82V161.992H96.3516V160.875H94.7734V158.914H93.4141ZM97.6641 163.117C97.6641 164.289 98.4062 165 99.9375 165.367L101.227 165.68C102.156 165.906 102.477 166.242 102.477 166.828C102.477 167.562 101.797 168.031 100.695 168.031C99.5938 168.031 98.9688 167.586 98.8047 166.656H97.4453C97.6016 168.18 98.7891 169.141 100.695 169.141C102.508 169.141 103.844 168.141 103.844 166.727C103.844 165.562 103.25 164.922 101.609 164.523L100.32 164.211C99.4141 163.992 99 163.609 99 163.047C99 162.336 99.6562 161.844 100.648 161.844C101.648 161.844 102.273 162.367 102.375 163.219H103.672C103.617 161.781 102.43 160.734 100.648 160.734C98.8906 160.734 97.6641 161.727 97.6641 163.117ZM111.617 169.141C112.789 169.141 113.719 168.562 114.242 167.625H114.266V169H115.562V157.727H114.203V162.195H114.172C113.688 161.305 112.75 160.734 111.586 160.734C109.539 160.734 108.141 162.391 108.141 164.938C108.141 167.484 109.547 169.141 111.617 169.141ZM111.875 161.93C113.273 161.93 114.211 163.125 114.211 164.938C114.211 166.758 113.273 167.945 111.875 167.945C110.438 167.945 109.531 166.781 109.531 164.938C109.531 163.102 110.438 161.93 111.875 161.93ZM122.789 166.672C122.562 167.438 121.805 167.961 120.773 167.961C119.312 167.961 118.398 166.938 118.398 165.383V165.305H124.227V164.789C124.227 162.328 122.875 160.734 120.68 160.734C118.438 160.734 117 162.445 117 164.969C117 167.523 118.414 169.141 120.742 169.141C122.516 169.141 123.891 168.094 124.125 166.672H122.789ZM120.656 161.914C121.938 161.914 122.789 162.883 122.82 164.242H118.406C118.492 162.891 119.383 161.914 120.656 161.914ZM125.672 169H127.031V164.266C127.031 162.859 127.867 161.938 129.219 161.938C130.492 161.938 131.141 162.711 131.141 164V169H132.5V163.75C132.5 161.938 131.422 160.734 129.641 160.734C128.406 160.734 127.516 161.266 127.062 162.172H127.031V157.727H125.672V169ZM134.906 172.039C136.375 172.039 137.047 171.469 137.742 169.57L140.938 160.875H139.508L137.258 167.641H137.234L134.984 160.875H133.531L136.531 169.008L136.344 169.578C136.031 170.523 135.609 170.891 134.852 170.891C134.68 170.891 134.469 170.883 134.32 170.852V171.992C134.469 172.023 134.742 172.039 134.906 172.039ZM144.852 169.141C146.023 169.141 146.953 168.562 147.477 167.625H147.5V169H148.797V157.727H147.438V162.195H147.406C146.922 161.305 145.984 160.734 144.82 160.734C142.773 160.734 141.375 162.391 141.375 164.938C141.375 167.484 142.781 169.141 144.852 169.141ZM145.109 161.93C146.508 161.93 147.445 163.125 147.445 164.938C147.445 166.758 146.508 167.945 145.109 167.945C143.672 167.945 142.766 166.781 142.766 164.938C142.766 163.102 143.672 161.93 145.109 161.93ZM150.633 169H151.992V163.938C151.992 162.789 152.68 162.031 153.734 162.031C154.062 162.031 154.352 162.07 154.461 162.109V160.789C154.352 160.773 154.148 160.734 153.914 160.734C152.961 160.734 152.211 161.305 151.945 162.203H151.914V160.875H150.633V169ZM156.32 159.43C156.797 159.43 157.172 159.047 157.172 158.578C157.172 158.102 156.797 157.727 156.32 157.727C155.852 157.727 155.469 158.102 155.469 158.578C155.469 159.047 155.852 159.43 156.32 159.43ZM155.641 169H157V160.875H155.641V169ZM164.227 166.672C164 167.438 163.242 167.961 162.211 167.961C160.75 167.961 159.836 166.938 159.836 165.383V165.305H165.664V164.789C165.664 162.328 164.312 160.734 162.117 160.734C159.875 160.734 158.438 162.445 158.438 164.969C158.438 167.523 159.852 169.141 162.18 169.141C163.953 169.141 165.328 168.094 165.562 166.672H164.227ZM162.094 161.914C163.375 161.914 164.227 162.883 164.258 164.242H159.844C159.93 162.891 160.82 161.914 162.094 161.914ZM167.039 169H168.398V163.938C168.398 162.789 169.086 162.031 170.141 162.031C170.469 162.031 170.758 162.07 170.867 162.109V160.789C170.758 160.773 170.555 160.734 170.32 160.734C169.367 160.734 168.617 161.305 168.352 162.203H168.32V160.875H167.039V169ZM172.727 158.914V160.875H171.516V161.992H172.727V166.891C172.727 168.453 173.305 169.062 174.797 169.062C175.117 169.062 175.492 169.039 175.656 169V167.859C175.562 167.875 175.25 167.898 175.094 167.898C174.398 167.898 174.086 167.562 174.086 166.82V161.992H175.664V160.875H174.086V158.914H172.727Z" fill="#5C6166"/>
<path d="M37 131.587L44.5466 139.133C46.0391 140.625 47.0557 142.525 47.4678 144.595C47.88 146.664 47.6691 148.809 46.862 150.759C46.0549 152.708 44.6877 154.374 42.9334 155.547C41.1792 156.719 39.1166 157.345 37.0066 157.345C34.8967 157.345 32.8341 156.719 31.0798 155.547C29.3256 154.374 27.9584 152.708 27.1513 150.759C26.3441 148.809 26.1333 146.664 26.5454 144.595C26.9576 142.525 27.9742 140.625 29.4666 139.133L37 131.587Z" fill="#067AE4"/>
<path d="M301.203 146.023H298.648V144.602H301.059V143.695H298.648V142.336H301.203V141.363H297.469V147H301.203V146.023ZM303.184 147V143.309H303.219L305.855 147H306.832V141.363H305.703V145.035H305.672L303.039 141.363H302.055V147H303.184ZM310.301 147V142.336H311.934V141.363H307.492V142.336H309.121V147H310.301ZM313.766 147V144.781H316.059V143.848H313.766V142.336H316.277V141.363H312.586V147H313.766ZM320.711 146.023H318.156V144.602H320.566V143.695H318.156V142.336H320.711V141.363H316.977V147H320.711V146.023ZM322.742 144.938H323.688L324.738 147H326.074L324.887 144.762C325.535 144.508 325.91 143.883 325.91 143.16C325.91 142.047 325.168 141.363 323.871 141.363H321.562V147H322.742V144.938ZM322.742 142.285H323.746C324.332 142.285 324.699 142.637 324.699 143.184C324.699 143.742 324.352 144.082 323.758 144.082H322.742V142.285ZM327.816 147V143.309H327.852L330.488 147H331.465V141.363H330.336V145.035H330.305L327.672 141.363H326.688V147H327.816ZM336.141 146.023H333.586V144.602H335.996V143.695H333.586V142.336H336.141V141.363H332.406V147H336.141V146.023ZM338.121 147V143.309H338.156L340.793 147H341.77V141.363H340.641V145.035H340.609L337.977 141.363H336.992V147H338.121Z" fill="#FF5A5F"/>
<defs>
<filter id="filter0_d" x="0" y="21" width="371" height="186" filterUnits="userSpaceOnUse" color-interpolation-filters="sRGB">
<feFlood flood-opacity="0" result="BackgroundImageFix"/>
<feColorMatrix in="SourceAlpha" type="matrix" values="0 0 0 0 0 0 0 0 0 0 0 0 0 0 0 0 0 0 127 0"/>
<feOffset dy="4"/>
<feGaussianBlur stdDeviation="4"/>
<feColorMatrix type="matrix" values="0 0 0 0 0 0 0 0 0 0 0 0 0 0 0 0 0 0 0.08 0"/>
<feBlend mode="normal" in2="BackgroundImageFix" result="effect1_dropShadow"/>
<feBlend mode="normal" in="SourceGraphic" in2="effect1_dropShadow" result="shape"/>
</filter>
</defs>
</svg>
