<svg width="371" height="247" viewBox="0 0 371 247" fill="none" xmlns="http://www.w3.org/2000/svg">
<path d="M96.1816 11.6738H91.4512V8.61133H95.9287V7.33984H91.4512V4.45508H96.1816V3.13574H89.9199V13H96.1816V11.6738ZM97.5762 13H99.0527V8.55664C99.0527 7.63379 99.6748 6.9502 100.55 6.9502C101.384 6.9502 101.91 7.47656 101.91 8.30371V13H103.359V8.50879C103.359 7.59961 103.968 6.9502 104.843 6.9502C105.718 6.9502 106.217 7.4834 106.217 8.41309V13H107.7V8.05762C107.7 6.62891 106.771 5.68555 105.349 5.68555C104.323 5.68555 103.476 6.21875 103.106 7.09375H103.072C102.785 6.19824 102.061 5.68555 101.062 5.68555C100.092 5.68555 99.3398 6.21875 99.0186 7.01855H98.9844V5.80859H97.5762V13ZM112.875 5.69238C111.836 5.69238 111.009 6.21875 110.585 7.0459H110.558V5.80859H109.129V15.3789H110.605V11.8174H110.64C111.05 12.6172 111.87 13.123 112.902 13.123C114.707 13.123 115.903 11.6807 115.903 9.4043C115.903 7.12793 114.7 5.69238 112.875 5.69238ZM112.485 11.8721C111.351 11.8721 110.599 10.9014 110.599 9.4043C110.599 7.9209 111.357 6.93652 112.485 6.93652C113.654 6.93652 114.386 7.90039 114.386 9.4043C114.386 10.915 113.654 11.8721 112.485 11.8721ZM117.476 13H118.959V6.97754H120.395V5.82227H118.938V5.14551C118.938 4.50977 119.239 4.18848 119.882 4.18848C120.08 4.18848 120.278 4.20215 120.422 4.22949V3.13574C120.23 3.10156 119.896 3.06738 119.595 3.06738C118.132 3.06738 117.476 3.72363 117.476 5.11816V5.82227H116.484V6.97754H117.476V13ZM124.346 13.1367C126.403 13.1367 127.757 11.7217 127.757 9.4043C127.757 7.09375 126.396 5.67871 124.346 5.67871C122.295 5.67871 120.935 7.09375 120.935 9.4043C120.935 11.7217 122.288 13.1367 124.346 13.1367ZM124.346 11.9199C123.19 11.9199 122.438 11.0039 122.438 9.4043C122.438 7.81152 123.19 6.89551 124.346 6.89551C125.501 6.89551 126.253 7.81152 126.253 9.4043C126.253 11.0039 125.508 11.9199 124.346 11.9199ZM128.953 13H130.43V8.84375C130.43 7.70898 131.1 6.95703 132.193 6.95703C133.232 6.95703 133.766 7.59277 133.766 8.65234V13H135.249V8.36523C135.249 6.73828 134.306 5.68555 132.727 5.68555C131.633 5.68555 130.847 6.1709 130.45 7.01172H130.416V3.13574H128.953V13ZM136.732 13H138.209V3.13574H136.732V13ZM144.491 10.8877C144.293 11.5166 143.671 11.9404 142.83 11.9404C141.647 11.9404 140.896 11.1133 140.896 9.8623V9.77344H145.975V9.26758C145.975 7.08691 144.73 5.67871 142.734 5.67871C140.704 5.67871 139.405 7.18262 139.405 9.43848C139.405 11.708 140.684 13.1367 142.796 13.1367C144.443 13.1367 145.688 12.2002 145.893 10.8877H144.491ZM142.734 6.86816C143.767 6.86816 144.464 7.64062 144.498 8.74121H140.902C140.978 7.6543 141.702 6.86816 142.734 6.86816ZM147.123 13H148.6V8.80957C148.6 7.69531 149.27 6.95703 150.309 6.95703C151.334 6.95703 151.84 7.55176 151.84 8.63184V13H153.323V8.34473C153.323 6.69727 152.414 5.68555 150.828 5.68555C149.721 5.68555 148.955 6.19141 148.565 7.01172H148.531V5.80859H147.123V13ZM159.517 10.8877C159.318 11.5166 158.696 11.9404 157.855 11.9404C156.673 11.9404 155.921 11.1133 155.921 9.8623V9.77344H161V9.26758C161 7.08691 159.756 5.67871 157.76 5.67871C155.729 5.67871 154.431 7.18262 154.431 9.43848C154.431 11.708 155.709 13.1367 157.821 13.1367C159.469 13.1367 160.713 12.2002 160.918 10.8877H159.517ZM157.76 6.86816C158.792 6.86816 159.489 7.64062 159.523 8.74121H155.928C156.003 7.6543 156.728 6.86816 157.76 6.86816ZM173.298 13V3.13574H171.767V7.30566H166.701V3.13574H165.17V13H166.701V8.63184H171.767V13H173.298ZM179.696 10.8877C179.498 11.5166 178.876 11.9404 178.035 11.9404C176.853 11.9404 176.101 11.1133 176.101 9.8623V9.77344H181.18V9.26758C181.18 7.08691 179.936 5.67871 177.939 5.67871C175.909 5.67871 174.61 7.18262 174.61 9.43848C174.61 11.708 175.889 13.1367 178.001 13.1367C179.648 13.1367 180.893 12.2002 181.098 10.8877H179.696ZM177.939 6.86816C178.972 6.86816 179.669 7.64062 179.703 8.74121H176.107C176.183 7.6543 176.907 6.86816 177.939 6.86816ZM182.328 13H183.805V8.69336C183.805 7.6748 184.393 7.03906 185.343 7.03906C185.63 7.03906 185.89 7.07324 186.006 7.12109V5.74707C185.896 5.72656 185.712 5.69238 185.5 5.69238C184.652 5.69238 184.01 6.19141 183.771 7.03223H183.736V5.80859H182.328V13ZM188.877 13.123C189.82 13.123 190.729 12.6172 191.146 11.8174H191.181V13H192.596V8.04395C192.596 6.60156 191.481 5.67871 189.738 5.67871C187.961 5.67871 186.854 6.63574 186.771 7.93457H188.166C188.296 7.29199 188.829 6.88184 189.684 6.88184C190.586 6.88184 191.126 7.36035 191.126 8.16016V8.71387L189.157 8.83008C187.448 8.92578 186.484 9.69824 186.484 10.9561C186.484 12.248 187.469 13.123 188.877 13.123ZM189.287 11.9541C188.494 11.9541 187.975 11.5439 187.975 10.915C187.975 10.2998 188.474 9.91016 189.355 9.84863L191.126 9.73926V10.3066C191.126 11.2432 190.319 11.9541 189.287 11.9541ZM200.197 5.80859H198.721V9.99902C198.721 11.1201 198.078 11.8584 197.012 11.8584C195.993 11.8584 195.474 11.2705 195.474 10.1768V5.80859H193.997V10.4639C193.997 12.1113 194.954 13.1299 196.52 13.1299C197.62 13.1299 198.352 12.6445 198.748 11.7832H198.782V13H200.197V5.80859ZM201.53 7.8457C201.53 8.8916 202.207 9.54785 203.574 9.8623L204.743 10.1357C205.529 10.3135 205.796 10.5869 205.796 11.0518C205.796 11.6396 205.249 12.0088 204.36 12.0088C203.458 12.0088 202.945 11.6396 202.809 10.8877H201.346C201.482 12.2549 202.562 13.1367 204.36 13.1367C206.056 13.1367 207.279 12.2344 207.279 10.9219C207.279 9.88281 206.719 9.30859 205.249 8.9668L204.08 8.7002C203.301 8.52246 202.973 8.21484 202.973 7.76367C202.973 7.18945 203.506 6.7998 204.306 6.7998C205.133 6.7998 205.646 7.2373 205.728 7.93457H207.115C207.067 6.6084 205.98 5.67871 204.306 5.67871C202.651 5.67871 201.53 6.56055 201.53 7.8457ZM208.858 13H210.342V6.97754H211.777V5.82227H210.321V5.14551C210.321 4.50977 210.622 4.18848 211.265 4.18848C211.463 4.18848 211.661 4.20215 211.805 4.22949V3.13574C211.613 3.10156 211.278 3.06738 210.978 3.06738C209.515 3.06738 208.858 3.72363 208.858 5.11816V5.82227H207.867V6.97754H208.858V13ZM215.729 13.1367C217.786 13.1367 219.14 11.7217 219.14 9.4043C219.14 7.09375 217.779 5.67871 215.729 5.67871C213.678 5.67871 212.317 7.09375 212.317 9.4043C212.317 11.7217 213.671 13.1367 215.729 13.1367ZM215.729 11.9199C214.573 11.9199 213.821 11.0039 213.821 9.4043C213.821 7.81152 214.573 6.89551 215.729 6.89551C216.884 6.89551 217.636 7.81152 217.636 9.4043C217.636 11.0039 216.891 11.9199 215.729 11.9199ZM220.281 13H221.758V8.69336C221.758 7.6748 222.346 7.03906 223.296 7.03906C223.583 7.03906 223.843 7.07324 223.959 7.12109V5.74707C223.85 5.72656 223.665 5.69238 223.453 5.69238C222.605 5.69238 221.963 6.19141 221.724 7.03223H221.689V5.80859H220.281V13ZM227.261 13.123C228.307 13.123 229.127 12.5967 229.551 11.7764H229.578V13H231.014V3.13574H229.53V7.00488H229.503C229.1 6.21191 228.279 5.69238 227.247 5.69238C225.442 5.69238 224.239 7.13477 224.239 9.4043C224.239 11.6738 225.442 13.123 227.261 13.123ZM227.65 6.93652C228.785 6.93652 229.544 7.91406 229.544 9.4043C229.544 10.9082 228.785 11.8721 227.65 11.8721C226.481 11.8721 225.75 10.9219 225.75 9.4043C225.75 7.89355 226.481 6.93652 227.65 6.93652ZM237.296 10.8877C237.098 11.5166 236.476 11.9404 235.635 11.9404C234.452 11.9404 233.7 11.1133 233.7 9.8623V9.77344H238.779V9.26758C238.779 7.08691 237.535 5.67871 235.539 5.67871C233.509 5.67871 232.21 7.18262 232.21 9.43848C232.21 11.708 233.488 13.1367 235.601 13.1367C237.248 13.1367 238.492 12.2002 238.697 10.8877H237.296ZM235.539 6.86816C236.571 6.86816 237.269 7.64062 237.303 8.74121H233.707C233.782 7.6543 234.507 6.86816 235.539 6.86816ZM239.928 13H241.404V8.69336C241.404 7.6748 241.992 7.03906 242.942 7.03906C243.229 7.03906 243.489 7.07324 243.605 7.12109V5.74707C243.496 5.72656 243.312 5.69238 243.1 5.69238C242.252 5.69238 241.609 6.19141 241.37 7.03223H241.336V5.80859H239.928V13ZM250.688 5.80859H249.211V9.99902C249.211 11.1201 248.568 11.8584 247.502 11.8584C246.483 11.8584 245.964 11.2705 245.964 10.1768V5.80859H244.487V10.4639C244.487 12.1113 245.444 13.1299 247.01 13.1299C248.11 13.1299 248.842 12.6445 249.238 11.7832H249.272V13H250.688V5.80859ZM252.15 13H253.627V8.80957C253.627 7.69531 254.297 6.95703 255.336 6.95703C256.361 6.95703 256.867 7.55176 256.867 8.63184V13H258.351V8.34473C258.351 6.69727 257.441 5.68555 255.855 5.68555C254.748 5.68555 253.982 6.19141 253.593 7.01172H253.559V5.80859H252.15V13ZM262.855 15.707C264.906 15.707 266.232 14.5859 266.232 12.8701V5.80859H264.797V7.03906H264.77C264.332 6.20508 263.498 5.69238 262.479 5.69238C260.634 5.69238 259.458 7.11426 259.458 9.37695C259.458 11.6191 260.641 13.0273 262.445 13.0273C263.471 13.0273 264.318 12.5146 264.722 11.7354H264.749V12.918C264.749 13.9023 264.065 14.5586 262.91 14.5586C262.069 14.5586 261.413 14.1621 261.201 13.5605H259.718C259.902 14.8047 261.16 15.707 262.855 15.707ZM262.842 11.8037C261.707 11.8037 260.969 10.8877 260.969 9.38379C260.969 7.88672 261.707 6.93652 262.842 6.93652C263.997 6.93652 264.756 7.90723 264.756 9.38379C264.756 10.8672 263.997 11.8037 262.842 11.8037ZM272.46 10.8877C272.262 11.5166 271.64 11.9404 270.799 11.9404C269.616 11.9404 268.864 11.1133 268.864 9.8623V9.77344H273.943V9.26758C273.943 7.08691 272.699 5.67871 270.703 5.67871C268.673 5.67871 267.374 7.18262 267.374 9.43848C267.374 11.708 268.652 13.1367 270.765 13.1367C272.412 13.1367 273.656 12.2002 273.861 10.8877H272.46ZM270.703 6.86816C271.735 6.86816 272.433 7.64062 272.467 8.74121H268.871C268.946 7.6543 269.671 6.86816 270.703 6.86816ZM275.092 13H276.568V8.80957C276.568 7.69531 277.238 6.95703 278.277 6.95703C279.303 6.95703 279.809 7.55176 279.809 8.63184V13H281.292V8.34473C281.292 6.69727 280.383 5.68555 278.797 5.68555C277.689 5.68555 276.924 6.19141 276.534 7.01172H276.5V5.80859H275.092V13Z" fill="black"/>
<g filter="url(#filter0_d)">
<rect x="8" y="25" width="355" height="210" rx="12" fill="white"/>
</g>
<path d="M59.1377 130V125.772L60.4385 124.287L64.833 130H67.2764L61.8271 122.934L66.8545 117.317H64.5166L59.2168 123.355H59.1377V117.317H57.1689V130H59.1377ZM76.1885 120.754H74.29V126.142C74.29 127.583 73.4639 128.532 72.0928 128.532C70.7832 128.532 70.1152 127.776 70.1152 126.37V120.754H68.2168V126.739C68.2168 128.857 69.4473 130.167 71.46 130.167C72.875 130.167 73.8154 129.543 74.3252 128.436H74.3691V130H76.1885V120.754ZM78.0693 130H79.9678V124.463C79.9678 123.153 80.7236 122.336 81.9453 122.336C82.3145 122.336 82.6484 122.38 82.7979 122.441V120.675C82.6572 120.648 82.4199 120.604 82.1475 120.604C81.0576 120.604 80.2314 121.246 79.9238 122.327H79.8799V120.754H78.0693V130ZM83.7822 130H90.9453V128.488H86.085V128.453L90.8926 122.055V120.754H83.8174V122.266H88.7129V122.301L83.7822 128.778V130ZM98.4688 127.284C98.2139 128.093 97.4141 128.638 96.333 128.638C94.8125 128.638 93.8457 127.574 93.8457 125.966V125.852H100.376V125.201C100.376 122.397 98.7764 120.587 96.21 120.587C93.5996 120.587 91.9297 122.521 91.9297 125.421C91.9297 128.339 93.5732 130.176 96.2891 130.176C98.4072 130.176 100.007 128.972 100.271 127.284H98.4688ZM96.21 122.116C97.5371 122.116 98.4336 123.109 98.4775 124.524H93.8545C93.9512 123.127 94.8828 122.116 96.21 122.116ZM101.686 123.373C101.686 124.718 102.556 125.562 104.313 125.966L105.816 126.317C106.827 126.546 107.17 126.897 107.17 127.495C107.17 128.251 106.467 128.726 105.324 128.726C104.164 128.726 103.505 128.251 103.329 127.284H101.448C101.624 129.042 103.013 130.176 105.324 130.176C107.504 130.176 109.077 129.016 109.077 127.328C109.077 125.992 108.356 125.254 106.467 124.814L104.964 124.472C103.962 124.243 103.54 123.848 103.54 123.268C103.54 122.529 104.226 122.028 105.254 122.028C106.317 122.028 106.977 122.591 107.082 123.487H108.866C108.805 121.782 107.407 120.587 105.254 120.587C103.127 120.587 101.686 121.721 101.686 123.373ZM116.354 130V120.657H116.434L123.008 130H124.783V117.317H122.867V126.669H122.797L116.223 117.317H114.438V130H116.354ZM127.912 119.26C128.519 119.26 129.002 118.768 129.002 118.17C129.002 117.563 128.519 117.08 127.912 117.08C127.306 117.08 126.813 117.563 126.813 118.17C126.813 118.768 127.306 119.26 127.912 119.26ZM126.963 130H128.861V120.754H126.963V130ZM138.74 123.936C138.573 122.116 137.123 120.587 134.741 120.587C132.113 120.587 130.391 122.441 130.391 125.377C130.391 128.365 132.113 130.176 134.759 130.176C136.982 130.176 138.556 128.84 138.758 126.871H136.93C136.71 127.943 135.945 128.585 134.776 128.585C133.3 128.585 132.324 127.407 132.324 125.377C132.324 123.391 133.291 122.169 134.759 122.169C135.998 122.169 136.736 122.951 136.93 123.936H138.74ZM142.089 124.718H142.071V117.317H140.173V130H142.071V126.678L142.862 125.896L146 130H148.206L144.225 124.735L148.057 120.754H145.824L142.089 124.718ZM154.877 127.284C154.622 128.093 153.822 128.638 152.741 128.638C151.221 128.638 150.254 127.574 150.254 125.966V125.852H156.784V125.201C156.784 122.397 155.185 120.587 152.618 120.587C150.008 120.587 148.338 122.521 148.338 125.421C148.338 128.339 149.981 130.176 152.697 130.176C154.815 130.176 156.415 128.972 156.679 127.284H154.877ZM152.618 122.116C153.945 122.116 154.842 123.109 154.886 124.524H150.263C150.359 123.127 151.291 122.116 152.618 122.116ZM158.261 130H160.159V124.463C160.159 123.153 160.915 122.336 162.137 122.336C162.506 122.336 162.84 122.38 162.989 122.441V120.675C162.849 120.648 162.611 120.604 162.339 120.604C161.249 120.604 160.423 121.246 160.115 122.327H160.071V120.754H158.261V130ZM171.699 123.936C171.532 122.116 170.082 120.587 167.7 120.587C165.072 120.587 163.35 122.441 163.35 125.377C163.35 128.365 165.072 130.176 167.718 130.176C169.941 130.176 171.515 128.84 171.717 126.871H169.889C169.669 127.943 168.904 128.585 167.735 128.585C166.259 128.585 165.283 127.407 165.283 125.377C165.283 123.391 166.25 122.169 167.718 122.169C168.957 122.169 169.695 122.951 169.889 123.936H171.699ZM173.132 130H175.03V124.656C175.03 123.197 175.892 122.23 177.298 122.23C178.634 122.23 179.319 123.048 179.319 124.41V130H181.227V124.041C181.227 121.949 180.014 120.596 177.983 120.596C176.577 120.596 175.566 121.22 175.057 122.301H175.013V117.317H173.132V130ZM189.189 127.284C188.935 128.093 188.135 128.638 187.054 128.638C185.533 128.638 184.566 127.574 184.566 125.966V125.852H191.097V125.201C191.097 122.397 189.497 120.587 186.931 120.587C184.32 120.587 182.65 122.521 182.65 125.421C182.65 128.339 184.294 130.176 187.01 130.176C189.128 130.176 190.728 128.972 190.991 127.284H189.189ZM186.931 122.116C188.258 122.116 189.154 123.109 189.198 124.524H184.575C184.672 123.127 185.604 122.116 186.931 122.116ZM192.573 130H194.472V124.612C194.472 123.18 195.333 122.23 196.669 122.23C197.987 122.23 198.638 122.995 198.638 124.384V130H200.545V124.015C200.545 121.896 199.376 120.596 197.337 120.596C195.913 120.596 194.929 121.246 194.428 122.301H194.384V120.754H192.573V130Z" fill="black"/>
<path d="M63.3516 140.055H63.4297L66.0312 149H67.3594L70.4297 137.727H68.9609L66.7031 146.93H66.6406L64.1016 137.727H62.6797L60.1406 146.93H60.0781L57.8203 137.727H56.3516L59.4219 149H60.75L63.3516 140.055ZM72.9453 149.141C74.0391 149.141 75.0703 148.531 75.5547 147.602H75.5859V149H76.875V143.383C76.875 141.766 75.6719 140.734 73.7656 140.734C71.8438 140.734 70.6406 141.812 70.5469 143.219H71.8594C72.0312 142.422 72.6875 141.93 73.7344 141.93C74.8594 141.93 75.5156 142.523 75.5156 143.516V144.195L73.1875 144.328C71.3125 144.438 70.2422 145.312 70.2422 146.703C70.2422 148.164 71.3281 149.141 72.9453 149.141ZM73.25 147.984C72.2734 147.984 71.625 147.477 71.625 146.703C71.625 145.938 72.25 145.453 73.3438 145.383L75.5156 145.25V145.914C75.5156 147.086 74.5312 147.984 73.25 147.984ZM85.3516 143.539C85.1797 142.078 83.9688 140.734 81.9375 140.734C79.6953 140.734 78.2031 142.375 78.2031 144.938C78.2031 147.555 79.7031 149.141 81.9531 149.141C83.7969 149.141 85.1562 148 85.3672 146.383H84.0312C83.7969 147.359 83.0703 147.945 81.9609 147.945C80.5547 147.945 79.5859 146.828 79.5859 144.938C79.5859 143.094 80.5391 141.93 81.9453 141.93C83.1406 141.93 83.8281 142.656 84.0234 143.539H85.3516ZM86.6875 149H88.0469V144.266C88.0469 142.859 88.8828 141.938 90.2344 141.938C91.5078 141.938 92.1562 142.711 92.1562 144V149H93.5156V143.75C93.5156 141.938 92.4375 140.734 90.6562 140.734C89.4219 140.734 88.5312 141.266 88.0781 142.172H88.0469V137.727H86.6875V149ZM100.633 146.672C100.406 147.438 99.6484 147.961 98.6172 147.961C97.1562 147.961 96.2422 146.938 96.2422 145.383V145.305H102.07V144.789C102.07 142.328 100.719 140.734 98.5234 140.734C96.2812 140.734 94.8438 142.445 94.8438 144.969C94.8438 147.523 96.2578 149.141 98.5859 149.141C100.359 149.141 101.734 148.094 101.969 146.672H100.633ZM98.5 141.914C99.7812 141.914 100.633 142.883 100.664 144.242H96.25C96.3359 142.891 97.2266 141.914 98.5 141.914ZM112.117 146.672C111.891 147.438 111.133 147.961 110.102 147.961C108.641 147.961 107.727 146.938 107.727 145.383V145.305H113.555V144.789C113.555 142.328 112.203 140.734 110.008 140.734C107.766 140.734 106.328 142.445 106.328 144.969C106.328 147.523 107.742 149.141 110.07 149.141C111.844 149.141 113.219 148.094 113.453 146.672H112.117ZM109.984 141.914C111.266 141.914 112.117 142.883 112.148 144.242H107.734C107.82 142.891 108.711 141.914 109.984 141.914ZM114.93 149H116.289V143.938C116.289 142.789 116.977 142.031 118.031 142.031C118.359 142.031 118.648 142.07 118.758 142.109V140.789C118.648 140.773 118.445 140.734 118.211 140.734C117.258 140.734 116.508 141.305 116.242 142.203H116.211V140.875H114.93V149ZM120.617 149H121.977V141.992H123.633V140.875H121.969V139.977C121.969 139.172 122.32 138.781 123.055 138.781C123.281 138.781 123.508 138.805 123.672 138.828V137.727C123.477 137.695 123.148 137.664 122.844 137.664C121.344 137.664 120.617 138.406 120.617 139.969V140.875H119.484V141.992H120.617V149ZM125.039 149H126.398V143.938C126.398 142.789 127.086 142.031 128.141 142.031C128.469 142.031 128.758 142.07 128.867 142.109V140.789C128.758 140.773 128.555 140.734 128.32 140.734C127.367 140.734 126.617 141.305 126.352 142.203H126.32V140.875H125.039V149ZM130.727 139.43C131.203 139.43 131.578 139.047 131.578 138.578C131.578 138.102 131.203 137.727 130.727 137.727C130.258 137.727 129.875 138.102 129.875 138.578C129.875 139.047 130.258 139.43 130.727 139.43ZM130.047 149H131.406V140.875H130.047V149ZM133.102 143.117C133.102 144.289 133.844 145 135.375 145.367L136.664 145.68C137.594 145.906 137.914 146.242 137.914 146.828C137.914 147.562 137.234 148.031 136.133 148.031C135.031 148.031 134.406 147.586 134.242 146.656H132.883C133.039 148.18 134.227 149.141 136.133 149.141C137.945 149.141 139.281 148.141 139.281 146.727C139.281 145.562 138.688 144.922 137.047 144.523L135.758 144.211C134.852 143.992 134.438 143.609 134.438 143.047C134.438 142.336 135.094 141.844 136.086 141.844C137.086 141.844 137.711 142.367 137.812 143.219H139.109C139.055 141.781 137.867 140.734 136.086 140.734C134.328 140.734 133.102 141.727 133.102 143.117ZM147.445 143.539C147.273 142.078 146.062 140.734 144.031 140.734C141.789 140.734 140.297 142.375 140.297 144.938C140.297 147.555 141.797 149.141 144.047 149.141C145.891 149.141 147.25 148 147.461 146.383H146.125C145.891 147.359 145.164 147.945 144.055 147.945C142.648 147.945 141.68 146.828 141.68 144.938C141.68 143.094 142.633 141.93 144.039 141.93C145.234 141.93 145.922 142.656 146.117 143.539H147.445ZM148.781 149H150.141V144.266C150.141 142.859 150.977 141.938 152.328 141.938C153.602 141.938 154.25 142.711 154.25 144V149H155.609V143.75C155.609 141.938 154.531 140.734 152.75 140.734C151.516 140.734 150.625 141.266 150.172 142.172H150.141V137.727H148.781V149ZM157.773 138.914V140.875H156.562V141.992H157.773V146.891C157.773 148.453 158.352 149.062 159.844 149.062C160.164 149.062 160.539 149.039 160.703 149V147.859C160.609 147.875 160.297 147.898 160.141 147.898C159.445 147.898 159.133 147.562 159.133 146.82V141.992H160.711V140.875H159.133V138.914H157.773ZM167.82 149.141C168.914 149.141 169.945 148.531 170.43 147.602H170.461V149H171.75V143.383C171.75 141.766 170.547 140.734 168.641 140.734C166.719 140.734 165.516 141.812 165.422 143.219H166.734C166.906 142.422 167.562 141.93 168.609 141.93C169.734 141.93 170.391 142.523 170.391 143.516V144.195L168.062 144.328C166.188 144.438 165.117 145.312 165.117 146.703C165.117 148.164 166.203 149.141 167.82 149.141ZM168.125 147.984C167.148 147.984 166.5 147.477 166.5 146.703C166.5 145.938 167.125 145.453 168.219 145.383L170.391 145.25V145.914C170.391 147.086 169.406 147.984 168.125 147.984ZM180.148 140.875H178.789V145.648C178.789 147.031 177.992 147.938 176.672 147.938C175.414 147.938 174.797 147.227 174.797 145.906V140.875H173.438V146.148C173.438 147.992 174.477 149.141 176.25 149.141C177.5 149.141 178.344 148.617 178.828 147.68H178.859V149H180.148V140.875ZM182.352 149H183.711V141.992H185.367V140.875H183.703V139.977C183.703 139.172 184.055 138.781 184.789 138.781C185.016 138.781 185.242 138.805 185.406 138.828V137.727C185.211 137.695 184.883 137.664 184.578 137.664C183.078 137.664 182.352 138.406 182.352 139.969V140.875H181.219V141.992H182.352V149ZM187.32 137.727L187.414 145.258H188.633L188.727 137.727H187.32ZM188.023 149.078C188.531 149.078 188.914 148.688 188.914 148.188C188.914 147.68 188.531 147.297 188.023 147.297C187.523 147.297 187.133 147.68 187.133 148.188C187.133 148.688 187.523 149.078 188.023 149.078Z" fill="#5C6166"/>
<path d="M302.367 136V130.363H301.188V132.652H298.648V130.363H297.469V136H298.648V133.625H301.188V136H302.367ZM304.484 136V130.363H303.305V136H304.484ZM306.551 136V132.309H306.586L309.223 136H310.199V130.363H309.07V134.035H309.039L306.406 130.363H305.422V136H306.551ZM311.02 136H315.371V135.023H312.441V134.996L315.293 131.129V130.363H311.086V131.336H313.883V131.367L311.02 135.23V136ZM317.367 130.363H316.188V134.008C316.188 135.25 317.105 136.094 318.551 136.094C319.992 136.094 320.91 135.25 320.91 134.008V130.363H319.73V133.891C319.73 134.613 319.305 135.086 318.551 135.086C317.793 135.086 317.367 134.613 317.367 133.891V130.363ZM323.031 136V133.781H325.324V132.848H323.031V131.336H325.543V130.363H321.852V136H323.031ZM327.785 129.852C328.102 129.852 328.352 129.602 328.352 129.297C328.352 128.988 328.102 128.738 327.785 128.738C327.469 128.738 327.223 128.988 327.223 129.297C327.223 129.602 327.469 129.852 327.785 129.852ZM329.422 129.852C329.738 129.852 329.988 129.602 329.988 129.297C329.988 128.988 329.738 128.738 329.422 128.738C329.109 128.738 328.855 128.988 328.855 129.297C328.855 129.602 329.109 129.852 329.422 129.852ZM327.422 130.363H326.242V134.008C326.242 135.25 327.16 136.094 328.605 136.094C330.047 136.094 330.965 135.25 330.965 134.008V130.363H329.785V133.891C329.785 134.613 329.359 135.086 328.605 135.086C327.848 135.086 327.422 134.613 327.422 133.891V130.363ZM336.945 133.633V132.996H334.57V133.855H335.797L335.793 133.945C335.77 134.645 335.234 135.117 334.465 135.117C333.527 135.117 332.934 134.371 332.934 133.148C332.934 131.949 333.492 131.242 334.422 131.242C335.059 131.242 335.539 131.594 335.711 132.184H336.895C336.727 131.043 335.734 130.266 334.418 130.266C332.762 130.266 331.73 131.359 331.73 133.164C331.73 134.996 332.762 136.094 334.445 136.094C336.016 136.094 336.945 135.168 336.945 133.633ZM341.461 135.023H338.906V133.602H341.316V132.695H338.906V131.336H341.461V130.363H337.727V136H341.461V135.023ZM343.441 136V132.309H343.477L346.113 136H347.09V130.363H345.961V134.035H345.93L343.297 130.363H342.312V136H343.441Z" fill="#00A699"/>
<path d="M49 134.053C48.7902 136.323 47.9385 138.486 46.5443 140.289C45.1502 142.092 43.2713 143.461 41.1276 144.235C38.9839 145.01 36.664 145.157 34.4393 144.661C32.2147 144.165 30.1773 143.046 28.5656 141.434C26.9539 139.823 25.8346 137.785 25.3385 135.561C24.8425 133.336 24.9903 131.016 25.7646 128.872C26.5389 126.729 27.9078 124.85 29.7109 123.456C31.5141 122.062 33.6771 121.21 35.9467 121C34.6179 122.798 33.9785 125.013 34.1447 127.242C34.3109 129.471 35.2718 131.567 36.8525 133.147C38.4332 134.728 40.5288 135.689 42.7581 135.855C44.9874 136.022 47.2023 135.382 49 134.053V134.053Z" fill="#5C6166"/>
<path d="M62.9082 51L67.4346 38.3174H65.334L61.8711 48.7852H61.8184L58.3643 38.3174H56.2285L60.7549 51H62.9082ZM69.3945 40.2598C70.001 40.2598 70.4844 39.7676 70.4844 39.1699C70.4844 38.5635 70.001 38.0801 69.3945 38.0801C68.7881 38.0801 68.2959 38.5635 68.2959 39.1699C68.2959 39.7676 68.7881 40.2598 69.3945 40.2598ZM68.4453 51H70.3438V41.7539H68.4453V51ZM72.8398 39.5654V41.7539H71.4951V43.2568H72.8398V48.5654C72.8398 50.3496 73.5693 51.0615 75.4414 51.0615C75.8633 51.0615 76.2852 51.0264 76.4961 50.9736V49.4707C76.373 49.4971 76.0654 49.5146 75.8721 49.5146C75.0986 49.5146 74.7471 49.1543 74.7471 48.3545V43.2568H76.5049V41.7539H74.7471V39.5654H72.8398ZM80.6357 51.1582C81.8486 51.1582 83.0176 50.5078 83.5537 49.4795H83.5977V51H85.417V44.6279C85.417 42.7734 83.9844 41.5869 81.7432 41.5869C79.458 41.5869 78.0342 42.8174 77.9287 44.4873H79.7217C79.8887 43.6611 80.5742 43.1338 81.6729 43.1338C82.833 43.1338 83.5273 43.749 83.5273 44.7773V45.4893L80.9961 45.6387C78.7988 45.7617 77.5596 46.7549 77.5596 48.3721C77.5596 50.0332 78.8252 51.1582 80.6357 51.1582ZM81.1631 49.6553C80.1436 49.6553 79.4756 49.1279 79.4756 48.3193C79.4756 47.5283 80.1172 47.0273 81.251 46.9482L83.5273 46.8076V47.5371C83.5273 48.7412 82.4902 49.6553 81.1631 49.6553ZM87.2627 51H89.1611V45.2871C89.1611 44.1006 89.9609 43.2217 91.0859 43.2217C92.1582 43.2217 92.835 43.8984 92.835 44.9619V51H94.6982V45.2256C94.6982 44.0566 95.4805 43.2217 96.6055 43.2217C97.7305 43.2217 98.3721 43.9072 98.3721 45.1025V51H100.279V44.6455C100.279 42.8086 99.084 41.5957 97.2559 41.5957C95.9375 41.5957 94.8477 42.2812 94.373 43.4062H94.3291C93.96 42.2549 93.0283 41.5957 91.7451 41.5957C90.4971 41.5957 89.5303 42.2812 89.1172 43.3096H89.0732V41.7539H87.2627V51ZM103.127 40.2598C103.733 40.2598 104.217 39.7676 104.217 39.1699C104.217 38.5635 103.733 38.0801 103.127 38.0801C102.521 38.0801 102.028 38.5635 102.028 39.1699C102.028 39.7676 102.521 40.2598 103.127 40.2598ZM102.178 51H104.076V41.7539H102.178V51ZM106.019 51H107.917V45.6123C107.917 44.1797 108.778 43.2305 110.114 43.2305C111.433 43.2305 112.083 43.9951 112.083 45.3838V51H113.99V45.0146C113.99 42.8965 112.821 41.5957 110.782 41.5957C109.358 41.5957 108.374 42.2461 107.873 43.3008H107.829V41.7539H106.019V51ZM121.953 48.2842C121.698 49.0928 120.898 49.6377 119.817 49.6377C118.297 49.6377 117.33 48.5742 117.33 46.9658V46.8516H123.86V46.2012C123.86 43.3975 122.261 41.5869 119.694 41.5869C117.084 41.5869 115.414 43.5205 115.414 46.4209C115.414 49.3389 117.058 51.1758 119.773 51.1758C121.892 51.1758 123.491 49.9717 123.755 48.2842H121.953ZM119.694 43.1162C121.021 43.1162 121.918 44.1094 121.962 45.5244H117.339C117.436 44.127 118.367 43.1162 119.694 43.1162ZM128.8 51H135.963V49.4883H131.103V49.4531L135.91 43.0547V41.7539H128.835V43.2656H133.73V43.3008L128.8 49.7783V51ZM145.587 41.7539H143.688V47.1416C143.688 48.583 142.862 49.5322 141.491 49.5322C140.182 49.5322 139.514 48.7764 139.514 47.3701V41.7539H137.615V47.7393C137.615 49.8574 138.846 51.167 140.858 51.167C142.273 51.167 143.214 50.543 143.724 49.4355H143.768V51H145.587V41.7539ZM154.596 51.1582C155.94 51.1582 156.995 50.4814 157.54 49.4268H157.575V51H159.421V38.3174H157.514V43.292H157.479C156.96 42.2725 155.905 41.6045 154.578 41.6045C152.258 41.6045 150.711 43.459 150.711 46.377C150.711 49.2949 152.258 51.1582 154.596 51.1582ZM155.097 43.2041C156.556 43.2041 157.531 44.4609 157.531 46.377C157.531 48.3105 156.556 49.5498 155.097 49.5498C153.594 49.5498 152.653 48.3281 152.653 46.377C152.653 44.4346 153.594 43.2041 155.097 43.2041ZM162.383 40.2598C162.989 40.2598 163.473 39.7676 163.473 39.1699C163.473 38.5635 162.989 38.0801 162.383 38.0801C161.776 38.0801 161.284 38.5635 161.284 39.1699C161.284 39.7676 161.776 40.2598 162.383 40.2598ZM161.434 51H163.332V41.7539H161.434V51ZM165.274 51H167.173V45.4629C167.173 44.1533 167.929 43.3359 169.15 43.3359C169.52 43.3359 169.854 43.3799 170.003 43.4414V41.6748C169.862 41.6484 169.625 41.6045 169.353 41.6045C168.263 41.6045 167.437 42.2461 167.129 43.3271H167.085V41.7539H165.274V51ZM174.837 51H176.735V45.6123C176.735 44.1797 177.597 43.2305 178.933 43.2305C180.251 43.2305 180.901 43.9951 180.901 45.3838V51H182.809V45.0146C182.809 42.8965 181.64 41.5957 179.601 41.5957C178.177 41.5957 177.192 42.2461 176.691 43.3008H176.647V41.7539H174.837V51ZM190.771 48.2842C190.517 49.0928 189.717 49.6377 188.636 49.6377C187.115 49.6377 186.148 48.5742 186.148 46.9658V46.8516H192.679V46.2012C192.679 43.3975 191.079 41.5869 188.513 41.5869C185.902 41.5869 184.232 43.5205 184.232 46.4209C184.232 49.3389 185.876 51.1758 188.592 51.1758C190.71 51.1758 192.31 49.9717 192.573 48.2842H190.771ZM188.513 43.1162C189.84 43.1162 190.736 44.1094 190.78 45.5244H186.157C186.254 44.127 187.186 43.1162 188.513 43.1162ZM194.226 51H196.124V45.6562C196.124 44.1973 196.985 43.2305 198.392 43.2305C199.728 43.2305 200.413 44.0479 200.413 45.4102V51H202.32V45.041C202.32 42.9492 201.107 41.5957 199.077 41.5957C197.671 41.5957 196.66 42.2197 196.15 43.3008H196.106V38.3174H194.226V51ZM204.157 51H206.056V45.2871C206.056 44.1006 206.855 43.2217 207.98 43.2217C209.053 43.2217 209.729 43.8984 209.729 44.9619V51H211.593V45.2256C211.593 44.0566 212.375 43.2217 213.5 43.2217C214.625 43.2217 215.267 43.9072 215.267 45.1025V51H217.174V44.6455C217.174 42.8086 215.979 41.5957 214.15 41.5957C212.832 41.5957 211.742 42.2812 211.268 43.4062H211.224C210.854 42.2549 209.923 41.5957 208.64 41.5957C207.392 41.5957 206.425 42.2812 206.012 43.3096H205.968V41.7539H204.157V51ZM225.137 48.2842C224.882 49.0928 224.082 49.6377 223.001 49.6377C221.48 49.6377 220.514 48.5742 220.514 46.9658V46.8516H227.044V46.2012C227.044 43.3975 225.444 41.5869 222.878 41.5869C220.268 41.5869 218.598 43.5205 218.598 46.4209C218.598 49.3389 220.241 51.1758 222.957 51.1758C225.075 51.1758 226.675 49.9717 226.938 48.2842H225.137ZM222.878 43.1162C224.205 43.1162 225.102 44.1094 225.146 45.5244H220.522C220.619 44.127 221.551 43.1162 222.878 43.1162ZM228.521 51H230.419V45.6123C230.419 44.1797 231.28 43.2305 232.616 43.2305C233.935 43.2305 234.585 43.9951 234.585 45.3838V51H236.492V45.0146C236.492 42.8965 235.323 41.5957 233.284 41.5957C231.86 41.5957 230.876 42.2461 230.375 43.3008H230.331V41.7539H228.521V51Z" fill="black"/>
<path d="M64.0781 68.7344H58.5V64.8594H63.7891V63.6094H58.5V59.9922H64.0781V58.7266H57.0938V70H64.0781V68.7344ZM65.7266 70H67.0859V64.9375C67.0859 63.7891 67.7734 63.0312 68.8281 63.0312C69.1562 63.0312 69.4453 63.0703 69.5547 63.1094V61.7891C69.4453 61.7734 69.2422 61.7344 69.0078 61.7344C68.0547 61.7344 67.3047 62.3047 67.0391 63.2031H67.0078V61.875H65.7266V70ZM73.625 73.0625C75.8672 73.0625 77.2969 71.7734 77.2969 69.8359V61.875H76V63.2422H75.9766C75.4375 62.2969 74.4844 61.7344 73.3359 61.7344C71.2344 61.7344 69.875 63.3594 69.875 65.9062C69.875 68.4297 71.2344 70.0625 73.3047 70.0625C74.4453 70.0625 75.4062 69.4844 75.9062 68.6016H75.9375V69.8828C75.9375 71.0938 75.0859 71.9062 73.6797 71.9062C72.6641 71.9062 71.8594 71.4141 71.5938 70.6719H70.1953C70.4219 72.0547 71.8359 73.0625 73.625 73.0625ZM73.5781 68.8672C72.1797 68.8672 71.2656 67.7266 71.2656 65.9062C71.2656 64.0859 72.1797 62.9297 73.5781 62.9297C74.9922 62.9297 75.9375 64.1172 75.9375 65.9062C75.9375 67.6953 74.9922 68.8672 73.5781 68.8672ZM80.7109 60.4297C81.1875 60.4297 81.5625 60.0469 81.5625 59.5781C81.5625 59.1016 81.1875 58.7266 80.7109 58.7266C80.2422 58.7266 79.8594 59.1016 79.8594 59.5781C79.8594 60.0469 80.2422 60.4297 80.7109 60.4297ZM83.6328 60.4297C84.1094 60.4297 84.4844 60.0469 84.4844 59.5781C84.4844 59.1016 84.1094 58.7266 83.6328 58.7266C83.1641 58.7266 82.7812 59.1016 82.7812 59.5781C82.7812 60.0469 83.1641 60.4297 83.6328 60.4297ZM81.4453 70.1406C82.5391 70.1406 83.5703 69.5312 84.0547 68.6016H84.0859V70H85.375V64.3828C85.375 62.7656 84.1719 61.7344 82.2656 61.7344C80.3438 61.7344 79.1406 62.8125 79.0469 64.2188H80.3594C80.5312 63.4219 81.1875 62.9297 82.2344 62.9297C83.3594 62.9297 84.0156 63.5234 84.0156 64.5156V65.1953L81.6875 65.3281C79.8125 65.4375 78.7422 66.3125 78.7422 67.7031C78.7422 69.1641 79.8281 70.1406 81.4453 70.1406ZM81.75 68.9844C80.7734 68.9844 80.125 68.4766 80.125 67.7031C80.125 66.9375 80.75 66.4531 81.8438 66.3828L84.0156 66.25V66.9141C84.0156 68.0859 83.0312 68.9844 81.75 68.9844ZM87.1016 70H88.4609V65.2188C88.4609 63.8438 89.2969 62.9375 90.5781 62.9375C91.8281 62.9375 92.4453 63.6562 92.4453 64.9688V70H93.8047V64.7266C93.8047 62.8828 92.7734 61.7344 90.9922 61.7344C89.7344 61.7344 88.8672 62.2969 88.4141 63.1719H88.3828V61.875H87.1016V70ZM95.2891 70H101.352V68.8828H96.8594V68.8594L101.328 62.8672V61.875H95.2969V62.9922H99.7891V63.0156L95.2891 69.0312V70ZM108.023 67.6719C107.797 68.4375 107.039 68.9609 106.008 68.9609C104.547 68.9609 103.633 67.9375 103.633 66.3828V66.3047H109.461V65.7891C109.461 63.3281 108.109 61.7344 105.914 61.7344C103.672 61.7344 102.234 63.4453 102.234 65.9688C102.234 68.5234 103.648 70.1406 105.977 70.1406C107.75 70.1406 109.125 69.0938 109.359 67.6719H108.023ZM105.891 62.9141C107.172 62.9141 108.023 63.8828 108.055 65.2422H103.641C103.727 63.8906 104.617 62.9141 105.891 62.9141ZM117.195 70.1406C118.367 70.1406 119.297 69.5625 119.82 68.625H119.844V70H121.141V58.7266H119.781V63.1953H119.75C119.266 62.3047 118.328 61.7344 117.164 61.7344C115.117 61.7344 113.719 63.3906 113.719 65.9375C113.719 68.4844 115.125 70.1406 117.195 70.1406ZM117.453 62.9297C118.852 62.9297 119.789 64.125 119.789 65.9375C119.789 67.7578 118.852 68.9453 117.453 68.9453C116.016 68.9453 115.109 67.7812 115.109 65.9375C115.109 64.1016 116.016 62.9297 117.453 62.9297ZM128.367 67.6719C128.141 68.4375 127.383 68.9609 126.352 68.9609C124.891 68.9609 123.977 67.9375 123.977 66.3828V66.3047H129.805V65.7891C129.805 63.3281 128.453 61.7344 126.258 61.7344C124.016 61.7344 122.578 63.4453 122.578 65.9688C122.578 68.5234 123.992 70.1406 126.32 70.1406C128.094 70.1406 129.469 69.0938 129.703 67.6719H128.367ZM126.234 62.9141C127.516 62.9141 128.367 63.8828 128.398 65.2422H123.984C124.07 63.8906 124.961 62.9141 126.234 62.9141ZM131.93 60.4297C132.406 60.4297 132.781 60.0469 132.781 59.5781C132.781 59.1016 132.406 58.7266 131.93 58.7266C131.461 58.7266 131.078 59.1016 131.078 59.5781C131.078 60.0469 131.461 60.4297 131.93 60.4297ZM131.25 70H132.609V61.875H131.25V70ZM134.445 70H135.805V65.2188C135.805 63.8438 136.641 62.9375 137.922 62.9375C139.172 62.9375 139.789 63.6562 139.789 64.9688V70H141.148V64.7266C141.148 62.8828 140.117 61.7344 138.336 61.7344C137.078 61.7344 136.211 62.2969 135.758 63.1719H135.727V61.875H134.445V70ZM148.273 67.6719C148.047 68.4375 147.289 68.9609 146.258 68.9609C144.797 68.9609 143.883 67.9375 143.883 66.3828V66.3047H149.711V65.7891C149.711 63.3281 148.359 61.7344 146.164 61.7344C143.922 61.7344 142.484 63.4453 142.484 65.9688C142.484 68.5234 143.898 70.1406 146.227 70.1406C148 70.1406 149.375 69.0938 149.609 67.6719H148.273ZM146.141 62.9141C147.422 62.9141 148.273 63.8828 148.305 65.2422H143.891C143.977 63.8906 144.867 62.9141 146.141 62.9141ZM161.562 68.7344H155.984V64.8594H161.273V63.6094H155.984V59.9922H161.562V58.7266H154.578V70H161.562V68.7344ZM163.211 70H164.57V64.9375C164.57 63.7891 165.258 63.0312 166.312 63.0312C166.641 63.0312 166.93 63.0703 167.039 63.1094V61.7891C166.93 61.7734 166.727 61.7344 166.492 61.7344C165.539 61.7344 164.789 62.3047 164.523 63.2031H164.492V61.875H163.211V70ZM168.148 70H169.508V65.2188C169.508 63.8438 170.344 62.9375 171.625 62.9375C172.875 62.9375 173.492 63.6562 173.492 64.9688V70H174.852V64.7266C174.852 62.8828 173.82 61.7344 172.039 61.7344C170.781 61.7344 169.914 62.2969 169.461 63.1719H169.43V61.875H168.148V70ZM178.227 60.4297C178.703 60.4297 179.078 60.0469 179.078 59.5781C179.078 59.1016 178.703 58.7266 178.227 58.7266C177.758 58.7266 177.375 59.1016 177.375 59.5781C177.375 60.0469 177.758 60.4297 178.227 60.4297ZM181.148 60.4297C181.625 60.4297 182 60.0469 182 59.5781C182 59.1016 181.625 58.7266 181.148 58.7266C180.68 58.7266 180.297 59.1016 180.297 59.5781C180.297 60.0469 180.68 60.4297 181.148 60.4297ZM178.961 70.1406C180.055 70.1406 181.086 69.5312 181.57 68.6016H181.602V70H182.891V64.3828C182.891 62.7656 181.688 61.7344 179.781 61.7344C177.859 61.7344 176.656 62.8125 176.562 64.2188H177.875C178.047 63.4219 178.703 62.9297 179.75 62.9297C180.875 62.9297 181.531 63.5234 181.531 64.5156V65.1953L179.203 65.3281C177.328 65.4375 176.258 66.3125 176.258 67.7031C176.258 69.1641 177.344 70.1406 178.961 70.1406ZM179.266 68.9844C178.289 68.9844 177.641 68.4766 177.641 67.7031C177.641 66.9375 178.266 66.4531 179.359 66.3828L181.531 66.25V66.9141C181.531 68.0859 180.547 68.9844 179.266 68.9844ZM184.688 70H186.047V65.2656C186.047 63.8594 186.883 62.9375 188.234 62.9375C189.508 62.9375 190.156 63.7109 190.156 65V70H191.516V64.75C191.516 62.9375 190.438 61.7344 188.656 61.7344C187.422 61.7344 186.531 62.2656 186.078 63.1719H186.047V58.7266H184.688V70ZM193.242 70H194.602V64.9375C194.602 63.7891 195.289 63.0312 196.344 63.0312C196.672 63.0312 196.961 63.0703 197.07 63.1094V61.7891C196.961 61.7734 196.758 61.7344 196.523 61.7344C195.57 61.7344 194.82 62.3047 194.555 63.2031H194.523V61.875H193.242V70ZM204.852 61.875H203.492V66.6484C203.492 68.0312 202.695 68.9375 201.375 68.9375C200.117 68.9375 199.5 68.2266 199.5 66.9062V61.875H198.141V67.1484C198.141 68.9922 199.18 70.1406 200.953 70.1406C202.203 70.1406 203.047 69.6172 203.531 68.6797H203.562V70H204.852V61.875ZM206.617 70H207.977V65.2188C207.977 63.8438 208.812 62.9375 210.094 62.9375C211.344 62.9375 211.961 63.6562 211.961 64.9688V70H213.32V64.7266C213.32 62.8828 212.289 61.7344 210.508 61.7344C209.25 61.7344 208.383 62.2969 207.93 63.1719H207.898V61.875H206.617V70ZM218.406 73.0625C220.648 73.0625 222.078 71.7734 222.078 69.8359V61.875H220.781V63.2422H220.758C220.219 62.2969 219.266 61.7344 218.117 61.7344C216.016 61.7344 214.656 63.3594 214.656 65.9062C214.656 68.4297 216.016 70.0625 218.086 70.0625C219.227 70.0625 220.188 69.4844 220.688 68.6016H220.719V69.8828C220.719 71.0938 219.867 71.9062 218.461 71.9062C217.445 71.9062 216.641 71.4141 216.375 70.6719H214.977C215.203 72.0547 216.617 73.0625 218.406 73.0625ZM218.359 68.8672C216.961 68.8672 216.047 67.7266 216.047 65.9062C216.047 64.0859 216.961 62.9297 218.359 62.9297C219.773 62.9297 220.719 64.1172 220.719 65.9062C220.719 67.6953 219.773 68.8672 218.359 68.8672ZM227.133 70H228.492V64.9062C228.492 63.7812 229.273 62.9375 230.352 62.9375C231.359 62.9375 232.016 63.5781 232.016 64.5547V70H233.375V64.8359C233.375 63.7344 234.133 62.9375 235.211 62.9375C236.281 62.9375 236.898 63.5938 236.898 64.7031V70H238.258V64.3906C238.258 62.7812 237.219 61.7344 235.609 61.7344C234.469 61.7344 233.516 62.3125 233.062 63.2812H233.031C232.68 62.2969 231.859 61.7344 230.75 61.7344C229.656 61.7344 228.828 62.3125 228.445 63.1719H228.414V61.875H227.133V70ZM240.742 60.4297C241.219 60.4297 241.594 60.0469 241.594 59.5781C241.594 59.1016 241.219 58.7266 240.742 58.7266C240.273 58.7266 239.891 59.1016 239.891 59.5781C239.891 60.0469 240.273 60.4297 240.742 60.4297ZM240.062 70H241.422V61.875H240.062V70ZM243.695 59.9141V61.875H242.484V62.9922H243.695V67.8906C243.695 69.4531 244.273 70.0625 245.766 70.0625C246.086 70.0625 246.461 70.0391 246.625 70V68.8594C246.531 68.875 246.219 68.8984 246.062 68.8984C245.367 68.8984 245.055 68.5625 245.055 67.8203V62.9922H246.633V61.875H245.055V59.9141H243.695ZM59.2578 89.1406C60.3516 89.1406 61.3828 88.5312 61.8672 87.6016H61.8984V89H63.1875V83.3828C63.1875 81.7656 61.9844 80.7344 60.0781 80.7344C58.1562 80.7344 56.9531 81.8125 56.8594 83.2188H58.1719C58.3438 82.4219 59 81.9297 60.0469 81.9297C61.1719 81.9297 61.8281 82.5234 61.8281 83.5156V84.1953L59.5 84.3281C57.625 84.4375 56.5547 85.3125 56.5547 86.7031C56.5547 88.1641 57.6406 89.1406 59.2578 89.1406ZM59.5625 87.9844C58.5859 87.9844 57.9375 87.4766 57.9375 86.7031C57.9375 85.9375 58.5625 85.4531 59.6562 85.3828L61.8281 85.25V85.9141C61.8281 87.0859 60.8438 87.9844 59.5625 87.9844ZM64.9844 89H66.3438V77.7266H64.9844V89ZM68.25 89H69.6094V77.7266H68.25V89ZM76.8359 86.6719C76.6094 87.4375 75.8516 87.9609 74.8203 87.9609C73.3594 87.9609 72.4453 86.9375 72.4453 85.3828V85.3047H78.2734V84.7891C78.2734 82.3281 76.9219 80.7344 74.7266 80.7344C72.4844 80.7344 71.0469 82.4453 71.0469 84.9688C71.0469 87.5234 72.4609 89.1406 74.7891 89.1406C76.5625 89.1406 77.9375 88.0938 78.1719 86.6719H76.8359ZM74.7031 81.9141C75.9844 81.9141 76.8359 82.8828 76.8672 84.2422H72.4531C72.5391 82.8906 73.4297 81.9141 74.7031 81.9141ZM79.6484 89H81.0078V84.2188C81.0078 82.8438 81.8438 81.9375 83.125 81.9375C84.375 81.9375 84.9922 82.6562 84.9922 83.9688V89H86.3516V83.7266C86.3516 81.8828 85.3203 80.7344 83.5391 80.7344C82.2812 80.7344 81.4141 81.2969 80.9609 82.1719H80.9297V80.875H79.6484V89ZM91.3672 89H92.7266V84.2188C92.7266 82.8438 93.5625 81.9375 94.8438 81.9375C96.0938 81.9375 96.7109 82.6562 96.7109 83.9688V89H98.0703V83.7266C98.0703 81.8828 97.0391 80.7344 95.2578 80.7344C94 80.7344 93.1328 81.2969 92.6797 82.1719H92.6484V80.875H91.3672V89ZM103.172 89.1406C105.414 89.1406 106.93 87.5234 106.93 84.9375C106.93 82.3438 105.414 80.7344 103.172 80.7344C100.922 80.7344 99.4062 82.3438 99.4062 84.9375C99.4062 87.5234 100.922 89.1406 103.172 89.1406ZM103.172 87.9453C101.734 87.9453 100.789 86.8516 100.789 84.9375C100.789 83.0234 101.734 81.9297 103.172 81.9297C104.609 81.9297 105.547 83.0234 105.547 84.9375C105.547 86.8516 104.609 87.9453 103.172 87.9453ZM108.742 78.9141V80.875H107.531V81.9922H108.742V86.8906C108.742 88.4531 109.32 89.0625 110.812 89.0625C111.133 89.0625 111.508 89.0391 111.672 89V87.8594C111.578 87.875 111.266 87.8984 111.109 87.8984C110.414 87.8984 110.102 87.5625 110.102 86.8203V81.9922H111.68V80.875H110.102V78.9141H108.742ZM123.469 80.875H122.125L120.5 87.4844H120.469L118.625 80.875H117.312L115.477 87.4844H115.445L113.82 80.875H112.469L114.742 89H116.125L117.953 82.7109H117.984L119.82 89H121.203L123.469 80.875ZM129.977 86.6719C129.75 87.4375 128.992 87.9609 127.961 87.9609C126.5 87.9609 125.586 86.9375 125.586 85.3828V85.3047H131.414V84.7891C131.414 82.3281 130.062 80.7344 127.867 80.7344C125.625 80.7344 124.188 82.4453 124.188 84.9688C124.188 87.5234 125.602 89.1406 127.93 89.1406C129.703 89.1406 131.078 88.0938 131.312 86.6719H129.977ZM127.844 81.9141C129.125 81.9141 129.977 82.8828 130.008 84.2422H125.594C125.68 82.8906 126.57 81.9141 127.844 81.9141ZM132.789 89H134.148V84.2188C134.148 82.8438 134.984 81.9375 136.266 81.9375C137.516 81.9375 138.133 82.6562 138.133 83.9688V89H139.492V83.7266C139.492 81.8828 138.461 80.7344 136.68 80.7344C135.422 80.7344 134.555 81.2969 134.102 82.1719H134.07V80.875H132.789V89ZM144.305 89.1406C145.477 89.1406 146.406 88.5625 146.93 87.625H146.953V89H148.25V77.7266H146.891V82.1953H146.859C146.375 81.3047 145.438 80.7344 144.273 80.7344C142.227 80.7344 140.828 82.3906 140.828 84.9375C140.828 87.4844 142.234 89.1406 144.305 89.1406ZM144.562 81.9297C145.961 81.9297 146.898 83.125 146.898 84.9375C146.898 86.7578 145.961 87.9453 144.562 87.9453C143.125 87.9453 142.219 86.7812 142.219 84.9375C142.219 83.1016 143.125 81.9297 144.562 81.9297ZM150.836 79.4297C151.312 79.4297 151.688 79.0469 151.688 78.5781C151.688 78.1016 151.312 77.7266 150.836 77.7266C150.367 77.7266 149.984 78.1016 149.984 78.5781C149.984 79.0469 150.367 79.4297 150.836 79.4297ZM150.156 89H151.516V80.875H150.156V89ZM156.703 92.0625C158.945 92.0625 160.375 90.7734 160.375 88.8359V80.875H159.078V82.2422H159.055C158.516 81.2969 157.562 80.7344 156.414 80.7344C154.312 80.7344 152.953 82.3594 152.953 84.9062C152.953 87.4297 154.312 89.0625 156.383 89.0625C157.523 89.0625 158.484 88.4844 158.984 87.6016H159.016V88.8828C159.016 90.0938 158.164 90.9062 156.758 90.9062C155.742 90.9062 154.938 90.4141 154.672 89.6719H153.273C153.5 91.0547 154.914 92.0625 156.703 92.0625ZM156.656 87.8672C155.258 87.8672 154.344 86.7266 154.344 84.9062C154.344 83.0859 155.258 81.9297 156.656 81.9297C158.07 81.9297 159.016 83.1172 159.016 84.9062C159.016 86.6953 158.07 87.8672 156.656 87.8672ZM167.539 86.6719C167.312 87.4375 166.555 87.9609 165.523 87.9609C164.062 87.9609 163.148 86.9375 163.148 85.3828V85.3047H168.977V84.7891C168.977 82.3281 167.625 80.7344 165.43 80.7344C163.188 80.7344 161.75 82.4453 161.75 84.9688C161.75 87.5234 163.164 89.1406 165.492 89.1406C167.266 89.1406 168.641 88.0938 168.875 86.6719H167.539ZM165.406 81.9141C166.688 81.9141 167.539 82.8828 167.57 84.2422H163.156C163.242 82.8906 164.133 81.9141 165.406 81.9141ZM170.352 89H171.711V84.2188C171.711 82.8438 172.547 81.9375 173.828 81.9375C175.078 81.9375 175.695 82.6562 175.695 83.9688V89H177.055V83.7266C177.055 81.8828 176.023 80.7344 174.242 80.7344C172.984 80.7344 172.117 81.2969 171.664 82.1719H171.633V80.875H170.352V89ZM186.93 89L191.086 77.7266H189.609L186.258 87.2891H186.211L182.859 77.7266H181.383L185.539 89H186.93ZM192.68 79.4297C193.156 79.4297 193.531 79.0469 193.531 78.5781C193.531 78.1016 193.156 77.7266 192.68 77.7266C192.211 77.7266 191.828 78.1016 191.828 78.5781C191.828 79.0469 192.211 79.4297 192.68 79.4297ZM192 89H193.359V80.875H192V89ZM195.633 78.9141V80.875H194.422V81.9922H195.633V86.8906C195.633 88.4531 196.211 89.0625 197.703 89.0625C198.023 89.0625 198.398 89.0391 198.562 89V87.8594C198.469 87.875 198.156 87.8984 198 87.8984C197.305 87.8984 196.992 87.5625 196.992 86.8203V81.9922H198.57V80.875H196.992V78.9141H195.633ZM202.242 89.1406C203.336 89.1406 204.367 88.5312 204.852 87.6016H204.883V89H206.172V83.3828C206.172 81.7656 204.969 80.7344 203.062 80.7344C201.141 80.7344 199.938 81.8125 199.844 83.2188H201.156C201.328 82.4219 201.984 81.9297 203.031 81.9297C204.156 81.9297 204.812 82.5234 204.812 83.5156V84.1953L202.484 84.3281C200.609 84.4375 199.539 85.3125 199.539 86.7031C199.539 88.1641 200.625 89.1406 202.242 89.1406ZM202.547 87.9844C201.57 87.9844 200.922 87.4766 200.922 86.7031C200.922 85.9375 201.547 85.4531 202.641 85.3828L204.812 85.25V85.9141C204.812 87.0859 203.828 87.9844 202.547 87.9844ZM207.898 89H209.258V83.9062C209.258 82.7812 210.039 81.9375 211.117 81.9375C212.125 81.9375 212.781 82.5781 212.781 83.5547V89H214.141V83.8359C214.141 82.7344 214.898 81.9375 215.977 81.9375C217.047 81.9375 217.664 82.5938 217.664 83.7031V89H219.023V83.3906C219.023 81.7812 217.984 80.7344 216.375 80.7344C215.234 80.7344 214.281 81.3125 213.828 82.2812H213.797C213.445 81.2969 212.625 80.7344 211.516 80.7344C210.422 80.7344 209.594 81.3125 209.211 82.1719H209.18V80.875H207.898V89ZM221.508 79.4297C221.984 79.4297 222.359 79.0469 222.359 78.5781C222.359 78.1016 221.984 77.7266 221.508 77.7266C221.039 77.7266 220.656 78.1016 220.656 78.5781C220.656 79.0469 221.039 79.4297 221.508 79.4297ZM220.828 89H222.188V80.875H220.828V89ZM224.023 89H225.383V84.2188C225.383 82.8438 226.219 81.9375 227.5 81.9375C228.75 81.9375 229.367 82.6562 229.367 83.9688V89H230.727V83.7266C230.727 81.8828 229.695 80.7344 227.914 80.7344C226.656 80.7344 225.789 81.2969 225.336 82.1719H225.305V80.875H224.023V89ZM237.852 86.6719C237.625 87.4375 236.867 87.9609 235.836 87.9609C234.375 87.9609 233.461 86.9375 233.461 85.3828V85.3047H239.289V84.7891C239.289 82.3281 237.938 80.7344 235.742 80.7344C233.5 80.7344 232.062 82.4453 232.062 84.9688C232.062 87.5234 233.477 89.1406 235.805 89.1406C237.578 89.1406 238.953 88.0938 239.188 86.6719H237.852ZM235.719 81.9141C237 81.9141 237.852 82.8828 237.883 84.2422H233.469C233.555 82.8906 234.445 81.9141 235.719 81.9141ZM240.664 89H242.023V84.2188C242.023 82.8438 242.859 81.9375 244.141 81.9375C245.391 81.9375 246.008 82.6562 246.008 83.9688V89H247.367V83.7266C247.367 81.8828 246.336 80.7344 244.555 80.7344C243.297 80.7344 242.43 81.2969 241.977 82.1719H241.945V80.875H240.664V89Z" fill="#5C6166"/>
<path d="M302.367 67V61.3633H301.188V63.6523H298.648V61.3633H297.469V67H298.648V64.625H301.188V67H302.367ZM304.484 67V61.3633H303.305V67H304.484ZM306.551 67V63.3086H306.586L309.223 67H310.199V61.3633H309.07V65.0352H309.039L306.406 61.3633H305.422V67H306.551ZM311.02 67H315.371V66.0234H312.441V65.9961L315.293 62.1289V61.3633H311.086V62.3359H313.883V62.3672L311.02 66.2305V67ZM317.367 61.3633H316.188V65.0078C316.188 66.25 317.105 67.0938 318.551 67.0938C319.992 67.0938 320.91 66.25 320.91 65.0078V61.3633H319.73V64.8906C319.73 65.6133 319.305 66.0859 318.551 66.0859C317.793 66.0859 317.367 65.6133 317.367 64.8906V61.3633ZM323.031 67V64.7812H325.324V63.8477H323.031V62.3359H325.543V61.3633H321.852V67H323.031ZM327.785 60.8516C328.102 60.8516 328.352 60.6016 328.352 60.2969C328.352 59.9883 328.102 59.7383 327.785 59.7383C327.469 59.7383 327.223 59.9883 327.223 60.2969C327.223 60.6016 327.469 60.8516 327.785 60.8516ZM329.422 60.8516C329.738 60.8516 329.988 60.6016 329.988 60.2969C329.988 59.9883 329.738 59.7383 329.422 59.7383C329.109 59.7383 328.855 59.9883 328.855 60.2969C328.855 60.6016 329.109 60.8516 329.422 60.8516ZM327.422 61.3633H326.242V65.0078C326.242 66.25 327.16 67.0938 328.605 67.0938C330.047 67.0938 330.965 66.25 330.965 65.0078V61.3633H329.785V64.8906C329.785 65.6133 329.359 66.0859 328.605 66.0859C327.848 66.0859 327.422 65.6133 327.422 64.8906V61.3633ZM336.945 64.6328V63.9961H334.57V64.8555H335.797L335.793 64.9453C335.77 65.6445 335.234 66.1172 334.465 66.1172C333.527 66.1172 332.934 65.3711 332.934 64.1484C332.934 62.9492 333.492 62.2422 334.422 62.2422C335.059 62.2422 335.539 62.5938 335.711 63.1836H336.895C336.727 62.043 335.734 61.2656 334.418 61.2656C332.762 61.2656 331.73 62.3594 331.73 64.1641C331.73 65.9961 332.762 67.0938 334.445 67.0938C336.016 67.0938 336.945 66.168 336.945 64.6328ZM341.461 66.0234H338.906V64.6016H341.316V63.6953H338.906V62.3359H341.461V61.3633H337.727V67H341.461V66.0234ZM343.441 67V63.3086H343.477L346.113 67H347.09V61.3633H345.961V65.0352H345.93L343.297 61.3633H342.312V67H343.441Z" fill="#00A699"/>
<path d="M45.7867 54.1467C45.1057 53.4653 44.2971 52.9249 43.4071 52.5561C42.5172 52.1874 41.5633 51.9976 40.6 51.9976C39.6367 51.9976 38.6828 52.1874 37.7929 52.5561C36.9029 52.9249 36.0943 53.4653 35.4133 54.1467L34 55.56L32.5867 54.1467C31.2111 52.7711 29.3454 51.9983 27.4 51.9983C25.4546 51.9983 23.5889 52.7711 22.2133 54.1467C20.8377 55.5222 20.0649 57.3879 20.0649 59.3333C20.0649 61.2787 20.8377 63.1444 22.2133 64.52L23.6267 65.9333L34 76.3067L44.3733 65.9333L45.7867 64.52C46.468 63.839 47.0085 63.0304 47.3772 62.1405C47.746 61.2505 47.9358 60.2966 47.9358 59.3333C47.9358 58.37 47.746 57.4161 47.3772 56.5262C47.0085 55.6362 46.468 54.8277 45.7867 54.1467V54.1467Z" fill="#5C6166"/>
<path d="M65.4307 190H67.5137L62.9346 177.317H60.8076L56.2285 190H58.2764L59.4365 186.572H64.2705L65.4307 190ZM61.8271 179.427H61.8799L63.7695 184.99H59.9375L61.8271 179.427ZM76.3291 180.754H74.4307V186.142C74.4307 187.583 73.6045 188.532 72.2334 188.532C70.9238 188.532 70.2559 187.776 70.2559 186.37V180.754H68.3574V186.739C68.3574 188.857 69.5879 190.167 71.6006 190.167C73.0156 190.167 73.9561 189.543 74.4658 188.436H74.5098V190H76.3291V180.754ZM78.043 183.373C78.043 184.718 78.9131 185.562 80.6709 185.966L82.1738 186.317C83.1846 186.546 83.5273 186.897 83.5273 187.495C83.5273 188.251 82.8242 188.726 81.6816 188.726C80.5215 188.726 79.8623 188.251 79.6865 187.284H77.8057C77.9814 189.042 79.3701 190.176 81.6816 190.176C83.8613 190.176 85.4346 189.016 85.4346 187.328C85.4346 185.992 84.7139 185.254 82.8242 184.814L81.3213 184.472C80.3193 184.243 79.8975 183.848 79.8975 183.268C79.8975 182.529 80.583 182.028 81.6113 182.028C82.6748 182.028 83.334 182.591 83.4395 183.487H85.2236C85.1621 181.782 83.7646 180.587 81.6113 180.587C79.4844 180.587 78.043 181.721 78.043 183.373ZM90.8662 193.48C93.5029 193.48 95.208 192.039 95.208 189.833V180.754H93.3623V182.336H93.3271C92.7646 181.264 91.6924 180.604 90.3828 180.604C88.0098 180.604 86.498 182.433 86.498 185.342C86.498 188.225 88.0186 190.035 90.3389 190.035C91.6572 190.035 92.7471 189.376 93.2656 188.374H93.3008V189.895C93.3008 191.16 92.4219 192.004 90.9365 192.004C89.8555 192.004 89.0117 191.494 88.7393 190.721H86.832C87.0693 192.32 88.6865 193.48 90.8662 193.48ZM90.8486 188.462C89.3896 188.462 88.4404 187.284 88.4404 185.351C88.4404 183.426 89.3896 182.204 90.8486 182.204C92.334 182.204 93.3096 183.452 93.3096 185.351C93.3096 187.258 92.334 188.462 90.8486 188.462ZM103.215 187.284C102.96 188.093 102.16 188.638 101.079 188.638C99.5586 188.638 98.5918 187.574 98.5918 185.966V185.852H105.122V185.201C105.122 182.397 103.522 180.587 100.956 180.587C98.3457 180.587 96.6758 182.521 96.6758 185.421C96.6758 188.339 98.3193 190.176 101.035 190.176C103.153 190.176 104.753 188.972 105.017 187.284H103.215ZM100.956 182.116C102.283 182.116 103.18 183.109 103.224 184.524H98.6006C98.6973 183.127 99.6289 182.116 100.956 182.116ZM118.78 180.754H116.899L115.212 188.031H115.168L113.234 180.754H111.406L109.481 188.031H109.446L107.759 180.754H105.86L108.4 190H110.36L112.285 183.074H112.329L114.271 190H116.249L118.78 180.754ZM123.86 190.176C126.506 190.176 128.246 188.356 128.246 185.377C128.246 182.406 126.497 180.587 123.86 180.587C121.224 180.587 119.475 182.406 119.475 185.377C119.475 188.356 121.215 190.176 123.86 190.176ZM123.86 188.611C122.375 188.611 121.408 187.434 121.408 185.377C121.408 183.329 122.375 182.151 123.86 182.151C125.346 182.151 126.312 183.329 126.312 185.377C126.312 187.434 125.354 188.611 123.86 188.611ZM133.669 193.48C136.306 193.48 138.011 192.039 138.011 189.833V180.754H136.165V182.336H136.13C135.567 181.264 134.495 180.604 133.186 180.604C130.812 180.604 129.301 182.433 129.301 185.342C129.301 188.225 130.821 190.035 133.142 190.035C134.46 190.035 135.55 189.376 136.068 188.374H136.104V189.895C136.104 191.16 135.225 192.004 133.739 192.004C132.658 192.004 131.814 191.494 131.542 190.721H129.635C129.872 192.32 131.489 193.48 133.669 193.48ZM133.651 188.462C132.192 188.462 131.243 187.284 131.243 185.351C131.243 183.426 132.192 182.204 133.651 182.204C135.137 182.204 136.112 183.452 136.112 185.351C136.112 187.258 135.137 188.462 133.651 188.462ZM146.018 187.284C145.763 188.093 144.963 188.638 143.882 188.638C142.361 188.638 141.395 187.574 141.395 185.966V185.852H147.925V185.201C147.925 182.397 146.325 180.587 143.759 180.587C141.148 180.587 139.479 182.521 139.479 185.421C139.479 188.339 141.122 190.176 143.838 190.176C145.956 190.176 147.556 188.972 147.819 187.284H146.018ZM143.759 182.116C145.086 182.116 145.982 183.109 146.026 184.524H141.403C141.5 183.127 142.432 182.116 143.759 182.116ZM149.401 190H151.3V184.612C151.3 183.18 152.161 182.23 153.497 182.23C154.815 182.23 155.466 182.995 155.466 184.384V190H157.373V184.015C157.373 181.896 156.204 180.596 154.165 180.596C152.741 180.596 151.757 181.246 151.256 182.301H151.212V180.754H149.401V190ZM165.336 187.284C165.081 188.093 164.281 188.638 163.2 188.638C161.68 188.638 160.713 187.574 160.713 185.966V185.852H167.243V185.201C167.243 182.397 165.644 180.587 163.077 180.587C160.467 180.587 158.797 182.521 158.797 185.421C158.797 188.339 160.44 190.176 163.156 190.176C165.274 190.176 166.874 188.972 167.138 187.284H165.336ZM163.077 182.116C164.404 182.116 165.301 183.109 165.345 184.524H160.722C160.818 183.127 161.75 182.116 163.077 182.116ZM168.553 183.373C168.553 184.718 169.423 185.562 171.181 185.966L172.684 186.317C173.694 186.546 174.037 186.897 174.037 187.495C174.037 188.251 173.334 188.726 172.191 188.726C171.031 188.726 170.372 188.251 170.196 187.284H168.315C168.491 189.042 169.88 190.176 172.191 190.176C174.371 190.176 175.944 189.016 175.944 187.328C175.944 185.992 175.224 185.254 173.334 184.814L171.831 184.472C170.829 184.243 170.407 183.848 170.407 183.268C170.407 182.529 171.093 182.028 172.121 182.028C173.185 182.028 173.844 182.591 173.949 183.487H175.733C175.672 181.782 174.274 180.587 172.121 180.587C169.994 180.587 168.553 181.721 168.553 183.373ZM183.274 190V184.691H188.724V183.03H183.274V179.014H189.225V177.317H181.306V190H183.274ZM190.71 190H192.608V184.463C192.608 183.153 193.364 182.336 194.586 182.336C194.955 182.336 195.289 182.38 195.438 182.441V180.675C195.298 180.648 195.061 180.604 194.788 180.604C193.698 180.604 192.872 181.246 192.564 182.327H192.521V180.754H190.71V190ZM198.849 179.233C199.446 179.233 199.921 178.759 199.921 178.17C199.921 177.581 199.446 177.106 198.849 177.106C198.251 177.106 197.776 177.581 197.776 178.17C197.776 178.759 198.251 179.233 198.849 179.233ZM202.276 179.233C202.874 179.233 203.349 178.759 203.349 178.17C203.349 177.581 202.874 177.106 202.276 177.106C201.688 177.106 201.204 177.581 201.204 178.17C201.204 178.759 201.688 179.233 202.276 179.233ZM204.544 180.754H202.646V186.142C202.646 187.583 201.819 188.532 200.448 188.532C199.139 188.532 198.471 187.776 198.471 186.37V180.754H196.572V186.739C196.572 188.857 197.803 190.167 199.815 190.167C201.23 190.167 202.171 189.543 202.681 188.436H202.725V190H204.544V180.754ZM206.495 190H208.394V184.656C208.394 183.197 209.255 182.23 210.661 182.23C211.997 182.23 212.683 183.048 212.683 184.41V190H214.59V184.041C214.59 181.949 213.377 180.596 211.347 180.596C209.94 180.596 208.93 181.22 208.42 182.301H208.376V177.317H206.495V190ZM216.26 183.373C216.26 184.718 217.13 185.562 218.888 185.966L220.391 186.317C221.401 186.546 221.744 186.897 221.744 187.495C221.744 188.251 221.041 188.726 219.898 188.726C218.738 188.726 218.079 188.251 217.903 187.284H216.022C216.198 189.042 217.587 190.176 219.898 190.176C222.078 190.176 223.651 189.016 223.651 187.328C223.651 185.992 222.931 185.254 221.041 184.814L219.538 184.472C218.536 184.243 218.114 183.848 218.114 183.268C218.114 182.529 218.8 182.028 219.828 182.028C220.892 182.028 221.551 182.591 221.656 183.487H223.44C223.379 181.782 221.981 180.587 219.828 180.587C217.701 180.587 216.26 181.721 216.26 183.373ZM225.682 178.565V180.754H224.337V182.257H225.682V187.565C225.682 189.35 226.411 190.062 228.283 190.062C228.705 190.062 229.127 190.026 229.338 189.974V188.471C229.215 188.497 228.907 188.515 228.714 188.515C227.94 188.515 227.589 188.154 227.589 187.354V182.257H229.347V180.754H227.589V178.565H225.682ZM233.144 179.233C233.741 179.233 234.216 178.759 234.216 178.17C234.216 177.581 233.741 177.106 233.144 177.106C232.546 177.106 232.071 177.581 232.071 178.17C232.071 178.759 232.546 179.233 233.144 179.233ZM236.571 179.233C237.169 179.233 237.644 178.759 237.644 178.17C237.644 177.581 237.169 177.106 236.571 177.106C235.982 177.106 235.499 177.581 235.499 178.17C235.499 178.759 235.982 179.233 236.571 179.233ZM238.839 180.754H236.94V186.142C236.94 187.583 236.114 188.532 234.743 188.532C233.434 188.532 232.766 187.776 232.766 186.37V180.754H230.867V186.739C230.867 188.857 232.098 190.167 234.11 190.167C235.525 190.167 236.466 189.543 236.976 188.436H237.02V190H238.839V180.754ZM248.656 183.936C248.489 182.116 247.039 180.587 244.657 180.587C242.029 180.587 240.307 182.441 240.307 185.377C240.307 188.365 242.029 190.176 244.675 190.176C246.898 190.176 248.472 188.84 248.674 186.871H246.846C246.626 187.943 245.861 188.585 244.692 188.585C243.216 188.585 242.24 187.407 242.24 185.377C242.24 183.391 243.207 182.169 244.675 182.169C245.914 182.169 246.652 182.951 246.846 183.936H248.656ZM252.005 184.718H251.987V177.317H250.089V190H251.987V186.678L252.778 185.896L255.916 190H258.122L254.141 184.735L257.973 180.754H255.74L252.005 184.718Z" fill="black"/>
<path d="M57.0938 197.727V209H60.8828C64.2344 209 66.2031 206.914 66.2031 203.359C66.2031 199.812 64.2266 197.727 60.8828 197.727H57.0938ZM58.5 198.992H60.7891C63.3516 198.992 64.7656 200.555 64.7656 203.375C64.7656 206.172 63.3438 207.734 60.7891 207.734H58.5V198.992ZM68.4922 199.43C68.9688 199.43 69.3438 199.047 69.3438 198.578C69.3438 198.102 68.9688 197.727 68.4922 197.727C68.0234 197.727 67.6406 198.102 67.6406 198.578C67.6406 199.047 68.0234 199.43 68.4922 199.43ZM67.8125 209H69.1719V200.875H67.8125V209ZM76.3984 206.672C76.1719 207.438 75.4141 207.961 74.3828 207.961C72.9219 207.961 72.0078 206.938 72.0078 205.383V205.305H77.8359V204.789C77.8359 202.328 76.4844 200.734 74.2891 200.734C72.0469 200.734 70.6094 202.445 70.6094 204.969C70.6094 207.523 72.0234 209.141 74.3516 209.141C76.125 209.141 77.5 208.094 77.7344 206.672H76.3984ZM74.2656 201.914C75.5469 201.914 76.3984 202.883 76.4297 204.242H72.0156C72.1016 202.891 72.9922 201.914 74.2656 201.914ZM92.8281 200.875H91.4844L89.8594 207.484H89.8281L87.9844 200.875H86.6719L84.8359 207.484H84.8047L83.1797 200.875H81.8281L84.1016 209H85.4844L87.3125 202.711H87.3438L89.1797 209H90.5625L92.8281 200.875ZM94.6953 199.43C95.1719 199.43 95.5469 199.047 95.5469 198.578C95.5469 198.102 95.1719 197.727 94.6953 197.727C94.2266 197.727 93.8438 198.102 93.8438 198.578C93.8438 199.047 94.2266 199.43 94.6953 199.43ZM94.0156 209H95.375V200.875H94.0156V209ZM103.961 203.539C103.789 202.078 102.578 200.734 100.547 200.734C98.3047 200.734 96.8125 202.375 96.8125 204.938C96.8125 207.555 98.3125 209.141 100.562 209.141C102.406 209.141 103.766 208 103.977 206.383H102.641C102.406 207.359 101.68 207.945 100.57 207.945C99.1641 207.945 98.1953 206.828 98.1953 204.938C98.1953 203.094 99.1484 201.93 100.555 201.93C101.75 201.93 102.438 202.656 102.633 203.539H103.961ZM105.297 209H106.656V204.266C106.656 202.859 107.492 201.938 108.844 201.938C110.117 201.938 110.766 202.711 110.766 204V209H112.125V203.75C112.125 201.938 111.047 200.734 109.266 200.734C108.031 200.734 107.141 201.266 106.688 202.172H106.656V197.727H105.297V209ZM114.289 198.914V200.875H113.078V201.992H114.289V206.891C114.289 208.453 114.867 209.062 116.359 209.062C116.68 209.062 117.055 209.039 117.219 209V207.859C117.125 207.875 116.812 207.898 116.656 207.898C115.961 207.898 115.648 207.562 115.648 206.82V201.992H117.227V200.875H115.648V198.914H114.289ZM119.43 199.43C119.906 199.43 120.281 199.047 120.281 198.578C120.281 198.102 119.906 197.727 119.43 197.727C118.961 197.727 118.578 198.102 118.578 198.578C118.578 199.047 118.961 199.43 119.43 199.43ZM118.75 209H120.109V200.875H118.75V209ZM125.297 212.062C127.539 212.062 128.969 210.773 128.969 208.836V200.875H127.672V202.242H127.648C127.109 201.297 126.156 200.734 125.008 200.734C122.906 200.734 121.547 202.359 121.547 204.906C121.547 207.43 122.906 209.062 124.977 209.062C126.117 209.062 127.078 208.484 127.578 207.602H127.609V208.883C127.609 210.094 126.758 210.906 125.352 210.906C124.336 210.906 123.531 210.414 123.266 209.672H121.867C122.094 211.055 123.508 212.062 125.297 212.062ZM125.25 207.867C123.852 207.867 122.938 206.727 122.938 204.906C122.938 203.086 123.852 201.93 125.25 201.93C126.664 201.93 127.609 203.117 127.609 204.906C127.609 206.695 126.664 207.867 125.25 207.867ZM130.602 203.117C130.602 204.289 131.344 205 132.875 205.367L134.164 205.68C135.094 205.906 135.414 206.242 135.414 206.828C135.414 207.562 134.734 208.031 133.633 208.031C132.531 208.031 131.906 207.586 131.742 206.656H130.383C130.539 208.18 131.727 209.141 133.633 209.141C135.445 209.141 136.781 208.141 136.781 206.727C136.781 205.562 136.188 204.922 134.547 204.523L133.258 204.211C132.352 203.992 131.938 203.609 131.938 203.047C131.938 202.336 132.594 201.844 133.586 201.844C134.586 201.844 135.211 202.367 135.312 203.219H136.609C136.555 201.781 135.367 200.734 133.586 200.734C131.828 200.734 130.602 201.727 130.602 203.117ZM138.633 198.914V200.875H137.422V201.992H138.633V206.891C138.633 208.453 139.211 209.062 140.703 209.062C141.023 209.062 141.398 209.039 141.562 209V207.859C141.469 207.875 141.156 207.898 141 207.898C140.305 207.898 139.992 207.562 139.992 206.82V201.992H141.57V200.875H139.992V198.914H138.633ZM148.18 206.672C147.953 207.438 147.195 207.961 146.164 207.961C144.703 207.961 143.789 206.938 143.789 205.383V205.305H149.617V204.789C149.617 202.328 148.266 200.734 146.07 200.734C143.828 200.734 142.391 202.445 142.391 204.969C142.391 207.523 143.805 209.141 146.133 209.141C147.906 209.141 149.281 208.094 149.516 206.672H148.18ZM146.047 201.914C147.328 201.914 148.18 202.883 148.211 204.242H143.797C143.883 202.891 144.773 201.914 146.047 201.914ZM165.594 209V197.727H163.961L160.07 207.211H160.008L156.117 197.727H154.484V209H155.797V200.312H155.852L159.445 209H160.633L164.227 200.312H164.281V209H165.594ZM169.711 209.141C170.805 209.141 171.836 208.531 172.32 207.602H172.352V209H173.641V203.383C173.641 201.766 172.438 200.734 170.531 200.734C168.609 200.734 167.406 201.812 167.312 203.219H168.625C168.797 202.422 169.453 201.93 170.5 201.93C171.625 201.93 172.281 202.523 172.281 203.516V204.195L169.953 204.328C168.078 204.438 167.008 205.312 167.008 206.703C167.008 208.164 168.094 209.141 169.711 209.141ZM170.016 207.984C169.039 207.984 168.391 207.477 168.391 206.703C168.391 205.938 169.016 205.453 170.109 205.383L172.281 205.25V205.914C172.281 207.086 171.297 207.984 170.016 207.984ZM175.438 209H176.797V204.266C176.797 202.859 177.633 201.938 178.984 201.938C180.258 201.938 180.906 202.711 180.906 204V209H182.266V203.75C182.266 201.938 181.188 200.734 179.406 200.734C178.172 200.734 177.281 201.266 176.828 202.172H176.797V197.727H175.438V209ZM184.062 209H185.422V197.727H184.062V209ZM187.086 209H193.148V207.883H188.656V207.859L193.125 201.867V200.875H187.094V201.992H191.586V202.016L187.086 208.031V209ZM199.82 206.672C199.594 207.438 198.836 207.961 197.805 207.961C196.344 207.961 195.43 206.938 195.43 205.383V205.305H201.258V204.789C201.258 202.328 199.906 200.734 197.711 200.734C195.469 200.734 194.031 202.445 194.031 204.969C194.031 207.523 195.445 209.141 197.773 209.141C199.547 209.141 200.922 208.094 201.156 206.672H199.82ZM197.688 201.914C198.969 201.914 199.82 202.883 199.852 204.242H195.438C195.523 202.891 196.414 201.914 197.688 201.914ZM203.383 199.43C203.859 199.43 204.234 199.047 204.234 198.578C204.234 198.102 203.859 197.727 203.383 197.727C202.914 197.727 202.531 198.102 202.531 198.578C202.531 199.047 202.914 199.43 203.383 199.43ZM202.703 209H204.062V200.875H202.703V209ZM206.336 198.914V200.875H205.125V201.992H206.336V206.891C206.336 208.453 206.914 209.062 208.406 209.062C208.727 209.062 209.102 209.039 209.266 209V207.859C209.172 207.875 208.859 207.898 208.703 207.898C208.008 207.898 207.695 207.562 207.695 206.82V201.992H209.273V200.875H207.695V198.914H206.336Z" fill="#5C6166"/>
<path d="M302.367 196V190.363H301.188V192.652H298.648V190.363H297.469V196H298.648V193.625H301.188V196H302.367ZM304.484 196V190.363H303.305V196H304.484ZM306.551 196V192.309H306.586L309.223 196H310.199V190.363H309.07V194.035H309.039L306.406 190.363H305.422V196H306.551ZM311.02 196H315.371V195.023H312.441V194.996L315.293 191.129V190.363H311.086V191.336H313.883V191.367L311.02 195.23V196ZM317.367 190.363H316.188V194.008C316.188 195.25 317.105 196.094 318.551 196.094C319.992 196.094 320.91 195.25 320.91 194.008V190.363H319.73V193.891C319.73 194.613 319.305 195.086 318.551 195.086C317.793 195.086 317.367 194.613 317.367 193.891V190.363ZM323.031 196V193.781H325.324V192.848H323.031V191.336H325.543V190.363H321.852V196H323.031ZM327.785 189.852C328.102 189.852 328.352 189.602 328.352 189.297C328.352 188.988 328.102 188.738 327.785 188.738C327.469 188.738 327.223 188.988 327.223 189.297C327.223 189.602 327.469 189.852 327.785 189.852ZM329.422 189.852C329.738 189.852 329.988 189.602 329.988 189.297C329.988 188.988 329.738 188.738 329.422 188.738C329.109 188.738 328.855 188.988 328.855 189.297C328.855 189.602 329.109 189.852 329.422 189.852ZM327.422 190.363H326.242V194.008C326.242 195.25 327.16 196.094 328.605 196.094C330.047 196.094 330.965 195.25 330.965 194.008V190.363H329.785V193.891C329.785 194.613 329.359 195.086 328.605 195.086C327.848 195.086 327.422 194.613 327.422 193.891V190.363ZM336.945 193.633V192.996H334.57V193.855H335.797L335.793 193.945C335.77 194.645 335.234 195.117 334.465 195.117C333.527 195.117 332.934 194.371 332.934 193.148C332.934 191.949 333.492 191.242 334.422 191.242C335.059 191.242 335.539 191.594 335.711 192.184H336.895C336.727 191.043 335.734 190.266 334.418 190.266C332.762 190.266 331.73 191.359 331.73 193.164C331.73 194.996 332.762 196.094 334.445 196.094C336.016 196.094 336.945 195.168 336.945 193.633ZM341.461 195.023H338.906V193.602H341.316V192.695H338.906V191.336H341.461V190.363H337.727V196H341.461V195.023ZM343.441 196V192.309H343.477L346.113 196H347.09V190.363H345.961V194.035H345.93L343.297 190.363H342.312V196H343.441Z" fill="#00A699"/>
<path d="M45 187.667H46.3333C47.7478 187.667 49.1044 188.229 50.1046 189.229C51.1048 190.229 51.6667 191.586 51.6667 193C51.6667 194.415 51.1048 195.771 50.1046 196.771C49.1044 197.772 47.7478 198.333 46.3333 198.333H45" fill="#5C6166"/>
<path d="M45 187.667H46.3333C47.7478 187.667 49.1044 188.229 50.1046 189.229C51.1048 190.229 51.6667 191.586 51.6667 193C51.6667 194.415 51.1048 195.771 50.1046 196.771C49.1044 197.772 47.7478 198.333 46.3333 198.333H45" stroke="#5C6166" stroke-width="2" stroke-linecap="round" stroke-linejoin="round"/>
<path d="M23.6666 187.667H45V199.667C45 201.081 44.4381 202.438 43.4379 203.438C42.4377 204.438 41.0811 205 39.6666 205H29C27.5855 205 26.2289 204.438 25.2287 203.438C24.2285 202.438 23.6666 201.081 23.6666 199.667V187.667Z" fill="#5C6166" stroke="#5C6166" stroke-width="2" stroke-linecap="round" stroke-linejoin="round"/>
<path d="M29 178.333V182.333" stroke="#5C6166" stroke-width="2" stroke-linecap="round" stroke-linejoin="round"/>
<path d="M34.3334 178.333V182.333" stroke="#5C6166" stroke-width="2" stroke-linecap="round" stroke-linejoin="round"/>
<path d="M39.6666 178.333V182.333" stroke="#5C6166" stroke-width="2" stroke-linecap="round" stroke-linejoin="round"/>
<defs>
<filter id="filter0_d" x="0" y="21" width="371" height="226" filterUnits="userSpaceOnUse" color-interpolation-filters="sRGB">
<feFlood flood-opacity="0" result="BackgroundImageFix"/>
<feColorMatrix in="SourceAlpha" type="matrix" values="0 0 0 0 0 0 0 0 0 0 0 0 0 0 0 0 0 0 127 0"/>
<feOffset dy="4"/>
<feGaussianBlur stdDeviation="4"/>
<feColorMatrix type="matrix" values="0 0 0 0 0 0 0 0 0 0 0 0 0 0 0 0 0 0 0.08 0"/>
<feBlend mode="normal" in2="BackgroundImageFix" result="effect1_dropShadow"/>
<feBlend mode="normal" in="SourceGraphic" in2="effect1_dropShadow" result="shape"/>
</filter>
</defs>
</svg>
