<svg width="371" height="365" viewBox="0 0 371 365" fill="none" xmlns="http://www.w3.org/2000/svg">
<path d="M96.1816 11.6738H91.4512V8.61133H95.9287V7.33984H91.4512V4.45508H96.1816V3.13574H89.9199V13H96.1816V11.6738ZM97.5762 13H99.0527V8.55664C99.0527 7.63379 99.6748 6.9502 100.55 6.9502C101.384 6.9502 101.91 7.47656 101.91 8.30371V13H103.359V8.50879C103.359 7.59961 103.968 6.9502 104.843 6.9502C105.718 6.9502 106.217 7.4834 106.217 8.41309V13H107.7V8.05762C107.7 6.62891 106.771 5.68555 105.349 5.68555C104.323 5.68555 103.476 6.21875 103.106 7.09375H103.072C102.785 6.19824 102.061 5.68555 101.062 5.68555C100.092 5.68555 99.3398 6.21875 99.0186 7.01855H98.9844V5.80859H97.5762V13ZM112.875 5.69238C111.836 5.69238 111.009 6.21875 110.585 7.0459H110.558V5.80859H109.129V15.3789H110.605V11.8174H110.64C111.05 12.6172 111.87 13.123 112.902 13.123C114.707 13.123 115.903 11.6807 115.903 9.4043C115.903 7.12793 114.7 5.69238 112.875 5.69238ZM112.485 11.8721C111.351 11.8721 110.599 10.9014 110.599 9.4043C110.599 7.9209 111.357 6.93652 112.485 6.93652C113.654 6.93652 114.386 7.90039 114.386 9.4043C114.386 10.915 113.654 11.8721 112.485 11.8721ZM117.476 13H118.959V6.97754H120.395V5.82227H118.938V5.14551C118.938 4.50977 119.239 4.18848 119.882 4.18848C120.08 4.18848 120.278 4.20215 120.422 4.22949V3.13574C120.23 3.10156 119.896 3.06738 119.595 3.06738C118.132 3.06738 117.476 3.72363 117.476 5.11816V5.82227H116.484V6.97754H117.476V13ZM124.346 13.1367C126.403 13.1367 127.757 11.7217 127.757 9.4043C127.757 7.09375 126.396 5.67871 124.346 5.67871C122.295 5.67871 120.935 7.09375 120.935 9.4043C120.935 11.7217 122.288 13.1367 124.346 13.1367ZM124.346 11.9199C123.19 11.9199 122.438 11.0039 122.438 9.4043C122.438 7.81152 123.19 6.89551 124.346 6.89551C125.501 6.89551 126.253 7.81152 126.253 9.4043C126.253 11.0039 125.508 11.9199 124.346 11.9199ZM128.953 13H130.43V8.84375C130.43 7.70898 131.1 6.95703 132.193 6.95703C133.232 6.95703 133.766 7.59277 133.766 8.65234V13H135.249V8.36523C135.249 6.73828 134.306 5.68555 132.727 5.68555C131.633 5.68555 130.847 6.1709 130.45 7.01172H130.416V3.13574H128.953V13ZM136.732 13H138.209V3.13574H136.732V13ZM144.491 10.8877C144.293 11.5166 143.671 11.9404 142.83 11.9404C141.647 11.9404 140.896 11.1133 140.896 9.8623V9.77344H145.975V9.26758C145.975 7.08691 144.73 5.67871 142.734 5.67871C140.704 5.67871 139.405 7.18262 139.405 9.43848C139.405 11.708 140.684 13.1367 142.796 13.1367C144.443 13.1367 145.688 12.2002 145.893 10.8877H144.491ZM142.734 6.86816C143.767 6.86816 144.464 7.64062 144.498 8.74121H140.902C140.978 7.6543 141.702 6.86816 142.734 6.86816ZM147.123 13H148.6V8.80957C148.6 7.69531 149.27 6.95703 150.309 6.95703C151.334 6.95703 151.84 7.55176 151.84 8.63184V13H153.323V8.34473C153.323 6.69727 152.414 5.68555 150.828 5.68555C149.721 5.68555 148.955 6.19141 148.565 7.01172H148.531V5.80859H147.123V13ZM159.517 10.8877C159.318 11.5166 158.696 11.9404 157.855 11.9404C156.673 11.9404 155.921 11.1133 155.921 9.8623V9.77344H161V9.26758C161 7.08691 159.756 5.67871 157.76 5.67871C155.729 5.67871 154.431 7.18262 154.431 9.43848C154.431 11.708 155.709 13.1367 157.821 13.1367C159.469 13.1367 160.713 12.2002 160.918 10.8877H159.517ZM157.76 6.86816C158.792 6.86816 159.489 7.64062 159.523 8.74121H155.928C156.003 7.6543 156.728 6.86816 157.76 6.86816ZM173.298 13V3.13574H171.767V7.30566H166.701V3.13574H165.17V13H166.701V8.63184H171.767V13H173.298ZM179.696 10.8877C179.498 11.5166 178.876 11.9404 178.035 11.9404C176.853 11.9404 176.101 11.1133 176.101 9.8623V9.77344H181.18V9.26758C181.18 7.08691 179.936 5.67871 177.939 5.67871C175.909 5.67871 174.61 7.18262 174.61 9.43848C174.61 11.708 175.889 13.1367 178.001 13.1367C179.648 13.1367 180.893 12.2002 181.098 10.8877H179.696ZM177.939 6.86816C178.972 6.86816 179.669 7.64062 179.703 8.74121H176.107C176.183 7.6543 176.907 6.86816 177.939 6.86816ZM182.328 13H183.805V8.69336C183.805 7.6748 184.393 7.03906 185.343 7.03906C185.63 7.03906 185.89 7.07324 186.006 7.12109V5.74707C185.896 5.72656 185.712 5.69238 185.5 5.69238C184.652 5.69238 184.01 6.19141 183.771 7.03223H183.736V5.80859H182.328V13ZM188.877 13.123C189.82 13.123 190.729 12.6172 191.146 11.8174H191.181V13H192.596V8.04395C192.596 6.60156 191.481 5.67871 189.738 5.67871C187.961 5.67871 186.854 6.63574 186.771 7.93457H188.166C188.296 7.29199 188.829 6.88184 189.684 6.88184C190.586 6.88184 191.126 7.36035 191.126 8.16016V8.71387L189.157 8.83008C187.448 8.92578 186.484 9.69824 186.484 10.9561C186.484 12.248 187.469 13.123 188.877 13.123ZM189.287 11.9541C188.494 11.9541 187.975 11.5439 187.975 10.915C187.975 10.2998 188.474 9.91016 189.355 9.84863L191.126 9.73926V10.3066C191.126 11.2432 190.319 11.9541 189.287 11.9541ZM200.197 5.80859H198.721V9.99902C198.721 11.1201 198.078 11.8584 197.012 11.8584C195.993 11.8584 195.474 11.2705 195.474 10.1768V5.80859H193.997V10.4639C193.997 12.1113 194.954 13.1299 196.52 13.1299C197.62 13.1299 198.352 12.6445 198.748 11.7832H198.782V13H200.197V5.80859ZM201.53 7.8457C201.53 8.8916 202.207 9.54785 203.574 9.8623L204.743 10.1357C205.529 10.3135 205.796 10.5869 205.796 11.0518C205.796 11.6396 205.249 12.0088 204.36 12.0088C203.458 12.0088 202.945 11.6396 202.809 10.8877H201.346C201.482 12.2549 202.562 13.1367 204.36 13.1367C206.056 13.1367 207.279 12.2344 207.279 10.9219C207.279 9.88281 206.719 9.30859 205.249 8.9668L204.08 8.7002C203.301 8.52246 202.973 8.21484 202.973 7.76367C202.973 7.18945 203.506 6.7998 204.306 6.7998C205.133 6.7998 205.646 7.2373 205.728 7.93457H207.115C207.067 6.6084 205.98 5.67871 204.306 5.67871C202.651 5.67871 201.53 6.56055 201.53 7.8457ZM208.858 13H210.342V6.97754H211.777V5.82227H210.321V5.14551C210.321 4.50977 210.622 4.18848 211.265 4.18848C211.463 4.18848 211.661 4.20215 211.805 4.22949V3.13574C211.613 3.10156 211.278 3.06738 210.978 3.06738C209.515 3.06738 208.858 3.72363 208.858 5.11816V5.82227H207.867V6.97754H208.858V13ZM215.729 13.1367C217.786 13.1367 219.14 11.7217 219.14 9.4043C219.14 7.09375 217.779 5.67871 215.729 5.67871C213.678 5.67871 212.317 7.09375 212.317 9.4043C212.317 11.7217 213.671 13.1367 215.729 13.1367ZM215.729 11.9199C214.573 11.9199 213.821 11.0039 213.821 9.4043C213.821 7.81152 214.573 6.89551 215.729 6.89551C216.884 6.89551 217.636 7.81152 217.636 9.4043C217.636 11.0039 216.891 11.9199 215.729 11.9199ZM220.281 13H221.758V8.69336C221.758 7.6748 222.346 7.03906 223.296 7.03906C223.583 7.03906 223.843 7.07324 223.959 7.12109V5.74707C223.85 5.72656 223.665 5.69238 223.453 5.69238C222.605 5.69238 221.963 6.19141 221.724 7.03223H221.689V5.80859H220.281V13ZM227.261 13.123C228.307 13.123 229.127 12.5967 229.551 11.7764H229.578V13H231.014V3.13574H229.53V7.00488H229.503C229.1 6.21191 228.279 5.69238 227.247 5.69238C225.442 5.69238 224.239 7.13477 224.239 9.4043C224.239 11.6738 225.442 13.123 227.261 13.123ZM227.65 6.93652C228.785 6.93652 229.544 7.91406 229.544 9.4043C229.544 10.9082 228.785 11.8721 227.65 11.8721C226.481 11.8721 225.75 10.9219 225.75 9.4043C225.75 7.89355 226.481 6.93652 227.65 6.93652ZM237.296 10.8877C237.098 11.5166 236.476 11.9404 235.635 11.9404C234.452 11.9404 233.7 11.1133 233.7 9.8623V9.77344H238.779V9.26758C238.779 7.08691 237.535 5.67871 235.539 5.67871C233.509 5.67871 232.21 7.18262 232.21 9.43848C232.21 11.708 233.488 13.1367 235.601 13.1367C237.248 13.1367 238.492 12.2002 238.697 10.8877H237.296ZM235.539 6.86816C236.571 6.86816 237.269 7.64062 237.303 8.74121H233.707C233.782 7.6543 234.507 6.86816 235.539 6.86816ZM239.928 13H241.404V8.69336C241.404 7.6748 241.992 7.03906 242.942 7.03906C243.229 7.03906 243.489 7.07324 243.605 7.12109V5.74707C243.496 5.72656 243.312 5.69238 243.1 5.69238C242.252 5.69238 241.609 6.19141 241.37 7.03223H241.336V5.80859H239.928V13ZM250.688 5.80859H249.211V9.99902C249.211 11.1201 248.568 11.8584 247.502 11.8584C246.483 11.8584 245.964 11.2705 245.964 10.1768V5.80859H244.487V10.4639C244.487 12.1113 245.444 13.1299 247.01 13.1299C248.11 13.1299 248.842 12.6445 249.238 11.7832H249.272V13H250.688V5.80859ZM252.15 13H253.627V8.80957C253.627 7.69531 254.297 6.95703 255.336 6.95703C256.361 6.95703 256.867 7.55176 256.867 8.63184V13H258.351V8.34473C258.351 6.69727 257.441 5.68555 255.855 5.68555C254.748 5.68555 253.982 6.19141 253.593 7.01172H253.559V5.80859H252.15V13ZM262.855 15.707C264.906 15.707 266.232 14.5859 266.232 12.8701V5.80859H264.797V7.03906H264.77C264.332 6.20508 263.498 5.69238 262.479 5.69238C260.634 5.69238 259.458 7.11426 259.458 9.37695C259.458 11.6191 260.641 13.0273 262.445 13.0273C263.471 13.0273 264.318 12.5146 264.722 11.7354H264.749V12.918C264.749 13.9023 264.065 14.5586 262.91 14.5586C262.069 14.5586 261.413 14.1621 261.201 13.5605H259.718C259.902 14.8047 261.16 15.707 262.855 15.707ZM262.842 11.8037C261.707 11.8037 260.969 10.8877 260.969 9.38379C260.969 7.88672 261.707 6.93652 262.842 6.93652C263.997 6.93652 264.756 7.90723 264.756 9.38379C264.756 10.8672 263.997 11.8037 262.842 11.8037ZM272.46 10.8877C272.262 11.5166 271.64 11.9404 270.799 11.9404C269.616 11.9404 268.864 11.1133 268.864 9.8623V9.77344H273.943V9.26758C273.943 7.08691 272.699 5.67871 270.703 5.67871C268.673 5.67871 267.374 7.18262 267.374 9.43848C267.374 11.708 268.652 13.1367 270.765 13.1367C272.412 13.1367 273.656 12.2002 273.861 10.8877H272.46ZM270.703 6.86816C271.735 6.86816 272.433 7.64062 272.467 8.74121H268.871C268.946 7.6543 269.671 6.86816 270.703 6.86816ZM275.092 13H276.568V8.80957C276.568 7.69531 277.238 6.95703 278.277 6.95703C279.303 6.95703 279.809 7.55176 279.809 8.63184V13H281.292V8.34473C281.292 6.69727 280.383 5.68555 278.797 5.68555C277.689 5.68555 276.924 6.19141 276.534 7.01172H276.5V5.80859H275.092V13Z" fill="black"/>
<g filter="url(#filter0_d)">
<rect x="8" y="25" width="355" height="328" rx="12" fill="white"/>
</g>
<path d="M64.4023 42.4375H64.4902L67.2324 52H69.0869L72.5146 39.3174H70.4668L68.1201 49.249H68.0498L65.3604 39.3174H63.5322L60.8516 49.249H60.7812L58.4346 39.3174H56.3867L59.8057 52H61.6689L64.4023 42.4375ZM75.3447 52.1582C76.5576 52.1582 77.7266 51.5078 78.2627 50.4795H78.3066V52H80.126V45.6279C80.126 43.7734 78.6934 42.5869 76.4521 42.5869C74.167 42.5869 72.7432 43.8174 72.6377 45.4873H74.4307C74.5977 44.6611 75.2832 44.1338 76.3818 44.1338C77.542 44.1338 78.2363 44.749 78.2363 45.7773V46.4893L75.7051 46.6387C73.5078 46.7617 72.2686 47.7549 72.2686 49.3721C72.2686 51.0332 73.5342 52.1582 75.3447 52.1582ZM75.8721 50.6553C74.8525 50.6553 74.1846 50.1279 74.1846 49.3193C74.1846 48.5283 74.8262 48.0273 75.96 47.9482L78.2363 47.8076V48.5371C78.2363 49.7412 77.1992 50.6553 75.8721 50.6553ZM81.8047 45.373C81.8047 46.7178 82.6748 47.5615 84.4326 47.9658L85.9355 48.3174C86.9463 48.5459 87.2891 48.8975 87.2891 49.4951C87.2891 50.251 86.5859 50.7256 85.4434 50.7256C84.2832 50.7256 83.624 50.251 83.4482 49.2842H81.5674C81.7432 51.042 83.1318 52.1758 85.4434 52.1758C87.623 52.1758 89.1963 51.0156 89.1963 49.3281C89.1963 47.9922 88.4756 47.2539 86.5859 46.8145L85.083 46.4717C84.0811 46.2432 83.6592 45.8477 83.6592 45.2676C83.6592 44.5293 84.3447 44.0283 85.373 44.0283C86.4365 44.0283 87.0957 44.5908 87.2012 45.4873H88.9854C88.9238 43.7822 87.5264 42.5869 85.373 42.5869C83.2461 42.5869 81.8047 43.7207 81.8047 45.373ZM90.5059 45.373C90.5059 46.7178 91.376 47.5615 93.1338 47.9658L94.6367 48.3174C95.6475 48.5459 95.9902 48.8975 95.9902 49.4951C95.9902 50.251 95.2871 50.7256 94.1445 50.7256C92.9844 50.7256 92.3252 50.251 92.1494 49.2842H90.2686C90.4443 51.042 91.833 52.1758 94.1445 52.1758C96.3242 52.1758 97.8975 51.0156 97.8975 49.3281C97.8975 47.9922 97.1768 47.2539 95.2871 46.8145L93.7842 46.4717C92.7822 46.2432 92.3604 45.8477 92.3604 45.2676C92.3604 44.5293 93.0459 44.0283 94.0742 44.0283C95.1377 44.0283 95.7969 44.5908 95.9023 45.4873H97.6865C97.625 43.7822 96.2275 42.5869 94.0742 42.5869C91.9473 42.5869 90.5059 43.7207 90.5059 45.373ZM105.5 49.2842C105.245 50.0928 104.445 50.6377 103.364 50.6377C101.844 50.6377 100.877 49.5742 100.877 47.9658V47.8516H107.407V47.2012C107.407 44.3975 105.808 42.5869 103.241 42.5869C100.631 42.5869 98.9609 44.5205 98.9609 47.4209C98.9609 50.3389 100.604 52.1758 103.32 52.1758C105.438 52.1758 107.038 50.9717 107.302 49.2842H105.5ZM103.241 44.1162C104.568 44.1162 105.465 45.1094 105.509 46.5244H100.886C100.982 45.127 101.914 44.1162 103.241 44.1162ZM108.884 52H110.782V46.4629C110.782 45.1533 111.538 44.3359 112.76 44.3359C113.129 44.3359 113.463 44.3799 113.612 44.4414V42.6748C113.472 42.6484 113.234 42.6045 112.962 42.6045C111.872 42.6045 111.046 43.2461 110.738 44.3271H110.694V42.7539H108.884V52ZM119 40.5654V42.7539H117.655V44.2568H119V49.5654C119 51.3496 119.729 52.0615 121.602 52.0615C122.023 52.0615 122.445 52.0264 122.656 51.9736V50.4707C122.533 50.4971 122.226 50.5146 122.032 50.5146C121.259 50.5146 120.907 50.1543 120.907 49.3545V44.2568H122.665V42.7539H120.907V40.5654H119ZM124.229 52H126.128V46.4629C126.128 45.1533 126.884 44.3359 128.105 44.3359C128.475 44.3359 128.809 44.3799 128.958 44.4414V42.6748C128.817 42.6484 128.58 42.6045 128.308 42.6045C127.218 42.6045 126.392 43.2461 126.084 44.3271H126.04V42.7539H124.229V52ZM131.146 41.2598C131.753 41.2598 132.236 40.7676 132.236 40.1699C132.236 39.5635 131.753 39.0801 131.146 39.0801C130.54 39.0801 130.048 39.5635 130.048 40.1699C130.048 40.7676 130.54 41.2598 131.146 41.2598ZM130.197 52H132.096V42.7539H130.197V52ZM134.038 52H135.937V46.6123C135.937 45.1797 136.798 44.2305 138.134 44.2305C139.452 44.2305 140.103 44.9951 140.103 46.3838V52H142.01V46.0146C142.01 43.8965 140.841 42.5957 138.802 42.5957C137.378 42.5957 136.394 43.2461 135.893 44.3008H135.849V42.7539H134.038V52ZM145.833 46.7178H145.815V39.3174H143.917V52H145.815V48.6777L146.606 47.8955L149.744 52H151.95L147.969 46.7354L151.801 42.7539H149.568L145.833 46.7178ZM158.621 49.2842C158.366 50.0928 157.566 50.6377 156.485 50.6377C154.965 50.6377 153.998 49.5742 153.998 47.9658V47.8516H160.528V47.2012C160.528 44.3975 158.929 42.5869 156.362 42.5869C153.752 42.5869 152.082 44.5205 152.082 47.4209C152.082 50.3389 153.726 52.1758 156.441 52.1758C158.56 52.1758 160.159 50.9717 160.423 49.2842H158.621ZM156.362 44.1162C157.689 44.1162 158.586 45.1094 158.63 46.5244H154.007C154.104 45.127 155.035 44.1162 156.362 44.1162ZM162.005 52H163.903V46.6123C163.903 45.1797 164.765 44.2305 166.101 44.2305C167.419 44.2305 168.069 44.9951 168.069 46.3838V52H169.977V46.0146C169.977 43.8965 168.808 42.5957 166.769 42.5957C165.345 42.5957 164.36 43.2461 163.859 44.3008H163.815V42.7539H162.005V52Z" fill="black"/>
<path d="M63.3516 62.0547H63.4297L66.0312 71H67.3594L70.4297 59.7266H68.9609L66.7031 68.9297H66.6406L64.1016 59.7266H62.6797L60.1406 68.9297H60.0781L57.8203 59.7266H56.3516L59.4219 71H60.75L63.3516 62.0547ZM76.1953 68.6719C75.9688 69.4375 75.2109 69.9609 74.1797 69.9609C72.7188 69.9609 71.8047 68.9375 71.8047 67.3828V67.3047H77.6328V66.7891C77.6328 64.3281 76.2812 62.7344 74.0859 62.7344C71.8438 62.7344 70.4062 64.4453 70.4062 66.9688C70.4062 69.5234 71.8203 71.1406 74.1484 71.1406C75.9219 71.1406 77.2969 70.0938 77.5312 68.6719H76.1953ZM74.0625 63.9141C75.3438 63.9141 76.1953 64.8828 76.2266 66.2422H71.8125C71.8984 64.8906 72.7891 63.9141 74.0625 63.9141ZM79.0078 71H80.3672V66.2188C80.3672 64.8438 81.2031 63.9375 82.4844 63.9375C83.7344 63.9375 84.3516 64.6562 84.3516 65.9688V71H85.7109V65.7266C85.7109 63.8828 84.6797 62.7344 82.8984 62.7344C81.6406 62.7344 80.7734 63.2969 80.3203 64.1719H80.2891V62.875H79.0078V71ZM87.4453 71H88.8047V66.2188C88.8047 64.8438 89.6406 63.9375 90.9219 63.9375C92.1719 63.9375 92.7891 64.6562 92.7891 65.9688V71H94.1484V65.7266C94.1484 63.8828 93.1172 62.7344 91.3359 62.7344C90.0781 62.7344 89.2109 63.2969 88.7578 64.1719H88.7266V62.875H87.4453V71ZM102.242 71.1406C103.414 71.1406 104.344 70.5625 104.867 69.625H104.891V71H106.188V59.7266H104.828V64.1953H104.797C104.312 63.3047 103.375 62.7344 102.211 62.7344C100.164 62.7344 98.7656 64.3906 98.7656 66.9375C98.7656 69.4844 100.172 71.1406 102.242 71.1406ZM102.5 63.9297C103.898 63.9297 104.836 65.125 104.836 66.9375C104.836 68.7578 103.898 69.9453 102.5 69.9453C101.062 69.9453 100.156 68.7812 100.156 66.9375C100.156 65.1016 101.062 63.9297 102.5 63.9297ZM114.695 62.875H113.336V67.6484C113.336 69.0312 112.539 69.9375 111.219 69.9375C109.961 69.9375 109.344 69.2266 109.344 67.9062V62.875H107.984V68.1484C107.984 69.9922 109.023 71.1406 110.797 71.1406C112.047 71.1406 112.891 70.6172 113.375 69.6797H113.406V71H114.695V62.875ZM119.953 59.7266V71H123.742C127.094 71 129.062 68.9141 129.062 65.3594C129.062 61.8125 127.086 59.7266 123.742 59.7266H119.953ZM121.359 60.9922H123.648C126.211 60.9922 127.625 62.5547 127.625 65.375C127.625 68.1719 126.203 69.7344 123.648 69.7344H121.359V60.9922ZM137.273 62.875H135.914V67.6484C135.914 69.0312 135.117 69.9375 133.797 69.9375C132.539 69.9375 131.922 69.2266 131.922 67.9062V62.875H130.562V68.1484C130.562 69.9922 131.602 71.1406 133.375 71.1406C134.625 71.1406 135.469 70.6172 135.953 69.6797H135.984V71H137.273V62.875ZM139.039 71H140.398V65.9375C140.398 64.7891 141.086 64.0312 142.141 64.0312C142.469 64.0312 142.758 64.0703 142.867 64.1094V62.7891C142.758 62.7734 142.555 62.7344 142.32 62.7344C141.367 62.7344 140.617 63.3047 140.352 64.2031H140.32V62.875H139.039V71ZM143.836 65.1172C143.836 66.2891 144.578 67 146.109 67.3672L147.398 67.6797C148.328 67.9062 148.648 68.2422 148.648 68.8281C148.648 69.5625 147.969 70.0312 146.867 70.0312C145.766 70.0312 145.141 69.5859 144.977 68.6562H143.617C143.773 70.1797 144.961 71.1406 146.867 71.1406C148.68 71.1406 150.016 70.1406 150.016 68.7266C150.016 67.5625 149.422 66.9219 147.781 66.5234L146.492 66.2109C145.586 65.9922 145.172 65.6094 145.172 65.0469C145.172 64.3359 145.828 63.8438 146.82 63.8438C147.82 63.8438 148.445 64.3672 148.547 65.2188H149.844C149.789 63.7812 148.602 62.7344 146.82 62.7344C145.062 62.7344 143.836 63.7266 143.836 65.1172ZM151.867 60.9141V62.875H150.656V63.9922H151.867V68.8906C151.867 70.4531 152.445 71.0625 153.938 71.0625C154.258 71.0625 154.633 71.0391 154.797 71V69.8594C154.703 69.875 154.391 69.8984 154.234 69.8984C153.539 69.8984 153.227 69.5625 153.227 68.8203V63.9922H154.805V62.875H153.227V60.9141H151.867ZM159.609 71H160.969V66.2656C160.969 64.8594 161.805 63.9375 163.156 63.9375C164.43 63.9375 165.078 64.7109 165.078 66V71H166.438V65.75C166.438 63.9375 165.359 62.7344 163.578 62.7344C162.344 62.7344 161.453 63.2656 161 64.1719H160.969V59.7266H159.609V71ZM170.539 71.1406C171.633 71.1406 172.664 70.5312 173.148 69.6016H173.18V71H174.469V65.3828C174.469 63.7656 173.266 62.7344 171.359 62.7344C169.438 62.7344 168.234 63.8125 168.141 65.2188H169.453C169.625 64.4219 170.281 63.9297 171.328 63.9297C172.453 63.9297 173.109 64.5234 173.109 65.5156V66.1953L170.781 66.3281C168.906 66.4375 167.836 67.3125 167.836 68.7031C167.836 70.1641 168.922 71.1406 170.539 71.1406ZM170.844 69.9844C169.867 69.9844 169.219 69.4766 169.219 68.7031C169.219 67.9375 169.844 67.4531 170.938 67.3828L173.109 67.25V67.9141C173.109 69.0859 172.125 69.9844 170.844 69.9844ZM176.055 65.1172C176.055 66.2891 176.797 67 178.328 67.3672L179.617 67.6797C180.547 67.9062 180.867 68.2422 180.867 68.8281C180.867 69.5625 180.188 70.0312 179.086 70.0312C177.984 70.0312 177.359 69.5859 177.195 68.6562H175.836C175.992 70.1797 177.18 71.1406 179.086 71.1406C180.898 71.1406 182.234 70.1406 182.234 68.7266C182.234 67.5625 181.641 66.9219 180 66.5234L178.711 66.2109C177.805 65.9922 177.391 65.6094 177.391 65.0469C177.391 64.3359 178.047 63.8438 179.039 63.8438C180.039 63.8438 180.664 64.3672 180.766 65.2188H182.062C182.008 63.7812 180.82 62.7344 179.039 62.7344C177.281 62.7344 176.055 63.7266 176.055 65.1172ZM184.086 60.9141V62.875H182.875V63.9922H184.086V68.8906C184.086 70.4531 184.664 71.0625 186.156 71.0625C186.477 71.0625 186.852 71.0391 187.016 71V69.8594C186.922 69.875 186.609 69.8984 186.453 69.8984C185.758 69.8984 185.445 69.5625 185.445 68.8203V63.9922H187.023V62.875H185.445V60.9141H184.086ZM189.406 73.2422L190.477 69.2656H189.031L188.273 73.2422H189.406ZM199.078 71.1406C201.156 71.1406 202.531 69.4922 202.531 66.9375C202.531 64.3906 201.148 62.7344 199.102 62.7344C197.953 62.7344 197.008 63.3047 196.5 64.2344H196.469V59.7266H195.109V71H196.406V69.625H196.438C196.961 70.5625 197.891 71.1406 199.078 71.1406ZM198.812 63.9297C200.25 63.9297 201.141 65.0938 201.141 66.9375C201.141 68.7969 200.25 69.9453 198.812 69.9453C197.438 69.9453 196.461 68.75 196.461 66.9375C196.461 65.1328 197.438 63.9297 198.812 63.9297ZM204.664 61.4297C205.141 61.4297 205.516 61.0469 205.516 60.5781C205.516 60.1016 205.141 59.7266 204.664 59.7266C204.195 59.7266 203.812 60.1016 203.812 60.5781C203.812 61.0469 204.195 61.4297 204.664 61.4297ZM203.984 71H205.344V62.875H203.984V71ZM207.039 65.1172C207.039 66.2891 207.781 67 209.312 67.3672L210.602 67.6797C211.531 67.9062 211.852 68.2422 211.852 68.8281C211.852 69.5625 211.172 70.0312 210.07 70.0312C208.969 70.0312 208.344 69.5859 208.18 68.6562H206.82C206.977 70.1797 208.164 71.1406 210.07 71.1406C211.883 71.1406 213.219 70.1406 213.219 68.7266C213.219 67.5625 212.625 66.9219 210.984 66.5234L209.695 66.2109C208.789 65.9922 208.375 65.6094 208.375 65.0469C208.375 64.3359 209.031 63.8438 210.023 63.8438C211.023 63.8438 211.648 64.3672 211.75 65.2188H213.047C212.992 63.7812 211.805 62.7344 210.023 62.7344C208.266 62.7344 207.039 63.7266 207.039 65.1172ZM215.07 60.9141V62.875H213.859V63.9922H215.07V68.8906C215.07 70.4531 215.648 71.0625 217.141 71.0625C217.461 71.0625 217.836 71.0391 218 71V69.8594C217.906 69.875 217.594 69.8984 217.438 69.8984C216.742 69.8984 216.43 69.5625 216.43 68.8203V63.9922H218.008V62.875H216.43V60.9141H215.07ZM225.82 71.1406C226.992 71.1406 227.922 70.5625 228.445 69.625H228.469V71H229.766V59.7266H228.406V64.1953H228.375C227.891 63.3047 226.953 62.7344 225.789 62.7344C223.742 62.7344 222.344 64.3906 222.344 66.9375C222.344 69.4844 223.75 71.1406 225.82 71.1406ZM226.078 63.9297C227.477 63.9297 228.414 65.125 228.414 66.9375C228.414 68.7578 227.477 69.9453 226.078 69.9453C224.641 69.9453 223.734 68.7812 223.734 66.9375C223.734 65.1016 224.641 63.9297 226.078 63.9297ZM238.273 62.875H236.914V67.6484C236.914 69.0312 236.117 69.9375 234.797 69.9375C233.539 69.9375 232.922 69.2266 232.922 67.9062V62.875H231.562V68.1484C231.562 69.9922 232.602 71.1406 234.375 71.1406C235.625 71.1406 236.469 70.6172 236.953 69.6797H236.984V71H238.273V62.875ZM60.9219 90.1406C63 90.1406 64.375 88.4922 64.375 85.9375C64.375 83.3906 62.9922 81.7344 60.9453 81.7344C59.7969 81.7344 58.8516 82.3047 58.3438 83.2344H58.3125V78.7266H56.9531V90H58.25V88.625H58.2812C58.8047 89.5625 59.7344 90.1406 60.9219 90.1406ZM60.6562 82.9297C62.0938 82.9297 62.9844 84.0938 62.9844 85.9375C62.9844 87.7969 62.0938 88.9453 60.6562 88.9453C59.2812 88.9453 58.3047 87.75 58.3047 85.9375C58.3047 84.1328 59.2812 82.9297 60.6562 82.9297ZM71.1484 87.6719C70.9219 88.4375 70.1641 88.9609 69.1328 88.9609C67.6719 88.9609 66.7578 87.9375 66.7578 86.3828V86.3047H72.5859V85.7891C72.5859 83.3281 71.2344 81.7344 69.0391 81.7344C66.7969 81.7344 65.3594 83.4453 65.3594 85.9688C65.3594 88.5234 66.7734 90.1406 69.1016 90.1406C70.875 90.1406 72.25 89.0938 72.4844 87.6719H71.1484ZM69.0156 82.9141C70.2969 82.9141 71.1484 83.8828 71.1797 85.2422H66.7656C66.8516 83.8906 67.7422 82.9141 69.0156 82.9141ZM73.9609 90H75.3203V84.9375C75.3203 83.7891 76.0078 83.0312 77.0625 83.0312C77.3906 83.0312 77.6797 83.0703 77.7891 83.1094V81.7891C77.6797 81.7734 77.4766 81.7344 77.2422 81.7344C76.2891 81.7344 75.5391 82.3047 75.2734 83.2031H75.2422V81.875H73.9609V90ZM83.8984 87.6719C83.6719 88.4375 82.9141 88.9609 81.8828 88.9609C80.4219 88.9609 79.5078 87.9375 79.5078 86.3828V86.3047H85.3359V85.7891C85.3359 83.3281 83.9844 81.7344 81.7891 81.7344C79.5469 81.7344 78.1094 83.4453 78.1094 85.9688C78.1094 88.5234 79.5234 90.1406 81.8516 90.1406C83.625 90.1406 85 89.0938 85.2344 87.6719H83.8984ZM81.7656 82.9141C83.0469 82.9141 83.8984 83.8828 83.9297 85.2422H79.5156C79.6016 83.8906 80.4922 82.9141 81.7656 82.9141ZM87.4609 80.4297C87.9375 80.4297 88.3125 80.0469 88.3125 79.5781C88.3125 79.1016 87.9375 78.7266 87.4609 78.7266C86.9922 78.7266 86.6094 79.1016 86.6094 79.5781C86.6094 80.0469 86.9922 80.4297 87.4609 80.4297ZM86.7812 90H88.1406V81.875H86.7812V90ZM90.4141 79.9141V81.875H89.2031V82.9922H90.4141V87.8906C90.4141 89.4531 90.9922 90.0625 92.4844 90.0625C92.8047 90.0625 93.1797 90.0391 93.3438 90V88.8594C93.25 88.875 92.9375 88.8984 92.7812 88.8984C92.0859 88.8984 91.7734 88.5625 91.7734 87.8203V82.9922H93.3516V81.875H91.7734V79.9141H90.4141ZM94.6641 84.1172C94.6641 85.2891 95.4062 86 96.9375 86.3672L98.2266 86.6797C99.1562 86.9062 99.4766 87.2422 99.4766 87.8281C99.4766 88.5625 98.7969 89.0312 97.6953 89.0312C96.5938 89.0312 95.9688 88.5859 95.8047 87.6562H94.4453C94.6016 89.1797 95.7891 90.1406 97.6953 90.1406C99.5078 90.1406 100.844 89.1406 100.844 87.7266C100.844 86.5625 100.25 85.9219 98.6094 85.5234L97.3203 85.2109C96.4141 84.9922 96 84.6094 96 84.0469C96 83.3359 96.6562 82.8438 97.6484 82.8438C98.6484 82.8438 99.2734 83.3672 99.375 84.2188H100.672C100.617 82.7812 99.4297 81.7344 97.6484 81.7344C95.8906 81.7344 94.6641 82.7266 94.6641 84.1172ZM108.617 90.1406C109.789 90.1406 110.719 89.5625 111.242 88.625H111.266V90H112.562V78.7266H111.203V83.1953H111.172C110.688 82.3047 109.75 81.7344 108.586 81.7344C106.539 81.7344 105.141 83.3906 105.141 85.9375C105.141 88.4844 106.547 90.1406 108.617 90.1406ZM108.875 82.9297C110.273 82.9297 111.211 84.125 111.211 85.9375C111.211 87.7578 110.273 88.9453 108.875 88.9453C107.438 88.9453 106.531 87.7812 106.531 85.9375C106.531 84.1016 107.438 82.9297 108.875 82.9297ZM119.789 87.6719C119.562 88.4375 118.805 88.9609 117.773 88.9609C116.312 88.9609 115.398 87.9375 115.398 86.3828V86.3047H121.227V85.7891C121.227 83.3281 119.875 81.7344 117.68 81.7344C115.438 81.7344 114 83.4453 114 85.9688C114 88.5234 115.414 90.1406 117.742 90.1406C119.516 90.1406 120.891 89.0938 121.125 87.6719H119.789ZM117.656 82.9141C118.938 82.9141 119.789 83.8828 119.82 85.2422H115.406C115.492 83.8906 116.383 82.9141 117.656 82.9141ZM122.672 90H124.031V85.2656C124.031 83.8594 124.867 82.9375 126.219 82.9375C127.492 82.9375 128.141 83.7109 128.141 85V90H129.5V84.75C129.5 82.9375 128.422 81.7344 126.641 81.7344C125.406 81.7344 124.516 82.2656 124.062 83.1719H124.031V78.7266H122.672V90ZM131.906 93.0391C133.375 93.0391 134.047 92.4688 134.742 90.5703L137.938 81.875H136.508L134.258 88.6406H134.234L131.984 81.875H130.531L133.531 90.0078L133.344 90.5781C133.031 91.5234 132.609 91.8906 131.852 91.8906C131.68 91.8906 131.469 91.8828 131.32 91.8516V92.9922C131.469 93.0234 131.742 93.0391 131.906 93.0391ZM141.852 90.1406C143.023 90.1406 143.953 89.5625 144.477 88.625H144.5V90H145.797V78.7266H144.438V83.1953H144.406C143.922 82.3047 142.984 81.7344 141.82 81.7344C139.773 81.7344 138.375 83.3906 138.375 85.9375C138.375 88.4844 139.781 90.1406 141.852 90.1406ZM142.109 82.9297C143.508 82.9297 144.445 84.125 144.445 85.9375C144.445 87.7578 143.508 88.9453 142.109 88.9453C140.672 88.9453 139.766 87.7812 139.766 85.9375C139.766 84.1016 140.672 82.9297 142.109 82.9297ZM147.633 90H148.992V84.9375C148.992 83.7891 149.68 83.0312 150.734 83.0312C151.062 83.0312 151.352 83.0703 151.461 83.1094V81.7891C151.352 81.7734 151.148 81.7344 150.914 81.7344C149.961 81.7344 149.211 82.3047 148.945 83.2031H148.914V81.875H147.633V90ZM153.32 80.4297C153.797 80.4297 154.172 80.0469 154.172 79.5781C154.172 79.1016 153.797 78.7266 153.32 78.7266C152.852 78.7266 152.469 79.1016 152.469 79.5781C152.469 80.0469 152.852 80.4297 153.32 80.4297ZM152.641 90H154V81.875H152.641V90ZM161.227 87.6719C161 88.4375 160.242 88.9609 159.211 88.9609C157.75 88.9609 156.836 87.9375 156.836 86.3828V86.3047H162.664V85.7891C162.664 83.3281 161.312 81.7344 159.117 81.7344C156.875 81.7344 155.438 83.4453 155.438 85.9688C155.438 88.5234 156.852 90.1406 159.18 90.1406C160.953 90.1406 162.328 89.0938 162.562 87.6719H161.227ZM159.094 82.9141C160.375 82.9141 161.227 83.8828 161.258 85.2422H156.844C156.93 83.8906 157.82 82.9141 159.094 82.9141ZM164.039 90H165.398V84.9375C165.398 83.7891 166.086 83.0312 167.141 83.0312C167.469 83.0312 167.758 83.0703 167.867 83.1094V81.7891C167.758 81.7734 167.555 81.7344 167.32 81.7344C166.367 81.7344 165.617 82.3047 165.352 83.2031H165.32V81.875H164.039V90ZM169.727 79.9141V81.875H168.516V82.9922H169.727V87.8906C169.727 89.4531 170.305 90.0625 171.797 90.0625C172.117 90.0625 172.492 90.0391 172.656 90V88.8594C172.562 88.875 172.25 88.8984 172.094 88.8984C171.398 88.8984 171.086 88.5625 171.086 87.8203V82.9922H172.664V81.875H171.086V79.9141H169.727Z" fill="#5C6166"/>
<path d="M34 52.5867L41.5466 60.1333C43.0391 61.6248 44.0557 63.5254 44.4678 65.5947C44.88 67.6641 44.6691 69.8091 43.862 71.7586C43.0549 73.7081 41.6877 75.3744 39.9334 76.5468C38.1792 77.7192 36.1166 78.3449 34.0066 78.3449C31.8967 78.3449 29.8341 77.7192 28.0798 76.5468C26.3256 75.3744 24.9584 73.7081 24.1513 71.7586C23.3441 69.8091 23.1333 67.6641 23.5454 65.5947C23.9576 63.5254 24.9742 61.6248 26.4666 60.1333L34 52.5867Z" fill="#5C6166"/>
<path d="M302.367 68V62.3633H301.188V64.6523H298.648V62.3633H297.469V68H298.648V65.625H301.188V68H302.367ZM304.484 68V62.3633H303.305V68H304.484ZM306.551 68V64.3086H306.586L309.223 68H310.199V62.3633H309.07V66.0352H309.039L306.406 62.3633H305.422V68H306.551ZM311.02 68H315.371V67.0234H312.441V66.9961L315.293 63.1289V62.3633H311.086V63.3359H313.883V63.3672L311.02 67.2305V68ZM317.367 62.3633H316.188V66.0078C316.188 67.25 317.105 68.0938 318.551 68.0938C319.992 68.0938 320.91 67.25 320.91 66.0078V62.3633H319.73V65.8906C319.73 66.6133 319.305 67.0859 318.551 67.0859C317.793 67.0859 317.367 66.6133 317.367 65.8906V62.3633ZM323.031 68V65.7812H325.324V64.8477H323.031V63.3359H325.543V62.3633H321.852V68H323.031ZM327.785 61.8516C328.102 61.8516 328.352 61.6016 328.352 61.2969C328.352 60.9883 328.102 60.7383 327.785 60.7383C327.469 60.7383 327.223 60.9883 327.223 61.2969C327.223 61.6016 327.469 61.8516 327.785 61.8516ZM329.422 61.8516C329.738 61.8516 329.988 61.6016 329.988 61.2969C329.988 60.9883 329.738 60.7383 329.422 60.7383C329.109 60.7383 328.855 60.9883 328.855 61.2969C328.855 61.6016 329.109 61.8516 329.422 61.8516ZM327.422 62.3633H326.242V66.0078C326.242 67.25 327.16 68.0938 328.605 68.0938C330.047 68.0938 330.965 67.25 330.965 66.0078V62.3633H329.785V65.8906C329.785 66.6133 329.359 67.0859 328.605 67.0859C327.848 67.0859 327.422 66.6133 327.422 65.8906V62.3633ZM336.945 65.6328V64.9961H334.57V65.8555H335.797L335.793 65.9453C335.77 66.6445 335.234 67.1172 334.465 67.1172C333.527 67.1172 332.934 66.3711 332.934 65.1484C332.934 63.9492 333.492 63.2422 334.422 63.2422C335.059 63.2422 335.539 63.5938 335.711 64.1836H336.895C336.727 63.043 335.734 62.2656 334.418 62.2656C332.762 62.2656 331.73 63.3594 331.73 65.1641C331.73 66.9961 332.762 68.0938 334.445 68.0938C336.016 68.0938 336.945 67.168 336.945 65.6328ZM341.461 67.0234H338.906V65.6016H341.316V64.6953H338.906V63.3359H341.461V62.3633H337.727V68H341.461V67.0234ZM343.441 68V64.3086H343.477L346.113 68H347.09V62.3633H345.961V66.0352H345.93L343.297 62.3633H342.312V68H343.441Z" fill="#00A699"/>
<path d="M62.9082 131L67.4346 118.317H65.334L61.8711 128.785H61.8184L58.3643 118.317H56.2285L60.7549 131H62.9082ZM69.3945 120.26C70.001 120.26 70.4844 119.768 70.4844 119.17C70.4844 118.563 70.001 118.08 69.3945 118.08C68.7881 118.08 68.2959 118.563 68.2959 119.17C68.2959 119.768 68.7881 120.26 69.3945 120.26ZM68.4453 131H70.3438V121.754H68.4453V131ZM72.8398 119.565V121.754H71.4951V123.257H72.8398V128.565C72.8398 130.35 73.5693 131.062 75.4414 131.062C75.8633 131.062 76.2852 131.026 76.4961 130.974V129.471C76.373 129.497 76.0654 129.515 75.8721 129.515C75.0986 129.515 74.7471 129.154 74.7471 128.354V123.257H76.5049V121.754H74.7471V119.565H72.8398ZM80.6357 131.158C81.8486 131.158 83.0176 130.508 83.5537 129.479H83.5977V131H85.417V124.628C85.417 122.773 83.9844 121.587 81.7432 121.587C79.458 121.587 78.0342 122.817 77.9287 124.487H79.7217C79.8887 123.661 80.5742 123.134 81.6729 123.134C82.833 123.134 83.5273 123.749 83.5273 124.777V125.489L80.9961 125.639C78.7988 125.762 77.5596 126.755 77.5596 128.372C77.5596 130.033 78.8252 131.158 80.6357 131.158ZM81.1631 129.655C80.1436 129.655 79.4756 129.128 79.4756 128.319C79.4756 127.528 80.1172 127.027 81.251 126.948L83.5273 126.808V127.537C83.5273 128.741 82.4902 129.655 81.1631 129.655ZM87.2627 131H89.1611V125.287C89.1611 124.101 89.9609 123.222 91.0859 123.222C92.1582 123.222 92.835 123.898 92.835 124.962V131H94.6982V125.226C94.6982 124.057 95.4805 123.222 96.6055 123.222C97.7305 123.222 98.3721 123.907 98.3721 125.103V131H100.279V124.646C100.279 122.809 99.084 121.596 97.2559 121.596C95.9375 121.596 94.8477 122.281 94.373 123.406H94.3291C93.96 122.255 93.0283 121.596 91.7451 121.596C90.4971 121.596 89.5303 122.281 89.1172 123.31H89.0732V121.754H87.2627V131ZM103.127 120.26C103.733 120.26 104.217 119.768 104.217 119.17C104.217 118.563 103.733 118.08 103.127 118.08C102.521 118.08 102.028 118.563 102.028 119.17C102.028 119.768 102.521 120.26 103.127 120.26ZM102.178 131H104.076V121.754H102.178V131ZM106.019 131H107.917V125.612C107.917 124.18 108.778 123.23 110.114 123.23C111.433 123.23 112.083 123.995 112.083 125.384V131H113.99V125.015C113.99 122.896 112.821 121.596 110.782 121.596C109.358 121.596 108.374 122.246 107.873 123.301H107.829V121.754H106.019V131ZM121.953 128.284C121.698 129.093 120.898 129.638 119.817 129.638C118.297 129.638 117.33 128.574 117.33 126.966V126.852H123.86V126.201C123.86 123.397 122.261 121.587 119.694 121.587C117.084 121.587 115.414 123.521 115.414 126.421C115.414 129.339 117.058 131.176 119.773 131.176C121.892 131.176 123.491 129.972 123.755 128.284H121.953ZM119.694 123.116C121.021 123.116 121.918 124.109 121.962 125.524H117.339C117.436 124.127 118.367 123.116 119.694 123.116ZM128.8 131H135.963V129.488H131.103V129.453L135.91 123.055V121.754H128.835V123.266H133.73V123.301L128.8 129.778V131ZM145.587 121.754H143.688V127.142C143.688 128.583 142.862 129.532 141.491 129.532C140.182 129.532 139.514 128.776 139.514 127.37V121.754H137.615V127.739C137.615 129.857 138.846 131.167 140.858 131.167C142.273 131.167 143.214 130.543 143.724 129.436H143.768V131H145.587V121.754ZM154.596 131.158C155.94 131.158 156.995 130.481 157.54 129.427H157.575V131H159.421V118.317H157.514V123.292H157.479C156.96 122.272 155.905 121.604 154.578 121.604C152.258 121.604 150.711 123.459 150.711 126.377C150.711 129.295 152.258 131.158 154.596 131.158ZM155.097 123.204C156.556 123.204 157.531 124.461 157.531 126.377C157.531 128.311 156.556 129.55 155.097 129.55C153.594 129.55 152.653 128.328 152.653 126.377C152.653 124.435 153.594 123.204 155.097 123.204ZM162.383 120.26C162.989 120.26 163.473 119.768 163.473 119.17C163.473 118.563 162.989 118.08 162.383 118.08C161.776 118.08 161.284 118.563 161.284 119.17C161.284 119.768 161.776 120.26 162.383 120.26ZM161.434 131H163.332V121.754H161.434V131ZM165.274 131H167.173V125.463C167.173 124.153 167.929 123.336 169.15 123.336C169.52 123.336 169.854 123.38 170.003 123.441V121.675C169.862 121.648 169.625 121.604 169.353 121.604C168.263 121.604 167.437 122.246 167.129 123.327H167.085V121.754H165.274V131ZM174.837 131H176.735V125.612C176.735 124.18 177.597 123.23 178.933 123.23C180.251 123.23 180.901 123.995 180.901 125.384V131H182.809V125.015C182.809 122.896 181.64 121.596 179.601 121.596C178.177 121.596 177.192 122.246 176.691 123.301H176.647V121.754H174.837V131ZM190.771 128.284C190.517 129.093 189.717 129.638 188.636 129.638C187.115 129.638 186.148 128.574 186.148 126.966V126.852H192.679V126.201C192.679 123.397 191.079 121.587 188.513 121.587C185.902 121.587 184.232 123.521 184.232 126.421C184.232 129.339 185.876 131.176 188.592 131.176C190.71 131.176 192.31 129.972 192.573 128.284H190.771ZM188.513 123.116C189.84 123.116 190.736 124.109 190.78 125.524H186.157C186.254 124.127 187.186 123.116 188.513 123.116ZM194.226 131H196.124V125.656C196.124 124.197 196.985 123.23 198.392 123.23C199.728 123.23 200.413 124.048 200.413 125.41V131H202.32V125.041C202.32 122.949 201.107 121.596 199.077 121.596C197.671 121.596 196.66 122.22 196.15 123.301H196.106V118.317H194.226V131ZM204.157 131H206.056V125.287C206.056 124.101 206.855 123.222 207.98 123.222C209.053 123.222 209.729 123.898 209.729 124.962V131H211.593V125.226C211.593 124.057 212.375 123.222 213.5 123.222C214.625 123.222 215.267 123.907 215.267 125.103V131H217.174V124.646C217.174 122.809 215.979 121.596 214.15 121.596C212.832 121.596 211.742 122.281 211.268 123.406H211.224C210.854 122.255 209.923 121.596 208.64 121.596C207.392 121.596 206.425 122.281 206.012 123.31H205.968V121.754H204.157V131ZM225.137 128.284C224.882 129.093 224.082 129.638 223.001 129.638C221.48 129.638 220.514 128.574 220.514 126.966V126.852H227.044V126.201C227.044 123.397 225.444 121.587 222.878 121.587C220.268 121.587 218.598 123.521 218.598 126.421C218.598 129.339 220.241 131.176 222.957 131.176C225.075 131.176 226.675 129.972 226.938 128.284H225.137ZM222.878 123.116C224.205 123.116 225.102 124.109 225.146 125.524H220.522C220.619 124.127 221.551 123.116 222.878 123.116ZM228.521 131H230.419V125.612C230.419 124.18 231.28 123.23 232.616 123.23C233.935 123.23 234.585 123.995 234.585 125.384V131H236.492V125.015C236.492 122.896 235.323 121.596 233.284 121.596C231.86 121.596 230.876 122.246 230.375 123.301H230.331V121.754H228.521V131Z" fill="black"/>
<path d="M64.0781 148.734H58.5V144.859H63.7891V143.609H58.5V139.992H64.0781V138.727H57.0938V150H64.0781V148.734ZM65.7266 150H67.0859V144.938C67.0859 143.789 67.7734 143.031 68.8281 143.031C69.1562 143.031 69.4453 143.07 69.5547 143.109V141.789C69.4453 141.773 69.2422 141.734 69.0078 141.734C68.0547 141.734 67.3047 142.305 67.0391 143.203H67.0078V141.875H65.7266V150ZM73.625 153.062C75.8672 153.062 77.2969 151.773 77.2969 149.836V141.875H76V143.242H75.9766C75.4375 142.297 74.4844 141.734 73.3359 141.734C71.2344 141.734 69.875 143.359 69.875 145.906C69.875 148.43 71.2344 150.062 73.3047 150.062C74.4453 150.062 75.4062 149.484 75.9062 148.602H75.9375V149.883C75.9375 151.094 75.0859 151.906 73.6797 151.906C72.6641 151.906 71.8594 151.414 71.5938 150.672H70.1953C70.4219 152.055 71.8359 153.062 73.625 153.062ZM73.5781 148.867C72.1797 148.867 71.2656 147.727 71.2656 145.906C71.2656 144.086 72.1797 142.93 73.5781 142.93C74.9922 142.93 75.9375 144.117 75.9375 145.906C75.9375 147.695 74.9922 148.867 73.5781 148.867ZM80.7109 140.43C81.1875 140.43 81.5625 140.047 81.5625 139.578C81.5625 139.102 81.1875 138.727 80.7109 138.727C80.2422 138.727 79.8594 139.102 79.8594 139.578C79.8594 140.047 80.2422 140.43 80.7109 140.43ZM83.6328 140.43C84.1094 140.43 84.4844 140.047 84.4844 139.578C84.4844 139.102 84.1094 138.727 83.6328 138.727C83.1641 138.727 82.7812 139.102 82.7812 139.578C82.7812 140.047 83.1641 140.43 83.6328 140.43ZM81.4453 150.141C82.5391 150.141 83.5703 149.531 84.0547 148.602H84.0859V150H85.375V144.383C85.375 142.766 84.1719 141.734 82.2656 141.734C80.3438 141.734 79.1406 142.812 79.0469 144.219H80.3594C80.5312 143.422 81.1875 142.93 82.2344 142.93C83.3594 142.93 84.0156 143.523 84.0156 144.516V145.195L81.6875 145.328C79.8125 145.438 78.7422 146.312 78.7422 147.703C78.7422 149.164 79.8281 150.141 81.4453 150.141ZM81.75 148.984C80.7734 148.984 80.125 148.477 80.125 147.703C80.125 146.938 80.75 146.453 81.8438 146.383L84.0156 146.25V146.914C84.0156 148.086 83.0312 148.984 81.75 148.984ZM87.1016 150H88.4609V145.219C88.4609 143.844 89.2969 142.938 90.5781 142.938C91.8281 142.938 92.4453 143.656 92.4453 144.969V150H93.8047V144.727C93.8047 142.883 92.7734 141.734 90.9922 141.734C89.7344 141.734 88.8672 142.297 88.4141 143.172H88.3828V141.875H87.1016V150ZM95.2891 150H101.352V148.883H96.8594V148.859L101.328 142.867V141.875H95.2969V142.992H99.7891V143.016L95.2891 149.031V150ZM108.023 147.672C107.797 148.438 107.039 148.961 106.008 148.961C104.547 148.961 103.633 147.938 103.633 146.383V146.305H109.461V145.789C109.461 143.328 108.109 141.734 105.914 141.734C103.672 141.734 102.234 143.445 102.234 145.969C102.234 148.523 103.648 150.141 105.977 150.141C107.75 150.141 109.125 149.094 109.359 147.672H108.023ZM105.891 142.914C107.172 142.914 108.023 143.883 108.055 145.242H103.641C103.727 143.891 104.617 142.914 105.891 142.914ZM117.195 150.141C118.367 150.141 119.297 149.562 119.82 148.625H119.844V150H121.141V138.727H119.781V143.195H119.75C119.266 142.305 118.328 141.734 117.164 141.734C115.117 141.734 113.719 143.391 113.719 145.938C113.719 148.484 115.125 150.141 117.195 150.141ZM117.453 142.93C118.852 142.93 119.789 144.125 119.789 145.938C119.789 147.758 118.852 148.945 117.453 148.945C116.016 148.945 115.109 147.781 115.109 145.938C115.109 144.102 116.016 142.93 117.453 142.93ZM128.367 147.672C128.141 148.438 127.383 148.961 126.352 148.961C124.891 148.961 123.977 147.938 123.977 146.383V146.305H129.805V145.789C129.805 143.328 128.453 141.734 126.258 141.734C124.016 141.734 122.578 143.445 122.578 145.969C122.578 148.523 123.992 150.141 126.32 150.141C128.094 150.141 129.469 149.094 129.703 147.672H128.367ZM126.234 142.914C127.516 142.914 128.367 143.883 128.398 145.242H123.984C124.07 143.891 124.961 142.914 126.234 142.914ZM131.93 140.43C132.406 140.43 132.781 140.047 132.781 139.578C132.781 139.102 132.406 138.727 131.93 138.727C131.461 138.727 131.078 139.102 131.078 139.578C131.078 140.047 131.461 140.43 131.93 140.43ZM131.25 150H132.609V141.875H131.25V150ZM134.445 150H135.805V145.219C135.805 143.844 136.641 142.938 137.922 142.938C139.172 142.938 139.789 143.656 139.789 144.969V150H141.148V144.727C141.148 142.883 140.117 141.734 138.336 141.734C137.078 141.734 136.211 142.297 135.758 143.172H135.727V141.875H134.445V150ZM148.273 147.672C148.047 148.438 147.289 148.961 146.258 148.961C144.797 148.961 143.883 147.938 143.883 146.383V146.305H149.711V145.789C149.711 143.328 148.359 141.734 146.164 141.734C143.922 141.734 142.484 143.445 142.484 145.969C142.484 148.523 143.898 150.141 146.227 150.141C148 150.141 149.375 149.094 149.609 147.672H148.273ZM146.141 142.914C147.422 142.914 148.273 143.883 148.305 145.242H143.891C143.977 143.891 144.867 142.914 146.141 142.914ZM161.562 148.734H155.984V144.859H161.273V143.609H155.984V139.992H161.562V138.727H154.578V150H161.562V148.734ZM163.211 150H164.57V144.938C164.57 143.789 165.258 143.031 166.312 143.031C166.641 143.031 166.93 143.07 167.039 143.109V141.789C166.93 141.773 166.727 141.734 166.492 141.734C165.539 141.734 164.789 142.305 164.523 143.203H164.492V141.875H163.211V150ZM168.148 150H169.508V145.219C169.508 143.844 170.344 142.938 171.625 142.938C172.875 142.938 173.492 143.656 173.492 144.969V150H174.852V144.727C174.852 142.883 173.82 141.734 172.039 141.734C170.781 141.734 169.914 142.297 169.461 143.172H169.43V141.875H168.148V150ZM178.227 140.43C178.703 140.43 179.078 140.047 179.078 139.578C179.078 139.102 178.703 138.727 178.227 138.727C177.758 138.727 177.375 139.102 177.375 139.578C177.375 140.047 177.758 140.43 178.227 140.43ZM181.148 140.43C181.625 140.43 182 140.047 182 139.578C182 139.102 181.625 138.727 181.148 138.727C180.68 138.727 180.297 139.102 180.297 139.578C180.297 140.047 180.68 140.43 181.148 140.43ZM178.961 150.141C180.055 150.141 181.086 149.531 181.57 148.602H181.602V150H182.891V144.383C182.891 142.766 181.688 141.734 179.781 141.734C177.859 141.734 176.656 142.812 176.562 144.219H177.875C178.047 143.422 178.703 142.93 179.75 142.93C180.875 142.93 181.531 143.523 181.531 144.516V145.195L179.203 145.328C177.328 145.438 176.258 146.312 176.258 147.703C176.258 149.164 177.344 150.141 178.961 150.141ZM179.266 148.984C178.289 148.984 177.641 148.477 177.641 147.703C177.641 146.938 178.266 146.453 179.359 146.383L181.531 146.25V146.914C181.531 148.086 180.547 148.984 179.266 148.984ZM184.688 150H186.047V145.266C186.047 143.859 186.883 142.938 188.234 142.938C189.508 142.938 190.156 143.711 190.156 145V150H191.516V144.75C191.516 142.938 190.438 141.734 188.656 141.734C187.422 141.734 186.531 142.266 186.078 143.172H186.047V138.727H184.688V150ZM193.242 150H194.602V144.938C194.602 143.789 195.289 143.031 196.344 143.031C196.672 143.031 196.961 143.07 197.07 143.109V141.789C196.961 141.773 196.758 141.734 196.523 141.734C195.57 141.734 194.82 142.305 194.555 143.203H194.523V141.875H193.242V150ZM204.852 141.875H203.492V146.648C203.492 148.031 202.695 148.938 201.375 148.938C200.117 148.938 199.5 148.227 199.5 146.906V141.875H198.141V147.148C198.141 148.992 199.18 150.141 200.953 150.141C202.203 150.141 203.047 149.617 203.531 148.68H203.562V150H204.852V141.875ZM206.617 150H207.977V145.219C207.977 143.844 208.812 142.938 210.094 142.938C211.344 142.938 211.961 143.656 211.961 144.969V150H213.32V144.727C213.32 142.883 212.289 141.734 210.508 141.734C209.25 141.734 208.383 142.297 207.93 143.172H207.898V141.875H206.617V150ZM218.406 153.062C220.648 153.062 222.078 151.773 222.078 149.836V141.875H220.781V143.242H220.758C220.219 142.297 219.266 141.734 218.117 141.734C216.016 141.734 214.656 143.359 214.656 145.906C214.656 148.43 216.016 150.062 218.086 150.062C219.227 150.062 220.188 149.484 220.688 148.602H220.719V149.883C220.719 151.094 219.867 151.906 218.461 151.906C217.445 151.906 216.641 151.414 216.375 150.672H214.977C215.203 152.055 216.617 153.062 218.406 153.062ZM218.359 148.867C216.961 148.867 216.047 147.727 216.047 145.906C216.047 144.086 216.961 142.93 218.359 142.93C219.773 142.93 220.719 144.117 220.719 145.906C220.719 147.695 219.773 148.867 218.359 148.867ZM227.133 150H228.492V144.906C228.492 143.781 229.273 142.938 230.352 142.938C231.359 142.938 232.016 143.578 232.016 144.555V150H233.375V144.836C233.375 143.734 234.133 142.938 235.211 142.938C236.281 142.938 236.898 143.594 236.898 144.703V150H238.258V144.391C238.258 142.781 237.219 141.734 235.609 141.734C234.469 141.734 233.516 142.312 233.062 143.281H233.031C232.68 142.297 231.859 141.734 230.75 141.734C229.656 141.734 228.828 142.312 228.445 143.172H228.414V141.875H227.133V150ZM240.742 140.43C241.219 140.43 241.594 140.047 241.594 139.578C241.594 139.102 241.219 138.727 240.742 138.727C240.273 138.727 239.891 139.102 239.891 139.578C239.891 140.047 240.273 140.43 240.742 140.43ZM240.062 150H241.422V141.875H240.062V150ZM243.695 139.914V141.875H242.484V142.992H243.695V147.891C243.695 149.453 244.273 150.062 245.766 150.062C246.086 150.062 246.461 150.039 246.625 150V148.859C246.531 148.875 246.219 148.898 246.062 148.898C245.367 148.898 245.055 148.562 245.055 147.82V142.992H246.633V141.875H245.055V139.914H243.695ZM59.2578 169.141C60.3516 169.141 61.3828 168.531 61.8672 167.602H61.8984V169H63.1875V163.383C63.1875 161.766 61.9844 160.734 60.0781 160.734C58.1562 160.734 56.9531 161.812 56.8594 163.219H58.1719C58.3438 162.422 59 161.93 60.0469 161.93C61.1719 161.93 61.8281 162.523 61.8281 163.516V164.195L59.5 164.328C57.625 164.438 56.5547 165.312 56.5547 166.703C56.5547 168.164 57.6406 169.141 59.2578 169.141ZM59.5625 167.984C58.5859 167.984 57.9375 167.477 57.9375 166.703C57.9375 165.938 58.5625 165.453 59.6562 165.383L61.8281 165.25V165.914C61.8281 167.086 60.8438 167.984 59.5625 167.984ZM64.9844 169H66.3438V157.727H64.9844V169ZM68.25 169H69.6094V157.727H68.25V169ZM76.8359 166.672C76.6094 167.438 75.8516 167.961 74.8203 167.961C73.3594 167.961 72.4453 166.938 72.4453 165.383V165.305H78.2734V164.789C78.2734 162.328 76.9219 160.734 74.7266 160.734C72.4844 160.734 71.0469 162.445 71.0469 164.969C71.0469 167.523 72.4609 169.141 74.7891 169.141C76.5625 169.141 77.9375 168.094 78.1719 166.672H76.8359ZM74.7031 161.914C75.9844 161.914 76.8359 162.883 76.8672 164.242H72.4531C72.5391 162.891 73.4297 161.914 74.7031 161.914ZM79.6484 169H81.0078V164.219C81.0078 162.844 81.8438 161.938 83.125 161.938C84.375 161.938 84.9922 162.656 84.9922 163.969V169H86.3516V163.727C86.3516 161.883 85.3203 160.734 83.5391 160.734C82.2812 160.734 81.4141 161.297 80.9609 162.172H80.9297V160.875H79.6484V169ZM91.3672 169H92.7266V164.219C92.7266 162.844 93.5625 161.938 94.8438 161.938C96.0938 161.938 96.7109 162.656 96.7109 163.969V169H98.0703V163.727C98.0703 161.883 97.0391 160.734 95.2578 160.734C94 160.734 93.1328 161.297 92.6797 162.172H92.6484V160.875H91.3672V169ZM103.172 169.141C105.414 169.141 106.93 167.523 106.93 164.938C106.93 162.344 105.414 160.734 103.172 160.734C100.922 160.734 99.4062 162.344 99.4062 164.938C99.4062 167.523 100.922 169.141 103.172 169.141ZM103.172 167.945C101.734 167.945 100.789 166.852 100.789 164.938C100.789 163.023 101.734 161.93 103.172 161.93C104.609 161.93 105.547 163.023 105.547 164.938C105.547 166.852 104.609 167.945 103.172 167.945ZM108.742 158.914V160.875H107.531V161.992H108.742V166.891C108.742 168.453 109.32 169.062 110.812 169.062C111.133 169.062 111.508 169.039 111.672 169V167.859C111.578 167.875 111.266 167.898 111.109 167.898C110.414 167.898 110.102 167.562 110.102 166.82V161.992H111.68V160.875H110.102V158.914H108.742ZM123.469 160.875H122.125L120.5 167.484H120.469L118.625 160.875H117.312L115.477 167.484H115.445L113.82 160.875H112.469L114.742 169H116.125L117.953 162.711H117.984L119.82 169H121.203L123.469 160.875ZM129.977 166.672C129.75 167.438 128.992 167.961 127.961 167.961C126.5 167.961 125.586 166.938 125.586 165.383V165.305H131.414V164.789C131.414 162.328 130.062 160.734 127.867 160.734C125.625 160.734 124.188 162.445 124.188 164.969C124.188 167.523 125.602 169.141 127.93 169.141C129.703 169.141 131.078 168.094 131.312 166.672H129.977ZM127.844 161.914C129.125 161.914 129.977 162.883 130.008 164.242H125.594C125.68 162.891 126.57 161.914 127.844 161.914ZM132.789 169H134.148V164.219C134.148 162.844 134.984 161.938 136.266 161.938C137.516 161.938 138.133 162.656 138.133 163.969V169H139.492V163.727C139.492 161.883 138.461 160.734 136.68 160.734C135.422 160.734 134.555 161.297 134.102 162.172H134.07V160.875H132.789V169ZM144.305 169.141C145.477 169.141 146.406 168.562 146.93 167.625H146.953V169H148.25V157.727H146.891V162.195H146.859C146.375 161.305 145.438 160.734 144.273 160.734C142.227 160.734 140.828 162.391 140.828 164.938C140.828 167.484 142.234 169.141 144.305 169.141ZM144.562 161.93C145.961 161.93 146.898 163.125 146.898 164.938C146.898 166.758 145.961 167.945 144.562 167.945C143.125 167.945 142.219 166.781 142.219 164.938C142.219 163.102 143.125 161.93 144.562 161.93ZM150.836 159.43C151.312 159.43 151.688 159.047 151.688 158.578C151.688 158.102 151.312 157.727 150.836 157.727C150.367 157.727 149.984 158.102 149.984 158.578C149.984 159.047 150.367 159.43 150.836 159.43ZM150.156 169H151.516V160.875H150.156V169ZM156.703 172.062C158.945 172.062 160.375 170.773 160.375 168.836V160.875H159.078V162.242H159.055C158.516 161.297 157.562 160.734 156.414 160.734C154.312 160.734 152.953 162.359 152.953 164.906C152.953 167.43 154.312 169.062 156.383 169.062C157.523 169.062 158.484 168.484 158.984 167.602H159.016V168.883C159.016 170.094 158.164 170.906 156.758 170.906C155.742 170.906 154.938 170.414 154.672 169.672H153.273C153.5 171.055 154.914 172.062 156.703 172.062ZM156.656 167.867C155.258 167.867 154.344 166.727 154.344 164.906C154.344 163.086 155.258 161.93 156.656 161.93C158.07 161.93 159.016 163.117 159.016 164.906C159.016 166.695 158.07 167.867 156.656 167.867ZM167.539 166.672C167.312 167.438 166.555 167.961 165.523 167.961C164.062 167.961 163.148 166.938 163.148 165.383V165.305H168.977V164.789C168.977 162.328 167.625 160.734 165.43 160.734C163.188 160.734 161.75 162.445 161.75 164.969C161.75 167.523 163.164 169.141 165.492 169.141C167.266 169.141 168.641 168.094 168.875 166.672H167.539ZM165.406 161.914C166.688 161.914 167.539 162.883 167.57 164.242H163.156C163.242 162.891 164.133 161.914 165.406 161.914ZM170.352 169H171.711V164.219C171.711 162.844 172.547 161.938 173.828 161.938C175.078 161.938 175.695 162.656 175.695 163.969V169H177.055V163.727C177.055 161.883 176.023 160.734 174.242 160.734C172.984 160.734 172.117 161.297 171.664 162.172H171.633V160.875H170.352V169ZM186.93 169L191.086 157.727H189.609L186.258 167.289H186.211L182.859 157.727H181.383L185.539 169H186.93ZM192.68 159.43C193.156 159.43 193.531 159.047 193.531 158.578C193.531 158.102 193.156 157.727 192.68 157.727C192.211 157.727 191.828 158.102 191.828 158.578C191.828 159.047 192.211 159.43 192.68 159.43ZM192 169H193.359V160.875H192V169ZM195.633 158.914V160.875H194.422V161.992H195.633V166.891C195.633 168.453 196.211 169.062 197.703 169.062C198.023 169.062 198.398 169.039 198.562 169V167.859C198.469 167.875 198.156 167.898 198 167.898C197.305 167.898 196.992 167.562 196.992 166.82V161.992H198.57V160.875H196.992V158.914H195.633ZM202.242 169.141C203.336 169.141 204.367 168.531 204.852 167.602H204.883V169H206.172V163.383C206.172 161.766 204.969 160.734 203.062 160.734C201.141 160.734 199.938 161.812 199.844 163.219H201.156C201.328 162.422 201.984 161.93 203.031 161.93C204.156 161.93 204.812 162.523 204.812 163.516V164.195L202.484 164.328C200.609 164.438 199.539 165.312 199.539 166.703C199.539 168.164 200.625 169.141 202.242 169.141ZM202.547 167.984C201.57 167.984 200.922 167.477 200.922 166.703C200.922 165.938 201.547 165.453 202.641 165.383L204.812 165.25V165.914C204.812 167.086 203.828 167.984 202.547 167.984ZM207.898 169H209.258V163.906C209.258 162.781 210.039 161.938 211.117 161.938C212.125 161.938 212.781 162.578 212.781 163.555V169H214.141V163.836C214.141 162.734 214.898 161.938 215.977 161.938C217.047 161.938 217.664 162.594 217.664 163.703V169H219.023V163.391C219.023 161.781 217.984 160.734 216.375 160.734C215.234 160.734 214.281 161.312 213.828 162.281H213.797C213.445 161.297 212.625 160.734 211.516 160.734C210.422 160.734 209.594 161.312 209.211 162.172H209.18V160.875H207.898V169ZM221.508 159.43C221.984 159.43 222.359 159.047 222.359 158.578C222.359 158.102 221.984 157.727 221.508 157.727C221.039 157.727 220.656 158.102 220.656 158.578C220.656 159.047 221.039 159.43 221.508 159.43ZM220.828 169H222.188V160.875H220.828V169ZM224.023 169H225.383V164.219C225.383 162.844 226.219 161.938 227.5 161.938C228.75 161.938 229.367 162.656 229.367 163.969V169H230.727V163.727C230.727 161.883 229.695 160.734 227.914 160.734C226.656 160.734 225.789 161.297 225.336 162.172H225.305V160.875H224.023V169ZM237.852 166.672C237.625 167.438 236.867 167.961 235.836 167.961C234.375 167.961 233.461 166.938 233.461 165.383V165.305H239.289V164.789C239.289 162.328 237.938 160.734 235.742 160.734C233.5 160.734 232.062 162.445 232.062 164.969C232.062 167.523 233.477 169.141 235.805 169.141C237.578 169.141 238.953 168.094 239.188 166.672H237.852ZM235.719 161.914C237 161.914 237.852 162.883 237.883 164.242H233.469C233.555 162.891 234.445 161.914 235.719 161.914ZM240.664 169H242.023V164.219C242.023 162.844 242.859 161.938 244.141 161.938C245.391 161.938 246.008 162.656 246.008 163.969V169H247.367V163.727C247.367 161.883 246.336 160.734 244.555 160.734C243.297 160.734 242.43 161.297 241.977 162.172H241.945V160.875H240.664V169Z" fill="#5C6166"/>
<path d="M302.367 147V141.363H301.188V143.652H298.648V141.363H297.469V147H298.648V144.625H301.188V147H302.367ZM304.484 147V141.363H303.305V147H304.484ZM306.551 147V143.309H306.586L309.223 147H310.199V141.363H309.07V145.035H309.039L306.406 141.363H305.422V147H306.551ZM311.02 147H315.371V146.023H312.441V145.996L315.293 142.129V141.363H311.086V142.336H313.883V142.367L311.02 146.23V147ZM317.367 141.363H316.188V145.008C316.188 146.25 317.105 147.094 318.551 147.094C319.992 147.094 320.91 146.25 320.91 145.008V141.363H319.73V144.891C319.73 145.613 319.305 146.086 318.551 146.086C317.793 146.086 317.367 145.613 317.367 144.891V141.363ZM323.031 147V144.781H325.324V143.848H323.031V142.336H325.543V141.363H321.852V147H323.031ZM327.785 140.852C328.102 140.852 328.352 140.602 328.352 140.297C328.352 139.988 328.102 139.738 327.785 139.738C327.469 139.738 327.223 139.988 327.223 140.297C327.223 140.602 327.469 140.852 327.785 140.852ZM329.422 140.852C329.738 140.852 329.988 140.602 329.988 140.297C329.988 139.988 329.738 139.738 329.422 139.738C329.109 139.738 328.855 139.988 328.855 140.297C328.855 140.602 329.109 140.852 329.422 140.852ZM327.422 141.363H326.242V145.008C326.242 146.25 327.16 147.094 328.605 147.094C330.047 147.094 330.965 146.25 330.965 145.008V141.363H329.785V144.891C329.785 145.613 329.359 146.086 328.605 146.086C327.848 146.086 327.422 145.613 327.422 144.891V141.363ZM336.945 144.633V143.996H334.57V144.855H335.797L335.793 144.945C335.77 145.645 335.234 146.117 334.465 146.117C333.527 146.117 332.934 145.371 332.934 144.148C332.934 142.949 333.492 142.242 334.422 142.242C335.059 142.242 335.539 142.594 335.711 143.184H336.895C336.727 142.043 335.734 141.266 334.418 141.266C332.762 141.266 331.73 142.359 331.73 144.164C331.73 145.996 332.762 147.094 334.445 147.094C336.016 147.094 336.945 146.168 336.945 144.633ZM341.461 146.023H338.906V144.602H341.316V143.695H338.906V142.336H341.461V141.363H337.727V147H341.461V146.023ZM343.441 147V143.309H343.477L346.113 147H347.09V141.363H345.961V145.035H345.93L343.297 141.363H342.312V147H343.441Z" fill="#00A699"/>
<path d="M59.1377 210V205.772L60.4385 204.287L64.833 210H67.2764L61.8271 202.934L66.8545 197.317H64.5166L59.2168 203.355H59.1377V197.317H57.1689V210H59.1377ZM76.1885 200.754H74.29V206.142C74.29 207.583 73.4639 208.532 72.0928 208.532C70.7832 208.532 70.1152 207.776 70.1152 206.37V200.754H68.2168V206.739C68.2168 208.857 69.4473 210.167 71.46 210.167C72.875 210.167 73.8154 209.543 74.3252 208.436H74.3691V210H76.1885V200.754ZM78.0693 210H79.9678V204.463C79.9678 203.153 80.7236 202.336 81.9453 202.336C82.3145 202.336 82.6484 202.38 82.7979 202.441V200.675C82.6572 200.648 82.4199 200.604 82.1475 200.604C81.0576 200.604 80.2314 201.246 79.9238 202.327H79.8799V200.754H78.0693V210ZM83.7822 210H90.9453V208.488H86.085V208.453L90.8926 202.055V200.754H83.8174V202.266H88.7129V202.301L83.7822 208.778V210ZM98.4688 207.284C98.2139 208.093 97.4141 208.638 96.333 208.638C94.8125 208.638 93.8457 207.574 93.8457 205.966V205.852H100.376V205.201C100.376 202.397 98.7764 200.587 96.21 200.587C93.5996 200.587 91.9297 202.521 91.9297 205.421C91.9297 208.339 93.5732 210.176 96.2891 210.176C98.4072 210.176 100.007 208.972 100.271 207.284H98.4688ZM96.21 202.116C97.5371 202.116 98.4336 203.109 98.4775 204.524H93.8545C93.9512 203.127 94.8828 202.116 96.21 202.116ZM101.686 203.373C101.686 204.718 102.556 205.562 104.313 205.966L105.816 206.317C106.827 206.546 107.17 206.897 107.17 207.495C107.17 208.251 106.467 208.726 105.324 208.726C104.164 208.726 103.505 208.251 103.329 207.284H101.448C101.624 209.042 103.013 210.176 105.324 210.176C107.504 210.176 109.077 209.016 109.077 207.328C109.077 205.992 108.356 205.254 106.467 204.814L104.964 204.472C103.962 204.243 103.54 203.848 103.54 203.268C103.54 202.529 104.226 202.028 105.254 202.028C106.317 202.028 106.977 202.591 107.082 203.487H108.866C108.805 201.782 107.407 200.587 105.254 200.587C103.127 200.587 101.686 201.721 101.686 203.373ZM116.354 210V200.657H116.434L123.008 210H124.783V197.317H122.867V206.669H122.797L116.223 197.317H114.438V210H116.354ZM127.912 199.26C128.519 199.26 129.002 198.768 129.002 198.17C129.002 197.563 128.519 197.08 127.912 197.08C127.306 197.08 126.813 197.563 126.813 198.17C126.813 198.768 127.306 199.26 127.912 199.26ZM126.963 210H128.861V200.754H126.963V210ZM138.74 203.936C138.573 202.116 137.123 200.587 134.741 200.587C132.113 200.587 130.391 202.441 130.391 205.377C130.391 208.365 132.113 210.176 134.759 210.176C136.982 210.176 138.556 208.84 138.758 206.871H136.93C136.71 207.943 135.945 208.585 134.776 208.585C133.3 208.585 132.324 207.407 132.324 205.377C132.324 203.391 133.291 202.169 134.759 202.169C135.998 202.169 136.736 202.951 136.93 203.936H138.74ZM142.089 204.718H142.071V197.317H140.173V210H142.071V206.678L142.862 205.896L146 210H148.206L144.225 204.735L148.057 200.754H145.824L142.089 204.718ZM154.877 207.284C154.622 208.093 153.822 208.638 152.741 208.638C151.221 208.638 150.254 207.574 150.254 205.966V205.852H156.784V205.201C156.784 202.397 155.185 200.587 152.618 200.587C150.008 200.587 148.338 202.521 148.338 205.421C148.338 208.339 149.981 210.176 152.697 210.176C154.815 210.176 156.415 208.972 156.679 207.284H154.877ZM152.618 202.116C153.945 202.116 154.842 203.109 154.886 204.524H150.263C150.359 203.127 151.291 202.116 152.618 202.116ZM158.261 210H160.159V204.463C160.159 203.153 160.915 202.336 162.137 202.336C162.506 202.336 162.84 202.38 162.989 202.441V200.675C162.849 200.648 162.611 200.604 162.339 200.604C161.249 200.604 160.423 201.246 160.115 202.327H160.071V200.754H158.261V210ZM171.699 203.936C171.532 202.116 170.082 200.587 167.7 200.587C165.072 200.587 163.35 202.441 163.35 205.377C163.35 208.365 165.072 210.176 167.718 210.176C169.941 210.176 171.515 208.84 171.717 206.871H169.889C169.669 207.943 168.904 208.585 167.735 208.585C166.259 208.585 165.283 207.407 165.283 205.377C165.283 203.391 166.25 202.169 167.718 202.169C168.957 202.169 169.695 202.951 169.889 203.936H171.699ZM173.132 210H175.03V204.656C175.03 203.197 175.892 202.23 177.298 202.23C178.634 202.23 179.319 203.048 179.319 204.41V210H181.227V204.041C181.227 201.949 180.014 200.596 177.983 200.596C176.577 200.596 175.566 201.22 175.057 202.301H175.013V197.317H173.132V210ZM189.189 207.284C188.935 208.093 188.135 208.638 187.054 208.638C185.533 208.638 184.566 207.574 184.566 205.966V205.852H191.097V205.201C191.097 202.397 189.497 200.587 186.931 200.587C184.32 200.587 182.65 202.521 182.65 205.421C182.65 208.339 184.294 210.176 187.01 210.176C189.128 210.176 190.728 208.972 190.991 207.284H189.189ZM186.931 202.116C188.258 202.116 189.154 203.109 189.198 204.524H184.575C184.672 203.127 185.604 202.116 186.931 202.116ZM192.573 210H194.472V204.612C194.472 203.18 195.333 202.23 196.669 202.23C197.987 202.23 198.638 202.995 198.638 204.384V210H200.545V204.015C200.545 201.896 199.376 200.596 197.337 200.596C195.913 200.596 194.929 201.246 194.428 202.301H194.384V200.754H192.573V210Z" fill="black"/>
<path d="M63.3516 220.055H63.4297L66.0312 229H67.3594L70.4297 217.727H68.9609L66.7031 226.93H66.6406L64.1016 217.727H62.6797L60.1406 226.93H60.0781L57.8203 217.727H56.3516L59.4219 229H60.75L63.3516 220.055ZM72.9453 229.141C74.0391 229.141 75.0703 228.531 75.5547 227.602H75.5859V229H76.875V223.383C76.875 221.766 75.6719 220.734 73.7656 220.734C71.8438 220.734 70.6406 221.812 70.5469 223.219H71.8594C72.0312 222.422 72.6875 221.93 73.7344 221.93C74.8594 221.93 75.5156 222.523 75.5156 223.516V224.195L73.1875 224.328C71.3125 224.438 70.2422 225.312 70.2422 226.703C70.2422 228.164 71.3281 229.141 72.9453 229.141ZM73.25 227.984C72.2734 227.984 71.625 227.477 71.625 226.703C71.625 225.938 72.25 225.453 73.3438 225.383L75.5156 225.25V225.914C75.5156 227.086 74.5312 227.984 73.25 227.984ZM85.3516 223.539C85.1797 222.078 83.9688 220.734 81.9375 220.734C79.6953 220.734 78.2031 222.375 78.2031 224.938C78.2031 227.555 79.7031 229.141 81.9531 229.141C83.7969 229.141 85.1562 228 85.3672 226.383H84.0312C83.7969 227.359 83.0703 227.945 81.9609 227.945C80.5547 227.945 79.5859 226.828 79.5859 224.938C79.5859 223.094 80.5391 221.93 81.9453 221.93C83.1406 221.93 83.8281 222.656 84.0234 223.539H85.3516ZM86.6875 229H88.0469V224.266C88.0469 222.859 88.8828 221.938 90.2344 221.938C91.5078 221.938 92.1562 222.711 92.1562 224V229H93.5156V223.75C93.5156 221.938 92.4375 220.734 90.6562 220.734C89.4219 220.734 88.5312 221.266 88.0781 222.172H88.0469V217.727H86.6875V229ZM100.633 226.672C100.406 227.438 99.6484 227.961 98.6172 227.961C97.1562 227.961 96.2422 226.938 96.2422 225.383V225.305H102.07V224.789C102.07 222.328 100.719 220.734 98.5234 220.734C96.2812 220.734 94.8438 222.445 94.8438 224.969C94.8438 227.523 96.2578 229.141 98.5859 229.141C100.359 229.141 101.734 228.094 101.969 226.672H100.633ZM98.5 221.914C99.7812 221.914 100.633 222.883 100.664 224.242H96.25C96.3359 222.891 97.2266 221.914 98.5 221.914ZM112.117 226.672C111.891 227.438 111.133 227.961 110.102 227.961C108.641 227.961 107.727 226.938 107.727 225.383V225.305H113.555V224.789C113.555 222.328 112.203 220.734 110.008 220.734C107.766 220.734 106.328 222.445 106.328 224.969C106.328 227.523 107.742 229.141 110.07 229.141C111.844 229.141 113.219 228.094 113.453 226.672H112.117ZM109.984 221.914C111.266 221.914 112.117 222.883 112.148 224.242H107.734C107.82 222.891 108.711 221.914 109.984 221.914ZM114.93 229H116.289V223.938C116.289 222.789 116.977 222.031 118.031 222.031C118.359 222.031 118.648 222.07 118.758 222.109V220.789C118.648 220.773 118.445 220.734 118.211 220.734C117.258 220.734 116.508 221.305 116.242 222.203H116.211V220.875H114.93V229ZM120.617 229H121.977V221.992H123.633V220.875H121.969V219.977C121.969 219.172 122.32 218.781 123.055 218.781C123.281 218.781 123.508 218.805 123.672 218.828V217.727C123.477 217.695 123.148 217.664 122.844 217.664C121.344 217.664 120.617 218.406 120.617 219.969V220.875H119.484V221.992H120.617V229ZM125.039 229H126.398V223.938C126.398 222.789 127.086 222.031 128.141 222.031C128.469 222.031 128.758 222.07 128.867 222.109V220.789C128.758 220.773 128.555 220.734 128.32 220.734C127.367 220.734 126.617 221.305 126.352 222.203H126.32V220.875H125.039V229ZM130.727 219.43C131.203 219.43 131.578 219.047 131.578 218.578C131.578 218.102 131.203 217.727 130.727 217.727C130.258 217.727 129.875 218.102 129.875 218.578C129.875 219.047 130.258 219.43 130.727 219.43ZM130.047 229H131.406V220.875H130.047V229ZM133.102 223.117C133.102 224.289 133.844 225 135.375 225.367L136.664 225.68C137.594 225.906 137.914 226.242 137.914 226.828C137.914 227.562 137.234 228.031 136.133 228.031C135.031 228.031 134.406 227.586 134.242 226.656H132.883C133.039 228.18 134.227 229.141 136.133 229.141C137.945 229.141 139.281 228.141 139.281 226.727C139.281 225.562 138.688 224.922 137.047 224.523L135.758 224.211C134.852 223.992 134.438 223.609 134.438 223.047C134.438 222.336 135.094 221.844 136.086 221.844C137.086 221.844 137.711 222.367 137.812 223.219H139.109C139.055 221.781 137.867 220.734 136.086 220.734C134.328 220.734 133.102 221.727 133.102 223.117ZM147.445 223.539C147.273 222.078 146.062 220.734 144.031 220.734C141.789 220.734 140.297 222.375 140.297 224.938C140.297 227.555 141.797 229.141 144.047 229.141C145.891 229.141 147.25 228 147.461 226.383H146.125C145.891 227.359 145.164 227.945 144.055 227.945C142.648 227.945 141.68 226.828 141.68 224.938C141.68 223.094 142.633 221.93 144.039 221.93C145.234 221.93 145.922 222.656 146.117 223.539H147.445ZM148.781 229H150.141V224.266C150.141 222.859 150.977 221.938 152.328 221.938C153.602 221.938 154.25 222.711 154.25 224V229H155.609V223.75C155.609 221.938 154.531 220.734 152.75 220.734C151.516 220.734 150.625 221.266 150.172 222.172H150.141V217.727H148.781V229ZM157.773 218.914V220.875H156.562V221.992H157.773V226.891C157.773 228.453 158.352 229.062 159.844 229.062C160.164 229.062 160.539 229.039 160.703 229V227.859C160.609 227.875 160.297 227.898 160.141 227.898C159.445 227.898 159.133 227.562 159.133 226.82V221.992H160.711V220.875H159.133V218.914H157.773ZM167.82 229.141C168.914 229.141 169.945 228.531 170.43 227.602H170.461V229H171.75V223.383C171.75 221.766 170.547 220.734 168.641 220.734C166.719 220.734 165.516 221.812 165.422 223.219H166.734C166.906 222.422 167.562 221.93 168.609 221.93C169.734 221.93 170.391 222.523 170.391 223.516V224.195L168.062 224.328C166.188 224.438 165.117 225.312 165.117 226.703C165.117 228.164 166.203 229.141 167.82 229.141ZM168.125 227.984C167.148 227.984 166.5 227.477 166.5 226.703C166.5 225.938 167.125 225.453 168.219 225.383L170.391 225.25V225.914C170.391 227.086 169.406 227.984 168.125 227.984ZM180.148 220.875H178.789V225.648C178.789 227.031 177.992 227.938 176.672 227.938C175.414 227.938 174.797 227.227 174.797 225.906V220.875H173.438V226.148C173.438 227.992 174.477 229.141 176.25 229.141C177.5 229.141 178.344 228.617 178.828 227.68H178.859V229H180.148V220.875ZM182.352 229H183.711V221.992H185.367V220.875H183.703V219.977C183.703 219.172 184.055 218.781 184.789 218.781C185.016 218.781 185.242 218.805 185.406 218.828V217.727C185.211 217.695 184.883 217.664 184.578 217.664C183.078 217.664 182.352 218.406 182.352 219.969V220.875H181.219V221.992H182.352V229ZM187.32 217.727L187.414 225.258H188.633L188.727 217.727H187.32ZM188.023 229.078C188.531 229.078 188.914 228.688 188.914 228.188C188.914 227.68 188.531 227.297 188.023 227.297C187.523 227.297 187.133 227.68 187.133 228.188C187.133 228.688 187.523 229.078 188.023 229.078Z" fill="#5C6166"/>
<path d="M302.367 216V210.363H301.188V212.652H298.648V210.363H297.469V216H298.648V213.625H301.188V216H302.367ZM304.484 216V210.363H303.305V216H304.484ZM306.551 216V212.309H306.586L309.223 216H310.199V210.363H309.07V214.035H309.039L306.406 210.363H305.422V216H306.551ZM311.02 216H315.371V215.023H312.441V214.996L315.293 211.129V210.363H311.086V211.336H313.883V211.367L311.02 215.23V216ZM317.367 210.363H316.188V214.008C316.188 215.25 317.105 216.094 318.551 216.094C319.992 216.094 320.91 215.25 320.91 214.008V210.363H319.73V213.891C319.73 214.613 319.305 215.086 318.551 215.086C317.793 215.086 317.367 214.613 317.367 213.891V210.363ZM323.031 216V213.781H325.324V212.848H323.031V211.336H325.543V210.363H321.852V216H323.031ZM327.785 209.852C328.102 209.852 328.352 209.602 328.352 209.297C328.352 208.988 328.102 208.738 327.785 208.738C327.469 208.738 327.223 208.988 327.223 209.297C327.223 209.602 327.469 209.852 327.785 209.852ZM329.422 209.852C329.738 209.852 329.988 209.602 329.988 209.297C329.988 208.988 329.738 208.738 329.422 208.738C329.109 208.738 328.855 208.988 328.855 209.297C328.855 209.602 329.109 209.852 329.422 209.852ZM327.422 210.363H326.242V214.008C326.242 215.25 327.16 216.094 328.605 216.094C330.047 216.094 330.965 215.25 330.965 214.008V210.363H329.785V213.891C329.785 214.613 329.359 215.086 328.605 215.086C327.848 215.086 327.422 214.613 327.422 213.891V210.363ZM336.945 213.633V212.996H334.57V213.855H335.797L335.793 213.945C335.77 214.645 335.234 215.117 334.465 215.117C333.527 215.117 332.934 214.371 332.934 213.148C332.934 211.949 333.492 211.242 334.422 211.242C335.059 211.242 335.539 211.594 335.711 212.184H336.895C336.727 211.043 335.734 210.266 334.418 210.266C332.762 210.266 331.73 211.359 331.73 213.164C331.73 214.996 332.762 216.094 334.445 216.094C336.016 216.094 336.945 215.168 336.945 213.633ZM341.461 215.023H338.906V213.602H341.316V212.695H338.906V211.336H341.461V210.363H337.727V216H341.461V215.023ZM343.441 216V212.309H343.477L346.113 216H347.09V210.363H345.961V214.035H345.93L343.297 210.363H342.312V216H343.441Z" fill="#00A699"/>
<defs>
<filter id="filter0_d" x="0" y="21" width="371" height="344" filterUnits="userSpaceOnUse" color-interpolation-filters="sRGB">
<feFlood flood-opacity="0" result="BackgroundImageFix"/>
<feColorMatrix in="SourceAlpha" type="matrix" values="0 0 0 0 0 0 0 0 0 0 0 0 0 0 0 0 0 0 127 0"/>
<feOffset dy="4"/>
<feGaussianBlur stdDeviation="4"/>
<feColorMatrix type="matrix" values="0 0 0 0 0 0 0 0 0 0 0 0 0 0 0 0 0 0 0.08 0"/>
<feBlend mode="normal" in2="BackgroundImageFix" result="effect1_dropShadow"/>
<feBlend mode="normal" in="SourceGraphic" in2="effect1_dropShadow" result="shape"/>
</filter>
</defs>
</svg>
