<svg width="114" height="82" viewBox="0 0 114 82" fill="none" xmlns="http://www.w3.org/2000/svg">
<path opacity="0.1" d="M57 82C88.4802 82 114 80.3865 114 78.3962C114 76.4058 88.4802 74.7924 57 74.7924C25.5198 74.7924 0 76.4058 0 78.3962C0 80.3865 25.5198 82 57 82Z" fill="#F4D96D"/>
<path d="M105.059 75.7271C105.06 76.0119 105.031 76.296 104.972 76.5746C104.961 76.627 104.949 76.6838 104.937 76.7286C104.629 77.9724 103.759 78.8821 102.722 78.94C102.687 78.94 102.652 78.94 102.613 78.94C101.515 78.94 100.587 77.9877 100.281 76.6762C100.272 76.6412 100.265 76.6063 100.257 76.5669C100.198 76.2883 100.169 76.0043 100.17 75.7195C100.17 73.9427 101.263 72.5034 102.613 72.5034C103.963 72.5034 105.059 73.9525 105.059 75.7271Z" fill="#3F3D56"/>
<path opacity="0.1" d="M105.059 75.7272C105.06 76.0119 105.031 76.296 104.972 76.5746C104.961 76.627 104.949 76.6838 104.938 76.7286C104.901 76.7286 104.865 76.7286 104.829 76.7286C104.56 76.714 104.293 76.6775 104.03 76.6194C103.797 76.6918 103.559 76.7466 103.318 76.7832C103.133 76.8112 102.946 76.8287 102.76 76.8356H102.571C102.347 76.8356 102.124 76.8207 101.902 76.7908C101.543 76.7427 101.191 76.6548 100.852 76.5287C100.666 76.5909 100.477 76.642 100.285 76.6816C100.277 76.6467 100.269 76.6117 100.261 76.5724C100.203 76.2938 100.174 76.0098 100.175 75.725C100.175 73.9482 101.268 72.5089 102.617 72.5089C103.967 72.5089 105.059 73.9526 105.059 75.7272Z" fill="black"/>
<path d="M110.271 69.7372C110.271 68.9557 110.089 68.1849 109.739 67.4875L106.866 68.3863L109.388 66.8945C108.965 66.2797 108.41 65.7683 107.765 65.398C107.119 65.0277 106.399 64.808 105.657 64.7552C105.539 64.5753 105.41 64.4031 105.27 64.2397L101.144 65.5316L104.528 63.531C103.881 63.0315 103.121 62.7001 102.316 62.5662C101.511 62.4323 100.686 62.4999 99.913 62.7631C99.1402 63.0264 98.4438 63.477 97.8854 64.0753C97.3269 64.6736 96.9236 65.4011 96.7111 66.1934L100.245 70.2865L96.4114 67.4963C95.4393 68.1887 94.7471 69.2095 94.4609 70.3726C94.1747 71.5356 94.3137 72.7633 94.8524 73.8319C95.3912 74.9005 96.2938 75.7387 97.3958 76.1936C98.4977 76.6486 99.7255 76.69 100.855 76.3103C101.877 76.6871 102.993 76.7178 104.034 76.3977C104.76 76.5592 105.512 76.5548 106.236 76.3848C106.96 76.2149 107.636 75.8837 108.216 75.4158C108.795 74.9478 109.263 74.355 109.584 73.681C109.906 73.0071 110.073 72.2691 110.073 71.5216C110.073 71.4124 110.073 71.3032 110.062 71.194C110.203 70.7214 110.273 70.2305 110.271 69.7372Z" fill="#F4D96D"/>
<path opacity="0.1" d="M110.185 70.6644C108.668 70.3746 107.112 70.3546 105.588 70.6054C103.863 70.8926 102.099 71.5238 100.412 71.0619C99.4221 70.791 98.5666 70.1642 97.5992 69.8169C96.6661 69.4885 95.6605 69.4276 94.6949 69.6411C94.3267 70.5265 94.2197 71.4998 94.3868 72.4447C94.5539 73.3896 94.9879 74.2661 95.6371 74.9695C96.2862 75.6729 97.123 76.1733 98.0474 76.4111C98.9718 76.6489 99.9447 76.6139 100.85 76.3103C101.872 76.6871 102.988 76.7178 104.029 76.3977C104.754 76.5592 105.507 76.5548 106.231 76.3848C106.954 76.2149 107.631 75.8837 108.21 75.4158C108.79 74.9478 109.258 74.355 109.579 73.681C109.9 73.0071 110.067 72.2691 110.068 71.5216C110.068 71.4124 110.068 71.3032 110.057 71.194C110.109 71.02 110.152 70.8431 110.185 70.6644V70.6644Z" fill="black"/>
<path d="M75.848 18.7803H75.2259C75.0885 18.7803 74.9772 18.8922 74.9772 19.0304V27.8149C74.9772 27.9531 75.0885 28.065 75.2259 28.065H75.848C75.9853 28.065 76.0966 27.9531 76.0966 27.8149V19.0304C76.0966 18.8922 75.9853 18.7803 75.848 18.7803Z" fill="#3F3D56"/>
<path d="M38.2225 11.506H37.9196C37.8297 11.506 37.7568 11.5794 37.7568 11.6698V14.3989C37.7568 14.4894 37.8297 14.5627 37.9196 14.5627H38.2225C38.3125 14.5627 38.3854 14.4894 38.3854 14.3989V11.6698C38.3854 11.5794 38.3125 11.506 38.2225 11.506Z" fill="#3F3D56"/>
<path d="M38.2584 17.1029H37.9175C37.8162 17.1029 37.734 17.1855 37.734 17.2874V22.2389C37.734 22.3408 37.8162 22.4234 37.9175 22.4234H38.2584C38.3597 22.4234 38.4419 22.3408 38.4419 22.2389V17.2874C38.4419 17.1855 38.3597 17.1029 38.2584 17.1029Z" fill="#3F3D56"/>
<path d="M38.2442 24.2843H37.9196C37.8231 24.2843 37.7448 24.363 37.7448 24.4601V29.4749C37.7448 29.572 37.8231 29.6507 37.9196 29.6507H38.2442C38.3408 29.6507 38.419 29.572 38.419 29.4749V24.4601C38.419 24.363 38.3408 24.2843 38.2442 24.2843Z" fill="#3F3D56"/>
<path d="M71.706 1.40549H41.9878C39.8478 1.40549 38.1129 3.1505 38.1129 5.30307V74.1022C38.1129 76.2547 39.8478 77.9998 41.9878 77.9998H71.706C73.8461 77.9998 75.5809 76.2547 75.5809 74.1022V5.30307C75.5809 3.1505 73.8461 1.40549 71.706 1.40549Z" fill="#3F3D56"/>
<path d="M58.1888 3.69226H53.5083C53.356 3.69226 53.2325 3.81645 53.2325 3.96965V4.48401C53.2325 4.6372 53.356 4.76139 53.5083 4.76139H58.1888C58.3411 4.76139 58.4646 4.6372 58.4646 4.48401V3.96965C58.4646 3.81645 58.3411 3.69226 58.1888 3.69226Z" fill="#E6E8EC"/>
<path d="M59.8587 4.8324C60.1915 4.8324 60.4613 4.56104 60.4613 4.22631C60.4613 3.89157 60.1915 3.62021 59.8587 3.62021C59.5259 3.62021 59.2562 3.89157 59.2562 4.22631C59.2562 4.56104 59.5259 4.8324 59.8587 4.8324Z" fill="#E6E8EC"/>
<path d="M73.2672 6.39295V73.009C73.267 73.8027 72.9533 74.5638 72.3952 75.1249C71.8372 75.686 71.0804 76.0013 70.2913 76.0013H43.4025C42.6134 76.0013 41.8567 75.686 41.2986 75.1249C40.7405 74.5638 40.4269 73.8027 40.4266 73.009V6.39295C40.4266 5.99986 40.5035 5.61061 40.6531 5.24744C40.8027 4.88427 41.0219 4.55429 41.2982 4.27633C41.5745 3.99837 41.9026 3.77788 42.2637 3.62745C42.6247 3.47702 43.0117 3.3996 43.4025 3.3996H47.4262V3.91942C47.4273 4.57247 47.686 5.19839 48.1454 5.65986C48.6048 6.12132 49.2274 6.38065 49.8766 6.38094H63.5566C63.8784 6.38094 64.1971 6.31719 64.4944 6.19332C64.7917 6.06945 65.0618 5.88789 65.2894 5.65902C65.5169 5.43014 65.6974 5.15842 65.8205 4.85938C65.9437 4.56034 66.0071 4.23983 66.0071 3.91614V3.3996H70.2967C71.0851 3.40104 71.8406 3.71705 72.3975 4.27826C72.9545 4.83946 73.2673 5.60001 73.2672 6.39295V6.39295Z" fill="white"/>
<path opacity="0.2" d="M73.5029 33.901V56.5537H73.2673V56.5767H40.4266V28.9015C40.6372 28.6598 40.8507 28.409 41.0671 28.1491C45.6793 22.609 51.9482 21.1511 56.8002 20.9982C60.1247 20.889 63.434 21.5803 66.5934 22.953C68.2621 23.6782 70.6572 24.4732 73.2673 24.5518V33.1158C73.4269 33.5734 73.5029 33.901 73.5029 33.901Z" fill="#F4D96D"/>
<path opacity="0.2" d="M73.5029 33.901V56.5537H40.4266V41.7147C41.6046 41.4166 43.2494 40.2699 45.3601 37.1019C47.8844 33.3113 51.3141 32.3142 53.9687 32.2094C55.7873 32.1373 57.5982 32.6069 59.3267 33.5472C61.2712 34.6032 65.0191 35.8766 67.8669 32.1799C71.0155 28.0923 72.6897 31.4635 73.2673 33.1158C73.4269 33.5734 73.5029 33.901 73.5029 33.901Z" fill="#F4D96D"/>
<path d="M68.7257 52.405H45.0571C44.3376 52.405 43.7543 52.9917 43.7543 53.7155V59.3942C43.7543 60.118 44.3376 60.7047 45.0571 60.7047H68.7257C69.4453 60.7047 70.0286 60.118 70.0286 59.3942V53.7155C70.0286 52.9917 69.4453 52.405 68.7257 52.405Z" fill="#736E9E"/>
<path d="M14.5551 74.6668L16.6331 73.4339C16.3521 72.951 15.9928 72.5188 15.5702 72.155L11.6497 73.3858L14.7223 71.5686C13.9617 71.1495 13.1057 70.9369 12.2386 70.9516C11.3715 70.9663 10.5231 71.2079 9.777 71.6525C9.03089 72.0972 8.41276 72.7296 7.98345 73.4875C7.55413 74.2455 7.32843 75.1028 7.32855 75.9751C7.32855 78.75 9.56404 78.8461 12.3228 78.8461C15.0816 78.8461 17.3171 78.75 17.3171 75.9751C17.3181 75.2731 17.172 74.5787 16.8883 73.9373L14.5551 74.6668Z" fill="#F4D96D"/>
<path opacity="0.1" d="M15.0838 77.3653C14.8627 77.1421 14.6155 76.9467 14.3477 76.7832C13.9699 76.5309 13.5801 76.2743 13.135 76.188C12.7441 76.1127 12.3413 76.176 11.9407 76.1542C11.2495 76.1113 10.5988 75.8112 10.1156 75.3122C9.83223 75.0173 9.60858 74.6569 9.26766 74.4287C8.89961 74.1862 8.43275 74.1338 7.99629 74.1939C7.86981 74.2131 7.74442 74.239 7.62063 74.2714C7.42469 74.8182 7.32477 75.395 7.32532 75.9762C7.32532 78.7511 9.56081 78.8472 12.3196 78.8472C13.6583 78.8472 14.8732 78.8243 15.77 78.4835L15.6202 78.2018C15.4773 77.9013 15.2971 77.6202 15.0838 77.3653V77.3653Z" fill="black"/>
<path d="M24.7804 63.5911C24.6217 63.7311 24.4994 63.9081 24.4243 64.1065C24.2386 64.6897 24.7576 65.2619 24.8075 65.8724C24.8466 66.3573 24.5904 66.8094 24.4449 67.2746C24.2807 67.8525 24.2913 68.4665 24.4754 69.0383C24.6595 69.6101 25.0087 70.1138 25.4785 70.4853C25.5785 70.5706 25.6966 70.6319 25.8238 70.6644C25.9287 70.6771 26.0351 70.6681 26.1364 70.6381C26.2378 70.608 26.332 70.5575 26.4133 70.4896C26.6654 70.3052 26.8577 70.0498 26.9659 69.7558C27.056 69.4668 27.1046 69.1663 27.1103 68.8635L27.1874 67.695C27.2678 66.4752 27.3405 65.2171 27.0452 64.0191C26.9486 63.626 26.7694 62.7229 26.3178 62.6683C25.8661 62.6137 25.08 63.2962 24.7804 63.5911Z" fill="#3F3D56"/>
<path d="M32.3543 58.5719C31.812 60.4876 31.4188 62.4428 31.1785 64.4199C31.1437 64.6984 31.1079 64.9911 30.9407 65.2161C30.6074 65.6671 29.9397 65.6387 29.386 65.5655C29.2531 65.5585 29.1235 65.5212 29.0071 65.4563C28.7986 65.3143 28.753 65.0304 28.728 64.7781C28.3487 61.0593 28.0954 57.3306 27.968 53.5921C27.9626 53.449 32.6029 53.4359 33.0003 53.8105C33.3977 54.1851 33.0893 55.5862 33.0003 56.0634C32.8548 56.9131 32.5921 57.7408 32.3543 58.5719Z" fill="#FBBEBE"/>
<path opacity="0.05" d="M32.3543 58.5719C31.812 60.4876 31.4188 62.4428 31.1785 64.4199C31.1437 64.6984 31.1079 64.9911 30.9407 65.2161C30.6074 65.6671 29.9397 65.6387 29.386 65.5655C29.2531 65.5585 29.1235 65.5212 29.0071 65.4563C28.7986 65.3143 28.753 65.0304 28.728 64.7781C28.3487 61.0593 28.0954 57.3306 27.968 53.5921C27.9626 53.449 32.6029 53.4359 33.0003 53.8105C33.3977 54.1851 33.0893 55.5862 33.0003 56.0634C32.8548 56.9131 32.5921 57.7408 32.3543 58.5719Z" fill="black"/>
<path d="M22.6914 53.0602L24.5708 57.2177C25.1961 58.6003 25.8259 59.9981 26.1244 61.4866C26.2442 62.1084 26.3208 62.7379 26.3535 63.3704C26.3989 63.9126 26.3821 64.4582 26.3036 64.9965C26.2352 65.3962 26.1092 65.785 26.0539 66.1869C25.8367 67.7889 26.7389 69.296 27.3567 70.7867C27.8905 72.0669 28.2301 73.4205 28.3643 74.8022C28.4207 75.3908 28.4522 76.0155 28.7866 76.5014C29.3979 76.3169 29.995 76.1574 30.6323 76.2295C30.7463 75.2892 30.1557 74.4232 29.9385 73.4993C29.5401 71.8066 30.4206 70.0277 30.1209 68.3142C29.9581 67.386 29.4532 66.5123 29.4945 65.5709C29.5716 63.8542 29.8919 62.12 29.5661 60.4382C29.1992 58.5369 28.1439 56.8082 27.9104 54.8862C27.7313 53.4097 28.019 51.777 27.2015 50.5365C25.4155 50.4305 23.5687 51.4909 22.6914 53.0602Z" fill="#FBBEBE"/>
<path d="M28.8681 79.1694C28.6802 79.1759 28.4609 79.1694 28.3448 79.0198C28.2881 78.9327 28.2555 78.8321 28.2503 78.7282C28.1614 78.0698 28.1178 77.4061 28.12 76.7417C28.12 76.4993 28.1309 76.2415 28.2655 76.0417C28.3643 75.9197 28.4769 75.8098 28.601 75.7141C28.8887 75.4465 29.0982 75.0588 29.4696 74.9354C29.6322 74.8878 29.8047 74.8856 29.9686 74.9288C30.1324 74.9721 30.2816 75.0593 30.4 75.1811C30.6343 75.4324 30.7794 75.7545 30.8126 76.0974C30.8669 76.5036 30.8213 76.9459 31.0352 77.2987C31.1198 77.4352 31.2382 77.5466 31.3337 77.6754C31.6594 78.1122 31.9515 78.9673 31.2794 79.1442C30.5672 79.331 29.6074 79.1453 28.8681 79.1694Z" fill="#3F3D56"/>
<path d="M30.4977 28.456C30.8777 27.7177 30.6508 26.7676 30.108 26.1408C29.5651 25.5139 28.7715 25.1645 27.9615 24.9756C26.8758 24.72 25.7119 24.7222 24.6729 25.1241C23.8445 25.4441 23.1312 25.9977 22.3668 26.4498C21.0161 27.2497 19.5043 27.7348 17.9425 27.8695C16.2054 28.017 14.2652 27.7876 12.9222 28.9004C10.462 30.9382 12.1752 35.5304 9.88221 37.7538C9.26335 38.3534 8.43712 38.6777 7.72815 39.1659C7.01918 39.654 6.38512 40.4349 6.49912 41.291C6.55341 41.7027 6.77707 42.074 7.03547 42.3984C8.14507 43.793 10.0082 44.5236 11.7703 44.3062C13.5324 44.0889 15.1458 42.951 16.0046 41.385C16.2217 40.9929 16.3976 40.5637 16.7396 40.2787C17.4247 39.7097 18.43 39.9401 19.3181 39.9128C21.2931 39.8517 23.0867 38.1492 23.2593 36.1681C23.3331 35.3218 23.1898 34.3368 23.7946 33.7427C24.282 33.2622 25.0442 33.2665 25.7108 33.1191C26.9355 32.8494 27.8269 31.9582 28.386 30.8705C28.6423 30.3704 28.6162 29.8112 28.9962 29.3962C29.4012 28.9398 30.1362 29.1571 30.4977 28.456Z" fill="#3F3D56"/>
<g opacity="0.1">
<path opacity="0.1" d="M16.3237 28.2157C17.044 28.1539 17.756 28.0174 18.4484 27.8084C18.253 27.8357 18.0575 27.8586 17.861 27.875C16.4995 27.9897 15.0099 27.875 13.7831 28.3566C14.6191 28.2703 15.4953 28.2856 16.3237 28.2157Z" fill="black"/>
<path opacity="0.1" d="M15.112 40.6249C14.77 40.9088 14.5898 41.3391 14.377 41.7311C13.719 42.9241 12.6654 43.8467 11.4 44.3379C11.4966 44.3313 11.5932 44.3226 11.6898 44.3106C13.452 44.0922 15.0653 42.9564 15.9241 41.3904C16.1413 40.9983 16.3161 40.5681 16.6592 40.2841L16.7178 40.2383C16.1217 40.2241 15.5507 40.2601 15.112 40.6249Z" fill="black"/>
<path opacity="0.1" d="M30.0265 26.1473C29.4836 25.5205 28.6845 25.1721 27.88 24.9821C26.7943 24.7266 25.6304 24.7298 24.5903 25.1317L24.5208 25.1601C25.1327 25.1251 25.7464 25.1799 26.3426 25.3228C27.1471 25.5128 27.9473 25.8612 28.4891 26.4891C29.0309 27.1171 29.2589 28.0661 28.8789 28.8043C28.5173 29.5054 27.7823 29.287 27.3686 29.7402C26.9886 30.1541 27.0147 30.7144 26.7585 31.2145C26.2775 32.1504 25.549 32.9389 24.5762 33.3135C24.916 33.2327 25.2808 33.1966 25.6196 33.1224C26.8442 32.8515 27.7356 31.9615 28.2947 30.8738C28.5521 30.3736 28.526 29.8134 28.9049 29.3995C29.3197 28.9463 30.0547 29.1636 30.4151 28.4636C30.7951 27.7276 30.5682 26.7775 30.0265 26.1473Z" fill="black"/>
<path opacity="0.1" d="M24.0833 33.4642C23.4166 33.6105 22.6545 33.6072 22.167 34.0867C21.5622 34.6818 21.7055 35.6669 21.6317 36.5132C21.5025 37.993 20.4678 39.3177 19.1292 39.9194H19.228C21.2029 39.8582 22.9954 38.1546 23.168 36.1747C23.2429 35.3272 23.0996 34.3422 23.7043 33.7481C23.8429 33.6151 24.0059 33.5105 24.1842 33.4402L24.0833 33.4642Z" fill="black"/>
</g>
<path d="M30.5303 38.3949C30.4402 38.5554 30.2545 38.6297 30.0819 38.6941C28.2948 39.3559 26.4143 40.0297 24.5295 39.7512C24.4589 39.4531 24.3895 39.1539 24.32 38.8557C24.2194 38.4233 24.118 37.9908 24.016 37.5583C23.9682 37.3519 23.9193 37.1434 23.8803 36.9337C23.8129 36.6026 23.7914 36.2638 23.8162 35.9268C23.8277 35.8047 23.8495 35.6837 23.8813 35.5653C23.9371 35.3499 24.0305 35.1462 24.1571 34.9636C24.1788 34.9341 24.2016 34.9046 24.2255 34.8762C24.3329 34.746 24.4632 34.6368 24.6099 34.5541C24.9301 34.3772 25.3699 34.3018 25.4991 33.9589C25.549 33.7796 25.5441 33.5893 25.4849 33.4129C25.3764 32.976 25.1799 32.5654 25.0583 32.133C24.9041 31.5869 25.1364 31.6208 25.6608 31.4886C26.6054 31.2495 27.5934 31.078 28.563 31.2702C28.5174 31.7518 28.4728 32.2454 28.5934 32.715C28.7139 33.1846 29.0363 33.6302 29.4999 33.7601C29.5683 33.7798 29.6411 33.7918 29.7171 33.8082C29.8177 33.8245 29.9133 33.8641 29.9961 33.9239C30.0532 33.9714 30.0986 34.0316 30.1286 34.0998C30.1758 34.215 30.2068 34.3363 30.2208 34.4602C30.3909 35.6061 30.5136 36.7575 30.5889 37.9144V37.958C30.6112 38.1063 30.5909 38.2579 30.5303 38.3949V38.3949Z" fill="#FBBEBE"/>
<path d="M21.3299 36.5132C20.9239 37.1346 20.7871 37.8903 20.6633 38.6242L19.8751 43.2218C19.7665 43.8508 19.6699 44.5421 19.9902 45.0936C20.0987 45.2803 20.2507 45.442 20.33 45.6396C20.3899 45.8385 20.4292 46.0431 20.4473 46.2501C20.6318 47.3039 21.6622 48.0149 22.6958 48.2704C23.0693 48.3632 23.5057 48.3993 23.7999 48.1492C24.1257 47.8773 24.1257 47.3596 23.9335 46.9861C23.7413 46.6127 23.3906 46.3484 23.0508 46.0983L21.9249 45.264L22.5763 40.2405C22.6241 39.8757 22.7935 39.4028 23.1605 39.4432C23.4949 39.4793 23.7522 39.9696 24.0497 39.8113C24.1429 39.7478 24.2085 39.6509 24.2331 39.5404C24.3634 39.1287 24.3276 38.6854 24.2907 38.254L24.1561 36.6967C24.1115 36.1911 24.2407 35.8121 24.3015 35.3371C24.3721 34.7834 24.0051 34.9516 23.5524 35.0706C22.6827 35.3021 21.8326 35.7422 21.3299 36.5132Z" fill="#FBBEBE"/>
<path d="M35.3302 44.0638C35.2475 44.2038 35.1249 44.3156 34.9784 44.3849C34.0993 44.8834 33.0656 45.0296 32.0839 44.7944C31.8577 44.7275 31.6278 44.6736 31.3955 44.6328C31.0242 44.5869 30.6464 44.6611 30.2718 44.6328C29.5118 44.5749 28.8441 44.0976 28.3175 43.5407C28.0005 43.2131 27.7128 42.6769 28.0081 42.3252C28.0906 42.2404 28.1931 42.1779 28.306 42.1435C28.419 42.1091 28.5387 42.104 28.6541 42.1286C28.884 42.1802 29.1058 42.2632 29.3131 42.3755C30.0398 42.7143 30.8172 42.9298 31.6138 43.0132C32.1566 43.07 32.8471 42.9772 33.035 42.4585C33.1262 42.2062 33.0621 41.9266 32.9981 41.6656C32.8229 40.9507 32.6477 40.2354 32.4726 39.5197C32.4605 39.4572 32.4385 39.3971 32.4074 39.3417C32.3985 39.3267 32.388 39.3128 32.3759 39.3002C32.3067 39.2422 32.223 39.2044 32.1338 39.191C31.7289 39.0905 31.3239 38.9278 31.034 38.6275C30.844 38.4143 30.6926 38.1692 30.5867 37.9034C30.5563 37.8368 30.5281 37.7691 30.4987 37.7014C30.2762 37.1794 30.0417 36.6443 29.8603 36.0961C29.7338 35.7255 29.6404 35.3443 29.5813 34.9571C29.5335 34.6218 29.5075 34.4678 29.6899 34.3193C29.7388 34.2822 29.7907 34.2493 29.8452 34.221C29.9288 34.1762 30.0232 34.1315 30.1231 34.0889L30.2197 34.0485C30.5167 33.929 30.8219 33.8312 31.1328 33.7558C31.8863 33.58 32.6908 33.9469 33.2076 34.5268C33.7244 35.1067 33.9926 35.8657 34.1641 36.6246C34.3357 37.3836 34.4236 38.1612 34.6386 38.9081C34.7222 39.2008 34.8264 39.4891 34.8981 39.7818C34.975 40.1299 35.0297 40.4827 35.062 40.8378C35.1641 41.7428 35.2658 42.6477 35.3671 43.5527C35.4045 43.723 35.3917 43.9007 35.3302 44.0638Z" fill="#FBBEBE"/>
<path d="M24.1821 43.6707C24.3993 45.0641 23.775 46.4347 23.1713 47.7113C23.5133 47.9625 23.9313 48.087 24.3396 48.1951C27.0718 48.9176 29.9123 49.1326 32.7213 48.8296C32.7886 48.3578 32.8516 47.8576 32.6594 47.423C32.54 47.1533 32.3337 46.9338 32.2023 46.6695C31.9852 46.2326 32.0069 45.7248 32.0308 45.24L32.2251 41.1087C30.8777 40.484 29.3154 41.0694 27.8334 41.1534C27.0658 41.1971 26.2884 41.1032 25.5317 41.2397C25.1386 41.3107 23.9031 41.5062 23.7174 41.9135C23.5318 42.3209 24.1159 43.2273 24.1821 43.6707Z" fill="#FBBEBE"/>
<path opacity="0.05" d="M24.1821 43.6707C24.3993 45.0641 23.775 46.4347 23.1713 47.7113C23.5133 47.9625 23.9313 48.087 24.3396 48.1951C27.0718 48.9176 29.9123 49.1326 32.7213 48.8296C32.7886 48.3578 32.8516 47.8576 32.6594 47.423C32.54 47.1533 32.3337 46.9338 32.2023 46.6695C31.9852 46.2326 32.0069 45.7248 32.0308 45.24L32.2251 41.1087C30.8777 40.484 29.3154 41.0694 27.8334 41.1534C27.0658 41.1971 26.2884 41.1032 25.5317 41.2397C25.1386 41.3107 23.9031 41.5062 23.7174 41.9135C23.5318 42.3209 24.1159 43.2273 24.1821 43.6707Z" fill="black"/>
<path d="M27.7519 47.6698C26.2916 47.364 24.8563 46.8584 23.3656 46.8234C23.2908 46.8158 23.2153 46.8302 23.1485 46.8649C23.0757 46.9255 23.0271 47.0104 23.0117 47.1041C22.8575 47.6392 22.7196 48.1783 22.598 48.7215C22.1941 50.5266 21.9954 52.5208 22.8836 54.1414C22.8749 53.615 23.2038 53.1225 23.6436 52.8309C24.0833 52.5393 24.6098 52.4214 25.131 52.3733C25.6521 52.3253 26.2091 52.3449 26.6944 52.5601C27.0336 52.7151 27.3262 52.9572 27.5429 53.2619C27.7596 53.5667 27.8927 53.9235 27.9289 54.2965L33.0589 54.4635C33.0889 54.4724 33.1206 54.4735 33.1512 54.4669C33.1818 54.4602 33.2102 54.446 33.234 54.4255C33.2577 54.405 33.2759 54.3789 33.2871 54.3495C33.2982 54.3201 33.3019 54.2883 33.2977 54.2571C33.4869 52.6019 33.4799 50.9299 33.2771 49.2762C33.2206 48.8143 33.213 48.1732 32.6962 47.9996C32.0796 47.7921 31.1046 48.0345 30.4456 48.0062C29.5401 47.9679 28.6392 47.8554 27.7519 47.6698V47.6698Z" fill="#3F3D56"/>
<path d="M32.4086 39.5798L32.3923 41.8731L27.2026 42.0467C26.2504 42.0795 25.2906 42.1123 24.3623 42.3252C24.0952 42.3864 23.8314 42.4628 23.5687 42.5382C23.2951 41.5302 23.0258 40.4742 23.0975 39.4465C23.1173 39.1693 23.1653 38.8949 23.2408 38.6275C23.4058 38.0509 23.7152 37.507 23.8803 36.937C23.9468 36.715 23.9833 36.4851 23.9888 36.2533C23.9765 36.0219 23.9401 35.7924 23.8803 35.5686C23.8327 35.3851 23.81 35.1959 23.813 35.0062L24.2244 34.8784C24.2364 34.9276 24.2462 34.9756 24.2548 35.0258C24.2722 35.1296 24.2863 35.2355 24.2961 35.3415C24.3193 35.604 24.3266 35.8676 24.3178 36.131C24.3037 36.6574 24.2331 37.2438 24.5599 37.6599C24.9844 38.1939 25.8009 38.1109 26.4675 37.9777L28.2134 37.6271C28.7649 37.5179 29.3805 37.3629 29.6682 36.8769C29.791 36.6409 29.8558 36.3788 29.8571 36.1125V36.06C29.8831 35.48 29.8257 34.8992 29.6867 34.3357C29.6443 34.1587 29.5922 33.984 29.5336 33.8126H29.7084C29.8091 33.8288 29.9046 33.8685 29.9874 33.9283C30.0446 33.9758 30.0899 34.036 30.1199 34.1041L30.2165 34.0637C30.6017 35.6476 31.2366 37.1592 32.097 38.5412C32.2076 38.6994 32.2953 38.8726 32.3575 39.0556C32.3833 39.1548 32.3979 39.2566 32.401 39.3592C32.4096 39.4236 32.4086 39.5011 32.4086 39.5798Z" fill="#FF6F61"/>
<path d="M26.9257 32.6386C28.6646 32.6386 30.0743 31.2207 30.0743 29.4716C30.0743 27.7225 28.6646 26.3046 26.9257 26.3046C25.1868 26.3046 23.7772 27.7225 23.7772 29.4716C23.7772 31.2207 25.1868 32.6386 26.9257 32.6386Z" fill="#FBBEBE"/>
<path d="M21.3299 36.5132C20.9239 37.1346 20.7871 37.8903 20.6633 38.6242L19.8751 43.2218C19.7665 43.8508 19.6699 44.5421 19.9902 45.0936C20.0987 45.2803 20.2507 45.442 20.33 45.6396C20.3899 45.8385 20.4292 46.0431 20.4473 46.2501C20.6318 47.3039 21.6622 48.0149 22.6958 48.2704C23.0693 48.3632 23.5057 48.3993 23.7999 48.1492C24.1257 47.8773 24.1257 47.3596 23.9335 46.9861C23.7413 46.6127 23.3906 46.3484 23.0508 46.0983L21.9249 45.264L22.5763 40.2404C22.6198 39.879 21.8326 35.7422 21.3299 36.5132Z" fill="#FBBEBE"/>
<path d="M34.1652 36.6312C34.3367 37.3902 34.4247 38.1677 34.6397 38.9147C34.7233 39.2085 34.8275 39.4957 34.8991 39.7883C34.976 40.1361 35.0308 40.4885 35.0631 40.8433L35.3682 43.5582C35.4033 43.7258 35.3901 43.9001 35.3302 44.0605C35.2471 44.2002 35.1247 44.312 34.9784 44.3816C34.0989 44.8788 33.0656 45.025 32.0839 44.7911C31.8579 44.7232 31.628 44.6692 31.3955 44.6295C31.0242 44.5825 30.6464 44.6579 30.2718 44.6295C29.5118 44.5716 28.8441 44.0955 28.3175 43.5429C28.0005 43.2153 27.7128 42.678 28.0081 42.3263C28.0906 42.2415 28.1931 42.1789 28.306 42.1446C28.419 42.1102 28.5387 42.1051 28.6541 42.1297C28.884 42.1816 29.1058 42.265 29.3131 42.3776C30.04 42.7156 30.8173 42.9308 31.6138 43.0143C32.1566 43.0722 32.8471 42.9794 33.035 42.4595C33.1262 42.2073 33.0621 41.9277 32.9981 41.6667L32.4726 39.5208C32.4509 39.4465 33.9937 35.8733 34.1652 36.6312Z" fill="#FBBEBE"/>
<path d="M24.9768 30.4468C24.8368 29.9412 24.6403 29.3089 25.0344 28.966C25.176 28.856 25.3467 28.7903 25.5251 28.7771C26.41 28.6679 27.3252 29.192 28.1721 28.9125C28.4422 28.8237 28.681 28.6582 28.8597 28.4359C29.0383 28.2136 29.1492 27.9441 29.179 27.6598C29.2087 27.3755 29.156 27.0887 29.0272 26.8339C28.8985 26.5791 28.6991 26.3672 28.4533 26.2238C28.0831 26.0054 27.6412 25.9628 27.2145 25.9246C26.0908 25.8208 24.9193 25.7247 23.8683 26.143C22.8174 26.5613 21.9314 27.638 22.1486 28.753C22.2495 29.2849 22.5763 29.7424 22.9086 30.1662C23.1637 30.4883 24.1875 32.0227 24.599 32.0008C25.1788 31.9681 25.068 30.7755 24.9768 30.4468Z" fill="#3F3D56"/>
<path opacity="0.1" d="M28.4533 26.2238C28.3906 26.1873 28.3253 26.1556 28.2579 26.1288C28.4485 26.3028 28.5904 26.5241 28.6693 26.7706C28.7482 27.017 28.7614 27.28 28.7076 27.5332C28.6537 27.7864 28.5347 28.021 28.3624 28.2134C28.1901 28.4058 27.9706 28.5493 27.7259 28.6296C26.879 28.9092 25.9638 28.385 25.0789 28.4942C24.9005 28.5074 24.7298 28.5731 24.5882 28.6831C24.1941 29.026 24.3906 29.6583 24.5306 30.164C24.6218 30.4916 24.7326 31.6852 24.155 31.718H24.1452C24.3243 31.8938 24.4861 32.0085 24.6012 32.0019C25.1788 31.9692 25.0681 30.7766 24.9769 30.4479C24.8368 29.9423 24.6403 29.31 25.0344 28.9671C25.176 28.8571 25.3467 28.7914 25.5251 28.7781C26.41 28.6689 27.3253 29.1931 28.1721 28.9136C28.4422 28.8248 28.681 28.6593 28.8597 28.437C29.0384 28.2147 29.1493 27.9452 29.179 27.6609C29.2087 27.3766 29.156 27.0898 29.0272 26.835C28.8985 26.5801 28.6992 26.3683 28.4533 26.2249V26.2238Z" fill="black"/>
<path d="M74.6971 65.619H39.3029V76.6489H74.6971V65.619Z" fill="#3F3D56"/>
<path d="M55.48 69.1835V73.0822L58.52 71.1328L55.48 69.1835Z" fill="white"/>
<path d="M28.3371 3.72723L26.6521 4.80182L27.6748 2.93111C27.385 2.69839 27.0262 2.56964 26.6554 2.56527H26.6282C26.5111 2.56699 26.3942 2.55822 26.2786 2.53906L25.7075 2.90272L25.9529 2.45497C25.5478 2.31321 25.1979 2.04548 24.954 1.69053L23.9313 2.34577L24.5773 1.16524C23.9791 0.443385 23.1735 0.00109863 22.2875 0.00109863C21.2246 0.00109863 20.2779 0.636681 19.6666 1.62719C19.4859 1.9246 19.2297 2.16831 18.9245 2.33335C18.6192 2.49839 18.2758 2.5788 17.9295 2.56636H17.8719C16.6983 2.56636 15.7472 3.90414 15.7472 5.55535C15.7472 7.20655 16.6983 8.54434 17.8719 8.54434C18.1301 8.54312 18.3842 8.47905 18.6124 8.35759C19.0117 8.16213 19.4484 8.05639 19.8924 8.04771C20.3363 8.03904 20.7769 8.12764 21.1834 8.30736C21.5273 8.46213 21.8999 8.54213 22.2767 8.54213C22.6535 8.54213 23.026 8.46213 23.37 8.30736C23.7736 8.13134 24.2102 8.04473 24.6501 8.0534C25.0899 8.06206 25.5228 8.16581 25.9193 8.35759C26.1451 8.47649 26.3961 8.53904 26.651 8.53997C27.8247 8.53997 28.7758 7.20109 28.7758 5.55098C28.7838 4.9157 28.633 4.28857 28.3371 3.72723V3.72723Z" fill="#F2F2F2"/>
<path opacity="0.03" d="M25.1604 8.10097C24.5484 7.98422 23.9156 8.05341 23.3429 8.29972C22.9988 8.45416 22.6263 8.53397 22.2496 8.53397C21.8728 8.53397 21.5003 8.45416 21.1562 8.29972C20.7496 8.12039 20.3091 8.03209 19.8652 8.04096C19.4212 8.04982 18.9845 8.15562 18.5853 8.35105C18.3569 8.47204 18.1029 8.53574 17.8448 8.5367C16.8025 8.5367 15.9351 7.48067 15.7548 6.08719C15.9626 5.934 16.1395 5.74238 16.276 5.5226C16.8872 4.531 17.834 3.89542 18.8969 3.89542C19.9598 3.89542 20.8946 4.52336 21.5026 5.50403C21.6856 5.79898 21.9411 6.04149 22.2444 6.20811C22.5478 6.37473 22.8887 6.45984 23.2343 6.45522H23.2614C24.092 6.45522 24.8108 7.12466 25.1604 8.10097Z" fill="black"/>
<path d="M85.9886 28.0847L85.1483 28.6209L85.6585 27.6872C85.514 27.5713 85.3352 27.5072 85.1504 27.5048H85.1363C85.0782 27.5058 85.0201 27.5017 84.9626 27.4928L84.6727 27.6762L84.7954 27.4524C84.5935 27.3819 84.419 27.2489 84.2971 27.0723L83.7868 27.3999L84.1125 26.8113C83.9769 26.6353 83.8041 26.4919 83.6065 26.3914C83.4089 26.2909 83.1916 26.2359 82.9703 26.2303C82.4405 26.2303 81.9682 26.547 81.6675 27.0418C81.5769 27.1903 81.4488 27.3119 81.2962 27.3942C81.1436 27.4765 80.972 27.5166 80.7989 27.5102H80.7707C80.1855 27.5102 79.711 28.1786 79.711 29.0009C79.711 29.8232 80.1855 30.4927 80.7707 30.4927C80.8993 30.4921 81.026 30.4603 81.1398 30.3999C81.3389 30.3023 81.5567 30.2495 81.7781 30.245C81.9994 30.2404 82.2192 30.2843 82.422 30.3736C82.5926 30.4513 82.7776 30.4919 82.9649 30.4927C83.1518 30.492 83.3366 30.4526 83.5077 30.3769C83.709 30.2891 83.9267 30.2458 84.146 30.25C84.3654 30.2541 84.5813 30.3056 84.7791 30.4009C84.8916 30.4606 85.0167 30.4921 85.1439 30.4927C85.7291 30.4927 86.2036 29.8243 86.2036 29.0009C86.2099 28.6822 86.136 28.3669 85.9886 28.0847V28.0847Z" fill="#F2F2F2"/>
<path opacity="0.03" d="M84.4002 30.2666C84.0946 30.2076 83.7784 30.2423 83.4926 30.366C83.3217 30.4426 83.1368 30.4822 82.9497 30.4822C82.7627 30.4822 82.5777 30.4426 82.4069 30.366C82.204 30.2768 81.9843 30.2329 81.763 30.2372C81.5417 30.2416 81.3239 30.2941 81.1246 30.3911C81.0109 30.452 80.8843 30.4842 80.7555 30.485C80.2354 30.485 79.8033 29.9576 79.7132 29.263C79.8169 29.1867 79.905 29.0911 79.9727 28.9813C80.2778 28.4866 80.7501 28.1699 81.2755 28.1699C81.801 28.1699 82.2722 28.4833 82.5784 28.9714C82.6696 29.1199 82.7977 29.2419 82.9499 29.3256C83.1022 29.4092 83.2735 29.4517 83.447 29.4487H83.46C83.8671 29.4454 84.2265 29.7796 84.4002 30.2666Z" fill="black"/>
<path d="M87.8484 14.1598L89.1979 15.0214L88.3771 13.522C88.6095 13.336 88.8967 13.233 89.1936 13.2293H89.2153C89.3091 13.2307 89.4028 13.2238 89.4954 13.2086L89.9536 13.5001L89.7571 13.1419C90.081 13.0276 90.361 12.8137 90.5573 12.5304L91.377 13.0524L90.8591 12.1067C91.3379 11.5279 91.9839 11.174 92.6939 11.174C93.5462 11.174 94.3041 11.6829 94.7937 12.4769C94.9385 12.7145 95.1433 12.9092 95.3872 13.0414C95.6311 13.1735 95.9054 13.2384 96.1823 13.2293H96.2279C97.1682 13.2293 97.9303 14.3017 97.9303 15.6242C97.9303 16.9467 97.1703 18.0191 96.2279 18.0191C96.0212 18.018 95.8179 17.9667 95.6351 17.8695C95.3149 17.7124 94.9644 17.6275 94.6081 17.6205C94.2519 17.6135 93.8984 17.6847 93.5723 17.8291C93.2968 17.9529 92.9984 18.0169 92.6967 18.0169C92.3949 18.0169 92.0965 17.9529 91.821 17.8291C91.4977 17.6879 91.148 17.6183 90.7957 17.6251C90.4433 17.6318 90.0965 17.7148 89.7788 17.8684C89.5973 17.9634 89.396 18.0136 89.1914 18.0147C88.2512 18.0147 87.489 16.9423 87.489 15.6198C87.4856 15.1106 87.6091 14.6086 87.8484 14.1598V14.1598Z" fill="#F2F2F2"/>
<path opacity="0.03" d="M90.3922 17.6642C90.8835 17.57 91.3916 17.6255 91.8514 17.8236C92.1269 17.9474 92.4253 18.0114 92.727 18.0114C93.0288 18.0114 93.3272 17.9474 93.6027 17.8236C93.9289 17.6797 94.2824 17.6088 94.6386 17.616C94.9948 17.6232 95.3452 17.7082 95.6655 17.8651C95.8483 17.962 96.0517 18.0129 96.2583 18.0136C97.0932 18.0136 97.7881 17.1673 97.9336 16.0479C97.7661 15.9258 97.6241 15.7718 97.5156 15.5947C97.0259 14.8019 96.267 14.2919 95.4158 14.2919C94.5646 14.2919 93.8144 14.7953 93.3247 15.5805C93.1784 15.8173 92.9738 16.012 92.7307 16.146C92.4876 16.2799 92.2143 16.3484 91.9372 16.345H91.9155C91.2488 16.346 90.6723 16.8823 90.3922 17.6642Z" fill="black"/>
</svg>
