<svg width="140" height="76" viewBox="0 0 140 76" fill="none" xmlns="http://www.w3.org/2000/svg">
<path d="M95.9836 65.0201C109.049 64.8669 122.113 64.9548 135.177 65.2837C136.301 65.312 137.467 65.3483 138.46 65.6442C139.452 65.94 140.216 66.5747 139.945 67.1844C134.845 67.3344 129.74 67.3807 124.629 67.3234C123.516 67.8653 122.295 68.6815 122.979 69.4122C123.452 69.9179 124.62 70.0684 125.642 70.0696C127.492 70.0718 129.35 69.7699 131.173 69.947C132.996 70.1241 134.815 71.0773 134.281 72.0667C133.876 72.8181 132.337 73.1901 130.937 73.2565C129.537 73.3229 128.103 73.1848 126.735 73.3627C125.434 73.5318 124.307 73.9712 123.09 74.2779C121.17 74.7617 119.042 74.9112 116.947 75.0384C100.868 76.0148 84.6551 76.0071 68.4808 75.9982C61.9327 75.9947 55.2958 75.9848 48.9726 75.0346C45.3683 74.4929 41.9144 73.6518 38.2646 73.2154C33.905 72.6941 29.3992 72.7648 24.9409 72.7805C17.1141 72.8079 9.29393 72.658 1.48035 72.3307C0.898895 72.3063 0.185171 72.2238 0.0282524 71.9101C-0.154877 71.5441 0.588338 71.2585 1.21656 71.1124C4.77634 70.2933 8.39594 69.7567 12.0412 69.5074C13.8873 69.3784 15.7897 69.3127 17.4877 68.8879C19.1856 68.4631 20.669 67.5722 20.6531 66.5332C20.6482 66.2162 20.5137 65.8771 20.7798 65.5971C21.1332 65.2254 22.0026 65.1401 22.7528 65.0995C31.0686 64.6502 39.4297 64.4626 47.7832 64.538C50.7217 64.5645 53.6722 64.6232 56.5899 64.4265C58.9805 64.2653 61.322 63.9343 63.6781 63.6564C66.8406 63.2834 80.6037 61.3512 82.6114 62.919C84.1143 64.0927 81.0114 64.3459 85.0424 64.8248C88.5522 65.2418 92.4238 65.0619 95.9836 65.0201Z" fill="#F2F2F2"/>
<path d="M45.1206 59.6599C45.1206 59.6599 40.2755 69.1899 44.399 69.1899C48.5225 69.1899 100.478 69.3948 101.922 66.7305C102.933 64.8639 102.375 58.2188 101.951 54.4072C101.868 53.6664 101.503 52.9851 100.931 52.5035C100.359 52.0219 99.623 51.7764 98.8744 51.8177C87.6377 52.4342 45.6597 54.719 45.8422 54.4338C46.203 53.8702 45.9453 54.0239 45.9453 54.0239C45.9453 54.0239 44.2959 59.25 45.1206 59.6599Z" fill="#3F3D56"/>
<path opacity="0.1" d="M102.054 54.4072C101.971 53.6664 101.607 52.9851 101.034 52.5035C100.462 52.0219 99.7261 51.7764 98.9775 51.8177C87.7409 52.4342 45.7628 54.719 45.9454 54.4338C46.3062 53.8702 46.0484 54.0239 46.0484 54.0239C46.0484 54.0239 45.6803 55.1906 45.3788 56.4647C45.4215 56.4605 45.4535 56.5005 45.3143 56.7439C45.3019 56.7989 45.2897 56.8538 45.2777 56.9088C46.959 57.0739 87.2781 54.8794 98.2559 54.277C99.0045 54.2358 99.7406 54.4812 100.313 54.9628C100.885 55.4445 101.25 56.1257 101.332 56.8665C101.648 59.7004 102.037 64.1001 101.8 66.9382C101.891 66.8889 101.969 66.8174 102.025 66.7305C103.036 64.8639 102.478 58.2188 102.054 54.4072Z" fill="black"/>
<path d="M50.8955 45.378C50.3584 45.2144 49.6787 45.0031 49.7399 44.6586C49.7725 44.4755 50.0189 44.3327 50.1975 44.1792C50.5417 43.8834 50.6345 43.4667 50.2648 43.1809C49.8951 42.8952 49.0046 42.857 48.6784 43.1594C48.5107 43.3149 48.5208 43.51 48.4341 43.6857C48.1639 44.2337 47.0705 44.4744 46.1416 44.6873C45.2127 44.9002 44.1735 45.2964 44.2608 45.8634C44.356 46.4819 45.789 47.0306 45.2124 47.558C45.0034 47.7493 44.5636 47.856 44.47 48.0748C44.4041 48.2287 44.5364 48.3853 44.6648 48.5259L45.5773 49.5252C45.9403 49.9228 46.3144 50.3554 46.1928 50.798C45.9518 51.6752 43.9928 52.0108 42.4401 51.9122C41.8715 51.8761 41.2032 51.8267 40.8124 52.0642C40.5113 52.2473 40.5118 52.5323 40.6119 52.7764C40.8695 53.4044 41.6936 53.9484 42.7483 54.1865C41.5662 54.4183 41.102 55.3954 41.9181 55.9338C41.4511 56.0935 40.9461 56.1079 40.4707 55.9751C40.067 56.3445 40.3043 56.8514 40.8163 57.1745C41.3282 57.4977 42.0535 57.6795 42.7558 57.8521L42.0985 58.463C42.5741 58.8322 43.6012 58.7021 44.2938 58.4687C44.9865 58.2353 45.738 57.922 46.514 58.0441C47.2418 58.1586 47.7923 58.6412 48.5333 58.5585C49.1076 58.4945 49.3809 58.1276 49.5599 57.811L50.3205 56.4649C51.4031 56.6333 52.5415 55.8958 52.1067 55.3077C53.3183 55.4371 54.5108 54.655 54.1131 53.9919C54.7583 54.4866 55.2126 55.0612 55.4348 55.6639C55.5341 55.9332 55.5946 56.2179 55.8651 56.4461C56.0419 56.5769 56.2468 56.6652 56.4637 56.7042C56.6805 56.7432 56.9036 56.7318 57.1153 56.6709C56.8943 57.0968 56.7154 57.5935 57.1694 57.9549C57.6234 58.3163 58.9335 58.2138 58.8757 57.771C59.568 58.0667 60.3438 58.3447 61.2091 58.3667C62.0744 58.3888 63.0213 58.0615 63.1001 57.5713C64.3194 57.9711 65.5951 58.1752 66.8791 58.176C66.9883 57.8479 67.7511 57.7419 68.3213 57.822C68.8916 57.9022 69.4206 58.0948 70.0081 58.0951C70.5955 58.0955 71.2273 57.744 70.9265 57.4572C72.1636 57.7145 73.4334 57.7782 74.6902 57.646C75.8758 57.5209 76.9994 57.2236 78.1999 57.1595C79.4177 57.0857 80.6371 57.2772 81.7728 57.7204C82.1663 57.8844 82.6555 58.0909 83.0879 57.9622C83.3332 57.8892 83.4524 57.7316 83.619 57.606C84.3361 57.0652 85.8024 57.1689 86.9337 57.3815C88.065 57.5941 89.381 57.8501 90.3722 57.4743C90.7462 57.3325 91.0218 57.1134 91.4196 56.9944C92.8448 56.5679 94.5507 57.6606 96.0634 57.3462C96.556 57.2438 96.9557 56.9989 97.4775 56.9687C98.4031 56.9151 99.0147 57.5387 99.9146 57.6728C100.848 57.8119 101.861 57.2472 101.633 56.7141C102.53 56.7339 103.425 56.6102 104.283 56.3479L103.859 55.5895C104.916 55.5726 105.693 54.8199 105.203 54.2877C106.262 54.0871 107.1 53.5474 107.318 52.9251C107.535 52.3029 107.125 51.6221 106.281 51.2066C105.783 50.9613 105.129 50.7889 104.845 50.4512C104.64 50.2079 104.67 49.925 104.59 49.6592C104.415 49.0773 103.659 48.5636 102.682 48.3633C102.258 48.2763 101.793 48.2432 101.409 48.1089C101.025 47.9745 100.747 47.6835 100.969 47.4603C101.087 47.3421 101.313 47.2725 101.459 47.1652C102.051 46.7302 101.035 46.1796 100.168 45.9354L102.239 45.8681L102.684 43.8633C101.864 44.5259 99.7384 44.3866 99.2058 43.6353C99.8713 43.8524 100.764 43.5748 101.089 43.1799C101.414 42.7851 101.335 42.3258 101.248 41.8926C101.239 41.785 101.203 41.6813 101.143 41.5917C101.082 41.5021 100.999 41.4296 100.902 41.3813C100.7 41.2853 100.377 41.2452 100.31 41.1001C100.242 40.952 100.505 40.8211 100.543 40.6697C100.618 40.379 99.946 40.2509 99.4921 40.1103C98.4212 39.7787 97.9026 38.8466 96.6842 38.8769C95.4752 38.907 95.1372 39.8246 95.1364 40.5123C95.1356 41.2 94.7265 42.1196 93.5165 42.1071C93.0333 42.1021 92.6121 41.9294 92.2263 41.764L88.7609 40.2783C88.3031 40.0666 87.8267 39.8968 87.3378 39.7712C86.6388 39.609 85.8666 39.5899 85.1122 39.5728L80.2645 39.4633C80.0176 39.4441 79.7692 39.4653 79.5292 39.5262C79.2746 39.6108 79.1509 39.7773 78.9975 39.9204C78.3225 40.5504 76.7354 40.7972 75.5901 40.4502C75.2864 40.3582 75.0143 40.2314 74.6925 40.1621C73.6789 39.9437 72.6153 40.3477 71.5622 40.4936C69.8358 40.7329 67.6905 40.3211 66.4459 41.0419C66.031 41.2821 65.8108 41.6107 65.4263 41.8668C65.0418 42.1229 64.348 42.2966 63.863 42.1032C63.924 42.5732 63.9794 43.0636 63.6594 43.4984C63.3393 43.9331 62.5184 44.2879 61.7118 44.1783C61.2838 44.0658 61.3175 43.7082 61.52 43.4662C61.7224 43.2241 62.0329 42.9768 61.932 42.7151C61.8319 42.4554 61.3736 42.3043 61.031 42.1233C60.6884 41.9422 60.4599 41.5991 60.8238 41.4321C60.5785 41.1188 59.6972 41.157 59.3094 41.4197C58.9217 41.6824 58.883 42.0524 58.8407 42.3944C58.7984 42.7365 58.7063 43.1112 58.2571 43.3401C57.4915 43.7302 56.0218 43.5278 55.514 44.0359C55.3527 44.1973 55.3432 44.392 55.2509 44.5701C54.8391 45.3649 53.0609 45.5707 51.6074 45.6355C51.5768 45.8009 51.5699 45.9698 51.5872 46.1371C52.0843 45.9231 51.2558 45.4878 50.8955 45.378Z" fill="#61AB43"/>
<path opacity="0.1" d="M101.248 44.4699C101.335 44.9031 101.415 45.3624 101.089 45.7572C101.041 45.8143 100.986 45.8657 100.926 45.9105C101.364 45.8963 101.802 45.882 102.239 45.8678C102.388 45.1995 102.536 44.5313 102.684 43.863C102.345 44.1375 101.781 44.274 101.199 44.2867C101.22 44.3465 101.236 44.4078 101.248 44.4699V44.4699Z" fill="black"/>
<path opacity="0.1" d="M101.63 46.8315C101.578 46.5605 101.129 46.2854 100.626 46.0889C100.183 46.298 99.6787 46.342 99.2058 46.2127C99.5731 46.7308 100.698 46.9578 101.63 46.8315Z" fill="black"/>
<path opacity="0.1" d="M102.273 48.2922C102.262 48.3433 102.251 48.3944 102.239 48.4455C101.549 48.468 100.858 48.4904 100.168 48.5129C101.035 48.7571 102.051 49.3077 101.459 49.7427C101.313 49.85 101.087 49.9195 100.969 50.0377C100.747 50.2609 101.025 50.552 101.409 50.6863C101.793 50.8206 102.258 50.8537 102.682 50.9407C103.659 51.141 104.415 51.6548 104.59 52.2366C104.67 52.5024 104.64 52.7854 104.845 53.0286C105.129 53.3663 105.783 53.5388 106.281 53.784C106.329 53.8077 106.375 53.8324 106.42 53.8577C106.871 53.6046 107.194 53.2782 107.318 52.925C107.535 52.3027 107.125 51.622 106.281 51.2064C105.783 50.9612 105.129 50.7887 104.845 50.451C104.64 50.2078 104.67 49.9249 104.59 49.659C104.415 49.0772 103.659 48.5634 102.682 48.3631C102.548 48.3357 102.411 48.3138 102.273 48.2922Z" fill="black"/>
<path opacity="0.1" d="M41.5831 57.5243C41.7444 57.183 42.1563 56.8799 42.7483 56.7638C42.1827 56.6471 41.6498 56.4081 41.1873 56.0639C40.9452 56.071 40.7035 56.041 40.4707 55.9749C40.067 56.3442 40.3043 56.8512 40.8163 57.1743C41.0577 57.3195 41.315 57.4369 41.5831 57.5243V57.5243Z" fill="black"/>
<path opacity="0.1" d="M45.237 47.5328C45.532 47.423 45.8343 47.3335 46.1416 47.2649C47.0704 47.052 48.1639 46.8113 48.4341 46.2632C48.5208 46.0876 48.5106 45.8925 48.6784 45.737C49.0046 45.4346 49.8951 45.4728 50.2647 45.7585C50.6344 46.0442 50.5416 46.461 50.1975 46.7568C50.0189 46.9103 49.7725 47.0531 49.7399 47.2362C49.6787 47.5807 50.3584 47.792 50.8955 47.9556C51.1483 48.0365 51.385 48.1606 51.5949 48.3223C51.5994 48.2858 51.6038 48.2493 51.6074 48.2131C53.0609 48.1483 54.8391 47.9425 55.251 47.1477C55.3432 46.9696 55.3527 46.7749 55.514 46.6135C56.0218 46.1054 57.4915 46.3078 58.2571 45.9177C58.7063 45.6888 58.7984 45.3141 58.8407 44.972C58.883 44.63 58.9217 44.26 59.3094 43.9973C59.6972 43.7346 60.5785 43.6964 60.8238 44.0097C60.4599 44.1767 60.6884 44.5198 61.031 44.7009C61.3736 44.8819 61.8319 45.0329 61.932 45.2926C62.0329 45.5544 61.7224 45.8017 61.52 46.0438C61.3175 46.2858 61.2838 46.6434 61.7118 46.7559C62.5184 46.8655 63.3393 46.5107 63.6593 46.076C63.9794 45.6412 63.924 45.1508 63.863 44.6808C64.348 44.8742 65.0418 44.7005 65.4263 44.4444C65.8108 44.1883 66.031 43.8597 66.4459 43.6195C67.6905 42.8987 69.8358 43.3105 71.5622 43.0712C72.6153 42.9253 73.6789 42.5213 74.6925 42.7397C75.0143 42.809 75.2864 42.9358 75.59 43.0278C76.7354 43.3748 78.3225 43.128 78.9975 42.498C79.1509 42.3549 79.2746 42.1883 79.5292 42.1038C79.7692 42.0429 80.0176 42.0217 80.2645 42.0409C81.8804 42.0774 83.4963 42.1139 85.1122 42.1504C85.8666 42.1675 86.6388 42.1866 87.3378 42.3488C87.8267 42.4744 88.303 42.6442 88.7609 42.8559C89.916 43.3512 91.0712 43.8464 92.2263 44.3416C92.6121 44.507 93.0333 44.6797 93.5165 44.6847C94.7264 44.6972 95.1356 43.7776 95.1364 43.0899C95.1372 42.4022 95.4751 41.4846 96.6841 41.4545C97.9026 41.4242 98.4212 42.3563 99.4921 42.6879C99.946 42.8285 100.618 42.9566 100.543 43.2473C100.509 43.3822 100.297 43.5008 100.3 43.6298C100.601 43.5593 100.875 43.4029 101.089 43.1799C101.414 42.7851 101.334 42.3258 101.248 41.8926C101.239 41.785 101.203 41.6814 101.143 41.5917C101.082 41.5021 100.999 41.4296 100.902 41.3813C100.7 41.2853 100.377 41.2452 100.31 41.1001C100.242 40.952 100.505 40.8211 100.543 40.6697C100.618 40.379 99.946 40.2509 99.4921 40.1103C98.4212 39.7787 97.9026 38.8466 96.6841 38.8769C95.4751 38.907 95.1372 39.8246 95.1364 40.5123C95.1356 41.2 94.7264 42.1196 93.5165 42.1071C93.0333 42.1021 92.6121 41.9294 92.2263 41.764C91.0712 41.2688 89.916 40.7736 88.7609 40.2784C88.303 40.0666 87.8267 39.8968 87.3378 39.7712C86.6388 39.609 85.8666 39.5899 85.1122 39.5728C83.4963 39.5363 81.8804 39.4998 80.2645 39.4633C80.0176 39.4441 79.7692 39.4653 79.5292 39.5262C79.2746 39.6108 79.1509 39.7773 78.9975 39.9204C78.3225 40.5504 76.7354 40.7972 75.59 40.4502C75.2864 40.3582 75.0143 40.2314 74.6925 40.1621C73.6789 39.9437 72.6153 40.3477 71.5622 40.4936C69.8358 40.7329 67.6905 40.3211 66.4459 41.0419C66.031 41.2821 65.8108 41.6107 65.4263 41.8668C65.0418 42.1229 64.348 42.2966 63.863 42.1032C63.924 42.5732 63.9794 43.0636 63.6594 43.4984C63.3393 43.9331 62.5184 44.2879 61.7118 44.1783C61.2838 44.0658 61.3175 43.7082 61.52 43.4662C61.7224 43.2241 62.0329 42.9768 61.932 42.7151C61.8319 42.4554 61.3736 42.3043 61.031 42.1233C60.6884 41.9422 60.4599 41.5991 60.8238 41.4321C60.5786 41.1188 59.6972 41.157 59.3094 41.4197C58.9217 41.6824 58.883 42.0524 58.8407 42.3944C58.7984 42.7365 58.7063 43.1112 58.2571 43.3401C57.4915 43.7302 56.0218 43.5278 55.514 44.0359C55.3527 44.1973 55.3432 44.3921 55.251 44.5701C54.8391 45.3649 53.0609 45.5707 51.6074 45.6356C51.6038 45.6717 51.5994 45.7082 51.5949 45.7447C51.385 45.583 51.1483 45.4589 50.8955 45.378C50.3584 45.2144 49.6787 45.0031 49.7399 44.6586C49.7725 44.4755 50.0189 44.3327 50.1975 44.1792C50.5416 43.8834 50.6344 43.4667 50.2648 43.1809C49.8951 42.8952 49.0046 42.857 48.6784 43.1594C48.5106 43.3149 48.5208 43.51 48.4341 43.6856C48.1639 44.2337 47.0704 44.4744 46.1416 44.6873C45.2127 44.9002 44.1735 45.2964 44.2608 45.8634C44.3545 46.4721 45.7422 47.0131 45.237 47.5328Z" fill="black"/>
<path opacity="0.1" d="M42.7483 54.1862C42.4929 54.233 42.2488 54.328 42.0293 54.466C42.1685 54.472 42.307 54.4811 42.4401 54.4895C43.9928 54.5881 45.9518 54.2525 46.1928 53.3753C46.3144 52.9327 45.9403 52.5001 45.5773 52.1025C45.4313 51.9427 45.2854 51.7829 45.1395 51.623C44.3798 51.8797 43.3417 51.9692 42.4401 51.912C41.8715 51.8759 41.2032 51.8264 40.8124 52.064C40.5113 52.247 40.5118 52.5321 40.6119 52.7761C40.8695 53.4042 41.6936 53.9481 42.7483 54.1862Z" fill="black"/>
<path d="M74.3719 50.1751C82.9119 50.1751 89.8349 45.6331 89.8349 40.0303C89.8349 34.4275 82.9119 29.8855 74.3719 29.8855C65.8319 29.8855 58.9088 34.4275 58.9088 40.0303C58.9088 45.6331 65.8319 50.1751 74.3719 50.1751Z" fill="#EA565C"/>
<path opacity="0.2" d="M69.1144 39.3131C69.1144 39.3131 62.1045 40.0304 64.1662 37.0587C66.228 34.087 68.8051 33.0622 70.0422 33.882C71.2792 34.7018 71.7947 36.9562 71.5885 36.9562C71.3823 36.9562 68.3928 35.2142 67.3619 36.5463C66.331 37.8784 69.1144 39.3131 69.1144 39.3131Z" fill="white"/>
<path opacity="0.2" d="M75.1883 39.6035C75.1883 39.6035 80.977 43.5984 77.4653 44.5181C73.9536 45.4378 71.3267 44.5464 70.9253 43.1234C70.524 41.7004 71.6102 39.6562 71.7667 39.7897C71.9231 39.9232 73.0497 43.1807 74.7049 42.8375C76.36 42.4943 75.1883 39.6035 75.1883 39.6035Z" fill="white"/>
<path opacity="0.2" d="M76.5397 37.1001C76.5397 37.1001 76.9966 30.1099 79.6006 32.626C82.2047 35.142 82.7916 37.8388 81.7723 38.9147C80.753 39.9905 78.4309 40.1199 78.4652 39.9179C78.4996 39.7158 80.7258 37.076 79.5762 35.8436C78.4267 34.6112 76.5397 37.1001 76.5397 37.1001Z" fill="white"/>
<path d="M55.7131 49.3552C64.2531 49.3552 71.1761 44.8133 71.1761 39.2105C71.1761 33.6076 64.2531 29.0657 55.7131 29.0657C47.1731 29.0657 40.2501 33.6076 40.2501 39.2105C40.2501 44.8133 47.1731 49.3552 55.7131 49.3552Z" fill="#EA565C"/>
<path opacity="0.2" d="M50.4557 38.4932C50.4557 38.4932 43.4458 39.2105 45.5075 36.2388C47.5693 33.2671 50.1464 32.2424 51.3835 33.0622C52.6205 33.882 53.136 36.1364 52.9298 36.1364C52.7236 36.1364 49.7341 34.3943 48.7032 35.7265C47.6724 37.0586 50.4557 38.4932 50.4557 38.4932Z" fill="white"/>
<path opacity="0.2" d="M56.5296 38.7837C56.5296 38.7837 62.3183 42.7786 58.8066 43.6982C55.2949 44.6179 52.668 43.7266 52.2666 42.3036C51.8653 40.8806 52.9515 38.8364 53.108 38.9699C53.2644 39.1034 54.391 42.3609 56.0462 42.0177C57.7013 41.6745 56.5296 38.7837 56.5296 38.7837Z" fill="white"/>
<path opacity="0.2" d="M57.881 36.28C57.881 36.28 58.3378 29.2898 60.9419 31.8059C63.546 34.322 64.1329 37.0187 63.1135 38.0946C62.0942 39.1704 59.7721 39.2999 59.8065 39.0978C59.8408 38.8957 62.0671 36.2559 60.9175 35.0235C59.7679 33.7911 57.881 36.28 57.881 36.28Z" fill="white"/>
<path opacity="0.1" d="M63.7602 30.5769C67.1283 32.4378 69.2691 35.2244 69.2691 38.3395C69.2691 43.9423 62.346 48.4843 53.806 48.4843C50.8798 48.4843 48.1436 47.9509 45.8105 47.0244C48.5003 48.5106 51.9728 49.4065 55.7647 49.4065C64.3047 49.4065 71.2277 44.8646 71.2277 39.2618C71.2277 35.5788 68.236 32.3543 63.7602 30.5769Z" fill="black"/>
<path opacity="0.1" d="M82.4189 31.2942C85.7871 33.1551 87.9278 35.9417 87.9278 39.0568C87.9278 44.6596 81.0048 49.2016 72.4648 49.2016C69.5385 49.2016 66.8023 48.6682 64.4692 47.7417C67.1591 49.2279 70.6315 50.1238 74.4234 50.1238C82.9634 50.1238 89.8865 45.5819 89.8865 39.9791C89.8865 36.296 86.8948 33.0716 82.4189 31.2942Z" fill="black"/>
<path d="M46.3158 37.2669C46.3158 37.2669 59.614 23.1257 92.1895 28.9666C117.941 33.5839 96.7946 41.5311 86.8046 44.6582C83.9062 45.5651 80.9037 46.1024 77.8691 46.2574C66.5989 46.8343 38.2509 47.35 46.3158 37.2669Z" fill="#714B4F"/>
<path opacity="0.1" d="M86.8046 41.4817C83.9062 42.3886 80.9037 42.9259 77.8691 43.0809C68.7391 43.5482 48.4023 43.9751 45.2953 38.7598C41.3719 47.1895 67.2298 46.6997 77.8691 46.155C80.9037 46.0001 83.9062 45.4628 86.8046 44.5559C94.1271 42.2638 107.443 37.382 103.891 33.1201C101.5 36.4648 92.4016 39.7297 86.8046 41.4817Z" fill="black"/>
<path opacity="0.1" d="M74.7162 29.0181L78.3243 36.0887" stroke="black" stroke-width="2" stroke-miterlimit="10"/>
<path opacity="0.1" d="M63.5829 31.5798L66.6755 37.5233" stroke="black" stroke-width="2" stroke-miterlimit="10"/>
<path opacity="0.1" d="M81.2108 29.0181L86.0559 36.0887" stroke="black" stroke-width="2" stroke-miterlimit="10"/>
<path opacity="0.1" d="M63.5829 38.1382L96.0553 34.0393" stroke="black" stroke-width="2" stroke-miterlimit="10"/>
<path opacity="0.1" d="M94.8182 30.3503L97.0862 33.527" stroke="black" stroke-width="2" stroke-miterlimit="10"/>
<path opacity="0.1" d="M57.1915 34.0393L58.6347 37.011" stroke="black" stroke-width="2" stroke-miterlimit="10"/>
<path d="M62.0387 24.4124C62.0387 24.4124 91.6926 24.279 91.9647 24.0123C92.2367 23.7456 98.494 23.6043 99.7182 25.3379C100.942 27.0716 101.351 27.8717 99.7182 28.1384C98.0859 28.4051 44.3552 55.7432 44.3552 55.7432C44.3552 55.7432 41.3626 56.01 42.8589 53.0761C44.3552 50.1423 62.0387 24.4124 62.0387 24.4124Z" fill="#F6C964"/>
<path d="M74.4882 36.6059C74.4882 37.7095 69.1344 40.3974 62.5302 40.3974C55.9259 40.3974 50.5721 37.7095 50.5721 36.6059C50.5721 35.5024 55.9259 35.0688 62.5302 35.0688C69.1344 35.0688 74.4882 35.5024 74.4882 36.6059Z" fill="#61AB43"/>
<path d="M62.5302 38.5528C69.1344 38.5528 74.4882 37.6582 74.4882 36.5546C74.4882 35.451 69.1344 34.5564 62.5302 34.5564C55.9259 34.5564 50.5721 35.451 50.5721 36.5546C50.5721 37.6582 55.9259 38.5528 62.5302 38.5528Z" fill="#61AB43"/>
<path d="M88.9204 34.7615C88.9204 35.865 83.5666 38.5529 76.9624 38.5529C70.3581 38.5529 65.0043 35.865 65.0043 34.7615C65.0043 33.6579 70.3581 33.2244 76.9624 33.2244C83.5666 33.2244 88.9204 33.6579 88.9204 34.7615Z" fill="#61AB43"/>
<path d="M76.9624 36.7083C83.5666 36.7083 88.9205 35.8137 88.9205 34.7101C88.9205 33.6065 83.5666 32.7119 76.9624 32.7119C70.3581 32.7119 65.0043 33.6065 65.0043 34.7101C65.0043 35.8137 70.3581 36.7083 76.9624 36.7083Z" fill="#61AB43"/>
<path d="M103.353 32.917C103.353 34.0206 97.9988 36.7085 91.3945 36.7085C84.7903 36.7085 79.4365 34.0206 79.4365 32.917C79.4365 31.8134 84.7903 31.3799 91.3945 31.3799C97.9988 31.3799 103.353 31.8134 103.353 32.917Z" fill="#61AB43"/>
<path d="M91.3945 34.8639C97.9988 34.8639 103.353 33.9692 103.353 32.8656C103.353 31.7621 97.9988 30.8674 91.3945 30.8674C84.7903 30.8674 79.4365 31.7621 79.4365 32.8656C79.4365 33.9692 84.7903 34.8639 91.3945 34.8639Z" fill="#61AB43"/>
<path d="M47.3552 33.4846C47.3552 33.4846 42.437 32.6888 44.9533 28.7095C47.4695 24.7302 48.3159 20.2695 49.4139 19.2729C50.6415 18.1587 75.9794 -1.37605 95.7188 20.2402C97.81 22.5576 99.51 25.1963 100.753 28.0539C100.991 28.5941 101.255 29.079 101.512 29.3348C102.313 30.1306 102.999 32.4045 101.512 33.5415C100.025 34.6784 56.2193 39.1125 47.3552 33.4846Z" fill="#3F3D56"/>
<path d="M70.4018 16.9422C70.0987 17.1517 69.7414 17.2701 69.3725 17.2832C68.8039 17.2832 68.3431 17.1305 68.3431 16.9422C68.3431 16.7538 68.8039 16.6011 69.3725 16.6011C69.7414 16.6142 70.0987 16.7326 70.4018 16.9422V16.9422Z" fill="#F2F2F2"/>
<path d="M62.1668 14.782C61.8637 14.9915 61.5064 15.1099 61.1374 15.1231C60.5689 15.1231 60.108 14.9704 60.108 14.782C60.108 14.5936 60.5689 14.4409 61.1374 14.4409C61.5064 14.4541 61.8637 14.5725 62.1668 14.782V14.782Z" fill="#F2F2F2"/>
<path d="M84.5375 17.9299C84.1853 18.0399 83.8087 18.0469 83.4526 17.9499C82.91 17.7812 82.516 17.4987 82.5726 17.3189C82.6292 17.1391 83.1149 17.1302 83.6575 17.2989C84.0057 17.421 84.3111 17.64 84.5375 17.9299Z" fill="#F2F2F2"/>
<path d="M69.3255 12.1313C68.9733 12.2413 68.5967 12.2483 68.2406 12.1514C67.698 11.9826 67.304 11.7001 67.3606 11.5203C67.4172 11.3405 67.9029 11.3316 68.4455 11.5003C68.7937 11.6224 69.0991 11.8414 69.3255 12.1313V12.1313Z" fill="#F2F2F2"/>
<path d="M85.91 14.178C85.5577 14.288 85.1811 14.2949 84.8251 14.198C84.2825 14.0293 83.8885 13.7467 83.9451 13.567C84.0017 13.3872 84.4874 13.3782 85.03 13.5469C85.3781 13.669 85.6836 13.8881 85.91 14.178V14.178Z" fill="#F2F2F2"/>
<path d="M82.5256 13.8723C82.2225 14.0818 81.8652 14.2002 81.4962 14.2134C80.9277 14.2134 80.4669 14.0607 80.4669 13.8723C80.4669 13.684 80.9277 13.5312 81.4962 13.5312C81.8652 13.5444 82.2225 13.6628 82.5256 13.8723V13.8723Z" fill="#F2F2F2"/>
<path d="M72.6894 11.8259C72.3863 12.0355 72.0289 12.1539 71.66 12.167C71.0915 12.167 70.6306 12.0143 70.6306 11.8259C70.6306 11.6376 71.0915 11.4849 71.66 11.4849C72.0289 11.498 72.3863 11.6164 72.6894 11.8259V11.8259Z" fill="#F2F2F2"/>
<path d="M80.2381 11.8259C79.935 12.0355 79.5777 12.1539 79.2088 12.167C78.6402 12.167 78.1794 12.0143 78.1794 11.8259C78.1794 11.6376 78.6402 11.4849 79.2088 11.4849C79.5777 11.498 79.935 11.6164 80.2381 11.8259V11.8259Z" fill="#F2F2F2"/>
<path d="M77.3788 16.26C77.0757 16.4695 76.7183 16.5879 76.3494 16.6011C75.7809 16.6011 75.32 16.4484 75.32 16.26C75.32 16.0717 75.7809 15.9189 76.3494 15.9189C76.7183 15.9321 77.0757 16.0505 77.3788 16.26V16.26Z" fill="#F2F2F2"/>
<path d="M69.0618 15.4631C69.1477 15.1062 69.335 14.7813 69.6015 14.5274C70.0257 14.1511 70.4718 13.9601 70.598 14.1006C70.7242 14.2412 70.4826 14.6601 70.0583 15.0364C69.7742 15.2707 69.4283 15.4188 69.0618 15.4631Z" fill="#F2F2F2"/>
<path d="M63.915 14.2126C64.0008 13.8557 64.1882 13.5309 64.4546 13.2769C64.8788 12.9006 65.325 12.7096 65.4511 12.8501C65.5773 12.9907 65.3357 13.4096 64.9115 13.7859C64.6274 14.0202 64.2815 14.1684 63.915 14.2126V14.2126Z" fill="#F2F2F2"/>
<path d="M54.9937 20.352C55.0795 19.9951 55.2668 19.6703 55.5333 19.4163C55.9575 19.04 56.4037 18.849 56.5298 18.9895C56.656 19.1301 56.4144 19.549 55.9902 19.9253C55.7061 20.1596 55.3601 20.3078 54.9937 20.352Z" fill="#F2F2F2"/>
<path d="M74.7806 13.5305C74.8665 13.1736 75.0538 12.8487 75.3203 12.5947C75.7445 12.2185 76.1906 12.0275 76.3168 12.168C76.443 12.3086 76.2014 12.7275 75.7772 13.1037C75.4931 13.3381 75.1471 13.4862 74.7806 13.5305Z" fill="#F2F2F2"/>
<path d="M72.7219 17.6235C72.8078 17.2666 72.9951 16.9417 73.2616 16.6878C73.6858 16.3115 74.1319 16.1205 74.2581 16.261C74.3843 16.4016 74.1427 16.8205 73.7184 17.1968C73.4343 17.4311 73.0884 17.5792 72.7219 17.6235Z" fill="#F2F2F2"/>
<path d="M110.713 62.1772C110.713 62.1772 109.147 62.6442 108.364 63.5782C108.364 63.5782 106.955 64.2009 106.094 64.0452C105.233 63.8896 103.667 65.4462 104.919 65.9132C106.172 66.3802 113.845 67.6255 114.002 67.2364C114.159 66.8472 114.159 62.8777 114.159 62.8777L110.713 62.1772Z" fill="#575A89"/>
<path d="M123.015 61.5088C123.015 61.5088 121.552 62.2348 120.941 63.288C120.941 63.288 119.659 64.1408 118.784 64.1337C117.908 64.1265 116.633 65.9262 117.948 66.1736C119.262 66.4211 127.037 66.3452 127.124 65.9352C127.212 65.5252 126.53 61.614 126.53 61.614L123.015 61.5088Z" fill="#575A89"/>
<path d="M113.258 8.74472C115.204 8.74472 116.782 7.1766 116.782 5.24223C116.782 3.30786 115.204 1.73975 113.258 1.73975C111.312 1.73975 109.735 3.30786 109.735 5.24223C109.735 7.1766 111.312 8.74472 113.258 8.74472Z" fill="#FFB9B9"/>
<path d="M116.116 5.82617C116.116 5.82617 116.508 8.47249 117.212 8.78383C117.703 9.02373 118.152 9.33893 118.543 9.71782L116.586 10.6518L112.749 10.4183C112.749 10.4183 113.062 8.70599 112.514 7.84983C111.966 6.99367 116.116 5.82617 116.116 5.82617Z" fill="#FFB9B9"/>
<path d="M123.398 18.3572C123.398 18.3572 125.199 22.9493 123.398 27.3858C121.597 31.8223 120.814 32.5228 120.814 32.5228L120.266 26.6853L120.896 26.117C120.896 26.117 121.278 24.346 120.968 23.2974C120.657 22.2488 121.127 18.9798 121.127 18.9798L123.398 18.3572Z" fill="#FFB9B9"/>
<path d="M109.93 28.3198C109.93 28.3198 107.66 33.4567 107.895 35.9474C108.13 38.438 109.93 48.9455 109.93 48.9455C109.93 48.9455 109.696 62.4884 110.4 62.4884C111.105 62.4884 114.472 63.7338 114.472 62.8776C114.472 62.0214 115.177 41.4735 115.177 41.4735C115.177 41.4735 119.17 50.5022 119.561 51.2027C119.953 51.9032 122.458 62.8776 123.32 62.8776C124.181 62.8776 126.843 62.0993 126.608 61.5544C126.373 61.0096 123.711 48.8677 122.223 45.7543C120.736 42.641 121.049 30.8883 121.049 30.8883L118.543 25.4399L109.93 28.3198Z" fill="#3F3D56"/>
<path d="M112.201 3.64675C112.201 3.64675 110.009 3.49109 109.852 2.94626C109.696 2.40143 109.382 1.93443 109.539 1.93443C109.696 1.93443 109.774 1.54526 109.774 1.54526C109.774 1.54526 109.931 1.46743 110.009 1.54526C110.087 1.62309 110.165 1.00043 110.165 1.00043C110.165 1.00043 110.244 0.766933 110.322 0.9226C110.4 1.07827 110.4 1.00043 110.479 0.766932C110.557 0.533434 110.948 0.377769 110.948 0.377769C110.948 0.377769 112.436 0.455601 112.671 0.14427C112.906 -0.167061 115.568 0.0664353 116.116 0.4556C116.664 0.844765 119.092 2.24576 118.7 3.41326C118.309 4.58075 116.899 7.14924 116.899 7.5384C116.899 7.92757 116.351 7.84974 116.194 7.46057C116.038 7.07141 114.785 6.60441 114.785 6.37091C114.785 6.13741 114.08 3.95809 113.689 4.11375C113.297 4.26942 112.828 5.51475 112.671 5.28125C112.514 5.04775 112.201 3.64675 112.201 3.64675Z" fill="#3F3D56"/>
<path d="M123.007 14.3099C123.007 14.3099 119.796 9.63996 118.857 9.40646C117.917 9.17295 115.803 8.55029 115.803 8.55029C115.803 8.55029 113.689 8.86162 113.063 9.17296C112.436 9.48429 110.087 10.0291 110.009 10.9631C109.931 11.8971 110.635 20.8479 110.244 21.7041C109.852 22.5602 108.521 30.7327 109.148 30.577C109.774 30.4214 109.304 28.3977 112.045 28.3199C114.785 28.242 116.273 26.6075 117.291 28.5534C118.309 30.4992 121.206 31.978 121.206 31.978C121.279 31.3505 121.383 30.7271 121.519 30.11C121.754 29.0204 120.893 26.3741 120.893 26.3741C120.893 26.3741 120.971 20.2252 121.284 19.5247C121.597 18.8242 123.007 14.3099 123.007 14.3099Z" fill="white"/>
<path d="M121.832 14.1543L123.006 14.31C123.006 14.31 122.928 15.8666 123.241 16.3336C123.555 16.8006 124.103 19.2134 123.789 19.2913C123.476 19.3691 120.658 19.8361 120.658 19.8361L120.501 16.2558L121.832 14.1543Z" fill="white"/>
<path d="M109.148 16.9563C109.148 16.9563 108.365 22.0154 107.973 22.6381C107.582 23.2608 105.624 31.9781 105.624 31.9781C105.624 31.9781 102.405 36.4278 103.971 36.3499C105.537 36.2721 107.19 32.2894 107.19 32.2894C107.19 32.2894 112.045 23.4943 112.045 22.5603C112.045 21.6263 113.219 16.9563 113.219 16.9563L109.148 16.9563Z" fill="#FFB9B9"/>
<path d="M111.418 10.1069L110.009 10.6518C110.009 10.6518 108.208 17.0341 108.599 17.5789C108.991 18.1237 113.689 17.3454 113.767 17.1119C113.845 16.8784 112.906 10.1069 111.418 10.1069Z" fill="white"/>
<path d="M12.4982 52.3452C12.4982 59.9286 17.2842 66.065 23.1987 66.065Z" fill="#46455B"/>
<path d="M23.1987 66.0649C23.1987 58.3963 28.5396 52.1909 35.1398 52.1909Z" fill="white"/>
<path d="M16.3752 53.0325C16.3752 60.2359 19.4272 66.0648 23.1987 66.0648Z" fill="white"/>
<path d="M23.1987 66.065C23.1987 56.2662 29.3719 48.3372 37.0008 48.3372Z" fill="#46455B"/>
<path d="M20.9476 66.1618C20.9476 66.1618 22.4651 66.1153 22.9225 65.7916C23.3798 65.4679 25.2568 65.0813 25.3702 65.6005C25.4837 66.1197 27.6507 68.1827 25.9375 68.1964C24.2242 68.2102 21.9567 67.9312 21.5002 67.6548C21.0437 67.3784 20.9476 66.1618 20.9476 66.1618Z" fill="#A8A8A8"/>
<path opacity="0.2" d="M25.9681 68.0156C24.2548 68.0293 21.9872 67.7503 21.5308 67.4739C21.1832 67.2634 21.0446 66.5081 20.9983 66.1597C20.9662 66.161 20.9476 66.1616 20.9476 66.1616C20.9476 66.1616 21.0437 67.3782 21.5002 67.6546C21.9567 67.931 24.2242 68.21 25.9375 68.1963C26.432 68.1923 26.6029 68.0174 26.5935 67.7584C26.5248 67.9149 26.3362 68.0126 25.9681 68.0156Z" fill="black"/>
</svg>
