<svg width="24" height="49" viewBox="0 0 24 49" fill="none" xmlns="http://www.w3.org/2000/svg">
<path fill-rule="evenodd" clip-rule="evenodd" d="M24 1C24 0.447715 23.5523 0 23 0H1C0.447715 0 0 0.447715 0 1V37.6C0 38.1523 0.447715 38.6 1 38.6H1.66935C1.93347 38.6 2.18686 38.7045 2.37421 38.8906L11.2951 47.7549C11.6851 48.1425 12.3148 48.1425 12.7048 47.7549L21.6257 38.8906C21.8131 38.7045 22.0665 38.6 22.3306 38.6H23C23.5523 38.6 24 38.1523 24 37.6V1Z" fill="#212A39"/>
<path d="M12 3L13.7961 8.52786H19.6085L14.9062 11.9443L16.7023 17.4721L12 14.0557L7.29772 17.4721L9.09383 11.9443L4.39155 8.52786H10.2039L12 3Z" fill="#F4D96D"/>
<path d="M12 22L13.7961 27.5279H19.6085L14.9062 30.9443L16.7023 36.4721L12 33.0557L7.29772 36.4721L9.09383 30.9443L4.39155 27.5279H10.2039L12 22Z" fill="#F4D96D"/>
</svg>
