<svg width="35" height="71" viewBox="0 0 35 71" fill="none" xmlns="http://www.w3.org/2000/svg">
<path fill-rule="evenodd" clip-rule="evenodd" d="M35 1C35 0.447715 34.5523 0 34 0H1C0.447715 0 0 0.447715 0 1V55.2916C0 55.8439 0.447714 56.2916 0.999999 56.2916H2.62347C2.88758 56.2916 3.14097 56.3961 3.32832 56.5823L16.7951 69.9636C17.1851 70.3511 17.8148 70.3511 18.2048 69.9636L31.6716 56.5823C31.859 56.3961 32.1123 56.2916 32.3765 56.2916H34C34.5523 56.2916 35 55.8439 35 55.2916V1Z" fill="#212A39"/>
<circle cx="18" cy="51" r="4" fill="#F4D96D"/>
<path d="M18 14L20.6942 22.2918H29.4127L22.3593 27.4164L25.0534 35.7082L18 30.5836L10.9466 35.7082L13.6407 27.4164L6.58732 22.2918H15.3058L18 14Z" fill="#F4D96D"/>
</svg>
