<svg width="48" height="123" viewBox="0 0 48 123" fill="none" xmlns="http://www.w3.org/2000/svg">
<path fill-rule="evenodd" clip-rule="evenodd" d="M7.08367 0.090805C10.9033 9.2456 17.3964 15.6064 20.8354 25.1255C22.8747 30.7707 23.7248 36.9085 23.7764 43.1948C23.8044 46.6093 23.7455 50.0259 23.7296 53.4404C23.7142 56.7702 23.6245 60.0786 23.3442 63.3871C23.0627 66.7131 22.7474 69.9995 22.6083 73.3461C22.5001 75.9536 22.4506 78.9865 21.5744 81.3649C20.8775 83.2565 19.1064 83.5336 18.6364 81.2395C18.3753 79.9643 18.4082 78.5404 18.437 77.2298C18.474 75.5482 18.5709 73.8692 18.6204 72.1879C18.8191 65.4413 18.5614 58.6935 18.6961 51.9442C18.8277 45.35 19.6681 38.7629 18.7382 32.2127C17.9704 26.8035 16.0197 22.1585 13.778 17.7055C11.6212 13.4213 9.27374 9.24121 7.81622 4.36798C7.39772 2.9684 7.07418 1.5181 6.91895 0.0131463C6.9868 -0.0186373 7.04171 0.00719669 7.08367 0.090805Z" fill="#C1DEE2"/>
<path fill-rule="evenodd" clip-rule="evenodd" d="M6.04265 18.1521C6.79901 18.703 7.22165 19.5088 7.73288 20.304C8.36862 21.2925 9.11604 22.185 9.75162 23.1742C11.0769 25.2366 12.2413 27.4257 13.4494 29.5717C15.743 33.6451 17.4844 37.9864 18.3469 42.6988C19.2409 47.5825 19.482 52.6232 19.857 57.5797C20.2548 62.833 20.6553 68.1246 20.708 73.3981C20.7316 75.7608 20.8582 78.2689 20.577 80.6149C20.4019 82.0755 19.7484 83.3202 18.2752 83.3084C15.1459 83.2834 13.6768 79.7874 13.063 76.9202C12.1595 72.6984 11.9792 68.2139 12.1223 63.8964C12.2951 58.6903 13.1909 53.5624 13.5786 48.3764C13.9892 42.8863 13.7572 37.4933 11.8859 32.3241C10.9405 29.7118 9.8433 27.1622 8.85807 24.5673C8.43852 23.4625 8.09488 22.3276 7.52822 21.2988C6.89784 20.1544 6.11532 19.1156 5.62164 17.883C5.76193 17.9728 5.90237 18.0624 6.04265 18.1521Z" fill="#89C5CC"/>
<path fill-rule="evenodd" clip-rule="evenodd" d="M42.0905 7.20451C42.1864 7.1293 42.2825 7.05411 42.3784 6.97872C42.102 8.15318 41.6028 9.10719 41.2213 10.1808C40.8783 11.1459 40.7044 12.2382 40.4734 13.2931C39.9309 15.7709 39.304 18.1929 38.7916 20.6918C37.7773 25.6367 37.9691 30.9638 38.6343 36.4499C39.2626 41.6323 40.2562 46.8066 40.7297 51.9878C41.1221 56.2847 41.2908 60.7157 40.9165 64.8153C40.6621 67.5996 39.8281 70.9239 37.556 70.6429C36.4863 70.5106 35.9283 69.212 35.7034 67.746C35.3423 65.3914 35.2667 62.9157 35.126 60.5743C34.8118 55.3482 34.7493 50.1382 34.6872 44.9659C34.6285 40.0858 34.4668 35.109 34.7901 30.3519C35.1019 25.7615 36.0772 21.6252 37.4716 17.8087C38.206 15.798 38.9058 13.7403 39.731 11.8239C40.1267 10.9047 40.6102 10.0924 41.0061 9.17395C41.3244 8.43517 41.5777 7.67707 42.0905 7.20451Z" fill="#C1DEE2"/>
<path fill-rule="evenodd" clip-rule="evenodd" d="M7.00924 33.2806C7.42304 32.5799 8.33389 34.8907 8.47252 35.1814C8.41389 35.0368 8.35502 34.8924 8.29564 34.7482C9.11699 36.1258 9.8684 37.5598 10.3356 39.1394C10.7979 40.703 11.195 42.2983 11.6287 43.873C12.4427 46.8277 13.4926 49.6984 14.2301 52.6797C14.9486 55.5848 15.1298 58.4407 14.9558 61.4456C14.775 64.5687 14.6644 67.7397 14.8754 70.8611C14.9761 72.3519 15.4563 73.7406 15.7855 75.1758C16.1151 76.6125 16.3746 78.0683 16.7643 79.4871C16.8537 79.3023 16.8651 79.9202 16.8649 79.9671C16.8624 80.3216 16.8134 80.6188 16.7003 80.9549C16.4098 81.8192 15.8662 82.5535 15.0391 82.7919C13.5445 83.2226 12.1567 81.8513 11.6747 80.4032C10.9832 78.3254 10.6022 76.0292 10.2726 73.8454C9.97052 71.8428 9.89903 69.8283 9.98878 67.7981C10.1656 63.7945 10.8839 59.8434 11.0782 55.841C11.2897 51.4837 10.4338 47.3896 9.71714 43.1481C9.37195 41.1043 9.04208 39.0799 8.37032 37.1328C8.09835 36.3443 7.74375 35.6485 7.37196 34.9204C7.16041 34.5062 6.73259 33.7673 7.00924 33.2806Z" fill="#C1DEE2"/>
<path fill-rule="evenodd" clip-rule="evenodd" d="M19.136 26.4742C18.9646 31.4661 18.669 36.4201 18.0092 41.3594C17.3358 46.3999 16.5623 51.4231 15.9144 56.4681C15.2836 61.3789 14.6225 66.3713 14.7106 71.3507C14.7756 75.0184 14.1726 81.2231 18.2112 83.0333C22.3014 84.8665 23.1788 77.0379 23.4474 74.4539C23.9621 69.4963 23.7955 64.4864 23.5457 59.5017C23.2892 54.3858 22.8612 49.2959 22.3306 44.1987C21.7413 38.5369 21.279 32.8495 20.9079 27.1716C20.7243 24.3631 20.679 21.5593 20.7297 18.7502C20.7776 16.0993 20.6777 13.4211 19.7433 10.9043C19.6944 10.9401 19.6458 10.9759 19.5968 11.0115" fill="#69A1AC"/>
<path fill-rule="evenodd" clip-rule="evenodd" d="M40.252 42.289C39.5164 43.3698 38.7749 44.4402 38.0802 45.5851C36.8373 47.6335 35.7133 49.9117 35.3751 52.8406C34.6675 58.9704 35.2352 65.5908 35.3722 71.9082C35.4003 73.1992 35.2384 74.4512 35.7429 75.6797C36.2002 76.7938 37.0554 77.6428 37.8705 77.6383C39.6155 77.6282 39.3493 73.3182 39.3521 71.4211C39.3574 68.096 38.9877 64.7373 39.0196 61.4153C39.0513 58.1242 39.2498 54.824 39.7228 51.6983C40.2018 48.5346 40.9032 45.4967 41.8288 42.6616C41.9573 42.2682 42.8791 39.2281 42.0082 39.752" fill="#89C5CC"/>
<path fill-rule="evenodd" clip-rule="evenodd" d="M32.5459 9.59575C31.3986 9.59575 31.4056 15.3645 31.3711 16.1055C31.2465 18.7795 31.2758 21.4542 31.1969 24.1287C31.0244 29.9653 30.8124 35.853 29.9432 41.6221C29.4752 44.7278 28.9327 47.8198 28.349 50.9019C27.7638 53.993 26.9782 57.0802 26.5931 60.2105C26.2235 63.2196 26.4324 66.2879 26.4831 69.3119C26.5338 72.3542 26.6249 75.4025 27.0201 78.418C27.1175 79.1624 27.2319 79.9041 27.3542 80.644C27.4561 81.2605 27.3967 82.0251 27.5692 82.611C27.8456 83.5494 29.0305 83.8565 29.8283 83.7098C31.9873 83.3123 33.3663 80.578 34.1038 78.5803C35.0457 76.0293 35.5454 73.2624 36.0385 70.5741C36.5973 67.5285 36.9247 64.4363 37.0783 61.3356C37.3906 55.0339 36.9898 48.7253 36.5423 42.4438C36.2934 38.9503 36.0058 35.4722 35.5658 32.0004C35.1276 28.5434 34.5654 25.1018 34.1994 21.6346C33.9334 19.115 33.6714 16.592 33.4991 14.0627C33.4579 13.4596 33.4232 9.59575 32.5459 9.59575Z" fill="#69A1AC"/>
<path fill-rule="evenodd" clip-rule="evenodd" d="M31.1095 51.5286C30.9225 45.4719 28.5088 18.8682 27.9596 11.5442C27.8223 9.71097 26.5001 2.07819 26.3286 0C25.8636 0.587409 25.9033 9.73072 25.9085 11.8316C25.9139 13.9098 25.6583 15.9536 25.5269 18.0206C25.3929 20.1297 22.3015 47.3685 21.9004 49.3951C21.1023 53.4268 20.5681 57.5642 20.1562 61.6865C19.7548 65.7045 19.1309 69.9434 19.6679 73.9824C19.7914 74.9122 19.9867 75.8271 20.3047 76.6813C20.6483 77.6043 20.8839 78.4577 21.1597 79.4235C21.6035 80.9791 22.4064 82.3443 23.6402 82.9865C26.1697 84.3033 27.5279 81.3225 28.2164 78.7273C29.3161 74.5828 30.0219 70.3708 30.3528 66.0182C30.7189 61.2027 31.2593 56.3773 31.1095 51.5286Z" fill="#89C5CC"/>
<path d="M42.8108 69.3511H5.18921C4.71155 69.3511 4.32434 69.7416 4.32434 70.2234V108.17C4.32434 108.652 4.71155 109.043 5.18921 109.043H42.8108C43.2885 109.043 43.6757 108.652 43.6757 108.17V70.2234C43.6757 69.7416 43.2885 69.3511 42.8108 69.3511Z" fill="white"/>
<path d="M3.45946 73.7128H0.864865C0.387213 73.7128 0 74.1033 0 74.5851V122.128C0 122.609 0.387213 123 0.864865 123H3.45946C3.93711 123 4.32432 122.609 4.32432 122.128V74.5851C4.32432 74.1033 3.93711 73.7128 3.45946 73.7128Z" fill="#C5CFD6"/>
<path d="M25.0811 73.7128H22.4865C22.0089 73.7128 21.6216 74.1033 21.6216 74.5851V122.128C21.6216 122.609 22.0089 123 22.4865 123H25.0811C25.5588 123 25.946 122.609 25.946 122.128V74.5851C25.946 74.1033 25.5588 73.7128 25.0811 73.7128Z" fill="#C5CFD6"/>
<path d="M47.1351 73.7128H44.5405C44.0629 73.7128 43.6757 74.1033 43.6757 74.5851V122.128C43.6757 122.609 44.0629 123 44.5405 123H47.1351C47.6128 123 48 122.609 48 122.128V74.5851C48 74.1033 47.6128 73.7128 47.1351 73.7128Z" fill="#C5CFD6"/>
</svg>
