<svg width="114" height="82" viewBox="0 0 114 82" fill="none" xmlns="http://www.w3.org/2000/svg">
<path opacity="0.1" d="M57 81.9999C88.4802 81.9999 114 80.3864 114 78.3961C114 76.4057 88.4802 74.7922 57 74.7922C25.5198 74.7922 0 76.4057 0 78.3961C0 80.3864 25.5198 81.9999 57 81.9999Z" fill="#F4D96D"/>
<path d="M105.059 75.7272C105.06 76.012 105.031 76.296 104.972 76.5747C104.961 76.6271 104.949 76.6839 104.937 76.7286C104.629 77.9725 103.759 78.8822 102.722 78.9401C102.687 78.9401 102.652 78.9401 102.613 78.9401C101.515 78.9401 100.587 77.9878 100.281 76.6762C100.272 76.6413 100.265 76.6063 100.257 76.567C100.198 76.2884 100.169 76.0043 100.17 75.7196C100.17 73.9428 101.263 72.5034 102.613 72.5034C103.963 72.5034 105.059 73.9526 105.059 75.7272Z" fill="#3F3D56"/>
<path opacity="0.1" d="M105.059 75.7271C105.06 76.0119 105.031 76.2959 104.972 76.5746C104.961 76.627 104.949 76.6838 104.938 76.7285C104.901 76.7285 104.865 76.7285 104.829 76.7285C104.56 76.714 104.293 76.6774 104.03 76.6193C103.797 76.6918 103.559 76.7465 103.318 76.7831C103.133 76.8111 102.946 76.8286 102.76 76.8356H102.571C102.347 76.8356 102.124 76.8206 101.902 76.7908C101.543 76.7426 101.191 76.6547 100.852 76.5287C100.666 76.5909 100.477 76.6419 100.285 76.6816C100.277 76.6466 100.269 76.6117 100.261 76.5724C100.203 76.2938 100.174 76.0097 100.175 75.7249C100.175 73.9481 101.268 72.5088 102.617 72.5088C103.967 72.5088 105.059 73.9525 105.059 75.7271Z" fill="black"/>
<path d="M110.271 69.7372C110.271 68.9557 110.089 68.1849 109.739 67.4875L106.866 68.3863L109.388 66.8945C108.965 66.2797 108.41 65.7683 107.765 65.398C107.119 65.0277 106.399 64.808 105.657 64.7552C105.539 64.5753 105.41 64.4031 105.27 64.2397L101.144 65.5316L104.528 63.531C103.881 63.0315 103.121 62.7001 102.316 62.5662C101.511 62.4323 100.686 62.4999 99.913 62.7631C99.1402 63.0264 98.4438 63.477 97.8854 64.0753C97.3269 64.6736 96.9236 65.4011 96.7111 66.1934L100.245 70.2865L96.4114 67.4963C95.4393 68.1887 94.7471 69.2095 94.4609 70.3726C94.1747 71.5356 94.3137 72.7633 94.8524 73.8319C95.3912 74.9005 96.2938 75.7387 97.3958 76.1936C98.4977 76.6486 99.7255 76.69 100.855 76.3103C101.877 76.6871 102.993 76.7178 104.034 76.3977C104.76 76.5592 105.512 76.5548 106.236 76.3848C106.96 76.2149 107.636 75.8837 108.216 75.4158C108.795 74.9478 109.263 74.355 109.584 73.681C109.906 73.0071 110.073 72.2691 110.073 71.5216C110.073 71.4124 110.073 71.3032 110.062 71.194C110.203 70.7214 110.273 70.2305 110.271 69.7372Z" fill="#F4D96D"/>
<path opacity="0.1" d="M110.185 70.6644C108.668 70.3746 107.112 70.3546 105.588 70.6054C103.863 70.8926 102.099 71.5238 100.412 71.0619C99.4221 70.791 98.5666 70.1642 97.5992 69.8169C96.6661 69.4885 95.6605 69.4276 94.6949 69.6411C94.3267 70.5265 94.2197 71.4998 94.3868 72.4447C94.5539 73.3896 94.9879 74.2661 95.6371 74.9695C96.2862 75.6729 97.123 76.1733 98.0474 76.4111C98.9718 76.6489 99.9447 76.6139 100.85 76.3103C101.872 76.6871 102.988 76.7178 104.029 76.3977C104.754 76.5592 105.507 76.5548 106.231 76.3848C106.954 76.2149 107.631 75.8837 108.21 75.4158C108.79 74.9478 109.258 74.355 109.579 73.681C109.9 73.0071 110.067 72.2691 110.068 71.5216C110.068 71.4124 110.068 71.3032 110.057 71.194C110.109 71.02 110.152 70.8431 110.185 70.6644V70.6644Z" fill="black"/>
<path d="M75.848 18.7803H75.2259C75.0885 18.7803 74.9772 18.8922 74.9772 19.0304V27.8149C74.9772 27.9531 75.0885 28.065 75.2259 28.065H75.848C75.9853 28.065 76.0966 27.9531 76.0966 27.8149V19.0304C76.0966 18.8922 75.9853 18.7803 75.848 18.7803Z" fill="#3F3D56"/>
<path d="M38.2225 11.5061H37.9196C37.8297 11.5061 37.7568 11.5794 37.7568 11.6699V14.399C37.7568 14.4895 37.8297 14.5628 37.9196 14.5628H38.2225C38.3125 14.5628 38.3854 14.4895 38.3854 14.399V11.6699C38.3854 11.5794 38.3125 11.5061 38.2225 11.5061Z" fill="#3F3D56"/>
<path d="M38.2584 17.1028H37.9175C37.8162 17.1028 37.734 17.1854 37.734 17.2873V22.2388C37.734 22.3407 37.8162 22.4233 37.9175 22.4233H38.2584C38.3597 22.4233 38.4419 22.3407 38.4419 22.2388V17.2873C38.4419 17.1854 38.3597 17.1028 38.2584 17.1028Z" fill="#3F3D56"/>
<path d="M38.2442 24.2842H37.9196C37.8231 24.2842 37.7448 24.3629 37.7448 24.46V29.4748C37.7448 29.5719 37.8231 29.6506 37.9196 29.6506H38.2442C38.3408 29.6506 38.419 29.5719 38.419 29.4748V24.46C38.419 24.3629 38.3408 24.2842 38.2442 24.2842Z" fill="#3F3D56"/>
<path d="M71.706 1.40552H41.9878C39.8478 1.40552 38.1129 3.15053 38.1129 5.3031V74.1022C38.1129 76.2548 39.8478 77.9998 41.9878 77.9998H71.706C73.8461 77.9998 75.5809 76.2548 75.5809 74.1022V5.3031C75.5809 3.15053 73.8461 1.40552 71.706 1.40552Z" fill="#3F3D56"/>
<path d="M58.1888 3.69238H53.5083C53.356 3.69238 53.2325 3.81657 53.2325 3.96977V4.48413C53.2325 4.63733 53.356 4.76152 53.5083 4.76152H58.1888C58.3411 4.76152 58.4646 4.63733 58.4646 4.48413V3.96977C58.4646 3.81657 58.3411 3.69238 58.1888 3.69238Z" fill="#E6E8EC"/>
<path d="M59.8587 4.83231C60.1915 4.83231 60.4613 4.56095 60.4613 4.22621C60.4613 3.89148 60.1915 3.62012 59.8587 3.62012C59.5259 3.62012 59.2562 3.89148 59.2562 4.22621C59.2562 4.56095 59.5259 4.83231 59.8587 4.83231Z" fill="#E6E8EC"/>
<path d="M73.2672 6.39301V73.0091C73.267 73.8028 72.9533 74.5639 72.3952 75.125C71.8372 75.6861 71.0804 76.0013 70.2913 76.0013H43.4025C42.6134 76.0013 41.8567 75.6861 41.2986 75.125C40.7405 74.5639 40.4269 73.8028 40.4266 73.0091V6.39301C40.4266 5.99992 40.5035 5.61068 40.6531 5.24751C40.8027 4.88433 41.0219 4.55435 41.2982 4.27639C41.5745 3.99843 41.9026 3.77794 42.2637 3.62751C42.6247 3.47708 43.0117 3.39966 43.4025 3.39966H47.4262V3.91948C47.4273 4.57253 47.686 5.19845 48.1454 5.65992C48.6048 6.12139 49.2274 6.38071 49.8766 6.381H63.5566C63.8784 6.381 64.1971 6.31725 64.4944 6.19338C64.7917 6.06951 65.0618 5.88796 65.2894 5.65908C65.5169 5.4302 65.6974 5.15848 65.8205 4.85944C65.9437 4.5604 66.0071 4.23989 66.0071 3.91621V3.39966H70.2967C71.0851 3.4011 71.8406 3.71711 72.3975 4.27832C72.9545 4.83953 73.2673 5.60007 73.2672 6.39301V6.39301Z" fill="white"/>
<path opacity="0.2" d="M73.5029 33.901V56.5538H73.2673V56.5767H40.4266V28.9016C40.6372 28.6598 40.8507 28.409 41.0671 28.1491C45.6793 22.6091 51.9482 21.1512 56.8002 20.9983C60.1247 20.8891 63.434 21.5803 66.5934 22.9531C68.2621 23.6782 70.6572 24.4732 73.2673 24.5519V33.1158C73.4269 33.5734 73.5029 33.901 73.5029 33.901Z" fill="#F4D96D"/>
<path opacity="0.2" d="M73.5029 33.9011V56.5538H40.4266V41.7148C41.6046 41.4167 43.2494 40.27 45.3601 37.1019C47.8844 33.3114 51.3141 32.3143 53.9687 32.2095C55.7873 32.1374 57.5982 32.607 59.3267 33.5472C61.2712 34.6033 65.0191 35.8766 67.8669 32.18C71.0155 28.0924 72.6897 31.4636 73.2673 33.1159C73.4269 33.5735 73.5029 33.9011 73.5029 33.9011Z" fill="#F4D96D"/>
<path d="M68.7257 52.405H45.0571C44.3376 52.405 43.7543 52.9918 43.7543 53.7155V59.3943C43.7543 60.118 44.3376 60.7048 45.0571 60.7048H68.7257C69.4453 60.7048 70.0286 60.118 70.0286 59.3943V53.7155C70.0286 52.9918 69.4453 52.405 68.7257 52.405Z" fill="#736E9E"/>
<path d="M14.5551 74.6669L16.6331 73.4339C16.3521 72.9511 15.9928 72.5189 15.5702 72.1551L11.6497 73.3859L14.7223 71.5687C13.9617 71.1496 13.1057 70.9369 12.2386 70.9516C11.3715 70.9664 10.5231 71.2079 9.777 71.6526C9.03089 72.0973 8.41276 72.7297 7.98345 73.4876C7.55413 74.2455 7.32843 75.1028 7.32855 75.9752C7.32855 78.7501 9.56404 78.8462 12.3228 78.8462C15.0816 78.8462 17.3171 78.7501 17.3171 75.9752C17.3181 75.2731 17.172 74.5788 16.8883 73.9374L14.5551 74.6669Z" fill="#F4D96D"/>
<path opacity="0.1" d="M15.0838 77.3653C14.8627 77.1421 14.6155 76.9467 14.3477 76.7832C13.9699 76.5309 13.5801 76.2743 13.135 76.188C12.7441 76.1127 12.3413 76.176 11.9407 76.1542C11.2495 76.1113 10.5988 75.8112 10.1156 75.3122C9.83223 75.0173 9.60858 74.6569 9.26766 74.4287C8.89961 74.1862 8.43275 74.1338 7.99629 74.1939C7.86981 74.2131 7.74442 74.239 7.62063 74.2714C7.42469 74.8182 7.32477 75.395 7.32532 75.9762C7.32532 78.7511 9.56081 78.8472 12.3196 78.8472C13.6583 78.8472 14.8732 78.8243 15.77 78.4835L15.6202 78.2018C15.4773 77.9013 15.2971 77.6202 15.0838 77.3653V77.3653Z" fill="black"/>
<path d="M24.7804 63.5909C24.6217 63.731 24.4994 63.9079 24.4243 64.1064C24.2386 64.6895 24.7576 65.2618 24.8075 65.8723C24.8466 66.3571 24.5904 66.8092 24.4449 67.2745C24.2807 67.8524 24.2913 68.4664 24.4754 69.0382C24.6595 69.61 25.0087 70.1137 25.4785 70.4851C25.5785 70.5705 25.6966 70.6318 25.8238 70.6642C25.9287 70.6769 26.0351 70.668 26.1364 70.638C26.2378 70.6079 26.332 70.5574 26.4133 70.4895C26.6654 70.305 26.8577 70.0497 26.9659 69.7556C27.056 69.4666 27.1046 69.1662 27.1103 68.8634L27.1874 67.6949C27.2678 66.4751 27.3405 65.217 27.0452 64.019C26.9486 63.6259 26.7694 62.7227 26.3178 62.6681C25.8661 62.6135 25.08 63.2961 24.7804 63.5909Z" fill="#3F3D56"/>
<path d="M32.3543 58.5719C31.812 60.4876 31.4188 62.4428 31.1785 64.4199C31.1437 64.6984 31.1079 64.9911 30.9407 65.2161C30.6074 65.6671 29.9397 65.6387 29.386 65.5655C29.2531 65.5585 29.1235 65.5212 29.0071 65.4563C28.7986 65.3143 28.753 65.0304 28.728 64.7781C28.3487 61.0593 28.0954 57.3306 27.968 53.5921C27.9626 53.449 32.6029 53.4359 33.0003 53.8105C33.3977 54.1851 33.0893 55.5862 33.0003 56.0634C32.8548 56.9131 32.5921 57.7408 32.3543 58.5719Z" fill="#FBBEBE"/>
<path opacity="0.05" d="M32.3543 58.5719C31.812 60.4876 31.4188 62.4428 31.1785 64.4199C31.1437 64.6984 31.1079 64.9911 30.9407 65.2161C30.6074 65.6671 29.9397 65.6387 29.386 65.5655C29.2531 65.5585 29.1235 65.5212 29.0071 65.4563C28.7986 65.3143 28.753 65.0304 28.728 64.7781C28.3487 61.0593 28.0954 57.3306 27.968 53.5921C27.9626 53.449 32.6029 53.4359 33.0003 53.8105C33.3977 54.1851 33.0893 55.5862 33.0003 56.0634C32.8548 56.9131 32.5921 57.7408 32.3543 58.5719Z" fill="black"/>
<path d="M22.6914 53.0603L24.5708 57.2178C25.1961 58.6004 25.8259 59.9982 26.1244 61.4867C26.2442 62.1086 26.3208 62.738 26.3535 63.3705C26.3989 63.9127 26.3821 64.4583 26.3036 64.9966C26.2352 65.3963 26.1092 65.7851 26.0539 66.187C25.8367 67.7891 26.7389 69.2961 27.3567 70.7868C27.8905 72.067 28.2301 73.4206 28.3643 74.8023C28.4207 75.3909 28.4522 76.0156 28.7866 76.5016C29.3979 76.317 29.995 76.1576 30.6323 76.2296C30.7463 75.2894 30.1557 74.4234 29.9385 73.4995C29.5401 71.8068 30.4206 70.0278 30.1209 68.3143C29.9581 67.3861 29.4532 66.5124 29.4945 65.5711C29.5716 63.8543 29.8919 62.1201 29.5661 60.4383C29.1992 58.5371 28.1439 56.8083 27.9104 54.8863C27.7313 53.4098 28.019 51.7772 27.2015 50.5366C25.4155 50.4306 23.5687 51.491 22.6914 53.0603Z" fill="#FBBEBE"/>
<path d="M28.8681 79.1693C28.6802 79.1759 28.4609 79.1693 28.3448 79.0197C28.2881 78.9327 28.2555 78.832 28.2503 78.7281C28.1614 78.0698 28.1178 77.4061 28.12 76.7417C28.12 76.4992 28.1309 76.2415 28.2655 76.0417C28.3643 75.9197 28.4769 75.8098 28.601 75.714C28.8887 75.4465 29.0982 75.0588 29.4696 74.9354C29.6322 74.8878 29.8047 74.8855 29.9686 74.9288C30.1324 74.9721 30.2816 75.0593 30.4 75.1811C30.6343 75.4324 30.7794 75.7545 30.8126 76.0974C30.8669 76.5036 30.8213 76.9459 31.0352 77.2986C31.1198 77.4351 31.2382 77.5465 31.3337 77.6754C31.6594 78.1122 31.9515 78.9673 31.2794 79.1442C30.5672 79.331 29.6074 79.1453 28.8681 79.1693Z" fill="#3F3D56"/>
<path d="M30.4977 28.456C30.8777 27.7178 30.6508 26.7677 30.108 26.1408C29.5651 25.514 28.7715 25.1645 27.9615 24.9756C26.8758 24.72 25.7119 24.7222 24.6729 25.1241C23.8445 25.4441 23.1312 25.9978 22.3668 26.4499C21.0161 27.2497 19.5043 27.7348 17.9425 27.8696C16.2054 28.017 14.2652 27.7877 12.9222 28.9005C10.462 30.9383 12.1752 35.5304 9.88221 37.7539C9.26335 38.3534 8.43712 38.6777 7.72815 39.1659C7.01918 39.6541 6.38512 40.4349 6.49912 41.2911C6.55341 41.7028 6.77707 42.0741 7.03547 42.3984C8.14507 43.793 10.0082 44.5236 11.7703 44.3063C13.5324 44.0889 15.1458 42.951 16.0046 41.385C16.2217 40.9929 16.3976 40.5637 16.7396 40.2787C17.4247 39.7098 18.43 39.9402 19.3181 39.9129C21.2931 39.8517 23.0867 38.1492 23.2593 36.1682C23.3331 35.3218 23.1898 34.3368 23.7946 33.7427C24.282 33.2622 25.0442 33.2666 25.7108 33.1191C26.9355 32.8494 27.8269 31.9583 28.386 30.8706C28.6423 30.3704 28.6162 29.8113 28.9962 29.3963C29.4012 28.9398 30.1362 29.1571 30.4977 28.456Z" fill="#3F3D56"/>
<g opacity="0.1">
<path opacity="0.1" d="M16.3237 28.2159C17.044 28.1542 17.756 28.0177 18.4484 27.8086C18.253 27.8359 18.0575 27.8588 17.861 27.8752C16.4995 27.9899 15.0099 27.8752 13.7831 28.3568C14.6191 28.2705 15.4953 28.2858 16.3237 28.2159Z" fill="black"/>
<path opacity="0.1" d="M15.112 40.6249C14.77 40.9089 14.5898 41.3391 14.377 41.7312C13.719 42.9242 12.6654 43.8468 11.4 44.3379C11.4966 44.3314 11.5932 44.3227 11.6898 44.3106C13.452 44.0922 15.0653 42.9565 15.9241 41.3905C16.1413 40.9984 16.3161 40.5681 16.6592 40.2842L16.7178 40.2383C16.1217 40.2241 15.5507 40.2602 15.112 40.6249Z" fill="black"/>
<path opacity="0.1" d="M30.0265 26.1475C29.4836 25.5206 28.6845 25.1722 27.88 24.9822C26.7943 24.7267 25.6304 24.73 24.5903 25.1318L24.5208 25.1602C25.1327 25.1252 25.7464 25.18 26.3426 25.3229C27.1471 25.513 27.9473 25.8613 28.4891 26.4893C29.0309 27.1172 29.2589 28.0662 28.8789 28.8045C28.5173 29.5056 27.7823 29.2871 27.3686 29.7404C26.9886 30.1542 27.0147 30.7145 26.7585 31.2146C26.2775 32.1505 25.549 32.939 24.5762 33.3136C24.916 33.2328 25.2808 33.1967 25.6196 33.1225C26.8442 32.8517 27.7356 31.9616 28.2947 30.8739C28.5521 30.3738 28.526 29.8135 28.9049 29.3996C29.3197 28.9464 30.0547 29.1637 30.4151 28.4637C30.7951 27.7277 30.5682 26.7776 30.0265 26.1475Z" fill="black"/>
<path opacity="0.1" d="M24.0833 33.4642C23.4166 33.6105 22.6545 33.6073 22.167 34.0867C21.5622 34.6819 21.7055 35.6669 21.6317 36.5133C21.5025 37.993 20.4678 39.3177 19.1292 39.9194H19.228C21.2029 39.8583 22.9954 38.1546 23.168 36.1747C23.2429 35.3273 23.0996 34.3422 23.7043 33.7481C23.8429 33.6152 24.0059 33.5106 24.1842 33.4402L24.0833 33.4642Z" fill="black"/>
</g>
<path d="M30.5303 38.3949C30.4402 38.5555 30.2545 38.6297 30.0819 38.6942C28.2948 39.356 26.4143 40.0298 24.5295 39.7513C24.4589 39.4531 24.3895 39.1539 24.32 38.8558C24.2194 38.4233 24.118 37.9909 24.016 37.5584C23.9682 37.352 23.9193 37.1434 23.8803 36.9337C23.8129 36.6027 23.7914 36.2639 23.8162 35.9269C23.8277 35.8047 23.8495 35.6838 23.8813 35.5654C23.9371 35.35 24.0305 35.1462 24.1571 34.9637C24.1788 34.9342 24.2016 34.9047 24.2255 34.8763C24.3329 34.7461 24.4632 34.6369 24.6099 34.5541C24.9301 34.3772 25.3699 34.3019 25.4991 33.959C25.549 33.7797 25.5441 33.5894 25.4849 33.4129C25.3764 32.9761 25.1799 32.5655 25.0583 32.133C24.9041 31.587 25.1364 31.6208 25.6608 31.4887C26.6054 31.2495 27.5934 31.0781 28.563 31.2703C28.5174 31.7519 28.4728 32.2455 28.5934 32.7151C28.7139 33.1847 29.0363 33.6302 29.4999 33.7602C29.5683 33.7799 29.6411 33.7919 29.7171 33.8082C29.8177 33.8245 29.9133 33.8642 29.9961 33.924C30.0532 33.9715 30.0986 34.0317 30.1286 34.0998C30.1758 34.2151 30.2068 34.3364 30.2208 34.4602C30.3909 35.6062 30.5136 36.7576 30.5889 37.9144V37.9581C30.6112 38.1064 30.5909 38.2579 30.5303 38.3949V38.3949Z" fill="#FBBEBE"/>
<path d="M21.3299 36.5132C20.9239 37.1346 20.7871 37.8903 20.6633 38.6242L19.8751 43.2218C19.7665 43.8508 19.6699 44.5421 19.9902 45.0936C20.0987 45.2803 20.2507 45.442 20.33 45.6396C20.3899 45.8385 20.4292 46.0431 20.4473 46.2501C20.6318 47.3039 21.6622 48.0149 22.6958 48.2704C23.0693 48.3632 23.5057 48.3993 23.7999 48.1492C24.1257 47.8773 24.1257 47.3596 23.9335 46.9861C23.7413 46.6127 23.3906 46.3484 23.0508 46.0983L21.9249 45.264L22.5763 40.2405C22.6241 39.8757 22.7935 39.4028 23.1605 39.4432C23.4949 39.4793 23.7522 39.9696 24.0497 39.8113C24.1429 39.7478 24.2085 39.6509 24.2331 39.5404C24.3634 39.1287 24.3276 38.6854 24.2907 38.254L24.1561 36.6967C24.1115 36.1911 24.2407 35.8121 24.3015 35.3371C24.3721 34.7834 24.0051 34.9516 23.5524 35.0706C22.6827 35.3021 21.8326 35.7422 21.3299 36.5132Z" fill="#FBBEBE"/>
<path d="M35.3302 44.0637C35.2475 44.2036 35.1249 44.3155 34.9784 44.3847C34.0993 44.8832 33.0656 45.0295 32.0839 44.7943C31.8577 44.7274 31.6278 44.6734 31.3955 44.6326C31.0242 44.5868 30.6464 44.661 30.2718 44.6326C29.5118 44.5748 28.8441 44.0975 28.3175 43.5406C28.0005 43.2129 27.7128 42.6767 28.0081 42.3251C28.0906 42.2402 28.1931 42.1777 28.306 42.1434C28.419 42.109 28.5387 42.1039 28.6541 42.1285C28.884 42.18 29.1058 42.2631 29.3131 42.3753C30.0398 42.7142 30.8172 42.9297 31.6138 43.0131C32.1566 43.0699 32.8471 42.9771 33.035 42.4583C33.1262 42.2061 33.0621 41.9265 32.9981 41.6655C32.8229 40.9506 32.6477 40.2353 32.4726 39.5196C32.4605 39.4571 32.4385 39.397 32.4074 39.3416C32.3985 39.3266 32.388 39.3127 32.3759 39.3001C32.3067 39.2421 32.223 39.2043 32.1338 39.1909C31.7289 39.0904 31.3239 38.9277 31.034 38.6274C30.844 38.4141 30.6926 38.1691 30.5867 37.9033C30.5563 37.8367 30.5281 37.769 30.4987 37.7013C30.2762 37.1793 30.0417 36.6442 29.8603 36.096C29.7338 35.7254 29.6404 35.3442 29.5813 34.9569C29.5335 34.6217 29.5075 34.4677 29.6899 34.3192C29.7388 34.2821 29.7907 34.2492 29.8452 34.2209C29.9288 34.1761 30.0232 34.1313 30.1231 34.0887L30.2197 34.0483C30.5167 33.9289 30.8219 33.8311 31.1328 33.7557C31.8863 33.5798 32.6908 33.9468 33.2076 34.5267C33.7244 35.1065 33.9926 35.8655 34.1641 36.6245C34.3357 37.3835 34.4236 38.1611 34.6386 38.908C34.7222 39.2007 34.8264 39.489 34.8981 39.7817C34.975 40.1298 35.0297 40.4825 35.062 40.8377C35.1641 41.7427 35.2658 42.6476 35.3671 43.5526C35.4045 43.7229 35.3917 43.9006 35.3302 44.0637Z" fill="#FBBEBE"/>
<path d="M24.1821 43.6707C24.3993 45.0642 23.775 46.4348 23.1713 47.7114C23.5133 47.9626 23.9313 48.0871 24.3396 48.1952C27.0718 48.9176 29.9123 49.1327 32.7213 48.8297C32.7886 48.3579 32.8516 47.8577 32.6594 47.4231C32.54 47.1533 32.3337 46.9338 32.2023 46.6696C31.9852 46.2327 32.0069 45.7249 32.0308 45.24L32.2251 41.1088C30.8777 40.4841 29.3154 41.0694 27.8334 41.1535C27.0658 41.1972 26.2884 41.1033 25.5317 41.2398C25.1386 41.3108 23.9031 41.5063 23.7174 41.9136C23.5318 42.321 24.1159 43.2274 24.1821 43.6707Z" fill="#FBBEBE"/>
<path opacity="0.05" d="M24.1821 43.6707C24.3993 45.0642 23.775 46.4348 23.1713 47.7114C23.5133 47.9626 23.9313 48.0871 24.3396 48.1952C27.0718 48.9176 29.9123 49.1327 32.7213 48.8297C32.7886 48.3579 32.8516 47.8577 32.6594 47.4231C32.54 47.1533 32.3337 46.9338 32.2023 46.6696C31.9852 46.2327 32.0069 45.7249 32.0308 45.24L32.2251 41.1088C30.8777 40.4841 29.3154 41.0694 27.8334 41.1535C27.0658 41.1972 26.2884 41.1033 25.5317 41.2398C25.1386 41.3108 23.9031 41.5063 23.7174 41.9136C23.5318 42.321 24.1159 43.2274 24.1821 43.6707Z" fill="black"/>
<path d="M27.7519 47.6699C26.2916 47.3641 24.8563 46.8585 23.3656 46.8235C23.2908 46.8159 23.2153 46.8303 23.1485 46.865C23.0757 46.9256 23.0271 47.0105 23.0117 47.1042C22.8575 47.6393 22.7196 48.1784 22.598 48.7216C22.1941 50.5267 21.9954 52.5209 22.8836 54.1415C22.8749 53.6151 23.2038 53.1226 23.6436 52.831C24.0833 52.5394 24.6098 52.4215 25.131 52.3734C25.6521 52.3254 26.2091 52.345 26.6944 52.5602C27.0336 52.7152 27.3262 52.9572 27.5429 53.262C27.7596 53.5668 27.8927 53.9236 27.9289 54.2966L33.0589 54.4636C33.0889 54.4725 33.1206 54.4736 33.1512 54.467C33.1818 54.4603 33.2102 54.4461 33.234 54.4256C33.2577 54.4051 33.2759 54.379 33.2871 54.3496C33.2982 54.3202 33.3019 54.2884 33.2977 54.2572C33.4869 52.602 33.4799 50.93 33.2771 49.2763C33.2206 48.8144 33.213 48.1733 32.6962 47.9997C32.0796 47.7922 31.1046 48.0346 30.4456 48.0062C29.5401 47.968 28.6392 47.8555 27.7519 47.6699V47.6699Z" fill="#3F3D56"/>
<path d="M32.4086 39.5797L32.3923 41.873L27.2026 42.0467C26.2504 42.0794 25.2906 42.1122 24.3623 42.3252C24.0952 42.3863 23.8314 42.4628 23.5687 42.5381C23.2951 41.5301 23.0258 40.4741 23.0975 39.4465C23.1173 39.1692 23.1653 38.8948 23.2408 38.6274C23.4058 38.0508 23.7152 37.507 23.8803 36.9369C23.9468 36.715 23.9833 36.485 23.9888 36.2533C23.9765 36.0218 23.9401 35.7923 23.8803 35.5685C23.8327 35.385 23.81 35.1958 23.813 35.0061L24.2244 34.8784C24.2364 34.9275 24.2462 34.9755 24.2548 35.0258C24.2722 35.1295 24.2863 35.2355 24.2961 35.3414C24.3193 35.6039 24.3266 35.8676 24.3178 36.131C24.3037 36.6573 24.2331 37.2438 24.5599 37.6599C24.9844 38.1939 25.8009 38.1109 26.4675 37.9776L28.2134 37.6271C28.7649 37.5179 29.3805 37.3628 29.6682 36.8768C29.791 36.6409 29.8558 36.3787 29.8571 36.1124V36.06C29.8831 35.4799 29.8257 34.8991 29.6867 34.3356C29.6443 34.1587 29.5922 33.984 29.5336 33.8125H29.7084C29.8091 33.8288 29.9046 33.8684 29.9874 33.9283C30.0446 33.9757 30.0899 34.0359 30.1199 34.1041L30.2165 34.0637C30.6017 35.6476 31.2366 37.1592 32.097 38.5411C32.2076 38.6993 32.2953 38.8725 32.3575 39.0555C32.3833 39.1547 32.3979 39.2566 32.401 39.3591C32.4096 39.4235 32.4086 39.5011 32.4086 39.5797Z" fill="#FF6F61"/>
<path d="M26.9257 32.6387C28.6646 32.6387 30.0743 31.2208 30.0743 29.4717C30.0743 27.7226 28.6646 26.3047 26.9257 26.3047C25.1868 26.3047 23.7772 27.7226 23.7772 29.4717C23.7772 31.2208 25.1868 32.6387 26.9257 32.6387Z" fill="#FBBEBE"/>
<path d="M21.3299 36.5133C20.9239 37.1347 20.7871 37.8904 20.6633 38.6243L19.8751 43.2219C19.7665 43.8509 19.6699 44.5422 19.9902 45.0937C20.0987 45.2804 20.2507 45.442 20.33 45.6397C20.3899 45.8386 20.4292 46.0431 20.4473 46.2502C20.6318 47.304 21.6622 48.0149 22.6958 48.2705C23.0693 48.3633 23.5057 48.3993 23.7999 48.1493C24.1257 47.8773 24.1257 47.3597 23.9335 46.9862C23.7413 46.6127 23.3906 46.3484 23.0508 46.0984L21.9249 45.264L22.5763 40.2405C22.6198 39.879 21.8326 35.7423 21.3299 36.5133Z" fill="#FBBEBE"/>
<path d="M34.1652 36.6311C34.3367 37.3901 34.4247 38.1676 34.6397 38.9146C34.7233 39.2084 34.8275 39.4956 34.8991 39.7883C34.976 40.136 35.0308 40.4884 35.0631 40.8432L35.3682 43.5581C35.4033 43.7257 35.3901 43.9 35.3302 44.0604C35.2471 44.2001 35.1247 44.3119 34.9784 44.3815C34.0989 44.8788 33.0656 45.025 32.0839 44.791C31.8579 44.7231 31.628 44.6691 31.3955 44.6294C31.0242 44.5824 30.6464 44.6578 30.2718 44.6294C29.5118 44.5715 28.8441 44.0954 28.3175 43.5428C28.0005 43.2152 27.7128 42.6779 28.0081 42.3262C28.0906 42.2414 28.1931 42.1789 28.306 42.1445C28.419 42.1101 28.5387 42.105 28.6541 42.1296C28.884 42.1815 29.1058 42.2649 29.3131 42.3775C30.04 42.7155 30.8173 42.9307 31.6138 43.0142C32.1566 43.0721 32.8471 42.9793 33.035 42.4594C33.1262 42.2072 33.0621 41.9276 32.9981 41.6666L32.4726 39.5207C32.4509 39.4464 33.9937 35.8732 34.1652 36.6311Z" fill="#FBBEBE"/>
<path d="M24.9768 30.4468C24.8368 29.9412 24.6403 29.3089 25.0344 28.966C25.176 28.856 25.3467 28.7903 25.5251 28.777C26.41 28.6678 27.3252 29.192 28.1721 28.9124C28.4422 28.8237 28.681 28.6581 28.8597 28.4359C29.0383 28.2136 29.1492 27.944 29.179 27.6598C29.2087 27.3755 29.156 27.0887 29.0272 26.8338C28.8985 26.579 28.6991 26.3672 28.4533 26.2238C28.0831 26.0054 27.6412 25.9628 27.2145 25.9245C26.0908 25.8208 24.9193 25.7247 23.8683 26.143C22.8174 26.5612 21.9314 27.638 22.1486 28.753C22.2495 29.2848 22.5763 29.7424 22.9086 30.1661C23.1637 30.4883 24.1875 32.0227 24.599 32.0008C25.1788 31.9681 25.068 30.7755 24.9768 30.4468Z" fill="#3F3D56"/>
<path opacity="0.1" d="M28.4533 26.2239C28.3906 26.1875 28.3253 26.1557 28.2579 26.1289C28.4485 26.3029 28.5904 26.5242 28.6693 26.7707C28.7482 27.0172 28.7614 27.2801 28.7076 27.5334C28.6537 27.7866 28.5347 28.0211 28.3624 28.2135C28.1901 28.4059 27.9706 28.5494 27.7259 28.6297C26.879 28.9093 25.9638 28.3851 25.0789 28.4943C24.9005 28.5076 24.7298 28.5733 24.5882 28.6833C24.1941 29.0262 24.3906 29.6585 24.5306 30.1641C24.6218 30.4917 24.7326 31.6853 24.155 31.7181H24.1452C24.3243 31.8939 24.4861 32.0086 24.6012 32.002C25.1788 31.9693 25.0681 30.7767 24.9769 30.448C24.8368 29.9424 24.6403 29.3101 25.0344 28.9672C25.176 28.8572 25.3467 28.7915 25.5251 28.7783C26.41 28.6691 27.3253 29.1932 28.1721 28.9137C28.4422 28.8249 28.681 28.6594 28.8597 28.4371C29.0384 28.2148 29.1493 27.9453 29.179 27.661C29.2087 27.3767 29.156 27.0899 29.0272 26.8351C28.8985 26.5803 28.6992 26.3684 28.4533 26.225V26.2239Z" fill="black"/>
<path d="M74.6971 65.6189H39.3029V76.6488H74.6971V65.6189Z" fill="#3F3D56"/>
<path d="M55.48 69.1836V73.0823L58.52 71.1329L55.48 69.1836Z" fill="white"/>
<path d="M28.3371 3.72711L26.6521 4.8017L27.6748 2.93099C27.385 2.69827 27.0262 2.56952 26.6554 2.56515H26.6282C26.5111 2.56687 26.3942 2.5581 26.2786 2.53894L25.7075 2.9026L25.9529 2.45485C25.5478 2.31308 25.1979 2.04536 24.954 1.6904L23.9313 2.34564L24.5773 1.16512C23.9791 0.443263 23.1735 0.000976562 22.2875 0.000976562C21.2246 0.000976562 20.2779 0.636559 19.6666 1.62706C19.4859 1.92448 19.2297 2.16819 18.9245 2.33323C18.6192 2.49826 18.2758 2.57868 17.9295 2.56624H17.8719C16.6983 2.56624 15.7472 3.90402 15.7472 5.55523C15.7472 7.20643 16.6983 8.54421 17.8719 8.54421C18.1301 8.543 18.3842 8.47893 18.6124 8.35747C19.0117 8.16201 19.4484 8.05627 19.8924 8.04759C20.3363 8.03892 20.7769 8.12752 21.1834 8.30723C21.5273 8.462 21.8999 8.542 22.2767 8.542C22.6535 8.542 23.026 8.462 23.37 8.30723C23.7736 8.13122 24.2102 8.04461 24.6501 8.05327C25.0899 8.06194 25.5228 8.16569 25.9193 8.35747C26.1451 8.47637 26.3961 8.53892 26.651 8.53985C27.8247 8.53985 28.7758 7.20097 28.7758 5.55086C28.7838 4.91557 28.633 4.28844 28.3371 3.72711V3.72711Z" fill="#F2F2F2"/>
<path opacity="0.03" d="M25.1604 8.10106C24.5484 7.98431 23.9156 8.0535 23.3429 8.29981C22.9988 8.45425 22.6263 8.53406 22.2496 8.53406C21.8728 8.53406 21.5003 8.45425 21.1562 8.29981C20.7496 8.12048 20.3091 8.03219 19.8652 8.04105C19.4212 8.04991 18.9845 8.15572 18.5853 8.35114C18.3569 8.47213 18.1029 8.53583 17.8448 8.53679C16.8025 8.53679 15.9351 7.48076 15.7548 6.08729C15.9626 5.93409 16.1395 5.74247 16.276 5.52269C16.8872 4.53109 17.834 3.89551 18.8969 3.89551C19.9598 3.89551 20.8946 4.52345 21.5026 5.50412C21.6856 5.79907 21.9411 6.04158 22.2444 6.2082C22.5478 6.37482 22.8887 6.45993 23.2343 6.45531H23.2614C24.092 6.45531 24.8108 7.12475 25.1604 8.10106Z" fill="black"/>
<path d="M85.9886 28.0846L85.1483 28.6208L85.6585 27.687C85.514 27.5712 85.3352 27.5071 85.1504 27.5047H85.1363C85.0782 27.5056 85.0201 27.5016 84.9626 27.4927L84.6727 27.6761L84.7954 27.4522C84.5935 27.3818 84.419 27.2487 84.2971 27.0722L83.7868 27.3998L84.1125 26.8112C83.9769 26.6352 83.8041 26.4917 83.6065 26.3912C83.4089 26.2908 83.1916 26.2358 82.9703 26.2302C82.4405 26.2302 81.9682 26.5469 81.6675 27.0416C81.5769 27.1901 81.4488 27.3118 81.2962 27.3941C81.1436 27.4764 80.972 27.5165 80.7989 27.5101H80.7707C80.1855 27.5101 79.711 28.1785 79.711 29.0008C79.711 29.8231 80.1855 30.4926 80.7707 30.4926C80.8993 30.492 81.026 30.4602 81.1398 30.3997C81.3389 30.3022 81.5567 30.2494 81.7781 30.2448C81.9994 30.2403 82.2192 30.2842 82.422 30.3735C82.5926 30.4512 82.7776 30.4917 82.9649 30.4926C83.1518 30.4919 83.3366 30.4525 83.5077 30.3768C83.709 30.289 83.9267 30.2457 84.146 30.2499C84.3654 30.254 84.5813 30.3055 84.7791 30.4008C84.8916 30.4605 85.0167 30.492 85.1439 30.4926C85.7291 30.4926 86.2036 29.8242 86.2036 29.0008C86.2099 28.682 86.136 28.3668 85.9886 28.0846V28.0846Z" fill="#F2F2F2"/>
<path opacity="0.03" d="M84.4002 30.2667C84.0946 30.2077 83.7784 30.2423 83.4926 30.3661C83.3217 30.4427 83.1368 30.4823 82.9497 30.4823C82.7627 30.4823 82.5777 30.4427 82.4069 30.3661C82.204 30.2769 81.9843 30.2329 81.763 30.2373C81.5417 30.2416 81.3239 30.2941 81.1246 30.3912C81.0109 30.4521 80.8843 30.4843 80.7555 30.4851C80.2354 30.4851 79.8033 29.9576 79.7132 29.2631C79.8169 29.1868 79.905 29.0911 79.9727 28.9813C80.2778 28.4866 80.7501 28.1699 81.2755 28.1699C81.801 28.1699 82.2722 28.4833 82.5784 28.9715C82.6696 29.1199 82.7977 29.242 82.9499 29.3256C83.1022 29.4093 83.2735 29.4517 83.447 29.4487H83.46C83.8671 29.4455 84.2265 29.7796 84.4002 30.2667Z" fill="black"/>
<path d="M87.8484 14.1598L89.1979 15.0214L88.3771 13.522C88.6095 13.336 88.8967 13.233 89.1936 13.2293H89.2153C89.3091 13.2307 89.4028 13.2238 89.4954 13.2086L89.9536 13.5002L89.7571 13.142C90.081 13.0277 90.361 12.8137 90.5573 12.5304L91.377 13.0524L90.8591 12.1067C91.3379 11.5279 91.9839 11.1741 92.6939 11.1741C93.5462 11.1741 94.3041 11.683 94.7937 12.4769C94.9385 12.7145 95.1433 12.9093 95.3872 13.0414C95.6311 13.1736 95.9054 13.2384 96.1823 13.2293H96.2279C97.1682 13.2293 97.9303 14.3017 97.9303 15.6242C97.9303 16.9467 97.1703 18.0191 96.2279 18.0191C96.0212 18.0181 95.8179 17.9667 95.6351 17.8695C95.3149 17.7125 94.9644 17.6275 94.6081 17.6205C94.2519 17.6135 93.8984 17.6847 93.5723 17.8291C93.2968 17.9529 92.9984 18.0169 92.6967 18.0169C92.3949 18.0169 92.0965 17.9529 91.821 17.8291C91.4977 17.6879 91.148 17.6183 90.7957 17.6251C90.4433 17.6319 90.0965 17.7149 89.7788 17.8684C89.5973 17.9635 89.396 18.0136 89.1914 18.0148C88.2512 18.0148 87.489 16.9424 87.489 15.6199C87.4856 15.1106 87.6091 14.6086 87.8484 14.1598V14.1598Z" fill="#F2F2F2"/>
<path opacity="0.03" d="M90.3922 17.6643C90.8835 17.5702 91.3916 17.6257 91.8514 17.8237C92.1269 17.9476 92.4253 18.0116 92.727 18.0116C93.0288 18.0116 93.3272 17.9476 93.6027 17.8237C93.9289 17.6798 94.2824 17.609 94.6386 17.6161C94.9948 17.6233 95.3452 17.7083 95.6655 17.8652C95.8483 17.9621 96.0517 18.0131 96.2583 18.0138C97.0932 18.0138 97.7881 17.1674 97.9336 16.048C97.7661 15.9259 97.6241 15.7719 97.5156 15.5948C97.0259 14.802 96.267 14.292 95.4158 14.292C94.5646 14.292 93.8144 14.7954 93.3247 15.5806C93.1784 15.8174 92.9738 16.0122 92.7307 16.1461C92.4876 16.28 92.2143 16.3486 91.9372 16.3451H91.9155C91.2488 16.3462 90.6723 16.8824 90.3922 17.6643Z" fill="black"/>
</svg>
