<svg width="24" height="49" viewBox="0 0 24 49" fill="none" xmlns="http://www.w3.org/2000/svg">
<path fill-rule="evenodd" clip-rule="evenodd" d="M24 1C24 0.447715 23.5523 0 23 0H1C0.447715 0 0 0.447715 0 1V37.6C0 38.1523 0.447715 38.6 1 38.6H1.66935C1.93347 38.6 2.18686 38.7045 2.37421 38.8906L11.2951 47.7549C11.6851 48.1425 12.3148 48.1425 12.7048 47.7549L21.6257 38.8906C21.8131 38.7045 22.0665 38.6 22.3306 38.6H23C23.5523 38.6 24 38.1523 24 37.6V1Z" fill="#212A39"/>
<path d="M12 3L13.3471 7.1459H17.7063L14.1796 9.7082L15.5267 13.8541L12 11.2918L8.47329 13.8541L9.82037 9.7082L6.29366 7.1459H10.6529L12 3Z" fill="#F4D96D"/>
<path d="M12 14L13.3471 18.1459H17.7063L14.1796 20.7082L15.5267 24.8541L12 22.2918L8.47329 24.8541L9.82037 20.7082L6.29366 18.1459H10.6529L12 14Z" fill="#F4D96D"/>
<path d="M12 26L13.3471 30.1459H17.7063L14.1796 32.7082L15.5267 36.8541L12 34.2918L8.47329 36.8541L9.82037 32.7082L6.29366 30.1459H10.6529L12 26Z" fill="#F4D96D"/>
</svg>
