<svg width="161" height="106" viewBox="0 0 161 106" fill="none" xmlns="http://www.w3.org/2000/svg">
<g clip-path="url(#clip0)">
<path opacity="0.1" d="M3.11792 33.7978C1.90568 37.4862 5.46978 40.8033 8.27308 43.4748C12.1102 47.1397 15.1378 51.5744 17.1596 56.4912C18.3782 59.4625 19.2258 62.6591 18.9985 65.8652C18.3545 74.9585 9.83414 81.0169 3.02637 87.0405C2.06195 87.9019 1.09753 88.803 0.535605 89.9642C-1.26854 93.6907 1.79835 97.9851 5.17619 100.361C17.2054 108.82 34.5682 106.304 46.2359 97.3489C52.2782 92.7103 57.4712 86.4028 64.7935 84.3404C69.4752 83.0285 74.4441 83.6504 79.2883 84.0549C86.5517 84.6597 93.8486 84.7467 101.124 84.3151C103.678 84.1564 106.349 83.9089 108.488 82.4986C113.903 78.9324 112.989 70.4769 116.898 65.2894C119.707 61.5613 124.507 60.1241 128.685 58.0633C135.116 54.874 140.482 49.8693 144.127 43.662C147.481 37.924 149.219 31.4007 150.914 24.9695C152.193 20.1373 153.476 15.0767 152.393 10.1953C151.311 5.31399 147.036 0.756263 142.08 1.18459C138.274 1.51298 135.247 4.53506 131.582 5.61699C122.802 8.21551 114.279 -0.809513 105.171 0.06142C99.437 0.608728 94.8122 4.97926 91.3159 9.57981C87.8197 14.1804 84.8601 19.36 80.2432 22.8247C73.0614 28.2184 63.2214 28.4088 54.4296 26.6622C45.6377 24.9155 37.2026 21.4778 28.3128 20.3324C23.0756 19.6582 19.0617 22.7945 14.3453 24.5189C10.0172 26.1022 4.7216 28.9196 3.11792 33.7978Z" fill="#FF5A5F"/>
<path opacity="0.1" d="M21.7744 106C28.1155 106 33.256 104.43 33.256 102.494C33.256 100.558 28.1155 98.9882 21.7744 98.9882C15.4334 98.9882 10.2929 100.558 10.2929 102.494C10.2929 104.43 15.4334 106 21.7744 106Z" fill="#FF5A5F"/>
<path opacity="0.1" d="M130.336 59.6978C147.271 59.6978 161 58.7823 161 57.6529C161 56.5236 147.271 55.608 130.336 55.608C113.4 55.608 99.6717 56.5236 99.6717 57.6529C99.6717 58.7823 113.4 59.6978 130.336 59.6978Z" fill="#FF5A5F"/>
<g opacity="0.5">
<path opacity="0.5" d="M111.797 10.851C112.222 10.851 112.63 11.0208 112.931 11.323C113.232 11.6253 113.401 12.0353 113.401 12.4627V57.2785H110.193V12.4611C110.194 12.034 110.363 11.6244 110.664 11.3225C110.964 11.0205 111.372 10.851 111.797 10.851Z" fill="#FF5A5F"/>
<path opacity="0.5" d="M146.985 10.851C147.41 10.851 147.818 11.0208 148.119 11.3231C148.42 11.6253 148.589 12.0353 148.589 12.4628V57.2785H145.374V12.4612C145.374 12.249 145.416 12.0389 145.497 11.843C145.578 11.6471 145.697 11.4693 145.847 11.3197C145.996 11.1701 146.174 11.0517 146.369 10.9712C146.565 10.8908 146.774 10.8499 146.985 10.851Z" fill="#FF5A5F"/>
<path opacity="0.5" d="M156.345 20.8691C157.231 20.8691 157.949 20.1474 157.949 19.2573C157.949 18.3671 157.231 17.6455 156.345 17.6455L102.439 17.6455C101.553 17.6455 100.835 18.3671 100.835 19.2573C100.835 20.1474 101.553 20.8691 102.439 20.8691L156.345 20.8691Z" fill="#FF5A5F"/>
<path opacity="0.5" d="M109.24 14.4648C109.24 13.7674 108.678 13.202 107.984 13.202C107.29 13.202 106.727 13.7674 106.727 14.4648V24.0466C106.727 24.7441 107.29 25.3094 107.984 25.3094C108.678 25.3094 109.24 24.7441 109.24 24.0466V14.4648Z" fill="#FF5A5F"/>
<path opacity="0.5" d="M106.727 15.5975C106.727 14.9001 106.165 14.3347 105.471 14.3347C104.777 14.3347 104.214 14.9001 104.214 15.5975V22.9155C104.214 23.613 104.777 24.1783 105.471 24.1783C106.165 24.1783 106.727 23.613 106.727 22.9155V15.5975Z" fill="#FF5A5F"/>
<path opacity="0.5" d="M149.542 24.0467C149.542 24.7441 150.105 25.3094 150.799 25.3094C151.493 25.3094 152.055 24.7441 152.055 24.0467V14.4648C152.055 13.7674 151.493 13.2021 150.799 13.2021C150.105 13.2021 149.542 13.7674 149.542 14.4648V24.0467Z" fill="#FF5A5F"/>
<path opacity="0.5" d="M152.055 22.9139C152.055 23.6113 152.618 24.1767 153.311 24.1767C154.005 24.1767 154.568 23.6113 154.568 22.9139V15.5959C154.568 14.8985 154.005 14.3331 153.311 14.3331C152.618 14.3331 152.055 14.8985 152.055 15.5959V22.9139Z" fill="#FF5A5F"/>
</g>
<g opacity="0.5">
<path opacity="0.5" d="M126.19 29.6085H132.747C133.458 29.6085 134.141 29.8927 134.644 30.3984C135.147 30.9042 135.43 31.5901 135.43 32.3054V43.6259H123.513V32.3054C123.513 31.5912 123.795 30.9062 124.297 30.4007C124.799 29.8951 125.479 29.6102 126.19 29.6085Z" fill="#FF5A5F"/>
<path opacity="0.5" d="M130.336 42.6091H128.592V48.4518H130.336V42.6091Z" fill="#FF5A5F"/>
<path opacity="0.5" d="M126.847 49.1815H125.103V55.0242H126.847V49.1815Z" fill="#FF5A5F"/>
<path opacity="0.5" d="M134.115 49.1815H132.37V55.0242H134.115V49.1815Z" fill="#FF5A5F"/>
<path opacity="0.5" d="M135.423 48.0123H123.506V49.6193H135.423V48.0123Z" fill="#FF5A5F"/>
</g>
<path opacity="0.1" d="M74.674 96.5054C110.792 96.5054 140.072 94.3477 140.072 91.6859C140.072 89.0242 110.792 86.8665 74.674 86.8665C38.5559 86.8665 9.27643 89.0242 9.27643 91.6859C9.27643 94.3477 38.5559 96.5054 74.674 96.5054Z" fill="#FF5A5F"/>
<path d="M91.6058 74.5227C91.6058 74.5227 96.1107 76.5675 98.2905 76.5675C98.2905 76.5675 100.616 77.1513 101.921 77.7367C103.226 78.3221 108.315 78.6124 108.315 78.6124C108.315 78.6124 114.274 80.8032 115 81.8264C115.726 82.8497 117.906 78.1777 117.906 78.1777L116.742 75.2572L94.8022 71.0215L91.6058 74.5227Z" fill="#FFB9B9"/>
<path opacity="0.05" d="M91.6058 74.5227C91.6058 74.5227 96.1107 76.5675 98.2905 76.5675C98.2905 76.5675 100.616 77.1513 101.921 77.7367C103.226 78.3221 108.315 78.6124 108.315 78.6124C108.315 78.6124 114.274 80.8032 115 81.8264C115.726 82.8497 117.906 78.1777 117.906 78.1777L116.742 75.2572L94.8022 71.0215L91.6058 74.5227Z" fill="black"/>
<path d="M113.841 80.9508C113.841 80.9508 116.602 84.5995 115.44 86.7935C114.278 88.9875 114.714 88.9843 115.44 89.1302C116.166 89.2762 120.235 90.1535 120.673 86.9394C121.11 83.7254 121.981 76.5691 121.981 76.5691L116.015 75.9838C116.015 75.9838 117.62 81.3886 113.841 80.9508Z" fill="#737A9D"/>
<path d="M79.5435 69.7032L92.0415 75.5459C92.0415 75.5459 95.9655 72.4778 95.6719 70.8723L81.1393 67.3664L79.5435 69.7032Z" fill="#4C4C78"/>
<path opacity="0.1" d="M79.5435 69.7032L92.0415 75.5459C92.0415 75.5459 95.9655 72.4778 95.6719 70.8723L81.1393 67.3664L79.5435 69.7032Z" fill="black"/>
<path d="M132.007 77.2989L130.694 80.5113L127.648 81.2379C126.794 80.5219 125.881 79.8808 124.919 79.3215C123.279 78.3697 121.121 77.4385 119.078 77.586C119.078 77.586 110.94 76.2709 110.504 75.6823C110.504 75.6823 105.272 74.5132 104.11 74.6591C103.55 74.7289 102.345 74.3244 101.25 73.8849C100.074 73.409 99.0229 72.9061 99.0229 72.9061L102.802 66.9175C103.242 67.1082 103.696 67.2672 104.159 67.3934C105.603 67.8186 108.203 68.3706 111.958 68.3706C118.062 68.3706 126.491 74.6512 126.491 74.6512C126.491 74.6512 126.574 74.6797 126.718 74.7226C127.349 74.9145 129.149 75.3666 129.979 74.6512C130.989 73.7929 132.007 77.2989 132.007 77.2989Z" fill="#FFB9B9"/>
<path opacity="0.1" d="M132.007 77.2989L130.694 80.5113L127.648 81.2379C126.794 80.522 125.881 79.8808 124.919 79.3216C129.351 79.6563 126.704 74.7385 126.704 74.7385H126.713C127.345 74.9304 129.144 75.3825 129.974 74.6671C130.989 73.793 132.007 77.2989 132.007 77.2989Z" fill="black"/>
<path d="M124.936 79.4453C124.936 79.4453 128.451 84.3996 126.972 87.1901C125.493 89.9805 126.047 89.979 126.972 90.1661C127.897 90.3533 133.079 91.4686 133.633 87.3773C134.059 84.2314 133.685 78.1936 133.49 75.5729C133.477 75.4074 133.432 75.2461 133.357 75.0984C133.282 74.9506 133.178 74.8193 133.052 74.7122C132.926 74.605 132.78 74.5241 132.623 74.4741C132.465 74.4242 132.3 74.4061 132.135 74.4211L126.994 74.8971C126.994 74.8971 129.747 80.0037 124.936 79.4453Z" fill="#737A9D"/>
<path d="M41.467 84.3092L41.6122 91.467L43.2111 92.6346H48.7341L49.7506 91.1751V84.3092L48.1516 82.8481H42.9207L41.467 84.3092Z" fill="#FF5A5F"/>
<path opacity="0.2" d="M42.3383 84.4551C42.3383 84.4551 43.3564 91.0276 42.3383 91.613L41.6122 91.467L41.467 84.4567L42.3383 84.4551Z" fill="white"/>
<path d="M54.2554 83.8713L55.4187 82.7021H60.9432L62.1065 83.8713C62.1065 83.8713 63.5603 88.107 62.397 90.8816L61.0853 92.1967H55.5608L54.2523 91.0276L54.2554 83.8713Z" fill="#FF5A5F"/>
<path opacity="0.1" d="M41.467 84.3092L41.6122 91.467L43.2111 92.6346H48.7341L49.7506 91.1751V84.3092L48.1516 82.8481H42.9207L41.467 84.3092Z" fill="black"/>
<path opacity="0.1" d="M54.2554 83.8713L55.4187 82.7021H60.9432L62.1065 83.8713C62.1065 83.8713 63.5603 88.107 62.397 90.8816L61.0853 92.1967H55.5608L54.2523 91.0276L54.2554 83.8713Z" fill="black"/>
<path opacity="0.2" d="M55.5608 84.1632C55.5608 84.1632 56.7241 89.2762 55.5608 91.0276H54.2523V83.8713L55.5608 84.1632Z" fill="white"/>
<path d="M49.7506 59.6248C49.7506 59.6248 50.3314 65.3216 50.3314 66.0513C50.3314 66.7811 50.041 71.6037 50.9123 76.2757C51.7836 80.9476 50.3314 86.7903 50.3314 86.7903H55.1267L57.1613 71.0152L55.7076 62.6897L55.1267 60.0611L49.7506 59.6248Z" fill="#FFB9B9"/>
<path opacity="0.05" d="M49.7506 59.6248C49.7506 59.6248 50.3314 65.3216 50.3314 66.0513C50.3314 66.7811 50.041 71.6037 50.9123 76.2757C51.7836 80.9476 50.3314 86.7903 50.3314 86.7903H55.1267L57.1613 71.0152L55.7076 62.6897L55.1267 60.0611L49.7506 59.6248Z" fill="black"/>
<path d="M48.8793 45.1648C48.8793 45.1648 42.4851 45.3107 47.5708 55.9729C47.5708 55.9729 48.8793 60.3545 48.8793 61.0859C48.8793 61.8172 55.4187 61.8156 56.1401 61.0859C56.8614 60.3561 54.9768 54.3675 54.9768 51.5913C54.9768 48.8151 53.0937 44.2891 48.8793 45.1648Z" fill="#CBCDDA"/>
<path opacity="0.05" d="M48.8793 45.1648C48.8793 45.1648 42.4851 45.3107 47.5708 55.9729C47.5708 55.9729 48.8793 60.3545 48.8793 61.0859C48.8793 61.8172 55.4187 61.8156 56.1401 61.0859C56.8614 60.3561 54.9768 54.3675 54.9768 51.5913C54.9768 48.8151 53.0937 44.2891 48.8793 45.1648Z" fill="black"/>
<path d="M41.1765 38.881C41.1765 38.881 46.701 44.8697 51.3495 40.4881L50.7687 55.9713C50.7687 55.9713 43.2111 46.7702 37.9834 47.4999L41.1765 38.881Z" fill="#FFB9B9"/>
<path opacity="0.1" d="M104.153 67.4109C103.932 69.1226 103.237 72.7269 101.244 73.8945C100.068 73.4186 99.0165 72.9157 99.0165 72.9157L102.795 66.927C103.236 67.1204 103.689 67.2821 104.153 67.4109Z" fill="black"/>
<path d="M103.813 66.4844C103.813 66.4844 103.378 73.6422 99.8895 74.226L78.8206 70.406C77.798 70.2192 76.8366 69.7835 76.0204 69.1369C75.1696 68.4642 74.1263 67.5505 73.5091 66.7128C73.1745 66.256 72.9725 65.8197 73.0056 65.4596C73.1508 63.8526 79.5451 60.0547 77.3652 53.3363C77.6752 53.0897 78.0199 52.8908 78.3881 52.7462C80.208 51.9863 84.3972 51.4279 90.4441 57.718C90.4441 57.7259 101.634 66.7826 103.813 66.4844Z" fill="#4C4C78"/>
<path d="M46.8447 84.893L46.9899 92.0508L48.5873 93.22H54.1102L55.1283 91.7589V84.893L53.5293 83.4335H48.2968L46.8447 84.893Z" fill="#FF5A5F"/>
<path opacity="0.2" d="M47.716 85.0453C47.716 85.0453 48.7341 91.6177 47.716 92.2031L46.9899 92.0572L46.8447 85.0453H47.716Z" fill="white"/>
<path d="M62.831 84.3092L63.9943 83.14H69.5188L70.6821 84.3092C70.6821 84.3092 72.1359 88.5449 70.9726 91.3195L69.6641 92.6346H64.1395L62.831 91.4654V84.3092Z" fill="#FF5A5F"/>
<path opacity="0.2" d="M64.138 84.6011C64.138 84.6011 65.3013 89.7141 64.138 91.4654H62.8295V84.3092L64.138 84.6011Z" fill="white"/>
<path d="M55.0873 87.0854H62.9494C63.565 87.0854 64.0638 87.6406 64.0638 88.3275C64.0638 89.0129 63.565 89.5697 62.9494 89.5697H55.0873C54.4196 89.5697 53.9019 88.9209 53.9824 88.1832C54.0471 87.5566 54.5238 87.0854 55.0873 87.0854Z" fill="#FF5A5F"/>
<path opacity="0.1" d="M77.7993 64.2983C76.2446 65.393 74.6061 66.11 73.5075 66.7208C73.1729 66.2639 72.9709 65.8276 73.004 65.4675C73.1492 63.8605 79.5435 60.0627 77.3637 53.3442C77.6736 53.0976 78.0183 52.8987 78.3865 52.7541C78.728 52.7469 79.0675 52.7 79.3983 52.6145C79.3983 52.6145 80.7052 62.2535 77.7993 64.2983Z" fill="black"/>
<path d="M45.1731 50.2032C45.1731 50.2032 47.3529 52.394 49.4601 53.7821C51.4048 55.0623 47.9338 42.1697 47.9338 42.1697C47.9338 42.1697 50.0868 40.4246 51.3511 39.3887C52.1955 38.6905 53.2713 38.3392 54.3627 38.4051C57.2718 38.5939 62.6006 39.8234 66.9002 45.7502C73.1492 54.3675 78.8174 52.6145 78.8174 52.6145C78.8174 52.6145 80.1259 62.2551 77.2184 64.2999C74.311 66.3448 71.1146 67.0745 71.6939 68.2437C72.2732 69.4129 69.0785 62.547 61.8114 61.3794C54.5443 60.2118 46.5511 55.0988 46.6979 52.6161C46.6995 52.6145 44.5923 50.9377 45.1731 50.2032Z" fill="#CBCDDA"/>
<path opacity="0.1" d="M43.6468 42.6884C43.6461 42.2661 43.6091 41.8447 43.5363 41.4288C41.6327 40.4769 41.9026 39.1824 41.9026 39.1824L38.7047 47.7998C39.8743 47.6411 41.1608 47.9711 42.4519 48.593C44.1519 47.2429 43.6468 45.0188 43.6468 42.6884Z" fill="black"/>
<path d="M37.2526 49.8399C41.2661 49.8399 44.5197 46.5699 44.5197 42.5361C44.5197 38.5024 41.2661 35.2324 37.2526 35.2324C33.2391 35.2324 29.9855 38.5024 29.9855 42.5361C29.9855 46.5699 33.2391 49.8399 37.2526 49.8399Z" fill="#FFB9B9"/>
<path opacity="0.1" d="M30.65 44.1828C30.5158 44.6159 30.309 45.0617 29.9192 45.2933C29.4456 45.5757 28.7922 45.436 28.3707 45.0712C27.9493 44.7063 27.722 44.1606 27.6036 43.6149C27.4331 42.8247 27.4602 42.0044 27.6825 41.2273C27.8719 40.569 28.1987 39.9582 28.336 39.284C28.4828 38.5669 28.4086 37.8166 28.5728 37.1027C28.7953 36.135 29.4299 35.3243 30.0486 34.5486C30.2425 34.2525 30.4938 33.9987 30.7875 33.8025C31.0813 33.6062 31.4113 33.4715 31.758 33.4064L34.7997 32.4847C35.3763 32.2906 35.969 32.1483 36.5707 32.0595C37.3442 31.9799 38.1257 32.0488 38.8736 32.2626C39.4692 32.4132 40.0343 32.6665 40.5436 33.0114C41.0482 33.3882 41.4927 33.8402 41.8616 34.3519C43.47 36.465 44.3871 39.9217 46.046 42.0015C45.391 42.2046 44.7359 41.5256 44.0809 41.7318C43.9878 41.7722 43.884 41.7805 43.7857 41.7556C43.6883 41.7024 43.612 41.6173 43.5694 41.5145C42.9922 40.501 42.0837 39.7196 40.9982 39.303C40.1932 38.9969 39.1041 38.9984 38.6637 39.7409C38.3654 40.2422 38.4853 40.8752 38.5642 41.4542C38.6432 42.0332 38.629 42.7233 38.1728 43.0802C37.9207 43.2515 37.6273 43.3512 37.3236 43.369C35.9078 43.5555 34.4684 43.4138 33.1155 42.9549C32.642 42.7963 32.1605 42.2997 31.6602 42.4584C30.9846 42.6725 30.8283 43.6069 30.65 44.1828Z" fill="black"/>
<path d="M30.4906 44.0226C30.3564 44.4557 30.1496 44.9014 29.7597 45.1331C29.2862 45.4154 28.6327 45.2758 28.2113 44.911C27.7899 44.5461 27.5626 44.0004 27.4442 43.4546C27.2737 42.6645 27.3008 41.8442 27.5231 41.0671C27.7125 40.4088 28.0393 39.798 28.1766 39.1238C28.3234 38.4067 28.2492 37.6564 28.4133 36.9425C28.6359 35.9748 29.2704 35.1641 29.8892 34.3884C30.0831 34.0923 30.3344 33.8385 30.6281 33.6422C30.9218 33.446 31.2519 33.3113 31.5986 33.2462L34.6403 32.3245C35.217 32.1309 35.8096 31.9892 36.4113 31.9009C37.1848 31.8213 37.9663 31.8902 38.7142 32.104C39.3098 32.2545 39.8748 32.5079 40.3842 32.8527C40.8888 33.2296 41.3333 33.6816 41.7022 34.1932C43.3106 36.3063 44.2276 39.7631 45.8866 41.8429C45.2315 42.0459 44.5765 41.3669 43.9214 41.5732C43.8283 41.6135 43.7246 41.6219 43.6263 41.597C43.5277 41.5444 43.4502 41.4592 43.4069 41.3558C42.8296 40.3424 41.9211 39.561 40.8356 39.1444C40.0306 38.8382 38.9415 38.8398 38.5011 39.5822C38.2028 40.0835 38.3227 40.7165 38.4017 41.2956C38.4806 41.8746 38.4664 42.5647 38.0102 42.9216C37.7581 43.0928 37.4648 43.1926 37.161 43.2103C35.7453 43.3968 34.3058 43.2552 32.9529 42.7963C32.4794 42.6376 31.998 42.1411 31.4976 42.2997C30.8252 42.5123 30.6689 43.4467 30.4906 44.0226Z" fill="#B96B6B"/>
<g opacity="0.1">
<path opacity="0.1" d="M48.4263 41.7715L47.9338 42.1713C47.9338 42.1713 49.9684 49.7273 50.0489 52.6954C51.0875 52.413 49.0892 44.3288 48.4263 41.7715Z" fill="black"/>
<path opacity="0.1" d="M77.501 63.1308C74.5951 65.1756 71.3972 65.9054 71.9765 67.0745C72.5557 68.2437 69.361 61.3778 62.0939 60.2102C55.2767 59.114 47.8202 54.5468 47.0436 51.9355C45.9544 50.9996 45.1621 50.2048 45.1621 50.2048C44.5812 50.9345 46.6884 52.6145 46.6884 52.6145C46.5432 55.0972 54.5364 60.2102 61.8019 61.3778C69.0674 62.5454 72.2653 69.4113 71.6845 68.2421C71.1036 67.073 74.2999 66.3385 77.209 64.2983C78.0408 63.713 78.527 62.5057 78.7984 61.0795C78.5175 61.9822 78.1008 62.7135 77.501 63.1308Z" fill="black"/>
</g>
<path d="M62.8311 77.1529C62.3954 77.7367 62.105 83.7254 62.105 83.7254C62.105 83.7254 63.8413 92.3427 58.4746 91.467C53.1079 90.5913 57.7485 84.4567 57.7485 84.4567L57.0224 75.9853C54.2618 68.6879 54.8426 63.4242 54.8426 63.4242L54.3265 58.6539L54.115 56.7058L60.364 55.2448C60.1935 55.4732 60.2661 56.8978 60.4192 58.5524C60.6576 61.1446 61.09 64.2999 61.09 64.2999C62.3938 65.7594 63.2667 76.5675 62.8311 77.1529Z" fill="#FFB9B9"/>
<path opacity="0.1" d="M53.965 42.0983C53.965 42.0983 47.5707 42.2442 52.6565 52.9064C52.6565 52.9064 53.965 57.288 53.965 58.0194C53.965 58.7507 60.5044 58.7491 61.2258 58.0194C61.9471 57.2896 60.0625 51.301 60.0625 48.5248C60.0625 45.7486 58.1794 41.221 53.965 42.0983Z" fill="black"/>
<path opacity="0.1" d="M60.4145 58.5524C59.057 58.9252 55.7297 58.9585 54.3202 58.6539L54.1086 56.7058L60.3577 55.2448C60.1903 55.4716 60.2629 56.8962 60.4145 58.5524Z" fill="black"/>
<path d="M53.6745 42.0983C53.6745 42.0983 47.2803 42.2442 52.366 52.9064C52.366 52.9064 53.6745 57.288 53.6745 58.0194C53.6745 58.7507 60.214 58.7491 60.9353 58.0194C61.6567 57.2896 59.772 51.301 59.772 48.5248C59.772 45.7486 57.8889 41.221 53.6745 42.0983Z" fill="#CBCDDA"/>
<g opacity="0.5">
<path opacity="0.5" d="M11.8445 64.9639L7.21659 65.0591L6.4621 66.1029V69.7104L7.406 70.3751H11.8445L12.79 69.3312V65.9141L11.8445 64.9639Z" fill="#FF5A5F"/>
<path opacity="0.2" d="M11.7514 65.5326C11.7514 65.5326 7.50072 66.1972 7.12347 65.5326L7.21818 65.0567L11.7514 64.9615V65.5326Z" fill="white"/>
<path opacity="0.5" d="M12.2234 75.4047L12.9794 76.1646V79.7721L12.2234 80.5319C12.2234 80.5319 9.48478 81.4838 7.6901 80.7223L6.83932 79.8672V76.2598L7.59539 75.4047H12.2234Z" fill="#FF5A5F"/>
<path opacity="0.2" d="M12.0339 76.2598C12.0339 76.2598 8.72871 77.0197 7.5954 76.2598V75.4047H12.2234L12.0339 76.2598Z" fill="white"/>
<path opacity="0.5" d="M10.4287 70.3489V75.484C10.4177 75.6875 10.327 75.8783 10.1764 76.0147C10.0259 76.1511 9.82773 76.2222 9.62526 76.2122C9.42279 76.2222 9.22463 76.1511 9.07409 76.0147C8.92355 75.8783 8.83286 75.6875 8.82184 75.484V70.3489C8.82184 69.9126 9.2417 69.5747 9.71839 69.6255C9.90476 69.6366 10.0804 69.7167 10.2116 69.8503C10.3427 69.9838 10.42 70.1614 10.4287 70.3489Z" fill="#FF5A5F"/>
<path opacity="0.5" d="M19.2569 65.109L14.6289 65.2042L13.8728 66.248V69.8555L14.8183 70.5202H19.2569L20.2008 69.4764V66.0593L19.2569 65.109Z" fill="#FF5A5F"/>
<path opacity="0.2" d="M19.1621 65.6801C19.1621 65.6801 14.9114 66.3448 14.5342 65.6801L14.6289 65.2042L19.1621 65.109V65.6801Z" fill="white"/>
<path opacity="0.5" d="M19.6341 75.5522L20.3902 76.3121V79.9196L19.6341 80.6795C19.6341 80.6795 16.8955 81.6313 15.1008 80.8698L14.2501 80.0148V76.4057L15.0061 75.5507L19.6341 75.5522Z" fill="#FF5A5F"/>
<path opacity="0.2" d="M19.4463 76.4057C19.4463 76.4057 16.141 77.1656 15.0077 76.4057V75.5507H19.6357L19.4463 76.4057Z" fill="white"/>
<path opacity="0.5" d="M17.8363 70.4948V75.63C17.8253 75.8334 17.7346 76.0242 17.584 76.1606C17.4335 76.2971 17.2353 76.3681 17.0329 76.3581C16.8304 76.3681 16.6322 76.2971 16.4817 76.1606C16.3311 76.0242 16.2405 75.8334 16.2294 75.63V70.4948C16.2294 70.0586 16.6493 69.7206 17.126 69.7714C17.3124 69.7826 17.488 69.8626 17.6192 69.9962C17.7503 70.1298 17.8276 70.3074 17.8363 70.4948Z" fill="#FF5A5F"/>
<path opacity="0.5" d="M28.6927 67.8566L24.8824 67.9344L24.2605 68.7942V71.764L25.0387 72.3097H28.6927L29.4693 71.4498V68.6371L28.6927 67.8566Z" fill="#FF5A5F"/>
<path opacity="0.2" d="M28.6138 68.3246C28.6138 68.3246 25.1144 68.8719 24.8035 68.3246L24.8808 67.9344L28.6122 67.8566L28.6138 68.3246Z" fill="white"/>
<path opacity="0.5" d="M29.0037 76.4517L29.6256 77.0768V80.0465L29.0037 80.6716C29.0037 80.6716 26.7497 81.4537 25.2723 80.8302L24.5714 80.1274V77.1545L25.1933 76.4517H29.0037Z" fill="#FF5A5F"/>
<path opacity="0.2" d="M28.8474 77.1545C28.8474 77.1545 26.1262 77.7796 25.1934 77.1545V76.4517H29.0037L28.8474 77.1545Z" fill="white"/>
<path opacity="0.5" d="M27.5263 72.2891V76.5168C27.5165 76.6838 27.4415 76.8401 27.3177 76.9518C27.1938 77.0635 27.0311 77.1215 26.8649 77.1133C26.6982 77.1215 26.535 77.063 26.4111 76.9507C26.2871 76.8383 26.2125 76.6812 26.2036 76.5136V72.2891C26.209 72.1997 26.2331 72.1124 26.2741 72.0328C26.3152 71.9533 26.3723 71.8833 26.4419 71.8273C26.5114 71.7712 26.5919 71.7305 26.6781 71.7075C26.7642 71.6846 26.8542 71.6801 26.9423 71.6942C27.0955 71.7034 27.2399 71.7693 27.3477 71.8791C27.4556 71.9889 27.5191 72.135 27.5263 72.2891Z" fill="#FF5A5F"/>
<path opacity="0.5" d="M34.7934 67.9756L30.983 68.0549L30.3611 68.9132V71.8829L31.1393 72.4302H34.7934L35.5715 71.5704V68.7577L34.7934 67.9756Z" fill="#FF5A5F"/>
<path opacity="0.2" d="M34.716 68.4452C34.716 68.4452 31.2167 68.9925 30.9057 68.4452L30.983 68.0549L34.7145 67.9772L34.716 68.4452Z" fill="white"/>
<path opacity="0.5" d="M35.1043 76.5723L35.7262 77.1974V80.1671L35.1043 80.7922C35.1043 80.7922 32.8503 81.5743 31.3729 80.9508L30.6737 80.248V77.2719L31.2956 76.5692L35.1043 76.5723Z" fill="#FF5A5F"/>
<path opacity="0.2" d="M34.9496 77.2719C34.9496 77.2719 32.2284 77.897 31.2956 77.2719V76.5692H35.1043L34.9496 77.2719Z" fill="white"/>
<path opacity="0.5" d="M33.6206 72.4096V76.6373C33.6116 76.8049 33.537 76.962 33.413 77.0744C33.2891 77.1867 33.1259 77.2452 32.9592 77.237C32.7925 77.2452 32.6293 77.1867 32.5054 77.0744C32.3814 76.962 32.3068 76.8049 32.2979 76.6373V72.4096C32.3033 72.3201 32.3274 72.2329 32.3684 72.1533C32.4095 72.0738 32.4666 72.0038 32.5362 71.9478C32.6057 71.8917 32.6862 71.8509 32.7724 71.828C32.8585 71.8051 32.9485 71.8005 33.0366 71.8147C33.1898 71.8239 33.3342 71.8898 33.442 71.9996C33.5499 72.1094 33.6134 72.2554 33.6206 72.4096Z" fill="#FF5A5F"/>
</g>
<g opacity="0.8">
<path opacity="0.8" d="M18.4961 93.4532C18.4961 93.4532 16.2594 92.6917 15.1814 94.6731C14.8973 95.2101 14.7528 95.8105 14.761 96.4187C14.7693 97.0268 14.9302 97.623 15.2287 98.1521C15.9359 99.4371 17.3927 101.104 20.1534 100.957C22.4958 100.832 23.274 99.0341 23.4855 97.3636C23.5664 96.7371 23.4859 96.1001 23.2518 95.5137C23.0176 94.9273 22.6377 94.4111 22.1482 94.0146C21.6588 93.618 21.0763 93.3544 20.4565 93.2489C19.8366 93.1433 19.2002 93.1995 18.6081 93.4119L18.4961 93.4532Z" fill="#FF5A5F"/>
<path opacity="0.1" d="M15.7038 98.3281C15.4053 97.7991 15.2444 97.2029 15.2362 96.5947C15.2279 95.9866 15.3724 95.3862 15.6565 94.8491C16.733 92.8677 18.9712 93.6292 18.9712 93.6292L19.0864 93.5879C19.9391 93.2778 20.8763 93.2987 21.7145 93.6466C21.2515 93.3691 20.7329 93.1983 20.1963 93.1467C19.6596 93.0952 19.1182 93.164 18.6113 93.3484L18.4961 93.3896C18.4961 93.3896 16.2594 92.6282 15.1814 94.6096C14.8973 95.1466 14.7528 95.747 14.761 96.3552C14.7693 96.9633 14.9302 97.5595 15.2287 98.0886C15.7022 98.9341 16.4915 99.9447 17.7542 100.495C16.8871 99.974 16.1781 99.2247 15.7038 98.3281Z" fill="white"/>
<path opacity="0.2" d="M17.3407 94.405C17.3407 94.405 18.1693 95.0601 20.1818 94.405H17.3407Z" fill="black"/>
<path opacity="0.8" d="M17.1639 89.6458C17.1639 89.6458 18.5845 93.5166 18.4677 94.5287L19.5931 94.4097C19.5931 94.4097 17.699 91.0164 18.1725 89.6505L17.1639 89.6458Z" fill="#FF5A5F"/>
<path opacity="0.2" d="M17.1639 89.6458C17.1639 89.6458 18.5845 93.5166 18.4677 94.5287L19.5931 94.4097C19.5931 94.4097 17.699 91.0164 18.1725 89.6505L17.1639 89.6458Z" fill="black"/>
<path opacity="0.8" d="M22.9662 89.9631C22.9662 89.9631 20.728 88.8129 19.7272 89.7632C18.7265 90.7134 18.5718 93.1422 18.5718 93.1422C18.5718 93.1422 22.2212 93.6483 22.9662 89.9631Z" fill="#FF5A5F"/>
<path opacity="0.1" d="M22.9662 89.9631C22.9662 89.9631 20.728 88.8129 19.7272 89.7632C18.7265 90.7134 18.5718 93.1422 18.5718 93.1422C18.5718 93.1422 22.2212 93.6483 22.9662 89.9631Z" fill="white"/>
<path opacity="0.8" d="M18.5718 93.1359C18.5718 93.1359 19.159 90.3168 22.9662 89.9631" stroke="#FF5A5F" stroke-miterlimit="10"/>
</g>
<path d="M27.9382 96.9576C27.9382 96.9576 25.7016 96.1961 24.6235 98.1775C24.3395 98.7145 24.1949 99.315 24.2032 99.9231C24.2115 100.531 24.3724 101.127 24.6709 101.656C25.378 102.941 26.8349 104.609 29.5956 104.461C31.938 104.336 32.7162 102.539 32.9277 100.868C33.0086 100.241 32.9281 99.6045 32.694 99.0181C32.4598 98.4317 32.0798 97.9155 31.5904 97.519C31.101 97.1224 30.5185 96.8588 29.8986 96.7533C29.2788 96.6477 28.6424 96.7039 28.0503 96.9163L27.9382 96.9576Z" fill="#FF5A5F"/>
<path opacity="0.1" d="M25.1507 101.834C24.8522 101.305 24.6913 100.709 24.6831 100.101C24.6748 99.4926 24.8193 98.8922 25.1034 98.3551C26.1799 96.3737 28.4181 97.1352 28.4181 97.1352L28.5333 97.0939C29.386 96.7838 30.3232 96.8047 31.1614 97.1526C30.6984 96.8751 30.1798 96.7043 29.6432 96.6527C29.1065 96.6011 28.5652 96.67 28.0582 96.8544L27.943 96.8956C27.943 96.8956 25.7063 96.1342 24.6283 98.1156C24.3442 98.6526 24.1997 99.253 24.2079 99.8612C24.2162 100.469 24.3771 101.066 24.6756 101.595C25.1492 102.44 25.9384 103.451 27.2011 104.001C26.334 103.48 25.625 102.731 25.1507 101.834Z" fill="white"/>
<path opacity="0.2" d="M26.7876 97.9094C26.7876 97.9094 27.6162 98.5645 29.6287 97.9094H26.7876Z" fill="black"/>
<path d="M26.6092 93.147C26.6092 93.147 28.0298 97.0178 27.913 98.0299L29.0384 97.9109C29.0384 97.9109 27.1443 94.5176 27.6178 93.1517L26.6092 93.147Z" fill="#FF5A5F"/>
<path opacity="0.2" d="M26.6092 93.147C26.6092 93.147 28.0298 97.0178 27.913 98.0299L29.0384 97.9109C29.0384 97.9109 27.1443 94.5176 27.6178 93.1517L26.6092 93.147Z" fill="black"/>
<path d="M32.4131 93.469C32.4131 93.469 30.1749 92.3189 29.1741 93.2692C28.1734 94.2194 28.0187 96.6482 28.0187 96.6482C28.0187 96.6482 31.6681 97.1526 32.4131 93.469Z" fill="#FF5A5F"/>
<path opacity="0.1" d="M32.4131 93.469C32.4131 93.469 30.1749 92.3189 29.1741 93.2692C28.1734 94.2194 28.0187 96.6482 28.0187 96.6482C28.0187 96.6482 31.6681 97.1526 32.4131 93.469Z" fill="white"/>
<path d="M28.0187 96.6482C28.0187 96.6482 28.6059 93.8292 32.4131 93.4754" stroke="#FF5A5F" stroke-miterlimit="10"/>
<path d="M9.94411 87.7691C9.94411 87.7691 10.1635 87.5232 9.75154 87.4249V87.0203H9.99936C9.99916 86.5313 9.83195 86.0572 9.52569 85.6772C9.21943 85.2972 8.79267 85.0343 8.31675 84.9326V84.4424H8.38146V83.8079H6.78725V84.4424H6.83302V84.939C6.36341 85.0461 5.94395 85.3104 5.6434 85.6886C5.34285 86.0668 5.17904 86.5363 5.17883 87.0203H5.39981V87.409C5.39981 87.409 4.87577 87.6581 5.39981 88.1022C5.92385 88.5464 5.84177 88.878 5.84177 88.878C5.84177 88.878 5.62079 89.7093 5.18041 89.8203V97.554C5.18041 98.0097 5.36051 98.4467 5.68109 98.7689C6.00167 99.0911 6.43647 99.2721 6.88985 99.2721H8.24098C8.69299 99.2704 9.12593 99.0889 9.4451 98.7672C9.76428 98.4455 9.9437 98.0099 9.94411 97.5556V89.8203C9.94411 89.8203 9.17226 89.2381 9.31274 88.878C9.49595 88.4933 9.70697 88.1227 9.94411 87.7691Z" fill="#FF5A5F"/>
</g>
<defs>
<clipPath id="clip0">
<rect width="161" height="106" fill="white"/>
</clipPath>
</defs>
</svg>
